<?xml version="1.0" encoding="utf-8"?>
<!-- Generator: Adobe Illustrator 21.0.0, SVG Export Plug-In . SVG Version: 6.00 Build 0)  -->
<svg version="1.1" id="Layer_1" xmlns="http://www.w3.org/2000/svg" xmlns:xlink="http://www.w3.org/1999/xlink" x="0px" y="0px"
	 viewBox="0 0 600.139 583.924" style="enable-background:new 0 0 600.139 583.924;" xml:space="preserve">
<style type="text/css">
	.st0{fill:#FEFEFE;}
	.st1{fill:#5296D0;}
</style>
<path d="M296.707,3.876c2.96-0.7,5.6-2.31,8.54-3.1c3.54-0.97,7.24-0.72,10.87-0.64c0.28,0.58,0.82,1.75,1.1,2.34
	c5.26-0.68,10.6-1.08,15.89-0.48c13.05,1.28,25.24,6.4,37.77,9.87c4.9,1.35,9.71,3.06,14.21,5.43c-2.87,5.13-6.28,9.93-9.29,14.98
	c3.47,0.19,7,0.24,10.38,1.16c1.01,0.53,2.97,0.47,3.03,1.95c-1.33,3.15-3.92,5.55-6.41,7.8c-0.37,0.36-1.13,1.09-1.51,1.45
	c1.14,0.37,3.32,0.58,3.44-1.11c7.93,0.3,15.28,4.74,19.53,11.38c-2.77,1.23-5.6,2.32-8.43,3.4c8.32,2.19,16.79,3.82,25.08,6.15
	c41.65,11.15,81.88,27.94,118.73,50.39c5.07,3.25,10.29,6.33,15.08,9.99c1.52,1.02,1.61,2.96,1.78,4.6
	c0.86,12.65,1.16,25.34,0.9,38.02c-0.94,44.15-6.36,88.29-17.36,131.09c-4.08,16.65-9.61,32.88-14.81,49.19
	c3.58,0.51,7.21,0.47,10.83,0.41c21.33,0.01,42.65-0.19,63.98,0.02c-13.21,15.18-26.81,30.03-40.16,45.08
	c-2.65,2.7-2.39,6.66-2.62,10.14c-0.51,9.01-1.38,18.04-0.73,27.07c0.75,18.68,0.03,37.38,0.44,56.07c0.19,2.4-0.67,4.77-2.56,6.31
	c-7.65,7.02-15.29,14.05-22.82,21.2c-1.68,1.8-4.09,2.77-6.53,2.1c-17.32-2.9-34.63-5.87-52.08-7.88c-1.71-0.31-3.76-0.28-4.88-1.85
	c-3.77-4.3-7.28-8.83-11-13.18c-3,3.5-7.21,6.28-12.04,5.64c-4.97,0.17-11.21-3.01-15.05,1.52
	c-33.41,34.02-73.23,61.53-116.27,81.92c-3.92,2.11-8.63,2.09-12.55-0.03c-43.01-20.37-82.78-47.85-116.22-81.77
	c-1.6-1.46-2.78-3.61-4.87-4.38c-4.09-0.15-8.14,0.63-12.18,1.23c0.02,1.59,0.13,3.2-0.02,4.81c-0.54,1.32-2.2,1.28-3.37,1.58
	c-19.5,2.27-39.05,4.25-58.48,7.17c-20.23,2.93-40.33,6.65-60.47,10.13c-0.24-5.28-0.18-10.56,0.01-15.84
	c0.69-31.56,0.82-63.14,1.69-94.71c0-4.22,0.9-8.97-1.71-12.66c-2.48-3.42-5.67-6.22-8.5-9.34c-12.38-13.15-24.87-26.21-37.02-39.57
	v-0.68c27-0.24,54.01-0.13,81.01-0.06c2.78-0.13,5.79,0.49,8.39-0.71c-0.01-1.59-0.56-3.09-1.04-4.57
	c-12.25-33.72-20.28-68.88-25.3-104.37c-5.07-36.42-6.77-73.34-4.64-110.06c-0.07-2.05,1.39-3.57,2.99-4.6
	c18.44-12.58,38.08-23.35,58.36-32.65c29.41-13.45,60.16-24.11,91.78-31c3.28-0.78,6.71-1.13,9.83-2.49
	c2.28-2.45,2.95-6.17,5.77-8.19c2.56-1.51,4.68,1.37,6.55,2.73c1.67-7.01,6.96-12.45,13.01-16.02c0.6,0.57,1.82,1.7,2.43,2.26
	c0.67-4.72,1.17-9.74,4.23-13.63c2.81-4.25,7.57-6.54,12.41-7.61c3.2-0.67,5.36-3.23,7.53-5.45c3.41-3.59,7.76-6.44,12.65-7.45
	C289.527,3.626,293.167,4.436,296.707,3.876 M295.597,11.936c-0.68,1.62-2.26,5.17,0.63,5.42c8.72,0.61,15.68-6.83,17.33-14.91
	C306.567,2.386,298.417,4.886,295.597,11.936 M315.357,10.626c7.21,3.78,17.2,2.67,21.93-4.44c-0.2-1.88-2.34-1.95-3.74-2.44
	C326.737,1.946,319.607,5.296,315.357,10.626 M271.377,23.376c5.19-4.84,10.58-9.65,17.1-12.62c1.75-0.55,2.34-2.35,2-4.05
	C281.407,7.366,272.407,13.886,271.377,23.376 M330.137,15.836c5.62,7.5,16.86,10.54,25.15,5.75
	C349.437,14.146,338.667,12.166,330.137,15.836 M268.087,39.456c-1.36,9.64-0.23,19.41,0.33,29.07c0.12,1.71-0.8,3.26-1.12,4.91
	c-0.58-0.25-1.75-0.75-2.33-1c0.23-4.11,0.2-8.22-0.38-12.3c-3.47,1.06-7.1,2.46-9.4,5.42c-1.15,1.73-3.33,4.16-0.89,5.82
	c-8.54,6.87-15.83,15.19-22.86,23.56c-22.64,27.45-37.15,61.32-42.02,96.53c-6.21,41.89,0.41,85.14,16.48,124.15
	c0.88,2.29,3.16,3.38,5.42,3.85c10.33,3.79,21,6.6,31.76,8.91c36.76,7.62,74.61,8.83,112,6.35c21.74-1.47,43.47-3.96,64.83-8.35
	l-0.99-1.18l0.8,0.32c1.44-4.21,1.78-8.77,0.61-13.09c-3.51-14.79-13.47-26.81-23.37-37.88c-13.2-14.55-28.36-27.11-43.36-39.73
	c-12.01-10.18-21.38-23.85-24.95-39.3c-0.53-2.09-0.4-4.41-1.63-6.27c-2.17,0.16-4.46-0.15-6.52,0.67c-2.02,1.2-2.47,3.73-3.17,5.78
	c-2.5,8.08-1.19,16.83,1.99,24.52c6.53,15.8,17.28,29.61,29.99,40.94c6.12,5.58,13.24,10.06,18.56,16.5
	c10.16,12.01,16.2,26.98,19.87,42.14c0.22,1.62,1.72,2.7,3.34,2.09c1.96-0.52,5.56,0.28,5.79-2.6c0.29-16.02-7-31.3-17.47-43.1
	c-10.03-11.65-22.92-20.44-32.73-32.29c-7.81-9.48-14.87-19.99-17.95-32.02c-1.21-3.04-1.59-6.27-1.39-9.52
	c0.37,1.66,0.62,3.35,1.01,5.01c6.04,19.25,19.8,35.16,35.98,46.8c9.31,6.5,18.29,13.61,25.8,22.19
	c11.5,13.15,21.16,29.36,21.19,47.35c-41.14,6.54-83.25,9.58-124.66,3.64c2.44-0.11,4.88-0.31,7.33-0.46c2.42,1.19,5.37,0.29,8,0.7
	c2.13,0.16,5.7,0.8,5.98-2.27c1.32-14.61-0.43-29.26-1.94-43.78c0.28-0.43,0.84-1.29,1.13-1.72c0.3,1.51,0.7,3.01,1.43,4.37
	c6.12,11.77,12.2,23.55,18.16,35.39c1.49-4.18,1.75-8.69,1.51-13.09c-1.15-20.31-4.63-40.75-12.76-59.5
	c-8.08-18.18-20.73-33.72-32.58-49.52c-2.56-3.34-4.7-7.05-7.85-9.89c-10.19,13.49-13.29,31.46-10.35,47.92
	c3.33,18.13,10.66,35.4,20.49,50.94c1.55,2.35,3.45,4.47,4.55,7.09c-1.66-1.25-2.83-2.98-4.1-4.59
	c-18.9-24.44-31.84-54.31-32.55-85.5c-0.61-29.29,7.42-58.76,22.8-83.7l0.6,1.54c-0.57,7.79-0.99,15.69,0.45,23.44
	c1.62,8.61,3.11,17.93,9.11,24.74c7.55,8.09,17.78,14.13,28.95,15.12c6.92,0.69,14.49,0.29,20.39-3.81
	c4.09-2.75,6.6-7.17,8.43-11.62c0.3-0.23,0.91-0.67,1.21-0.9c0.02,1.26,0.04,2.53,0.05,3.79c-1.13,2.26-2.16,4.57-2.93,6.98
	c15.02,7.61,27.59,19.12,38.75,31.56c2.4,2.53,4.75,5.55,8.27,6.52c2.78,0.76,5.42-0.71,7.81-1.94c-3.32-3.72-8.34-5.33-11.62-9.07
	c-1.19-1.27-0.94-3.11-1.11-4.69c4.28,3.28,8.92,6.05,13.65,8.65c3.12,2.01,6.29,4.53,10.18,4.62c2.71,0.09,5.01-1.51,6.98-3.18
	c-3.4-2.28-6.81-4.56-10.29-6.72c-9.39-5.65-18.75-11.6-29.07-15.45c0-0.29,0-0.88-0.01-1.17l0.84,0.91
	c3.76-1.11,7.61,0.25,11.06,1.72c10.33,4.66,19.4,11.66,29.76,16.27c3.51,1.62,7.86,3.42,11.51,1.15
	c9.81-6.62,14.42-18.43,15.94-29.77c-0.01-1.61,1.22-4.03-0.54-5.08c-3.35-1.55-6.93-2.82-9.63-5.44
	c-4.19-3.4-6.43-8.49-10.31-12.15c0.1,1.01,0.3,3.04,0.4,4.05c-3.55-3.62-5.18-8.55-6.98-13.17c-2.73-7.59-6.7-14.79-12.06-20.84
	c-5.1-5.91-12.02-10.16-16.12-16.93c-3.94-6.74-8.23-13.64-14.58-18.34c2.41,0.6,4.81,1.26,7.08,2.28c1.87,1.88,3.87,3.61,5.9,5.32
	c1-2.06,2.74-4.22,1.93-6.64c-1.08-2.93-3.5-5.08-5.52-7.36c-8.04-8.43-17.43-15.81-28.02-20.73c2.42,2.09,5.04,3.94,7.4,6.1
	c2.33,2.13,5.31,3.92,6.1,7.21c-1.59-1.09-3.22-2.13-4.64-3.44c-10.92-9.85-24.05-17.47-38.37-21.06
	c-8.72-3.3-18.22-4.38-27.46-4.47c-2.22,2.42-0.49,6.57-1.28,9.65c-1.13,4.08-2.69,8.26-5.97,11.11c-1.07,1.23-3.13,2.51-3.68,0.05
	c4.25-4.61,6.75-10.81,5.85-17.15c-1.43-12.2-3.29-24.36-4.28-36.62C280.437,20.296,270.307,27.936,268.087,39.456 M312.057,20.246
	c3.72,7.4,12.92,9.37,20.42,7.47c-3-6.01-9.35-10.73-16.31-9.83C314.637,18.196,312.017,18.086,312.057,20.246 M255.467,26.916
	c-2.69,4.12-4.34,9.56-2.24,14.28c8.85-2.16,12.73-12.29,11.44-20.61C260.687,20.746,257.597,23.826,255.467,26.916 M295.267,21.926
	c-1.46,3.52,0.54,8.02,4.2,9.17c4.85,1.9,10.23,1.21,15.05-0.42c-2.87-3.4-6.21-6.71-10.54-8.13
	C301.177,21.546,298.167,21.786,295.267,21.926 M361.217,31.506c-3.74,5.05-6.86,10.57-11.02,15.29c1.27-5.63,3.05-11.14,4.1-16.82
	c-1.7,0.88-2.49,2.66-3.45,4.2c-2.4,4.13-4.98,8.15-7.32,12.31c-0.01-2.68-0.03-5.37-0.07-8.05c-3.77,1.85-5.39,6.34-7.49,9.8
	c5.31,2.24,10.6,4.54,15.99,6.55l0.85-0.21c4.9-9.78,9.29-19.83,13.9-29.75C364.107,26.266,363.007,29.266,361.217,31.506
	 M375.627,35.016c-3.49,1.63-5.07,5.48-6.77,8.69c6.88,2.58,13.75-2.46,17.71-7.78C382.997,35.226,379.227,33.896,375.627,35.016
	 M236.757,60.746c0.58,1.72,2.41,0.23,3.24-0.41c6.03-4.78,8.03-13.3,5.93-20.53C239.127,44.106,233.697,52.596,236.757,60.746
	 M248.867,57.286c3.61,0.48,7.41,0.42,10.77-1.15c4.33-1.15,4.83-6.68,3.74-10.3C256.797,46.156,250.337,50.696,248.867,57.286
	 M383.307,46.576c-1.92,0.56-4.86,0.44-5.39,2.86c1.88,2.57,4.67,4.39,7.6,5.55c4.99,1.85,10.41,0.64,15.3-0.92
	C396.337,49.396,390.097,45.196,383.307,46.576 M362.767,56.776c3.93,3.11,9.6,3.46,14.25,1.89c-2.07-4.49-5.81-8.92-10.98-9.57
	C363.797,50.566,361.227,54.086,362.767,56.776 M374.947,50.596c1.22,2.37,2.76,5.19,5.81,5.17
	C378.987,53.866,377.097,52.066,374.947,50.596 M223.497,61.616c-0.6,4.3,0.71,9.27,4.37,11.9c6.91-5.06,7.22-16.02,1.28-21.95
	C226.487,54.366,224.017,57.666,223.497,61.616 M231.017,75.506c0.65,1.98,3.32,1.59,4.97,1.8c6.76,0.22,12.44-4.59,15.67-10.15
	C243.967,65.156,234.147,67.436,231.017,75.506 M233.187,81.566c-10.58,9.7-17.39,22.53-23.84,35.15c2.71-1.64,4.07-4.57,5.96-6.99
	c8.37-11.03,17.53-21.54,27.96-30.69C239.877,79.606,235.987,79.256,233.187,81.566 M202.747,92.096
	c-40.26,10.71-79.73,26.18-114.22,49.84c-2,1.11-2.01,3.51-2.02,5.5c-1.2,66.83,9.28,134.1,32.89,196.73
	c0.67,1.58,1.3,4.11,3.53,3.86c4.23-0.05,8.46-0.17,12.69-0.25c3.61-0.31,7.28,0.76,9.95,3.25c4.29,3.97,8.34,8.24,13.11,11.65
	c4.74-7.17,14.21-3.96,21.34-5.09c4.81-0.01,9.62-0.01,14.43,0c-2.32-3.29-5.13-6.78-5.02-11.04c0.14-4.11,3.28-7.12,5.73-10.09
	c-1.47-3.64-3.27-7.72-1.72-11.64c1-2.88,3.67-4.56,5.74-6.6c0.97-1.37-0.39-2.96-0.64-4.35c-12.83-33.45-19.12-69.52-17.13-105.35
	c2.55-41.97,13.42-84.13,36.06-119.9C212.467,89.346,207.637,90.876,202.747,92.096 M394.477,87.806c0.31,5.26,2.43,10.12,4,15.08
	c-0.57,3.47-1.66,7.99,1.54,10.56c6.24,5.85,12.7,11.73,16.63,19.46c5.37,10.8,12.89,20.28,20.37,29.66c3.33,4,9.19,4.38,12.76,8.09
	c1.6,1.83,1.13,4.43,0.82,6.62c-2.01,13.51-6.82,28.17-19.08,35.74c-3.48,2.79-8.24,0.97-12,2.98c-4.22,1.87-8.23,4.2-12.49,5.99
	c-1.52-0.77-3.06-2.26-4.9-1.54c-5.13,1.41-10.13,3.23-15.05,5.2c-3.26-2.42-5.66-5.78-8.61-8.55
	c-11.69-11.42-23.72-22.87-38.08-30.89c-1.45-1.09-4.11-0.72-4.51,1.26c0.38,11.44,4.6,22.63,11.57,31.68
	c7.27,9.7,17.38,16.63,26.41,24.54c14.9,13.06,29.67,26.62,41,43.01c5.39,7.83,10.37,16.34,11.81,25.88
	c0.75,4.26,0.35,8.58-0.04,12.85c2.42,2.07,5.1,4.18,6.2,7.29c0.91,2.39-0.19,5.01,0.53,7.42c1.08,2.46,3.39,4.13,4.5,6.57
	c1.08,3.94-0.09,7.96-1.62,11.6c7.28-0.19,14.55-0.07,21.83,0.01c8.94,0.31,12.12-12.06,21.4-10.57c4.22,0.02,8.43,0.31,12.66,0.26
	c2.7-0.29,3.14-3.48,4.05-5.5c8.42-22.83,15.34-46.23,20.4-70.04c8.92-42.01,13.2-85.08,11.72-128.03c0.01-1.72-1.82-2.37-2.96-3.24
	c-5.78-3.49-11.35-7.31-17.1-10.84c-6.5-4.08-13.45-7.36-20.34-10.71C458.127,105.486,426.717,94.726,394.477,87.806
	 M392.307,99.536c-0.72,1.17-2.22,2.19-1.89,3.74c0.32,1.52,1.73,2.5,2.64,3.69C393.987,104.456,393.647,101.816,392.307,99.536
	 M203.567,325.036c-5.03,1.55-2.42,8.41,1.71,9.29c26.2,8.35,53.43,13.22,80.79,15.71c2.92,0.2,6.18,1.11,8.84-0.62
	c1.94-1.08,3.9-3.25,3.02-5.63c-0.51-2.31-3.16-2.51-5.08-2.63c-27.62-1.74-55.24-6.05-81.5-14.99
	C208.867,325.356,206.197,324.186,203.567,325.036 M418.527,333.126c-31.13,5.65-62.76,8.83-94.41,8.8
	c-2.51-0.14-5.47,0.89-6.17,3.57c-1.09,3.17,1.91,6.28,5.05,6.19c28.15,0.64,56.41-1.72,84-7.43c6.14-1.54,12.6-2.72,18.1-5.96
	C427.027,334.196,422.027,331.116,418.527,333.126 M197.487,346.386c0.03,2.75,2.15,5.22,4.76,5.94
	c28.32,7.96,57.53,12.54,86.88,14.42c30.98,1.8,62.22,1.21,92.96-3.22c15.55-2.1,31.3-4.41,46.01-10.1c4.13-1.02,1.55-7.59-1.97-6.8
	c-15.54,5.98-32.2,7.94-48.58,10.28c-57.49,6.03-116.38,2.33-171.92-14.21C202.577,341.606,198.167,342.876,197.487,346.386
	 M482.047,367.496c-4.73,5.15-9.63,10.15-14.42,15.25c-0.79,3.83-0.33,7.79-0.41,11.69c0.16,9.1-0.18,18.22,0.47,27.31
	c4.16,4.88,8.02,10.03,12.31,14.8c9.49,1.53,19.15,2.25,28.71,3.45c-0.49,6.48-0.56,12.97-0.88,19.46c-4.2-0.48-8.38-1.1-12.57-1.6
	c-0.47-3.02-0.92-6.04-1.37-9.05c-8.99-0.74-17.99-1.5-26.99-2.23c-0.33,6.55-0.66,13.1-0.7,19.66l0.17,0.16
	c-0.43,1.78,0.02,3.25,1.36,4.39c4.47,4.54,8.65,9.37,13.24,13.79c13.63,2.55,27.42,4.4,41.12,6.66c4.64-4.63,9.56-9.01,14.07-13.76
	c0.04-0.79,0.11-2.37,0.14-3.16l0.15-0.13c-0.23-12.49-0.08-24.99-0.29-37.48c-4.55-5.51-9.07-11.04-13.64-16.53
	c-9.07-0.86-18.14-1.76-27.2-2.64c0.6-6.58,0.52-13.2,0.78-19.8c4.29,0.03,8.58,0.12,12.87,0.08c-0.02,2.34-0.05,4.68-0.05,7.03
	c0,0.82,0.02,2.44,0.02,3.25c9.19,0.44,18.38,0.98,27.57,1.35c0.39-4.02,0.59-8.05,0.52-12.08c0.09-0.8,0.25-2.4,0.33-3.2v0.04
	c0.35-2.58,0.28-5.19,0.49-7.77c6.04-6.37,12.32-12.51,18.36-18.88c-1.92,0-3.84,0.01-5.75,0
	C527.657,367.456,504.857,367.566,482.047,367.496 M44.537,369.256c7.74,6.52,15.64,12.82,23.41,19.28
	c-0.07,33.92-1.24,67.82-0.95,101.74c0.01,1.64,0.02,3.29,0.02,4.95c10.64-1.45,21.25-3.02,31.9-4.4c-0.01-1.94-0.05-3.88-0.14-5.81
	c0.14-7.73,1.06-15.42,1.07-23.15c5.29-0.18,10.59-0.46,15.88-0.61c0.05-0.48,0.15-1.45,0.2-1.93c-0.2,7.56-0.45,15.13-0.34,22.7
	h-0.47c0.22,2.13,0.27,4.27,0.25,6.42c10.47-1.38,20.92-2.92,31.38-4.34c0.06-1.8,0.14-3.59,0.21-5.38
	c0.8-31.43,2.01-62.86,2.43-94.3c-5.24-4.95-10.28-10.1-15.44-15.12c-21.32-0.22-42.64-0.06-63.95-0.16
	c-6.21,0.07-12.42-0.17-18.61,0.25C49.167,368.826,46.807,369.266,44.537,369.256 M312.687,376.456
	c-0.19,25.76-0.02,51.52,0.13,77.28c0.12,2.07-0.26,4.26,0.34,6.28c4.55,4.21,9.34,8.18,14.05,12.23c13.2-0.08,26.4-0.02,39.59-0.03
	c4.11-3.67,8.19-7.36,12.29-11.02c0.01-2.06,0.02-4.12,0.04-6.18c0.02-26.18,0.05-52.37-0.02-78.56c-8.94,0-17.87,0-26.8,0
	c-0.25,22.9-0.06,45.79-0.12,68.69c-4.26,0.01-8.52-0.08-12.78-0.07c-0.06-22.88,0.13-45.75-0.12-68.62
	C330.417,376.456,321.547,376.456,312.687,376.456 M248.567,378.056c-4.76,1.66-9.43,3.62-14.1,5.52
	c-0.21,22.62,0.1,45.26-0.43,67.89c0.21,1.33-0.41,3.04,0.51,4.16c0.18,1.87,0.4,3.76,0.63,5.64c3.93,3.08,7.93,6.09,11.9,9.13
	c5.31,0.09,10.63-0.17,15.93,0.09c4.65,2.83,8.36,7.03,13.03,9.84c6.81,0.11,13.63-0.13,20.45-0.21c-1.34-1.58-2.71-3.14-4.08-4.68
	c-0.36-0.52-1.09-1.55-1.45-2.06c-0.04-1.66-1.67-2.3-2.7-3.29c3.13-3.03,6.34-5.98,9.5-8.99c2.32-1.94,1.49-5.37,2.2-7.99
	c0.08-21.74,0.14-43.48-0.01-65.22c-4.48-3.42-8.84-6.98-13.36-10.33C273.917,377.646,261.217,377.556,248.567,378.056
	 M391.497,377.396c-0.03,1.6-0.06,3.21-0.06,4.82c-0.32,3.73-0.21,7.48-0.2,11.22c0.13,22.96-0.29,45.92,0.23,68.87
	c4.07,3.52,8.37,6.76,12.54,10.16c1.88,1.86,4.69,1.36,7.08,1.71c10.91,0.71,21.82,2.23,32.71,2.51c4.08-3.42,8.18-6.85,12.05-10.5
	c1.42-3.04,0.83-6.5,0.7-9.73c0.07-12.09,0.52-24.19,0.27-36.28c0.17-14.01,0.24-28.02,0.35-42.03c-8.95,0-17.89-0.02-26.84,0
	c-0.45,24.05-1.18,48.1-1.35,72.15c-3.71-0.35-7.41-0.73-11.11-1.1c-0.1-23.68,0.18-47.36-0.15-71.04
	C408.967,377.906,400.237,377.566,391.497,377.396 M160.847,389.206c-2.19,2.22-1.36,5.5-1.5,8.3c0.1,21.49,0.3,42.98,0.2,64.48
	c0.02,1.55,0.03,3.11,0.04,4.68c4.03,3.26,8.17,6.39,12.32,9.51c16.73-1.29,33.47-2.41,50.21-3.65c0.21-1.82,0.43-3.64,0.68-5.44
	c0.41-4.55-0.26-9.1,0.08-13.64c-0.13-1.44,0.46-3.18-0.62-4.35c-5.06-0.71-10.19-0.07-15.27,0.07c-7.12,0.18-14.23,0.34-21.34,0.47
	c-0.12-4.16-0.39-8.32-0.28-12.48c12.55-0.62,25.1-1.36,37.66-1.98c0.01-0.87,0.03-2.59,0.04-3.46c0.02-6.25-0.05-12.51,0.05-18.77
	c-12.55,0.22-25.09,0.48-37.64,0.64c0.05-3.79,0.12-7.57,0.06-11.35c12.36-0.68,24.74-0.63,37.11-1.05
	c0.03-1.29,0.08-2.57,0.13-3.85c0.28-5.87-0.13-11.74-0.05-17.61c0.14-2.04-2.3-1.71-3.61-1.78c-15.27,0.26-30.55,0.26-45.81,0.65
	C168.287,380.846,164.377,385.076,160.847,389.206 M368.897,493.006c-11.26-0.18-22.54-0.22-33.81-0.12
	c2.62,3.03,5.34,5.98,7.97,9.01c-12.55-0.04-25.1,0.08-37.65-0.07c-7.7,0.06-15.41-0.46-23.11,0.08c-5.17,0.48-10.73,0.49-15.31-2.3
	c-3.32-1.69-5.2-5.04-7.98-7.33c-6.42-0.66-12.95-0.06-19.38,0.43c-6.84-0.15-13.65,0.44-20.46,0.92
	c26.21,22.9,54.79,43.34,86.24,58.41v0.48c1.49,0.34,3.06,0.59,4.41-0.36c27.74-13.99,53.93-31.13,77.52-51.36
	c2.34-2.3,6.58-3.64,6.83-7.35c-2.22-4.06-7.03-5.92-9.66-9.73C378.847,486.066,375.527,492.866,368.897,493.006z"/>
<path class="st0" d="M295.597,11.936c2.82-7.05,10.97-9.55,17.96-9.49c-1.65,8.08-8.61,15.52-17.33,14.91
	C293.337,17.106,294.917,13.556,295.597,11.936z"/>
<path class="st0" d="M315.357,10.626c4.25-5.33,11.38-8.68,18.19-6.88c1.4,0.49,3.54,0.56,3.74,2.44
	C332.557,13.296,322.567,14.406,315.357,10.626z"/>
<path class="st0" d="M271.377,23.376c1.03-9.49,10.03-16.01,19.1-16.67c0.34,1.7-0.25,3.5-2,4.05
	C281.957,13.726,276.567,18.536,271.377,23.376z"/>
<path class="st0" d="M330.137,15.836c8.53-3.67,19.3-1.69,25.15,5.75C346.997,26.376,335.757,23.336,330.137,15.836z"/>
<path class="st0" d="M268.087,39.456c2.22-11.52,12.35-19.16,21.94-24.68c0.99,12.26,2.85,24.42,4.28,36.62
	c0.9,6.34-1.6,12.54-5.85,17.15c0.55,2.46,2.61,1.18,3.68-0.05c3.28-2.85,4.84-7.03,5.97-11.11c9.09-3.59,18.91-6,28.74-5.18
	c14.32,3.59,27.45,11.21,38.37,21.06c1.42,1.31,3.05,2.35,4.64,3.44c3.23,4.45,8.21,7.06,11.92,11c1.5,1.39,0.55,3.43,0.29,5.1
	c-2.27-1.02-4.67-1.68-7.08-2.28c-1.84-0.64-3.67-1.29-5.5-1.95c-2.21-6.16-7.85-10.16-13.86-12.15c3.02,3.82,6.51,7.36,8.62,11.81
	c1.02,2.15,2.17,4.23,3.46,6.23c-0.63,0.32-1.26,0.61-1.89,0.89c-0.34-4.3-3.9-7.47-7.97-8.28c1.7,3.2,3.4,6.59,6.41,8.77
	c5.96,4.45,11.65,9.3,16.47,14.98c4.4,4.93,7.37,11.12,12.75,15.14c5.29,4.02,10.29,8.61,13.54,14.49
	c3.52,5.67,4.39,12.52,7.88,18.21c2.08,3.46,4.89,6.38,7.46,9.47c-1.57,0.55-3.14,1.1-4.73,1.54c-3.12,0.36-6.82,0.78-8.63,3.75
	c-2.43,4.13-0.03,8.83,1.53,12.8c0.25-2.93,0.39-5.86,0.76-8.77c1.11,0.89,2.23,1.79,3.11,2.93c-0.61,5.49,0.27,11.01,2.3,16.12
	c0.04-2.38,0.08-4.76,0.13-7.13c1.25-0.71,3.01-0.96,3.58-2.48c1.75-3.83,3.14-7.87,5.68-11.29c3.54,0.53,8.45-1.41,10.91,1.96
	c0.97,9.61-1.22,21.5-10.31,26.75c-6.37-0.58-12.61-2.96-17.99-6.43c-8.64-5.42-18.2-9.17-27.92-12.14
	c-3.4-1.09-6.99-1.35-10.54-1.41c1.85,1.22,3.95,2.15,5.46,3.81c0.01,0.29,0.01,0.88,0.01,1.17c10.32,3.85,19.68,9.8,29.07,15.45
	c-1.69,2.46-4.09,4.23-6.87,5.28c-4.73-2.6-9.37-5.37-13.65-8.65c-12.83-10.07-25.45-20.5-39.17-29.36
	c-0.01-1.26-0.03-2.53-0.05-3.79c-0.3,0.23-0.91,0.67-1.21,0.9c-6.7,5.32-14.72,10.67-23.72,9.33c-13.08-2.5-25.41-10.82-31.07-23.1
	c-6.31-13.35-5.71-28.61-4.28-42.94c-3.33,1.89-6.91,3.85-8.86,7.3c-15.38,24.94-23.41,54.41-22.8,83.7
	c0.71,31.19,13.65,61.06,32.55,85.5c1.27,1.61,2.44,3.34,4.1,4.59c0.87,0.75,1.81,1.4,2.74,2.08c-6.42-11.69-12.98-23.5-16.26-36.54
	c-5.35-20.31-4.55-43.36,6.68-61.6c11.85,15.8,24.5,31.34,32.58,49.52c8.13,18.75,11.61,39.19,12.76,59.5
	c-3.23-3.37-5.27-7.61-7.85-11.45c-5.25-8.09-10.05-16.48-15.58-24.37c0.63,3.08,1.7,6.06,2.33,9.15c-0.29,0.43-0.85,1.29-1.13,1.72
	c1.51,14.52,3.26,29.17,1.94,43.78c-0.28,3.07-3.85,2.43-5.98,2.27c-2.63-0.41-5.58,0.49-8-0.7
	c-12.56-13.42-24.61-27.39-34.53-42.91c-17.03-26.48-30.16-56.08-34.49-87.45c-2.31-16.88-1.77-34.15,1.64-50.84
	c3.56-17.75,8.85-35.89,20.6-50.08c5.28-6.39,11.55-11.87,17.9-17.16c1.63-1.16,1.75-3.24,2.2-5.01c0.32-1.65,1.24-3.2,1.12-4.91
	C267.857,58.866,266.727,49.096,268.087,39.456 M278.867,35.386c-0.69,6.37,1.14,12.69,0.98,19.08c0.24,5.59-1.49,10.96-3.8,15.97
	c3.8-1.71,5.4-5.73,8.36-8.33c-0.13,1.12-0.38,3.34-0.51,4.46c3.6-1.42,4.05-5.77,4.37-9.1c0.02-8.07-2.93-15.88-2.4-23.99
	c-0.11-4.36,1.83-8.35,2.54-12.58C283.687,24.376,279.797,29.486,278.867,35.386 M303.707,88.516c0.8,5.06,6.07,7.08,10.38,8.37
	c-4.34-5.64-4.86-13.01-3.93-19.83C306.917,79.996,302.567,83.556,303.707,88.516 M290.837,86.266
	c-3.29,10.19,4.27,21.92,14.38,24.35c-3.45-4.7-8.11-8.84-9.59-14.69c-1.29-5.83,0.3-11.75,0.9-17.57
	C293.717,80.196,291.677,83.026,290.837,86.266 M330.067,81.336c0.9,1.11,1.8,2.21,2.69,3.32c-4.17-0.51-8.36-1.03-12.57-0.68
	c4.03,2.57,3.34,8.37,7.22,11.17c5.94,4.66,14.05,4.6,21.24,4.96c3.81,0.81,3.58,6.08,6.95,7.52c-0.47-7.11-4.42-13.46-9.37-18.37
	C341.907,84.966,336.337,81.486,330.067,81.336 M289.437,111.046c2.66,2.37,6.43,2.43,9.78,2.03c-4.99-1.48-9.24-4.57-12.34-8.74
	C286.697,106.806,287.407,109.456,289.437,111.046 M331.957,118.646c-5.13,1.47-10.58,1.41-15.75,2.73
	c0.79,0.37,2.38,1.11,3.17,1.48h-0.05c6.15,1.18,12.31,3.7,18.67,2.57c7.15-1.15,12.85-6.82,15.72-13.23
	c1.15-2.78-2.13-4.27-3.92-5.56c-1.22-0.87-2.11-2.63-3.75-2.56C341.127,108.676,338.667,116.146,331.957,118.646 M352.197,123.316
	c12.08,10.94,24.65,21.41,37.57,31.38c1.9,1.41,3.8,3.32,6.39,3.01c-12.14-15.04-25.84-28.71-39.19-42.66
	C355.407,117.736,351.987,120.016,352.197,123.316z"/>
<path class="st0" d="M312.057,20.246c-0.04-2.16,2.58-2.05,4.11-2.36c6.96-0.9,13.31,3.82,16.31,9.83
	C324.977,29.616,315.777,27.646,312.057,20.246z"/>
<path class="st0" d="M255.467,26.916c2.13-3.09,5.22-6.17,9.2-6.33c1.29,8.32-2.59,18.45-11.44,20.61
	C251.127,36.476,252.777,31.036,255.467,26.916z"/>
<path d="M278.867,35.386c0.93-5.9,4.82-11.01,9.54-14.49c-0.71,4.23-2.65,8.22-2.54,12.58c-0.53,8.11,2.42,15.92,2.4,23.99
	c-0.32,3.33-0.77,7.68-4.37,9.1c0.13-1.12,0.38-3.34,0.51-4.46c-2.96,2.6-4.56,6.62-8.36,8.33c2.31-5.01,4.04-10.38,3.8-15.97
	C280.007,48.076,278.177,41.756,278.867,35.386z"/>
<path class="st0" d="M295.267,21.926c2.9-0.14,5.91-0.38,8.71,0.62c4.33,1.42,7.67,4.73,10.54,8.13c-4.82,1.63-10.2,2.32-15.05,0.42
	C295.807,29.946,293.807,25.446,295.267,21.926z"/>
<path class="st1" d="M361.217,31.506c1.79-2.24,2.89-5.24,5.49-6.68c-4.61,9.92-9,19.97-13.9,29.75l-0.85,0.21
	c-5.39-2.01-10.68-4.31-15.99-6.55c2.1-3.46,3.72-7.95,7.49-9.8c0.04,2.68,0.06,5.37,0.07,8.05c2.34-4.16,4.92-8.18,7.32-12.31
	c0.96-1.54,1.75-3.32,3.45-4.2c-1.05,5.68-2.83,11.19-4.1,16.82C354.357,42.076,357.477,36.556,361.217,31.506z"/>
<path class="st0" d="M375.627,35.016c3.6-1.12,7.37,0.21,10.94,0.91c-3.96,5.32-10.83,10.36-17.71,7.78
	C370.557,40.496,372.137,36.646,375.627,35.016z"/>
<path class="st0" d="M236.757,60.746c-3.06-8.15,2.37-16.64,9.17-20.94c2.1,7.23,0.1,15.75-5.93,20.53
	C239.167,60.976,237.337,62.466,236.757,60.746z"/>
<path class="st0" d="M381.287,44.636c0.38-0.36,1.14-1.09,1.51-1.45c0.49,0.09,1.45,0.25,1.93,0.34
	C384.607,45.216,382.427,45.006,381.287,44.636z"/>
<path class="st0" d="M248.867,57.286c1.47-6.59,7.93-11.13,14.51-11.45c1.09,3.62,0.59,9.15-3.74,10.3
	C256.277,57.706,252.477,57.766,248.867,57.286z"/>
<path class="st0" d="M383.307,46.576c6.79-1.38,13.03,2.82,17.51,7.49c-4.89,1.56-10.31,2.77-15.3,0.92
	c-2.93-1.16-5.72-2.98-7.6-5.55C378.447,47.016,381.387,47.136,383.307,46.576z"/>
<path class="st1" d="M299.387,47.736c9.24,0.09,18.74,1.17,27.46,4.47c-9.83-0.82-19.65,1.59-28.74,5.18
	C298.897,54.306,297.167,50.156,299.387,47.736z"/>
<path class="st0" d="M362.767,56.776c-1.54-2.69,1.03-6.21,3.27-7.68c5.17,0.65,8.91,5.08,10.98,9.57
	C372.367,60.236,366.697,59.886,362.767,56.776z"/>
<path class="st0" d="M374.947,50.596c2.15,1.47,4.04,3.27,5.81,5.17C377.707,55.786,376.167,52.966,374.947,50.596z"/>
<path class="st0" d="M223.497,61.616c0.52-3.95,2.99-7.25,5.65-10.05c5.94,5.93,5.63,16.89-1.28,21.95
	C224.207,70.886,222.897,65.916,223.497,61.616z"/>
<path class="st1" d="M255.187,65.556c2.3-2.96,5.93-4.36,9.4-5.42c0.58,4.08,0.61,8.19,0.38,12.3c0.58,0.25,1.75,0.75,2.33,1
	c-0.45,1.77-0.57,3.85-2.2,5.01c-6.35,5.29-12.62,10.77-17.9,17.16c-11.75,14.19-17.04,32.33-20.6,50.08
	c-3.41,16.69-3.95,33.96-1.64,50.84c4.33,31.37,17.46,60.97,34.49,87.45c9.92,15.52,21.97,29.49,34.53,42.91
	c-2.45,0.15-4.89,0.35-7.33,0.46c-5.35-0.55-10.63-1.6-15.98-2.01c-22.68-23.41-41.46-51.39-50.24-83.03
	c-9.76-33.86-7.36-70.28,2.72-103.77c2.55-9.13,6.16-17.9,9.28-26.84c-4.54,3.95-7.79,9.07-11.32,13.88
	c-17.22,24.56-26.77,54.05-28.83,83.88c-2.7,34.42,4.65,69.06,18.05,100.69c0.66,1.39,1.67,2.58,2.6,3.8
	c-1.34,1.57-1.94,3.47-1.61,5.52c-2.26-0.47-4.54-1.56-5.42-3.85c-16.07-39.01-22.69-82.26-16.48-124.15
	c4.87-35.21,19.38-69.08,42.02-96.53c7.03-8.37,14.32-16.69,22.86-23.56C251.857,69.716,254.037,67.286,255.187,65.556z"/>
<path class="st1" d="M356.357,63.396c10.59,4.92,19.98,12.3,28.02,20.73c2.02,2.28,4.44,4.43,5.52,7.36
	c0.81,2.42-0.93,4.58-1.93,6.64c-2.03-1.71-4.03-3.44-5.9-5.32c0.26-1.67,1.21-3.71-0.29-5.1c-3.71-3.94-8.69-6.55-11.92-11
	c-0.79-3.29-3.77-5.08-6.1-7.21C361.397,67.336,358.777,65.486,356.357,63.396z"/>
<path class="st0" d="M231.017,75.506c3.13-8.07,12.95-10.35,20.64-8.35c-3.23,5.56-8.91,10.37-15.67,10.15
	C234.337,77.096,231.667,77.486,231.017,75.506z"/>
<path d="M355.627,76.426c6.01,1.99,11.65,5.99,13.86,12.15c0.55,2.21,0.58,4.75-1.78,5.89c-1.29-2-2.44-4.08-3.46-6.23
	C362.137,83.786,358.647,80.246,355.627,76.426z"/>
<path class="st1" d="M303.707,88.516c-1.14-4.96,3.21-8.52,6.45-11.46c-0.93,6.82-0.41,14.19,3.93,19.83
	C309.777,95.596,304.507,93.576,303.707,88.516z"/>
<path class="st1" d="M233.187,81.566c2.8-2.31,6.69-1.96,10.08-2.53c-10.43,9.15-19.59,19.66-27.96,30.69
	c-1.89,2.42-3.25,5.35-5.96,6.99C215.797,104.096,222.607,91.266,233.187,81.566z"/>
<path d="M290.837,86.266c0.84-3.24,2.88-6.07,5.69-7.91c-0.6,5.82-2.19,11.74-0.9,17.57c1.48,5.85,6.14,9.99,9.59,14.69
	C295.107,108.186,287.547,96.456,290.837,86.266z"/>
<path d="M330.067,81.336c6.27,0.15,11.84,3.63,16.16,7.92c4.95,4.91,8.9,11.26,9.37,18.37c-3.37-1.44-3.14-6.71-6.95-7.52
	c-7.19-0.36-15.3-0.3-21.24-4.96c-3.88-2.8-3.19-8.6-7.22-11.17c4.21-0.35,8.4,0.17,12.57,0.68
	C331.867,83.546,330.967,82.446,330.067,81.336 M328.127,87.486c1.46,6.95,10.57,11.41,16.55,7
	C340.587,89.746,334.167,87.916,328.127,87.486z"/>
<path class="st0" d="M328.127,87.486c6.04,0.43,12.46,2.26,16.55,7C338.697,98.896,329.587,94.436,328.127,87.486z"/>
<path d="M357.847,87.076c4.07,0.81,7.63,3.98,7.97,8.28l-1.56,0.49C361.247,93.666,359.547,90.276,357.847,87.076z"/>
<path class="st0" d="M202.747,92.096c4.89-1.22,9.72-2.75,14.72-3.48c-22.64,35.77-33.51,77.93-36.06,119.9
	c-1.99,35.83,4.3,71.9,17.13,105.35c0.25,1.39,1.61,2.98,0.64,4.35c-2.07,2.04-4.74,3.72-5.74,6.6c-1.55,3.92,0.25,8,1.72,11.64
	c-2.45,2.97-5.59,5.98-5.73,10.09c-0.11,4.26,2.7,7.75,5.02,11.04c-4.81-0.01-9.62-0.01-14.43,0c-1.39-4.48-2.43-9.24-1.5-13.92
	c0.49-3,2.3-5.52,3.27-8.34c0.1-3.6-0.76-7.29,0.38-10.8c0.8-3.25,3.19-5.82,4.04-9.02c-0.6-3.52-2.13-6.77-3.18-10.16
	c-12.12-36.85-16.52-76.43-11.26-114.94c3.69-27.62,11.77-54.4,20.18-80.89c-23.9,6.92-47.09,16.35-69.22,27.71
	c-7.19,3.56-13.88,8.02-20.6,12.38c-2.3,1.04-1.8,3.78-1.93,5.85c-0.08,65.52,11.02,131.38,35.42,192.32
	c-4.23,0.08-8.46,0.2-12.69,0.25c-2.23,0.25-2.86-2.28-3.53-3.86c-23.61-62.63-34.09-129.9-32.89-196.73
	c0.01-1.99,0.02-4.39,2.02-5.5C123.017,118.276,162.487,102.806,202.747,92.096z"/>
<path class="st1" d="M369.487,88.576c1.83,0.66,3.66,1.31,5.5,1.95c6.35,4.7,10.64,11.6,14.58,18.34
	c4.1,6.77,11.02,11.02,16.12,16.93c5.36,6.05,9.33,13.25,12.06,20.84c1.8,4.62,3.43,9.55,6.98,13.17c-0.1-1.01-0.3-3.04-0.4-4.05
	c3.88,3.66,6.12,8.75,10.31,12.15c2.7,2.62,6.28,3.89,9.63,5.44c1.76,1.05,0.53,3.47,0.54,5.08c-1.52,11.34-6.13,23.15-15.94,29.77
	c-3.65,2.27-8,0.47-11.51-1.15c-10.36-4.61-19.43-11.61-29.76-16.27c-3.45-1.47-7.3-2.83-11.06-1.72l-0.84-0.91
	c-1.51-1.66-3.61-2.59-5.46-3.81c3.55,0.06,7.14,0.32,10.54,1.41c9.72,2.97,19.28,6.72,27.92,12.14c5.38,3.47,11.62,5.85,17.99,6.43
	c9.09-5.25,11.28-17.14,10.31-26.75c-2.46-3.37-7.37-1.43-10.91-1.96c-4.54-1.52-9.77,0.24-11.69,4.78c-0.88-1.14-2-2.04-3.11-2.93
	c0.58-3.57,4.21-5.21,6.34-7.78c1.59-0.44,3.16-0.99,4.73-1.54c-2.57-3.09-5.38-6.01-7.46-9.47c-3.49-5.69-4.36-12.54-7.88-18.21
	c-3.25-5.88-8.25-10.47-13.54-14.49c-5.38-4.02-8.35-10.21-12.75-15.14c-4.82-5.68-10.51-10.53-16.47-14.98l1.56-0.49
	c0.63-0.28,1.26-0.57,1.89-0.89C370.067,93.326,370.037,90.786,369.487,88.576z"/>
<path class="st1" d="M394.477,87.806c32.24,6.92,63.65,17.68,93.42,31.84c6.89,3.35,13.84,6.63,20.34,10.71
	c5.75,3.53,11.32,7.35,17.1,10.84c1.14,0.87,2.97,1.52,2.96,3.24c1.48,42.95-2.8,86.02-11.72,128.03
	c-5.06,23.81-11.98,47.21-20.4,70.04c-0.91,2.02-1.35,5.21-4.05,5.5c-4.23,0.05-8.44-0.24-12.66-0.26
	c6-16.04,11.82-32.18,16.38-48.7c12.72-46.07,18.95-93.87,19.05-141.64c-0.05-2.87,0.39-6.59-2.65-8.15
	c-34.53-22.56-73.89-36.63-113.77-46.37C396.907,97.926,394.787,93.066,394.477,87.806z"/>
<path class="st0" d="M392.307,99.536c1.34,2.28,1.68,4.92,0.75,7.43c-0.91-1.19-2.32-2.17-2.64-3.69
	C390.087,101.726,391.587,100.706,392.307,99.536z"/>
<path class="st0" d="M398.477,102.886c39.88,9.74,79.24,23.81,113.77,46.37c3.04,1.56,2.6,5.28,2.65,8.15
	c-0.1,47.77-6.33,95.57-19.05,141.64c-4.56,16.52-10.38,32.66-16.38,48.7c-9.28-1.49-12.46,10.88-21.4,10.57
	c-7.28-0.08-14.55-0.2-21.83-0.01c1.53-3.64,2.7-7.66,1.62-11.6c-1.11-2.44-3.42-4.11-4.5-6.57c-0.72-2.41,0.38-5.03-0.53-7.42
	c-1.1-3.11-3.78-5.22-6.2-7.29c0.39-4.27,0.79-8.59,0.04-12.85c-1.44-9.54-6.42-18.05-11.81-25.88c-11.33-16.39-26.1-29.95-41-43.01
	c-9.03-7.91-19.14-14.84-26.41-24.54c-6.97-9.05-11.19-20.24-11.57-31.68c0.4-1.98,3.06-2.35,4.51-1.26
	c14.36,8.02,26.39,19.47,38.08,30.89c2.95,2.77,5.35,6.13,8.61,8.55c4.92-1.97,9.92-3.79,15.05-5.2c1.84-0.72,3.38,0.77,4.9,1.54
	c4.26-1.79,8.27-4.12,12.49-5.99c3.76-2.01,8.52-0.19,12-2.98c12.26-7.57,17.07-22.23,19.08-35.74c0.31-2.19,0.78-4.79-0.82-6.62
	c-3.57-3.71-9.43-4.09-12.76-8.09c-7.48-9.38-15-18.86-20.37-29.66c-3.93-7.73-10.39-13.61-16.63-19.46
	C396.817,110.876,397.907,106.356,398.477,102.886z"/>
<path d="M289.437,111.046c-2.03-1.59-2.74-4.24-2.56-6.71c3.1,4.17,7.35,7.26,12.34,8.74
	C295.867,113.476,292.097,113.416,289.437,111.046z"/>
<path class="st1" d="M331.957,118.646c6.71-2.5,9.17-9.97,14.09-14.57c1.64-0.07,2.53,1.69,3.75,2.56
	c-3.42,5.49-6.81,11.69-13.07,14.36c-5.42,2.79-11.58,1.17-17.35,1.86c-0.79-0.37-2.38-1.11-3.17-1.48
	C321.377,120.056,326.827,120.116,331.957,118.646z"/>
<path d="M336.727,120.996c6.26-2.67,9.65-8.87,13.07-14.36c1.79,1.29,5.07,2.78,3.92,5.56c-2.87,6.41-8.57,12.08-15.72,13.23
	c-6.36,1.13-12.52-1.39-18.67-2.57h0.05C325.147,122.166,331.307,123.786,336.727,120.996z"/>
<path class="st1" d="M122.727,137.226c22.13-11.36,45.32-20.79,69.22-27.71c-8.41,26.49-16.49,53.27-20.18,80.89
	c-5.26,38.51-0.86,78.09,11.26,114.94c1.05,3.39,2.58,6.64,3.18,10.16c-0.85,3.2-3.24,5.77-4.04,9.02c-1.14,3.51-0.28,7.2-0.38,10.8
	c-0.97,2.82-2.78,5.34-3.27,8.34c-0.93,4.68,0.11,9.44,1.5,13.92c-7.13,1.13-16.6-2.08-21.34,5.09c-4.77-3.41-8.82-7.68-13.11-11.65
	c-2.67-2.49-6.34-3.56-9.95-3.25c-24.4-60.94-35.5-126.8-35.42-192.32c0.13-2.07-0.37-4.81,1.93-5.85
	C108.847,145.246,115.537,140.786,122.727,137.226z"/>
<path d="M221.107,125.576c3.53-4.81,6.78-9.93,11.32-13.88c-3.12,8.94-6.73,17.71-9.28,26.84c-10.08,33.49-12.48,69.91-2.72,103.77
	c8.78,31.64,27.56,59.62,50.24,83.03c-19.82,0.17-38.95-5.77-57.74-11.39c-0.93-1.22-1.94-2.41-2.6-3.8
	c-13.4-31.63-20.75-66.27-18.05-100.69C194.337,179.626,203.887,150.136,221.107,125.576z"/>
<path class="st1" d="M275.897,119.736c1.95-3.45,5.53-5.41,8.86-7.3c-1.43,14.33-2.03,29.59,4.28,42.94
	c5.66,12.28,17.99,20.6,31.07,23.1c9,1.34,17.02-4.01,23.72-9.33c-1.83,4.45-4.34,8.87-8.43,11.62c-5.9,4.1-13.47,4.5-20.39,3.81
	c-11.17-0.99-21.4-7.03-28.95-15.12c-6-6.81-7.49-16.13-9.11-24.74c-1.44-7.75-1.02-15.65-0.45-23.44L275.897,119.736z"/>
<path class="st1" d="M352.197,123.316c-0.21-3.3,3.21-5.58,4.77-8.27c13.35,13.95,27.05,27.62,39.19,42.66
	c-2.59,0.31-4.49-1.6-6.39-3.01C376.847,144.726,364.277,134.256,352.197,123.316z"/>
<path d="M408.997,173.426c1.81-2.97,5.51-3.39,8.63-3.75c-2.13,2.57-5.76,4.21-6.34,7.78c-0.37,2.91-0.51,5.84-0.76,8.77
	C408.967,182.256,406.567,177.556,408.997,173.426z"/>
<path class="st1" d="M342.157,179.016c0.77-2.41,1.8-4.72,2.93-6.98c13.72,8.86,26.34,19.29,39.17,29.36
	c0.17,1.58-0.08,3.42,1.11,4.69c3.28,3.74,8.3,5.35,11.62,9.07c-2.39,1.23-5.03,2.7-7.81,1.94c-3.52-0.97-5.87-3.99-8.27-6.52
	C369.747,198.136,357.177,186.626,342.157,179.016z"/>
<path d="M414.397,180.386c1.92-4.54,7.15-6.3,11.69-4.78c-2.54,3.42-3.93,7.46-5.68,11.29c-0.57,1.52-2.33,1.77-3.58,2.48
	c-0.05,2.37-0.09,4.75-0.13,7.13C414.667,191.396,413.787,185.876,414.397,180.386z"/>
<path class="st1" d="M264.707,235.496c-2.94-16.46,0.16-34.43,10.35-47.92c3.15,2.84,5.29,6.55,7.85,9.89
	c-11.23,18.24-12.03,41.29-6.68,61.6c3.28,13.04,9.84,24.85,16.26,36.54c-0.93-0.68-1.87-1.33-2.74-2.08c-1.1-2.62-3-4.74-4.55-7.09
	C275.367,270.896,268.037,253.626,264.707,235.496z"/>
<path class="st0" d="M320.497,189.916c2.06-0.82,4.35-0.51,6.52-0.67c-0.57,4.35-0.55,8.79,0.31,13.11
	c-0.2,3.25,0.18,6.48,1.39,9.52c3.08,12.03,10.14,22.54,17.95,32.02c9.81,11.85,22.7,20.64,32.73,32.29
	c10.47,11.8,17.76,27.08,17.47,43.1c-0.23,2.88-3.83,2.08-5.79,2.6c-1.62,0.61-3.12-0.47-3.34-2.09
	c-3.67-15.16-9.71-30.13-19.87-42.14c-5.32-6.44-12.44-10.92-18.56-16.5c-12.71-11.33-23.46-25.14-29.99-40.94
	c-3.18-7.69-4.49-16.44-1.99-24.52C318.027,193.646,318.477,191.116,320.497,189.916z"/>
<path class="st1" d="M327.017,189.246c1.23,1.86,1.1,4.18,1.63,6.27c3.57,15.45,12.94,29.12,24.95,39.3
	c15,12.62,30.16,25.18,43.36,39.73c9.9,11.07,19.86,23.09,23.37,37.88c1.17,4.32,0.83,8.88-0.61,13.09l-0.8-0.32
	c-2.38-1.11-5.01-1.49-7.61-1.49c-0.03-17.99-9.69-34.2-21.19-47.35c-7.51-8.58-16.49-15.69-25.8-22.19
	c-16.18-11.64-29.94-27.55-35.98-46.8c-0.39-1.66-0.64-3.35-1.01-5.01C326.467,198.036,326.447,193.596,327.017,189.246z"/>
<path class="st1" d="M404.777,204.766c3.48,2.16,6.89,4.44,10.29,6.72c-1.97,1.67-4.27,3.27-6.98,3.18
	c-3.89-0.09-7.06-2.61-10.18-4.62C400.687,208.996,403.087,207.226,404.777,204.766z"/>
<path class="st1" d="M304.817,270.666c5.53,7.89,10.33,16.28,15.58,24.37c2.58,3.84,4.62,8.08,7.85,11.45
	c0.24,4.4-0.02,8.91-1.51,13.09c-5.96-11.84-12.04-23.62-18.16-35.39c-0.73-1.36-1.13-2.86-1.43-4.37
	C306.517,276.726,305.447,273.746,304.817,270.666z"/>
<path class="st0" d="M211.317,319.466c-0.33-2.05,0.27-3.95,1.61-5.52c18.79,5.62,37.92,11.56,57.74,11.39
	c5.35,0.41,10.63,1.46,15.98,2.01c41.41,5.94,83.52,2.9,124.66-3.64c2.6,0,5.23,0.38,7.61,1.49l0.99,1.18
	c-21.36,4.39-43.09,6.88-64.83,8.35c-37.39,2.48-75.24,1.27-112-6.35C232.317,326.066,221.647,323.256,211.317,319.466z"/>
<path class="st0" d="M203.567,325.036c2.63-0.85,5.3,0.32,7.78,1.13c26.26,8.94,53.88,13.25,81.5,14.99
	c1.92,0.12,4.57,0.32,5.08,2.63c0.88,2.38-1.08,4.55-3.02,5.63c-2.66,1.73-5.92,0.82-8.84,0.62c-27.36-2.49-54.59-7.36-80.79-15.71
	C201.147,333.446,198.537,326.586,203.567,325.036z"/>
<path class="st1" d="M418.527,333.126c3.5-2.01,8.5,1.07,6.57,5.17c-5.5,3.24-11.96,4.42-18.1,5.96c-27.59,5.71-55.85,8.07-84,7.43
	c-3.14,0.09-6.14-3.02-5.05-6.19c0.7-2.68,3.66-3.71,6.17-3.57C355.767,341.956,387.397,338.776,418.527,333.126z"/>
<path class="st0" d="M197.487,346.386c0.68-3.51,5.09-4.78,8.14-3.69c55.54,16.54,114.43,20.24,171.92,14.21
	c1.94,1.89,3.53,4.1,4.54,6.62c-30.74,4.43-61.98,5.02-92.96,3.22c-29.35-1.88-58.56-6.46-86.88-14.42
	C199.637,351.606,197.517,349.136,197.487,346.386z"/>
<path class="st1" d="M377.547,356.906c16.38-2.34,33.04-4.3,48.58-10.28c3.52-0.79,6.1,5.78,1.97,6.8
	c-14.71,5.69-30.46,8-46.01,10.1C381.077,361.006,379.487,358.796,377.547,356.906z"/>
<path class="st0" d="M482.047,367.496c22.81,0.07,45.61-0.04,68.41,0.06c-3.57,4.5-7.24,8.93-10.9,13.36
	c-3.33,3.54-1.95,8.86-2.2,13.25c-0.08,0.8-0.24,2.4-0.33,3.2c-0.26,2.93-0.37,5.88-0.52,8.83c-9.2-0.37-18.39-0.93-27.59-1.35
	c0-2.35,0.03-4.69,0.05-7.03c0.01-0.81,0.03-2.42,0.03-3.23c-4.36-0.04-8.71-0.09-13.07-0.04c-0.16,7.67-0.63,15.32-0.61,22.99
	c9.06,0.88,18.13,1.78,27.2,2.64c4.57,5.49,9.09,11.02,13.64,16.53c0.21,12.49,0.06,24.99,0.29,37.48l-0.15,0.13
	c-4.83,4.48-9.46,9.15-14.25,13.67c-12.61-1.97-25.2-4.03-37.82-5.93c-1.43-0.3-3.07-0.39-4.12-1.53
	c-4.69-4.6-8.85-9.73-13.74-14.13l-0.17-0.16c0.04-6.56,0.37-13.11,0.7-19.66c9,0.73,18,1.49,26.99,2.23
	c0.45,3.01,0.9,6.03,1.37,9.05c4.19,0.5,8.37,1.12,12.57,1.6c0.32-6.49,0.39-12.98,0.88-19.46c0.05-0.8,0.17-2.39,0.22-3.19
	c-9.55-1.28-19.19-1.95-28.7-3.46c-4.6-4.59-8.31-10.03-12.59-14.93c0.05-11.89-0.43-23.79-0.01-35.67
	C472.417,377.646,477.317,372.646,482.047,367.496z"/>
<path class="st1" d="M550.457,367.556c1.91,0.01,3.83,0,5.75,0c-6.04,6.37-12.32,12.51-18.36,18.88c-0.21,2.58-0.14,5.19-0.49,7.77
	v-0.04c0.25-4.39-1.13-9.71,2.2-13.25C543.217,376.486,546.887,372.056,550.457,367.556z"/>
<path class="st1" d="M44.537,369.256c2.27,0.01,4.63-0.43,6.85,0.14c5.73,4.56,11.28,9.37,16.6,14.41
	c-0.01,1.57-0.02,3.15-0.04,4.73C60.177,382.076,52.277,375.776,44.537,369.256z"/>
<path class="st0" d="M51.387,369.396c6.19-0.42,12.4-0.18,18.61-0.25c21.31,0.1,42.63-0.06,63.95,0.16
	c5.16,5.02,10.2,10.17,15.44,15.12c-0.42,31.44-1.63,62.87-2.43,94.3c-10.43,1.3-20.88,2.69-31.37,3.3
	c-0.11-7.57,0.14-15.14,0.34-22.7c0.08-1.53,0.12-3.05,0.16-4.57c-5.28,0.01-10.57,0.02-15.85,0c-0.18,2.36-0.35,4.73-0.39,7.11
	c-0.01,7.73-0.93,15.42-1.07,23.15c-10.6,1.73-21.19,3.5-31.78,5.26c-0.29-33.92,0.88-67.82,0.95-101.74
	c0.02-1.58,0.03-3.16,0.04-4.73C62.667,378.766,57.117,373.956,51.387,369.396 M101.947,394.726c-0.03,1.69-0.05,3.39-0.07,5.09
	c-0.15,9.67-0.29,19.33-0.4,29c4.73-0.38,9.45-0.75,14.17-1.12c0.14-9.48,0.25-18.95,0.34-28.43c0.03-1.67,0.05-3.34,0.08-5
	C111.357,394.406,106.647,394.546,101.947,394.726z"/>
<path class="st0" d="M312.687,376.456c8.86,0,17.73,0,26.6,0c0.25,22.87,0.06,45.74,0.12,68.62c4.26-0.01,8.52,0.08,12.78,0.07
	c0.06-22.9-0.13-45.79,0.12-68.69c8.93,0,17.86,0,26.8,0c0.07,26.19,0.04,52.38,0.02,78.56c-4.18,3.64-8.22,7.43-12.43,11.03
	c-13.07-0.17-26.17,0.2-39.24-0.16c-5.29-3.47-9.61-8.3-14.64-12.15C312.667,427.976,312.497,402.216,312.687,376.456z"/>
<path class="st0" d="M248.567,378.056c12.65-0.5,25.35-0.41,38.02-0.5c4.52,3.35,8.88,6.91,13.36,10.33
	c0.15,21.74,0.09,43.48,0.01,65.22c-4.8,4.65-9.31,9.59-13.95,14.41c0.87,1.38,1.83,2.76,1.89,4.47c1.02,0.46,2.04,0.9,3.06,1.39
	c0.36,0.51,1.09,1.54,1.45,2.06c-5.42-0.01-10.85,0.38-16.25-0.09c-4.59-2.53-8.19-6.54-12.71-9.19c-5.13-0.78-10.36,0.18-15.5-0.39
	c-4.84-2.83-8.76-7-13.4-10.14c-0.92-1.12-0.3-2.83-0.51-4.16c0.53-22.63,0.22-45.27,0.43-67.89
	C239.137,381.676,243.807,379.716,248.567,378.056 M260.737,396.366c-0.02,1.96-0.02,3.93,0.02,5.9c0.33,15.03,0.54,30.07,0.96,45.1
	c3.8,0.04,7.61,0.02,11.42,0.02c-0.04-15.03-0.09-30.07-0.25-45.11c-0.03-1.96-0.05-3.92-0.07-5.88
	C268.787,396.296,264.767,396.306,260.737,396.366z"/>
<path class="st0" d="M391.497,377.396c8.74,0.17,17.47,0.51,26.22,0.76c0.33,23.68,0.05,47.36,0.15,71.04
	c3.7,0.37,7.4,0.75,11.11,1.1c0.17-24.05,0.9-48.1,1.35-72.15c8.95-0.02,17.89,0,26.84,0c-0.11,14.01-0.18,28.02-0.35,42.03
	c-0.46,13.26-0.27,26.53-0.59,39.79c-0.99,2.66-3.62,4.22-5.59,6.11c-2.5,1.94-4.58,4.54-7.46,5.93
	c-12.51-0.94-25.09-1.83-37.54-3.3c-5-3.31-9.43-7.43-14.16-11.11c0-25.12,0.08-50.25-0.04-75.38
	C391.437,380.606,391.467,378.996,391.497,377.396z"/>
<path class="st0" d="M160.847,389.206c3.53-4.13,7.44-8.36,12.46-10.61c15.26-0.39,30.54-0.39,45.81-0.65
	c1.31,0.07,3.75-0.26,3.61,1.78c-0.08,5.87,0.33,11.74,0.05,17.61c-12.43,0.36-24.86,0.66-37.29,1.07c0.01,1.27,0.03,2.55,0.05,3.83
	c0.06,3.78-0.01,7.56-0.06,11.35c12.55-0.16,25.09-0.42,37.64-0.64c-0.1,6.26-0.03,12.52-0.05,18.77c-12.5,0.58-25,0.97-37.48,1.69
	c-0.06,0.94-0.17,2.81-0.22,3.75c-0.11,4.16,0.16,8.32,0.28,12.48c7.11-0.13,14.22-0.29,21.34-0.47c5.08-0.14,10.21-0.78,15.27-0.07
	c1.08,1.17,0.49,2.91,0.62,4.35c-0.34,4.54,0.33,9.09-0.08,13.64c-17.2,0.62-34.38,1.91-51.58,2.4c-4.27-1.78-7.67-5.18-11.67-7.5
	c0.1-21.5-0.1-42.99-0.2-64.48C159.487,394.706,158.657,391.426,160.847,389.206z"/>
<path class="st1" d="M391.437,382.216c0.12,25.13,0.04,50.26,0.04,75.38c4.73,3.68,9.16,7.8,14.16,11.11
	c12.45,1.47,25.03,2.36,37.54,3.3c2.88-1.39,4.96-3.99,7.46-5.93c1.97-1.89,4.6-3.45,5.59-6.11c0.32-13.26,0.13-26.53,0.59-39.79
	c0.25,12.09-0.2,24.19-0.27,36.28c0.13,3.23,0.72,6.69-0.7,9.73c-3.87,3.65-7.97,7.08-12.05,10.5c-10.89-0.28-21.8-1.8-32.71-2.51
	c-2.39-0.35-5.2,0.15-7.08-1.71c-4.17-3.4-8.47-6.64-12.54-10.16c-0.52-22.95-0.1-45.91-0.23-68.87
	C391.227,389.696,391.117,385.946,391.437,382.216z"/>
<path class="st1" d="M467.217,394.436c0.08-3.9-0.38-7.86,0.41-11.69c-0.42,11.88,0.06,23.78,0.01,35.67
	c4.28,4.9,7.99,10.34,12.59,14.93c9.51,1.51,19.15,2.18,28.7,3.46c-0.05,0.8-0.17,2.39-0.22,3.19c-9.56-1.2-19.22-1.92-28.71-3.45
	c-4.29-4.77-8.15-9.92-12.31-14.8C467.037,412.656,467.377,403.536,467.217,394.436z"/>
<path class="st1" d="M101.947,394.726c4.7-0.18,9.41-0.32,14.12-0.46c-0.03,1.66-0.05,3.33-0.08,5c-4.71,0.11-9.41,0.35-14.11,0.55
	C101.897,398.116,101.917,396.416,101.947,394.726z"/>
<path class="st1" d="M495.927,394.546c4.36-0.05,8.71,0,13.07,0.04c0,0.81-0.02,2.42-0.03,3.23c-4.29,0.04-8.58-0.05-12.87-0.08
	c-0.26,6.6-0.18,13.22-0.78,19.8C495.297,409.866,495.767,402.216,495.927,394.546z"/>
<path class="st1" d="M260.737,396.366c4.03-0.06,8.05-0.07,12.08,0.03c0.02,1.96,0.04,3.92,0.07,5.88c-4.04,0-8.09,0-12.13-0.01
	C260.717,400.296,260.717,398.326,260.737,396.366z"/>
<path class="st1" d="M185.487,398.406c12.43-0.41,24.86-0.71,37.29-1.07c-0.05,1.28-0.1,2.56-0.13,3.85
	c-12.37,0.42-24.75,0.37-37.11,1.05C185.517,400.956,185.497,399.676,185.487,398.406z"/>
<path class="st1" d="M536.507,406.196c0.15-2.95,0.26-5.9,0.52-8.83c0.07,4.03-0.13,8.06-0.52,12.08
	c-9.19-0.37-18.38-0.91-27.57-1.35c0-0.81-0.02-2.43-0.02-3.25C518.117,405.266,527.307,405.826,536.507,406.196z"/>
<path d="M101.877,399.816c4.7-0.2,9.4-0.44,14.11-0.55c-0.09,9.48-0.2,18.95-0.34,28.43c-4.72,0.37-9.44,0.74-14.17,1.12
	C101.587,419.146,101.727,409.486,101.877,399.816z"/>
<path d="M260.757,402.266c4.04,0.01,8.09,0.01,12.13,0.01c0.16,15.04,0.21,30.08,0.25,45.11c-3.81,0-7.62,0.02-11.42-0.02
	C261.297,432.336,261.087,417.296,260.757,402.266z"/>
<path class="st1" d="M185.587,433.406c12.48-0.72,24.98-1.11,37.48-1.69c-0.01,0.87-0.03,2.59-0.04,3.46
	c-12.56,0.62-25.11,1.36-37.66,1.98C185.417,436.216,185.527,434.346,185.587,433.406z"/>
<path class="st1" d="M286.007,467.516c4.64-4.82,9.15-9.76,13.95-14.41c-0.71,2.62,0.12,6.05-2.2,7.99
	c-3.16,3.01-6.37,5.96-9.5,8.99c1.03,0.99,2.66,1.63,2.7,3.29c-1.02-0.49-2.04-0.93-3.06-1.39
	C287.837,470.276,286.877,468.896,286.007,467.516z"/>
<path class="st1" d="M100.237,454.756c5.28,0.02,10.57,0.01,15.85,0c-0.04,1.52-0.08,3.04-0.16,4.57c-0.05,0.48-0.15,1.45-0.2,1.93
	c-5.29,0.15-10.59,0.43-15.88,0.61C99.887,459.486,100.057,457.116,100.237,454.756z"/>
<path class="st1" d="M312.817,453.736c5.03,3.85,9.35,8.68,14.64,12.15c13.07,0.36,26.17-0.01,39.24,0.16
	c4.21-3.6,8.25-7.39,12.43-11.03c-0.02,2.06-0.03,4.12-0.04,6.18c-4.1,3.66-8.18,7.35-12.29,11.02
	c-13.19,0.01-26.39-0.05-39.59,0.03c-4.71-4.05-9.5-8.02-14.05-12.23C312.557,457.996,312.937,455.806,312.817,453.736z"/>
<path class="st1" d="M234.547,455.626c4.64,3.14,8.56,7.31,13.4,10.14c5.14,0.57,10.37-0.39,15.5,0.39
	c4.52,2.65,8.12,6.66,12.71,9.19c5.4,0.47,10.83,0.08,16.25,0.09c1.37,1.54,2.74,3.1,4.08,4.68c-6.82,0.08-13.64,0.32-20.45,0.21
	c-4.67-2.81-8.38-7.01-13.03-9.84c-5.3-0.26-10.62,0-15.93-0.09c-3.97-3.04-7.97-6.05-11.9-9.13
	C234.947,459.386,234.727,457.496,234.547,455.626z"/>
<path class="st1" d="M159.547,461.986c4,2.32,7.4,5.72,11.67,7.5c17.2-0.49,34.38-1.78,51.58-2.4c-0.25,1.8-0.47,3.62-0.68,5.44
	c-16.74,1.24-33.48,2.36-50.21,3.65c-4.15-3.12-8.29-6.25-12.32-9.51C159.577,465.096,159.567,463.536,159.547,461.986z"/>
<path class="st1" d="M466.367,466.396c4.89,4.4,9.05,9.53,13.74,14.13c1.05,1.14,2.69,1.23,4.12,1.53
	c12.62,1.9,25.21,3.96,37.82,5.93c4.79-4.52,9.42-9.19,14.25-13.67c-0.03,0.79-0.1,2.37-0.14,3.16c-4.51,4.75-9.43,9.13-14.07,13.76
	c-13.7-2.26-27.49-4.11-41.12-6.66c-4.59-4.42-8.77-9.25-13.24-13.79C466.387,469.646,465.937,468.176,466.367,466.396z"/>
<path class="st1" d="M115.587,482.026c10.49-0.61,20.94-2,31.37-3.3c-0.07,1.79-0.15,3.58-0.21,5.38
	c-10.46,1.42-20.91,2.96-31.38,4.34c0.02-2.15-0.03-4.29-0.25-6.42H115.587z"/>
<path class="st0" d="M368.897,493.006c6.63-0.14,9.95-6.94,15.61-9.29c-1.28,2.92-4.02,4.68-6.32,6.72
	c-19.39,16.61-40.6,31.11-63.04,43.28c-2.94,1.66-5.85,3.54-9.26,4.05c-0.73,4.72-0.35,9.51-0.48,14.27
	c-31.45-15.07-60.03-35.51-86.24-58.41c6.81-0.48,13.62-1.07,20.46-0.92c14.01,12.35,29.53,22.92,45.44,32.67
	c6.74,3.78,13.16,8.24,20.38,11.1c0.05-11.55,0.11-23.1-0.04-34.65c12.55,0.15,25.1,0.03,37.65,0.07c-2.63-3.03-5.35-5.98-7.97-9.01
	C346.357,492.786,357.637,492.826,368.897,493.006z"/>
<path class="st1" d="M384.507,483.716c2.63,3.81,7.44,5.67,9.66,9.73c-0.25,3.71-4.49,5.05-6.83,7.35
	c-23.59,20.23-49.78,37.37-77.52,51.36c-1.35,0.95-2.92,0.7-4.41,0.36v-0.48c0.13-4.76-0.25-9.55,0.48-14.27
	c3.41-0.51,6.32-2.39,9.26-4.05c22.44-12.17,43.65-26.67,63.04-43.28C380.487,488.396,383.227,486.636,384.507,483.716z"/>
<path class="st1" d="M66.997,490.276c10.59-1.76,21.18-3.53,31.78-5.26c0.09,1.93,0.13,3.87,0.14,5.81
	c-10.65,1.38-21.26,2.95-31.9,4.4C67.017,493.566,67.007,491.916,66.997,490.276z"/>
<path class="st1" d="M239.627,492.706c6.43-0.49,12.96-1.09,19.38-0.43c2.78,2.29,4.66,5.64,7.98,7.33
	c4.58,2.79,10.14,2.78,15.31,2.3c7.7-0.54,15.41-0.02,23.11-0.08c0.15,11.55,0.09,23.1,0.04,34.65c-7.22-2.86-13.64-7.32-20.38-11.1
	C269.157,515.626,253.637,505.056,239.627,492.706z"/>
</svg>
