<?xml version="1.0" encoding="utf-8"?>
<!-- Generator: Adobe Illustrator 21.0.0, SVG Export Plug-In . SVG Version: 6.00 Build 0)  -->
<svg version="1.1" id="Layer_1" xmlns="http://www.w3.org/2000/svg" xmlns:xlink="http://www.w3.org/1999/xlink" x="0px" y="0px"
	 viewBox="0 0 960 960" style="enable-background:new 0 0 960 960;" xml:space="preserve">
<style type="text/css">
	.st0{fill:#0079AF;stroke:#0079AF;stroke-width:9.375000e-02;}
	.st1{stroke:#000000;stroke-width:9.375000e-02;}
	.st2{fill:url(#SVGID_1_);stroke:#D0D0D0;stroke-width:9.375000e-02;}
	.st3{fill:url(#SVGID_2_);stroke:#D0D0D0;stroke-width:9.375000e-02;}
	.st4{fill:url(#SVGID_3_);stroke:#D0D0D0;stroke-width:9.375000e-02;}
	.st5{fill:url(#SVGID_4_);stroke:#D0D0D0;stroke-width:9.375000e-02;}
	.st6{fill:url(#SVGID_5_);stroke:#D0D0D0;stroke-width:9.375000e-02;}
	.st7{fill:url(#SVGID_6_);stroke:#D0D0D0;stroke-width:9.375000e-02;}
	.st8{fill:url(#SVGID_7_);stroke:#D0D0D0;stroke-width:9.375000e-02;}
	.st9{fill:url(#SVGID_8_);stroke:#D0D0D0;stroke-width:9.375000e-02;}
	.st10{fill:url(#SVGID_9_);stroke:#D0D0D0;stroke-width:9.375000e-02;}
	.st11{fill:url(#SVGID_10_);stroke:#D0D0D0;stroke-width:9.375000e-02;}
	.st12{fill:url(#SVGID_11_);stroke:#D0D0D0;stroke-width:9.375000e-02;}
	.st13{fill:url(#SVGID_12_);stroke:#D0D0D0;stroke-width:9.375000e-02;}
	.st14{fill:url(#SVGID_13_);stroke:#D0D0D0;stroke-width:9.375000e-02;}
	.st15{fill:#ADACAC;stroke:#ADACAC;stroke-width:9.375000e-02;}
	.st16{fill:#FFFFFF;stroke:#FFFFFF;stroke-width:9.375000e-02;}
</style>
<path class="st0" d="M583.3,0h22.5c27.7,0.8,55.4,2.8,82.8,6.7c20.6,3.3,41.3,6.5,61.5,11.7c13.7,3.2,27.2,7.5,40.8,11
	c6.2,1.7,12.7,2.8,18.2,6.4c6.3,4.1,10.4,10.4,15,16.1c22.7,29.9,40.7,63.1,55.6,97.5c16.8,38.3,30.2,78.2,38.5,119.3
	c8.4,39.5,12.1,80,10.4,120.3c-2.7,57.5-13,114.8-32.3,169.1c-1.3,3.9-3.5,7.6-3.7,11.8c0,62.3,0,124.7,0,187
	c0,42.6,0.3,85.1-0.2,127.7c-4.1,0.2-8.4,0.4-12.3-1c-33.5-7.9-67.1-15.8-101.1-21.3c-2.5,1.2-4.6,3.1-6.9,4.7
	c-3.9,3-8.4,5.4-12,8.9c-0.3,9.6,0,19.3-0.1,28.9c-6,6-12.1,11.9-18.2,17.8c-11.2-0.1-22.4,0.2-33.6-0.1c-3.6-2.3-6-6.1-9.4-8.8
	c-0.1,3-0.1,5.9,0,8.9c-5.6,0-11.1,0-16.7,0c-2.4-0.2-4.5,0.9-6.5,1.9c-27.9,13.8-56.9,25.3-86.4,35.5h-1.6
	c-36-12.2-71.2-26.8-104.6-44.7c-2.9,2.1-5.1,5.3-8.1,7.3c-18.9,0.4-37.8,0-56.8,0.2c-0.3-11.9-0.1-23.9-0.1-35.9c1.8,0,3.5,0,5.3,0
	c0-2.3,0-4.5,0-6.8c-9.5-6.3-18.8-13-28-19.7c-23.4,4-46.8,8.2-69.9,13.7c-14.1,2.9-28.2,6-42.2,9.6c-4.7,1.4-9.5,1.2-14.3,1
	c0-104.6,0-209.2,0-313.7c-0.1-4.5-2.2-8.6-3-12.9c-4-17.4-1.2-35.4-2.1-53c-0.3-6.5,2.1-13.1,6.9-17.6c3.3-3.3,7.8-5.1,11.8-7.3
	c3.3-15.8,7.4-31.4,10.8-47.2c1-2.9-1-5.4-2.3-7.8c-4.1-7.1-8.1-14.3-12.3-21.4c-4.3,4-7.5,9-11.5,13.3
	c-12.8,14.9-28.6,27.3-46.5,35.6c-19.5,9.2-40.9,13.9-62.3,15.9c-23.8,2.3-48.3,0.6-71-7.3c-25.4-8.4-47.5-26-61.6-48.7
	c-13.3-20.5-19.2-44.6-25.5-68v-19.6c1.3-0.9,2.7-1.7,4-2.6c28.5,14.2,57.5,29,89.4,33.7c6.8,0.8,13.8,2.8,20.7,1.3
	c4.8-2.9,7.7-8,10.7-12.6c7.2-10.9,12.2-23,17.1-35c5.3-12.4,10.9-24.6,16-37c8.4-19.1,16.9-38.5,29.8-55.1
	c20.1-26.4,47.8-45.6,76.5-61.5c4.7-2.4,7.6-7,8.6-12.1c4.1-18,9.7-35.5,15.3-53.1c1.6-5.9,5.6-11,10.9-14.1
	c30.1-17.1,62.4-30,95-41.5c36.7-13.4,74.7-23.2,113.4-29C532.5,2.6,557.9,0.9,583.3,0 M558.9,13C511,16,463.4,24.9,417.8,39.9
	c-38.6,13-77.1,27.2-112.7,47.2c-2.1,1.5-4.3,3.3-5.1,5.8c-5.4,16.5-10.5,33.1-14.7,50c-1.2,5.4-2.3,11.1-5.9,15.6
	c-4.3,6-11.2,9-17.4,12.6c-14.7,8.5-28.9,18-41.7,29.2c-15.6,13.4-28.6,29.7-38,48c-10.4,20.4-18.7,41.8-28,62.7
	c-5.8,13.4-10.9,27.1-19,39.3c-4.5,6.9-9.1,14.7-17.1,18.1c-5.7,2.5-12,1.5-17.9,0.8c-10.3-1.6-20.7-3.3-30.7-6.1
	c-9.7-3-18.5-9.2-28.8-10.1c-10.1-4-19.9-8.9-29.6-13.7c2,10.4,5.4,20.5,8.3,30.6c5.3,17.7,13.4,34.9,25.4,49
	c15,17.8,36.3,29.6,59,34.6c26.7,6.5,54.6,4.3,81.2-1.4c25.6-5.8,50.1-18.4,68-37.8c9.3-9.8,17.4-20.7,26.3-30.8
	c0.3,0,0.8-0.1,1-0.2c7.7,13.6,15.8,27.1,23.3,40.8c2.1,3.5,1.9,7.8,0.9,11.7c-3.8,15.6-7,31.4-10.9,47c-1.1,4.7-5.1,8-9.4,9.7
	c-4.3,1.9-8.8,5.4-8.8,10.5c0.3,13-0.3,26,0,39c0.5,7.2,1.4,14.5,4.1,21.3c3,0.6,5.9,1.3,8.9,2.1c3.2,9.2,8.6,18.8,18.1,22.6
	c0,0.1,0,0.4,0,0.5c-6.1-1.4-12.2-3-18.5-3.8c0.1,43.5-0.1,87.1,0.1,130.7c39.8-4.9,80.1-4.4,120-0.2c16.7,1.5,33.3,4,49.7,7.5
	c-0.1,0.1-0.3,0.4-0.4,0.6c-32.7-0.5-65.1,5.1-97.4,9.5c-24,3.9-48,7.8-71.9,12.5c-0.1,16.1,0.1,32.3-0.1,48.4
	c50-19.8,102.7-32.7,156.1-38.8c2.6-0.3,5.3-0.3,8-0.3c-17.5,4.8-34.3,11.9-51.1,18.7c-38.2,16.3-75.8,34-112.9,52.8c0,13,0,26,0,39
	c2.3-0.3,4.5-0.7,6.7-1.3c11.3-2.9,22.8-4.8,34.2-7.3c11.8-2.6,23.7-4.7,35.6-7.1c17.6-3.6,35.5-5.9,53.3-8.5c0-3.2,0-6.4,0-9.6
	c19.3,0,38.7-0.1,58,0.1c1,1.1,2.1,2.1,3.1,3.3c2.1-0.2,4.1-0.4,6.2-0.6c0.1-0.7,0.2-2.1,0.2-2.8c13.9,0,27.8,0.1,41.7-0.1
	c34.9-2,69.9-2,104.9-0.5c14.8,0.9,29.6,0.4,44.3,0.6c0.1,0.6,0.2,1.7,0.3,2.3c8.9,0.5,17.8,1.5,26.6,2.2c1.6-1.5,3.2-3,4.7-4.5
	c11.4,0.1,22.7-0.1,34.1,0.1c4.6,2.7,7.1,8.6,12.2,10.5c28.5,4,56.8,9.2,84.8,15.4c11.9,2.7,23.9,4.8,35.6,7.8
	c1.2-7.9,0.3-16,0.5-24c-0.3-12.7,0.1-25.4,0-38c-0.8-7.3,0.7-14.6-0.2-22c0.2-6.3,0.4-12.7,0.2-19c-0.6-5.3,0.5-10.7-0.2-16
	c0.2-13.7,0.5-27.4-0.2-41c0-18,0-36,0-54c-0.3-10,0.7-20,0.4-30c0-12.1-0.2-24.2,0.1-36.3c-3.9,0.2-7.6,1.3-11.3,2.2
	c2.4-7.3,5.9-14.2,8.5-21.3c3-0.8,6-1.4,9-2.1c4.8-12.8,9.3-25.7,13-38.8c1.5-5.5,3.5-11,4.4-16.6c0.6-1.5-1.3-1.9-2.2-2.5
	c-25.3-12.7-50.9-25-76.6-36.9c-33.1-14.9-66.3-29.9-101-40.6c0.6-0.1,1.3-0.2,2-0.3c32.7,3.4,65.1,9.3,97,17.3
	c30.1,7.8,59.9,17.1,88.4,29.6c3.7-18.7,6.4-37.7,8.1-56.7c-28.1-5.1-56.2-10.2-84.5-14.4c-33.2-4.9-66.6-9.5-100.2-10.1
	c3.2-1.5,6.8-1.7,10.2-2.4c58.2-9.8,117.8-13,176.5-5.5c0.3-9.5,0.3-19,0.1-28.5c-0.1-27.6-4.3-55-9.3-82
	c-8-39.5-20.3-78.1-36.2-115.2c-16.3-38.5-36.3-75.7-62.6-108.4c-1.9-2.1-3.8-4.3-6.1-5.8c-3.4-2.2-7.5-2.7-11.3-3.7
	c-15-4.2-30.1-8.4-45.2-12.4c-22.4-5.2-45.1-9.4-68-12.1c-23.5-3.1-47.2-5.1-70.9-5.2c-5-0.4-10-0.6-15-0.4
	C581,12.7,569.9,12,558.9,13 M425.8,839.2c0,6.5,0,13,0,19.5c1.6,0,3.3,0,5-0.1c0.9,12,0.2,24.1,0.3,36.2c-1.8,0-3.5,0-5.3,0
	c0,6.5-0.1,12.9,0,19.4l0.4,0.4c15.1,0.2,30.3,0,45.4,0.1c4.4-4.7,9.3-8.9,13.7-13.5c0-7.1-0.1-14.3,0-21.4
	c-1.1-1.2-2.3-2.4-3.2-3.7c0.5-1.7,2.1-2.7,3.2-4c0-6.4-0.1-12.9,0-19.3c-3.5-4.1-7.5-7.8-11.2-11.8c-0.9-0.9-1.7-2.1-3.1-1.8
	C456,839.2,440.9,839.1,425.8,839.2 M493.3,839.2c0,6.5,0,13,0,19.6c2.1,0.1,4.3-0.3,6.2,0.8c-0.3,14-0.1,28.1-0.1,42.1
	c4.4,4.3,8.7,8.7,13,13.1c8.3-0.1,16.5,0,24.8,0c1.2-0.2,2.9,0.3,3.8-0.8c4.2-4.2,8.5-8.3,12.5-12.7c0-14.2-0.2-28.3,0.1-42.5
	c1.9,0,3.9,0,5.8,0c0-6.5-0.1-13,0-19.5c-10.5-0.2-20.9,0-31.4-0.1c0,6.4-0.2,12.8,0.2,19.2c0.7,0,2,0,2.7,0c0,12.2,0,24.3,0,36.5
	c-3,0-5.9,0-8.9,0c-0.1-12-0.1-24.1,0-36.1c0.7-0.2,2-0.4,2.7-0.6c0.1-6.4,0.1-12.7,0-19.1C514.1,839.2,503.7,839.1,493.3,839.2
	 M569.2,839.2c0.1,6.5,0,13.1,0,19.6c1.7,0,3.4,0,5.1,0c0.1,12,0,24.1,0,36.1c-1.7,0-3.4,0-5,0c-0.2,6.6,0,13.3-0.1,19.9
	c18.7-0.1,37.5,0.1,56.2-0.1c-0.2-10.6,0-21.2-0.1-31.9c-6.7,0-13.4,0-20,0c-0.1,4-0.1,8,0,12c-2.9,0.2-5.9,0.2-8.8-0.1
	c0.1-11.7,0.2-23.4,0-35.2c2.1-0.9,4.6-0.7,6.8-1c-0.2-6.3-1.1-12.6,0.1-18.9C592.1,838.6,580.6,839.4,569.2,839.2 M634.5,839.2
	c0.1,6.5,0,13,0,19.6c1.7,0,3.3,0,5,0c0.3,12,0,24.1,0.1,36.1c-1.7,0-3.4,0-5.1,0c-0.1,6.6,0.1,13.2-0.1,19.8
	c18.7,0.3,37.5,0,56.2,0.1c-0.1-10.7-0.1-21.3-0.2-32c-6.7,0-13.3,0-19.9,0c-0.1,4-0.1,8,0,12c-2.8,0-5.5,0.1-8.3,0.1
	c0.1-12-0.2-24.1,0.1-36.1c2,0,4,0,6.1,0c0-6.5,0-13,0-19.5C657.1,839.1,645.8,839.1,634.5,839.2 M711,839.1c-4.2,4.4-9,8.3-12.9,13
	c-0.8,6.9-0.3,14-0.3,20.9c1.4,2.8,4.1,4.6,6.1,7c1.6,1.4,2.8,3.4,4.8,4.2c6.9,0.1,13.9,0,20.8,0.1c0,3.5,0,7,0,10.5
	c-3.1,0-6.2,0-9.3,0c0-2.2,0-4.4,0-6.7c-7.3,0.1-14.5-0.1-21.8,0.1c0.3,4.6-0.4,9.3,0.4,13.8c4,4.3,8,8.7,12.4,12.6
	c8.6,0.2,17.2,0,25.9,0.1c1.8,0.3,2.7-1.6,3.9-2.6c3.5-3.8,7.7-7,10.8-11c0.2-8.4,0-16.7,0-25c-3.1-3.2-6.1-6.5-9.4-9.5
	c-7.3-0.6-14.7-0.2-22-0.2c-0.3-2.5-0.3-5.1-0.1-7.6c3.1,0,6.2,0,9.3-0.1c0.6,1.6,0.6,3.3,0.6,5c6.9,0,13.7,0,20.6,0
	c0-4.3,0.1-8.5-0.1-12.8c-4-3.8-7.6-8.1-11.9-11.7C729.6,839,720.3,839.2,711,839.1 M610.7,847.6c1.1,6.3,0.1,12.7,0.1,19.1
	c-2,0-4,0.1-6.1,0.2c-0.1,2.5-0.1,5-0.2,7.6c9,0.6,18.1,0.1,27.1,0.3c0.1-2.7,0.1-5.4-0.3-8.1c-1.6,0.1-3.2,0.2-4.7,0.3
	c-0.4-6.4,0-12.9-0.2-19.3C621.2,847.7,615.9,846.5,610.7,847.6 M676.4,849.7c-0.1,5.6-0.1,11.3,0,16.9c-2.1,0-4.2,0.1-6.2,0.2
	c0,2.6,0,5.2,0,7.9c6.6,0,13.1,0,19.7,0c0-7.9,0-15.9,0-23.8C685.4,850.5,680.8,850.5,676.4,849.7 M408.9,858.5
	c2.1,3.1,5.9,4.7,8.9,6.9c0-2.7,0-5.5,0-8.2C414.8,857.7,411.8,858,408.9,858.5 M759.1,859.3c-0.1,1.9-0.2,3.9-0.3,5.8
	c2-1.2,3.9-2.5,5.8-3.7c0-0.4,0-1.2,0-1.6C762.8,859.6,761,859.5,759.1,859.3 M420.5,866.5c-1.4,1.7,2.5,3.8,3,1.5
	C423.6,866.5,421.6,865.7,420.5,866.5 M561.3,867.2c0,12.6,0.4,25.1,0,37.7c-6,5.8-11.9,11.7-17.7,17.7c-8,0.2-16-0.1-24,0.2
	c0.9,1,2.2,1.8,3.5,2.3c21.3,9.4,42.9,18.3,65.1,25.5c11.4-3.3,22.4-7.9,33.6-12c12.2-5,24.5-9.9,36.4-15.7
	c-32.2-0.3-64.4,0-96.7-0.1c-0.2-11.9,0.4-23.8,0.3-35.8c1.6,0,3.1,0,4.7-0.1c0.2-6.4-0.1-12.9,0.2-19.3
	C564.9,866.5,563,866.8,561.3,867.2 M489.5,908.8c3.5,1.6,6.9,3.7,10.5,5.2c-2.2-3-5.1-5.2-7.5-8
	C491.1,906.5,490.3,907.6,489.5,908.8z"/>
<path class="st1" d="M558.9,13c11-1,22.1-0.3,33.1-1.2c5-0.2,10,0,15,0.4c23.7,0.1,47.4,2.1,70.9,5.2c22.9,2.8,45.5,7,68,12.1
	C761,33.5,776,37.8,791,42c3.8,1.1,7.9,1.6,11.3,3.7c2.4,1.5,4.3,3.7,6.1,5.8c26.3,32.6,46.3,69.9,62.6,108.4
	c16,37,28.2,75.6,36.2,115.2c5.1,27.1,9.2,54.4,9.3,82c0.1,9.5,0.2,19-0.1,28.5c-58.7-7.5-118.3-4.4-176.5,5.5
	c-3.4,0.7-7,1-10.2,2.4c33.6,0.6,67,5.2,100.2,10.1c28.3,4.2,56.4,9.3,84.5,14.4c-1.7,19-4.5,38-8.1,56.7
	c-28.5-12.5-58.3-21.8-88.4-29.6c-31.9-7.9-64.3-13.9-97-17.3c-0.7,0-1.3,0.1-2,0.3c34.7,10.7,67.9,25.7,101,40.6
	c25.7,11.9,51.3,24.2,76.6,36.9c0.9,0.6,2.8,1,2.2,2.5c-0.9,5.7-2.9,11.1-4.4,16.6c-3.7,13.1-8.2,26.1-13,38.8c-3,0.7-6,1.3-9,2.1
	c-2.6,7.2-6.1,14.1-8.5,21.3c3.7-0.8,7.4-2,11.3-2.2c-0.2,12.1-0.1,24.2-0.1,36.3c0.3,10-0.7,20-0.4,30c0,18,0,36,0,54
	c0.8,13.7,0.4,27.4,0.2,41c0.7,5.3-0.4,10.7,0.2,16c0.2,6.4,0,12.7-0.2,19c0.9,7.3-0.6,14.7,0.2,22c0.2,12.7-0.3,25.4,0,38
	c-0.3,8,0.6,16-0.5,24c-11.8-3.1-23.8-5.1-35.6-7.8c-28.1-6.1-56.4-11.4-84.8-15.4c-5.1-1.9-7.6-7.8-12.2-10.5
	c-11.4-0.2-22.7,0-34.1-0.1c-1.6,1.5-3.2,3-4.7,4.5c-8.9-0.7-17.7-1.7-26.6-2.2c-0.1-0.6-0.2-1.7-0.3-2.3
	c-14.8-0.2-29.6,0.3-44.3-0.6C597,829,562,829,527,831c-13.9,0.2-27.8,0.1-41.7,0.1c-0.1,0.7-0.2,2.1-0.2,2.8
	c-2.1,0.2-4.1,0.4-6.2,0.6c-1-1.1-2.1-2.2-3.1-3.3c-19.4-0.1-38.7,0-58-0.1c0,3.2,0,6.4,0,9.6c-17.8,2.6-35.6,5-53.3,8.5
	c-11.9,2.4-23.8,4.5-35.6,7.1c-11.4,2.5-22.9,4.4-34.2,7.3c-2.2,0.6-4.4,1-6.7,1.3c0-13,0-26,0-39c37.1-18.7,74.7-36.5,112.9-52.8
	c16.8-6.8,33.6-13.9,51.1-18.7c-2.7,0-5.3-0.1-8,0.3c-53.4,6.2-106.1,19-156.1,38.8c0.2-16.1,0-32.3,0.1-48.4
	c23.9-4.6,47.9-8.6,71.9-12.5c32.3-4.4,64.7-10,97.4-9.5c0.1-0.1,0.3-0.4,0.4-0.6c-16.4-3.5-33-6-49.7-7.5
	c-39.8-4.3-80.2-4.7-120,0.2c-0.1-43.6,0-87.1-0.1-130.7c6.2,0.8,12.3,2.4,18.5,3.8c0-0.1,0-0.4,0-0.5c-9.5-3.8-14.9-13.3-18.1-22.6
	c-2.9-0.8-5.9-1.5-8.9-2.1c-2.7-6.8-3.5-14.1-4.1-21.3c-0.3-13,0.3-26,0-39c0-5.2,4.5-8.7,8.8-10.5c4.3-1.7,8.2-5.1,9.4-9.7
	c3.9-15.6,7.1-31.4,10.9-47c1-3.8,1.2-8.1-0.9-11.7c-7.5-13.8-15.5-27.2-23.3-40.8c-0.3,0-0.8,0.1-1,0.2
	c-8.9,10.1-17.1,21-26.3,30.8c-17.9,19.5-42.4,32.1-68,37.8c-26.6,5.7-54.5,7.9-81.2,1.4c-22.6-5-43.9-16.8-59-34.6
	c-12-14.2-20.1-31.3-25.4-49c-2.9-10.2-6.3-20.2-8.3-30.6c9.8,4.8,19.5,9.7,29.6,13.7c10.3,0.9,19.1,7.2,28.8,10.1
	c10.1,2.9,20.4,4.6,30.7,6.1c5.9,0.7,12.2,1.7,17.9-0.8c7.9-3.4,12.6-11.1,17.1-18.1c8.1-12.2,13.3-26,19-39.3
	c9.3-20.9,17.6-42.3,28-62.7c9.4-18.3,22.4-34.7,38-48c12.8-11.2,26.9-20.8,41.7-29.2c6.1-3.7,13.1-6.6,17.4-12.6
	c3.5-4.5,4.7-10.1,5.9-15.6c4.2-16.8,9.4-33.4,14.7-50c0.8-2.5,2.9-4.4,5.1-5.8c35.6-20.1,74.1-34.2,112.7-47.2
	C463.4,24.9,511,16,558.9,13 M569,42.5c-28.2,0.9-56.2,4.3-83.9,9.6c-21.7,4-43.1,9.5-64.3,15.7c-18.3,5.6-36.4,11.9-54.3,18.8
	c-3.9,1.7-8.1,2.7-11.3,5.7c6.7-1.3,13.2-3.2,19.8-4.8c13.3-3.3,26.7-5.7,40.1-8.2c7.3-1.2,14.6-2.7,22-3.2l0.7-0.5
	c15-1.4,30-3.4,45.1-4.3c42-2.6,84.3-1.5,125.9,4.7C660.5,83.6,711,98.7,758.6,120l0.1,0.4c2.4,1.9,4.5,4.2,5.6,7.1
	c18.7,43.1,29.8,89.3,34.5,135.9c0.6,6.9,2.3,14,0,20.7c-2,6.2-4.7,12.2-7.9,17.9c-11.9,22.2-32.8,38.9-56.6,46.8l0.4,0.6
	c-1.7-0.2-3.2,0.6-4.8,1.1c-21.5,7.2-44.5,8-66.9,6c-28.7-2.7-57.5-8.7-83.8-20.8c-33.4-15.2-62.7-40.5-80.1-73
	c25.7,7.2,51.5,14.1,77.9,17.8c20.8,2.9,42.2,3.3,62.8-1.2c8.9-1.9,18-3.6,26.4-7c7.7-3.3,15.6-7.3,20.8-14.2
	c3.6-4.5,5.1-10.3,4.7-16c0.3-5.1-2.2-9.8-2.6-14.9c7.9,8.5,13.1,21,9.3,32.5c-4,11.4-15,17.8-25.4,22.5
	c-14.9,5.9-30.5,10-46.4,11.5c-18.9,2.3-38,0.9-56.8-1.4l-0.7-0.5c-14.8-1.4-28.8-7.3-43.4-9.6c23.1,26.3,55.3,43.9,89.3,51.9
	c16,4.1,32.5,6,48.9,5.7c6.3-0.2,12.7,0.2,18.9-0.9c14.3-0.9,28.3-4.1,42.2-7.6c6.8-1.6,13.3-4.4,19.4-7.8c14.3-8,25-21.9,29.5-37.5
	c4.3-12.5,4-25.9,3.5-38.9c-1.5-13.6-5.4-26.9-11.3-39.1c-7.5-16.7-17.6-32.4-30.3-45.8c-14.3-14.8-32.3-26.1-52-32.2
	c-11.5-4-23.7-5.8-35.8-7c-13.1-0.9-26.1-0.5-39.2-0.1l-0.8,0.5c-10.6,0.3-21.2,2-31.7,3.5c-10.5,1.6-20.8,7.1-26.3,16.5
	c-6.8,11.7-7.6,25.6-8.2,38.7c-1.1,9.7,1.1,19.3,1.7,29c-3.2-5.8-6-11.8-8.5-17.9c-5.7-14.6-7.3-31-2.5-46
	c4.8-14.7,14.9-27,26.6-36.9c0.9-0.6,1.4-1.5,1.7-2.4c-11.7-0.5-23.4-0.6-35.1,0.2c-34.8,3-68.6,14.1-99,31
	c-7.5,3.7-13.2,10-18.4,16.4c-10.9,12.6-20.9,25.9-31.8,38.5c-0.5-0.1-1.6-0.5-2.1-0.6c5.2-14.6,11.7-28.7,16.6-43.4
	c-8-0.6-16.1-0.6-24.1-0.5c-13.6,0.1-27,3.4-39.5,8.5c-4.1,1.7-8.4,4.1-10.2,8.3c-7.4,21.8-10,45.3-6.4,68.1
	c-10.9-15.3-15-34.4-14.7-52.9c-13.2,5.9-26.1,12.4-38.1,20.5c-18.5,12.1-34.5,28.2-46.3,46.9c-15.5,25.5-26,53.5-38.4,80.6
	c-5.4,12.4-12.1,24.3-20.8,34.8c-0.1,0.6-0.1,1.8-0.2,2.4c9.8-2.1,19.5-4.9,29.3-7.3c-8.9,8.8-19.1,16.3-30.6,21.1
	c-15.7,7-33.3,8.7-50.2,6.3c-20.3-2.6-39-11.4-57.6-19.3c1.5,6.4,4.9,12.2,8.3,17.8c11.4,18.2,30,31.4,50.3,37.8
	c18.6,6.3,38.6,6.4,58,5.1c25.8-2.1,51.7-10.4,71.6-27.4c16.7-13.8,27.4-32.9,39.2-50.6c8.1-12.3,15.8-24.8,24.9-36.5
	c7.3-9.6,16.4-17.9,26.8-23.9c9.7-5.9,20.6-9.6,31.6-12.3c-2.7,2.6-5.9,4.4-8.8,6.8c-15.4,12-27.7,27.5-37.8,44
	c-6.2,10-8.4,22.4-4.9,33.7c5,15.1,10.4,30.3,19.1,43.7c0.3,0.1,0.9,0.2,1.2,0.2c4.8-7.5,9.5-15.1,15.3-21.9c3.1-3.4,6.3-7,10.7-8.8
	c-8.7,20.5-14.2,42.5-15.2,64.7c-0.7,15.4,1.4,30.8,5.2,45.7l-1.9-0.1c-5.1-8.7-9.5-17.8-14.5-26.5c-2.3,9.3-4.3,18.7-6.2,28.2
	c-0.9,3.6-1.3,7.4-2.3,11c0.6,2.4,1.4,5.1,4,6c8,3.2,16.1,6.2,24.4,8.6c11.4,3.1,24.3,3.3,34.8-2.7c7.6-3.8,13.1-10.3,18.6-16.5
	c10.3-11.1,20.4-22.3,30.6-33.4c6.8-7.9,14.6-14.9,20.3-23.7c0.5-0.1,1.6-0.2,2.1-0.2c-0.5,3-1.7,5.8-2.6,8.6c-4.9,15-10.1,30-15,45
	c9.6-3.4,19.3-6.7,29-10c1.9-0.8,4.3-0.3,5.4,1.6c2.3,4.2,3.8,8.8,6,13.1c6.4,12.8,10.8,26.7,13.4,40.8c0.8,5.2,2.7,10.5,1.7,15.8
	c-1,4.8-5.2,8.2-9.6,9.7c-15.6,5.7-31.1,11.7-46.8,17.2c-2.5,0.9-5-0.5-6.9-2.2c-5.1-4.5-10.2-8.9-15.2-13.5c-0.1-0.7-0.2-2.2-0.3-3
	c4.5,1.6,8.9,3.2,13.5,4.5c6.8,2.7,15.2,2.4,20.9-2.6c7.6-6.8,15.2-13.5,22.5-20.6c1.1-1.2,2.5-2.7,2-4.5c-2.9-11.1-8-21.8-16-30.1
	c-18,10.4-35.8,21.4-53.9,31.8c-7.2,4-14.3,8.9-22.7,9.9c-8,1.8-16.2,0.2-23.9-1.8c-13.6-3.5-27.3-6.5-40.9-10
	c-4.1-1-8.2-2.4-12.4-2.8c0.8,10.3,1.9,20.8,6,30.5c1.6,3.2,3,6.7,5.8,9.2c3.3,3.2,8,4,12.1,5.5c11.1,3.4,22.1,6.9,33.1,10.4
	c1,1.4,2.1,2.8,3.2,4.1c-7,0.9-13.9,2.4-21,3.1c-1.4,0.4-2.8,0.6-4.1,1.1c17,8.4,33.9,16.9,50.9,25.4c9.1,4.6,16.8,11.8,22.7,20.1
	c5.9,8.4,13,15.9,20.8,22.5c5.1,4.3,12,6.2,18.7,5.5c8.1-1,15.5-4.6,23.1-7.2c26.8-9.5,53.4-20,81-27.3c9.6-2.3,19.2-4.7,28.9-6.2
	c4.7-1,10.1-0.6,14.1-3.7c2.9-4.2,0.3-9.5-0.4-14c-3.6-17.4-15.3-31.9-28.9-42.7c-5.5-4.6-11.8-8.2-17.5-12.5
	c-0.3-0.3-0.8-0.8-1.1-1.1c0.9,0.2,1.8,0.4,2.8,0.5c13.6,0.9,27.4,4.4,38.7,12.3c2.6,1.7,4.7,4,7.4,5.7c16-31.8,40.3-59.2,70-78.9
	c-3.7,8.2-8.8,15.6-12.9,23.5c-8.7,15.7-16.4,32-21.8,49.2c-1.7,6.2-3.8,12.4-4.8,18.8c-1,6.7,4.2,11.9,8,16.7
	c14.2,17.6,28,35.5,41.7,53.4c4.5,6,9.3,12,12.9,18.6c17-0.7,34-2.8,50.9-4.1c12.2-1.1,24.4-2.2,36.6-3.3c9-0.2,18.2-1.3,27.1-2.2
	c34.8-45.7,59.7-98.6,74.8-154c-31.8-20.4-64.9-39.1-99.7-54c-32.8-14.4-67.2-26.1-102.8-31.1c-5.1-0.5-10.1-1.1-15.2-1.6
	c0.8-0.3,1.7-0.6,2.5-0.8c20.8-4,42.1-3.4,63.2-3.1c14.5,1.1,29,2.2,43.5,4.4c41,5.5,81,16,120.3,28.8c1.3-8.7,2.5-17.3,3.3-26
	c-34.3-10.3-69.4-17.8-104.8-22.8c-29.1-3.6-58.7-5.7-88-3.1c-0.8,0-2.2,0-3,0c-7.9,1.1-15.9,1.7-23.7,3.3c-2.3,0.6-5,0-6.8,1.9
	c0-1.3,1.5-1.5,2.4-2.1c26-12.2,54-19.7,82.3-24.8l0.7-0.4c3.5-0.3,6.9-1.1,10.4-1.6c5.6-0.4,11.2-1.6,16.8-2.3
	c38.7-5.4,77.8-5.2,116.7-4.4c0.2-16.2,0.1-32.4-1.3-48.5c-3.7-41.1-14.5-81.2-28.4-120c-14.9-41.7-33.4-82.6-59.3-118.7
	c-2.7-4-5.9-8.3-10.8-9.8c-5.1-1.5-10.1-3.5-15.3-4.9C737.8,58,695.7,49.2,653,44.9C625.1,42.1,597,41.7,569,42.5 M603.4,601.6
	c1.5,6,2.9,12,3.8,18.1c6.2-0.2,12.5-0.2,18.7-0.3c-4.3-6.2-9.6-11.6-13.6-17.9C609.3,601.6,606.4,601.6,603.4,601.6 M329.3,636.3
	c-7.8,5-9.8,14.9-10.7,23.4c-0.4,14.4-0.1,28.8-0.3,43.2c9.5-0.1,19-0.3,28.4-0.2c0-11.3,0-22.6,0-33.9c0-4.1,1.4-9.4,6.1-10.2
	c5.8-0.7,11.6,0.6,17.3,1.3c4.9,0.7,8.9,4.9,8.9,9.9c0.2,11.4,0.1,22.7,0.1,34.1c9.6,0.8,19.2,1.7,28.7,2.7
	c0.1-13.2,0.3-26.5-0.1-39.7c-2-2.6-4.5-4.8-6.5-7.4c-5.2-5.8-9-12.9-14.9-18.1c-2.2-1.9-4.4-4.1-7.4-4.5
	c-8.4-1.6-16.9-2.4-25.4-3.5C345.5,633.1,336.5,631.5,329.3,636.3 M834.6,641.4c-5.8,9.2-11.8,18.2-18.2,27
	c-1.3,1.8-2.8,3.4-3.6,5.5c-0.3,19.1,0.3,38.3-0.3,57.4c-10.7-0.4-21.4,0.5-32-0.5c0.2-16.4,0.1-32.7,0.1-49.1
	c-9.6,1.2-19.4,1.3-29,2.7c0,31.6,0,63.1,0,94.7c-0.1,12.7,0.2,25.4-0.2,38.1c0.9,1,2.4,1,3.6,1.2c8.4,1,16.8,2.2,25.3,3
	c0-22.3,0-44.5,0-66.8c7-0.3,13.8,1,20.8,0.9c3.8,0.3,7.9-0.6,11.5,1.1c0.7,13.6-0.3,27.3,0.4,40.9c-0.5,6.1,0,12.2-0.2,18.3
	c0.1,3.5-0.8,7.2,0.9,10.4c3,1.4,6.4,1,9.6,1.7c5.8,1,11.6,2,17.5,2.9c0.4-13.9,0.3-27.9,0.5-41.8c0.3-41.7,0.3-83.4,0.3-125.2
	c0-7.9-1.1-16.2-5.7-22.8C835.5,641.3,834.9,641.4,834.6,641.4 M638.3,649.3c-0.2,22.7,0,45.4-0.1,68.1c0.2,12-0.3,24,0.2,36
	c-0.4,18.5-0.1,37.1-0.1,55.6c0.4,0,1.3-0.1,1.7-0.1c9.1,1.1,18.3,1.2,27.5,1.6c0.1-34.2-0.1-68.3,0-102.4l1.9,1.5
	c0.8,3.4,2.4,6.4,3.7,9.6c3.7,9.4,7.7,18.7,11.5,28.1c0.3,0.5,0.9,1.6,1.2,2.1l-0.2,0.7c4.2,8.7,7.3,17.8,11.1,26.7
	c0.9,2,1.3,4.2,1.2,6.4c0,9.8,0,19.6,0,29.4c9.5,0.9,19.1,1.7,28.6,2.5c0.1-19.7,0-39.3,0-59c0.1-11.3,0-22.7,0-34
	c0-11.8,0-23.6,0-35.4c-9.5,0.8-19.1,1.7-28.6,2.5c0,10.4-0.1,20.7,0.1,31.1c-0.1,0.8-0.2,2.4-0.3,3.1c-0.6-1.2-1.2-2.5-1.7-3.7
	h-0.1c-3.7-9.9-7.7-19.7-11.6-29.5c-8.6-1.6-11.5-10.6-16.3-16.7c-6.4-8.3-12.5-16.8-19.2-24.9C645.2,648.2,641.6,648.1,638.3,649.3
	 M546.5,650.8c-0.2,1.7-0.4,3.4-0.3,5.2c0.1,50.7-0.1,101.4,0.1,152.1c23.7,0.2,47.4,0,71,0.1c0.1-6.2-0.1-12.5,0.1-18.7
	c-1.1-0.6-2.3-0.8-3.5-0.8c-13,0-25.9,0.1-38.9,0c0-17.4,0-34.8-0.2-52.2c12.5-0.1,25.1,0,37.6-0.1l0.3,0.2
	c-0.1-6.8-0.1-13.6-0.1-20.4c-12.4,0-24.8,0.1-37.3,0c0.1-15.3-0.1-30.7,0.1-46l0.4-0.5c13.9-0.3,27.7,0,41.6-0.4
	c0.8-6.7,0.2-13.4,0.3-20c-20.6-0.2-41.2,0.1-61.8,0C552.8,649.3,549.7,650.2,546.5,650.8 M491,669.6c-1.4,0.1-0.7,1.7-0.1,2.3
	c1.9,2.6,2.5,5.9,2.4,9c0,11,0,22,0,33c0,1.6-0.1,3.1-0.5,4.7c-0.7,2.1-2.3,3.8-3.7,5.5c6.9,1.9,13.4,4.9,20,7.6
	c2.6,1,5,2.3,7.4,3.8c1.8-2.9,4-5.9,4.5-9.4c0.8-3.7,1.3-7.4,1.4-11.1c0.2-14,0.1-28,0-42c0-4.5-1.4-8.9-3.5-12.9
	C509.3,662.5,500.4,666.8,491,669.6 M443,684.6c-3.2-0.2-6.6,0.4-9.5-1.3c-0.7,9-0.1,18-0.3,27c9.1,1.5,18.1,3.7,27.1,5.4
	c0.3,0.3,0.8,0.8,1.1,1c1.2-2.4,0.8-5.1,0.8-7.7c-0.1-9.6,0.2-19.2-0.2-28.8C456,682.8,449.6,684.8,443,684.6 M433,731.4
	c-0.3,6-0.1,12-0.1,18c9.5-0.8,19-1.2,28.5-1.1c0.1-1,0.1-1.9,0.2-2.8c5.1,0.1,10.2-0.1,15.3,0c1.8-0.2,2.2,1.8,3.1,2.9
	c9.2,0.5,18.4,1.5,27.6,3c-0.9-2.8-1.8-5.6-2.6-8.5c4.2-1.6,8.1-4,11.2-7.3c-6.5-2.1-13.5-2.8-20.3-3.6c-4.2-1-8.6-0.4-12.9-1.3
	c-15-0.8-30.1-0.7-45.1,0C436.3,731.2,434.7,731.3,433,731.4 M375,739.1c-3.4,0.6-6.8,1.2-10.1,1.9c-11.4,2.3-22.8,5.1-34.1,8.1
	c-4.3,0.5-8.4,2.1-12.6,3.3c0,6.5,0.1,13,0,19.5c9.5-2,18.7-5.4,28.2-7.5c0.1-2.6,0.1-5.3,0.3-7.9c10.5-1.1,21.1-0.7,31.6-1.8
	c0.3,0.5,0.8,1.6,1.1,2.2c7.9-1.1,15.8-2.4,23.5-4c1.6-0.1,3.2-0.3,4.8-0.5c-0.1-6.2,0.3-12.5-0.2-18.7
	C396.8,735.5,385.9,737,375,739.1 M482.3,754.8c-0.1,2.7,1,5.3,1.7,7.9c2.8,10.5,6.2,20.8,9.1,31.2c0.3,1,0.6,2.1,0.9,3.1
	c0.8,3.6,1.7,7.2,2.8,10.7c0.5,1.8,2.4,2.8,4.2,2.5c7.9-0.8,15.8-0.9,23.8-1.3c-0.7-3.8-1.8-7.6-3.2-11.2c-4.8-15.4-9-31-14.1-46.3
	C499,752.7,490.7,753.9,482.3,754.8 M433.1,768.5c0,0.6,0,1.7,0.1,2.2c-0.6,14.9-0.1,29.9-0.3,44.8c9.5-0.8,18.9-2.1,28.4-2.3
	c0.5-11.2,0.3-22.4,0.2-33.6c0-6.6,0-13.2,0-19.8C452,762.5,442.5,765.3,433.1,768.5 M379.4,791.3c-0.2,10.2,0,20.4-0.1,30.6
	c9.5-0.9,18.9-2.3,28.3-3.4c0.1-13.4,0.3-26.8,0-40.2C398.2,782.4,388.5,786.4,379.4,791.3 M318.7,824.9c-0.8,2.2-0.2,4.7-0.3,7
	c7.7-1.3,15.3-2.9,23-3.8c2-0.3,4.8-0.7,5.1-3.1c0.2-5.6,0-11.2,0-16.7C337.2,813.6,327.7,818.9,318.7,824.9z"/>
<path class="st1" d="M590.6,141.7c3.8-2,8.2-2.1,12.4-2.5c4.6-0.6,9.3-0.5,14-0.3c12.6,1,25.2,2.6,37.5,5.7c16.9,4,33.9,9.3,49,18.1
	c2.7,1.7,5.7,3.2,7.6,5.9c-19.5-4.8-39-10-59.1-11.7c-17.6-1.5-35.7,0.1-52.2,6.6C596.7,156.3,594.1,148.8,590.6,141.7z"/>
<path class="st1" d="M273,218.6c2-1.3,4.2-2.3,6.3-3.4c2.7,7.6,4.9,15.2,7.4,22.8c-6.4,2.5-12.7,5.4-18.6,8.9
	c-9.9,5.7-18.7,13.3-26.6,21.5c-13.7,13.9-24.4,30.3-36.2,45.7c1.4-8.5,5-16.5,8.7-24.3c8.6-16.7,19.4-32.1,31.6-46.3
	C253.7,234.3,262.5,225.3,273,218.6z"/>
<path class="st1" d="M450.4,334.5c6.9-7.2,16.8-10.7,26.6-11.3c6.7-1.2,13.4,0.3,20,0.7c-7.4,2.6-15,5.1-21.2,10
	c-9.9,7.5-16.1,19.1-18.6,31.1c-0.7,2.9-1.2,6.6-4.3,7.8c-17.2,7.4-34.6,14.4-51.9,21.8c-2.2,0.9-4.3,2.2-6.8,2
	c11.7-10.1,24.1-19.3,35.9-29.2c3.4-2.9,7.9-5.5,8.9-10.2C441.3,348.9,444.4,340.6,450.4,334.5z"/>
<path class="st0" d="M500.4,329.3c0.4,0,1.3,0,1.7,0.1c0.5,10.7,2.5,21.3,3.7,31.9c-13.6,7.6-27.3,15.1-40.9,22.6
	c-3.3,1.8-6.4,4-10,5.1c6.5-9,13.1-17.9,19.9-26.7c2.5,0.9,4.9,2.3,7.1,3.8c0.9-4.3,0.9-8.8-0.4-13.1
	C487.6,345,494.2,337.3,500.4,329.3z"/>
<g>
	<linearGradient id="SVGID_1_" gradientUnits="userSpaceOnUse" x1="43.29" y1="358.8761" x2="893.7958" y2="358.8761">
		<stop  offset="0" style="stop-color:#ADACAC"/>
		<stop  offset="0.5" style="stop-color:#D0D0D0"/>
		<stop  offset="1" style="stop-color:#ADACAC"/>
	</linearGradient>
	<path class="st2" d="M666.8,406c26-12.2,54-19.7,82.3-24.8l0.7-0.5c3.5-0.3,6.9-1.1,10.4-1.6c5.6-0.4,11.2-1.6,16.8-2.3
		c38.7-5.4,77.8-5.2,116.7-4.4c0.2-16.2,0.1-32.4-1.3-48.5c-3.7-41.1-14.5-81.2-28.4-120c-14.9-41.7-33.4-82.6-59.3-118.7
		c-2.7-4-5.9-8.3-10.8-9.8c-5.1-1.5-10.1-3.5-15.3-4.9C737.8,58,695.7,49.2,653,44.9c-27.9-2.8-56-3.2-84.1-2.4
		c-28.2,0.9-56.2,4.3-83.9,9.6c-21.7,4-43.1,9.5-64.3,15.7c-18.3,5.6-36.4,11.9-54.3,18.8c-3.9,1.7-8.1,2.7-11.3,5.7
		c6.7-1.3,13.2-3.1,19.8-4.8c13.3-3.3,26.7-5.7,40.1-8.2c7.3-1.2,14.6-2.7,22-3.2l0.7-0.5c15-1.4,30-3.4,45.1-4.3
		c42-2.6,84.3-1.5,125.9,4.7C660.5,83.6,711,98.7,758.6,120l0.1,0.4c2.4,1.9,4.5,4.2,5.6,7.1c18.7,43.1,29.8,89.3,34.5,135.9
		c0.6,6.9,2.3,14,0,20.7c-2,6.2-4.7,12.2-7.9,17.9c-11.9,22.2-32.8,38.9-56.6,46.8l0.4,0.6c-1.7-0.2-3.2,0.7-4.8,1.1
		c-21.5,7.2-44.5,8-66.9,6c-28.7-2.7-57.5-8.7-83.8-20.8c-33.4-15.2-62.7-40.5-80.1-73c25.7,7.2,51.5,14.1,77.9,17.8
		c20.8,2.9,42.2,3.3,62.8-1.2c8.9-1.9,18-3.6,26.4-7c7.7-3.3,15.6-7.3,20.8-14.2c3.6-4.5,5.1-10.3,4.7-16c0.3-5.2-2.2-9.8-2.6-14.9
		c7.9,8.5,13.1,21,9.3,32.5c-4,11.4-15,17.8-25.4,22.5c-14.9,5.9-30.5,10-46.4,11.5c-18.9,2.3-38,0.9-56.8-1.4l-0.7-0.5
		c-14.8-1.4-28.8-7.3-43.4-9.6c23.1,26.3,55.3,43.8,89.3,51.9c16,4.1,32.5,6,48.9,5.7c6.3-0.2,12.7,0.2,18.9-0.9
		c14.3-0.9,28.3-4.1,42.2-7.6c6.8-1.6,13.3-4.4,19.4-7.8c14.3-8,25-21.9,29.5-37.5c4.3-12.5,4-25.9,3.5-38.9
		c-1.5-13.5-5.4-26.9-11.3-39.1c-7.5-16.7-17.6-32.4-30.3-45.8c-14.3-14.8-32.3-26.1-52-32.2c-11.5-4-23.7-5.8-35.8-7
		c-13.1-0.9-26.1-0.5-39.2-0.1l-0.8,0.5c-10.6,0.3-21.2,2-31.7,3.5c-10.5,1.6-20.8,7.1-26.3,16.5c-6.8,11.7-7.6,25.6-8.2,38.7
		c-1.1,9.7,1.1,19.3,1.7,29c-3.2-5.8-6-11.8-8.5-17.9c-5.7-14.5-7.3-31-2.5-46c4.8-14.7,14.9-27,26.6-36.9c0.9-0.6,1.4-1.5,1.7-2.5
		c-11.7-0.5-23.4-0.6-35.1,0.2c-34.8,3-68.6,14.1-99,31c-7.5,3.7-13.2,10-18.4,16.4c-10.9,12.6-20.8,26-31.8,38.5
		c-0.5-0.1-1.6-0.5-2.1-0.6c5.2-14.6,11.7-28.7,16.6-43.4c-8-0.6-16.1-0.6-24.1-0.5c-13.6,0.1-27,3.4-39.5,8.5
		c-4.1,1.7-8.4,4.1-10.2,8.3c-7.4,21.8-10,45.3-6.4,68.1c-10.9-15.3-15-34.4-14.7-52.9c-13.2,5.9-26.2,12.4-38.1,20.5
		c-18.5,12.1-34.5,28.2-46.3,46.9c-15.5,25.5-26,53.5-38.4,80.6c-5.4,12.4-12.1,24.3-20.8,34.8c0,0.6-0.1,1.8-0.2,2.4
		c9.8-2.1,19.5-4.9,29.3-7.3c-8.9,8.8-19.1,16.3-30.6,21.1c-15.7,7-33.3,8.7-50.2,6.3c-20.3-2.6-39-11.4-57.6-19.3
		c1.5,6.5,4.9,12.2,8.3,17.8c11.4,18.2,29.9,31.4,50.3,37.8c18.6,6.3,38.6,6.4,58,5.1c25.8-2.1,51.7-10.5,71.6-27.4
		c16.7-13.8,27.4-32.9,39.2-50.7c8.1-12.3,15.8-24.8,24.9-36.5c7.3-9.6,16.4-17.8,26.8-23.9c9.7-5.9,20.6-9.6,31.6-12.3
		c-2.7,2.6-5.9,4.4-8.8,6.8c-15.4,12-27.7,27.5-37.8,44c-6.2,10-8.4,22.4-4.9,33.7c5,15.1,10.4,30.3,19.1,43.7
		c0.3,0.1,0.9,0.2,1.2,0.2c4.8-7.5,9.5-15.1,15.3-21.8c3.1-3.4,6.3-7,10.7-8.8c-8.7,20.5-14.2,42.5-15.2,64.7
		c-0.7,15.4,1.4,30.8,5.2,45.7l-1.9-0.1c-5.1-8.7-9.5-17.8-14.5-26.5c-2.3,9.3-4.3,18.7-6.2,28.2c-0.9,3.6-1.3,7.4-2.3,11
		c0.6,2.4,1.4,5.1,4,6c8,3.2,16.1,6.2,24.4,8.6c11.4,3.1,24.3,3.3,34.8-2.7c7.6-3.8,13.1-10.3,18.6-16.5
		c10.3-11.1,20.4-22.3,30.6-33.4c6.8-7.9,14.6-14.9,20.3-23.7c0.5-0.1,1.6-0.2,2.1-0.2c-0.5,3-1.7,5.8-2.6,8.6
		c-4.9,15-10.1,30-15,45c9.6-3.4,19.3-6.7,29-10c1.9-0.8,4.3-0.3,5.4,1.6c2.3,4.2,3.8,8.8,6,13.1c6.4,12.8,10.8,26.7,13.4,40.8
		c0.8,5.2,2.7,10.5,1.7,15.8c-1,4.8-5.2,8.2-9.6,9.7c-15.6,5.7-31.2,11.7-46.8,17.2c-2.5,0.9-5-0.5-6.9-2.2
		c-5.1-4.5-10.2-8.9-15.2-13.5c0,11.1-2.7,22.9-10.4,31.4c-4.9,5.6-12.1,9.4-19.6,9.5c-8.2-0.1-15.8-4.4-21.1-10.4
		c-7,0.9-13.9,2.4-21,3.1c-1.4,0.4-2.8,0.6-4.1,1.1c17,8.4,33.9,16.9,50.9,25.4c9.2,4.6,16.8,11.8,22.7,20.1
		c5.9,8.4,13,15.9,20.8,22.5c5.1,4.3,12,6.2,18.7,5.5c8.1-1,15.5-4.6,23.1-7.2c26.8-9.5,53.4-20,81-27.3c9.6-2.3,19.2-4.7,28.9-6.2
		c4.7-1,10.1-0.6,14.1-3.7c2.9-4.2,0.3-9.5-0.4-14c-3.6-17.4-15.3-31.9-28.9-42.7c-5.5-4.6-11.8-8.2-17.5-12.5
		c-0.3-0.3-0.8-0.8-1.1-1.1c0.9,0.2,1.8,0.4,2.8,0.5c13.6,0.9,27.4,4.4,38.7,12.3c2.6,1.7,4.7,4,7.4,5.7c16-31.8,40.3-59.2,70-78.9
		c-3.7,8.2-8.8,15.6-12.9,23.5c-8.7,15.7-16.4,32-21.8,49.2c-1.7,6.2-3.8,12.4-4.8,18.8c-1,6.7,4.2,11.9,8,16.7
		c14.2,17.6,28,35.5,41.7,53.4c4.5,6,9.3,12,12.9,18.6c17-0.7,34-2.8,50.9-4.1c12.2-1.1,24.4-2.2,36.6-3.3c9-0.2,18.2-1.3,27.1-2.2
		c34.8-45.7,59.7-98.6,74.8-154c-31.8-20.4-64.9-39.1-99.7-54c-32.8-14.4-67.2-26.1-102.8-31.1c-5.1-0.5-10.1-1.1-15.2-1.6
		c0.8-0.3,1.7-0.6,2.5-0.8c20.8-4,42.1-3.4,63.2-3.1c14.5,1.1,29,2.2,43.5,4.4c41,5.5,81,16,120.3,28.8c1.3-8.7,2.5-17.3,3.3-26
		c-34.3-10.3-69.4-17.8-104.8-22.8c-29.1-3.6-58.7-5.7-88-3.1c-0.8,0-2.2,0-3,0c-7.9,1.1-15.9,1.7-23.7,3.3c-2.3,0.6-5,0-6.8,1.9
		C664.4,406.7,666,406.5,666.8,406z M603,139.1c4.6-0.7,9.3-0.5,14-0.3c12.6,1,25.2,2.5,37.5,5.7c16.9,4,33.9,9.3,49,18.1
		c2.7,1.7,5.7,3.2,7.6,5.9c-19.5-4.8-39-10-59.1-11.7c-17.6-1.5-35.7,0.1-52.2,6.6c-3.2-7.2-5.8-14.7-9.3-21.8
		C594.4,139.6,598.8,139.6,603,139.1z M268,247c-9.9,5.7-18.7,13.3-26.6,21.5c-13.7,13.8-24.4,30.3-36.2,45.7
		c1.4-8.5,5-16.5,8.7-24.3c8.6-16.7,19.4-32.1,31.6-46.3c8.2-9.3,17-18.3,27.5-25c2-1.3,4.2-2.3,6.3-3.4c2.7,7.6,4.9,15.2,7.4,22.8
		C280.2,240.5,274,243.5,268,247z M452.9,372.8c-17.2,7.4-34.6,14.4-51.9,21.8c-2.2,0.9-4.3,2.2-6.8,2
		c11.7-10.1,24.1-19.3,35.9-29.2c3.4-2.9,7.9-5.5,8.9-10.2c2.2-8.1,5.3-16.4,11.4-22.5c6.9-7.2,16.8-10.7,26.6-11.3
		c6.7-1.2,13.3,0.3,20,0.7c-7.4,2.6-15,5.1-21.2,10c-9.9,7.5-16.1,19.1-18.6,31.1C456.6,367.8,456.1,371.5,452.9,372.8z
		 M430.6,642.3c-0.7,0.2-1.9,0.5-2.6,0.7c-2.9-4.6-7.4-8.3-9.6-13.2c2-0.2,3.9-0.4,5.9-0.6l0.6-0.4c22.2-3.3,44.1-8.4,66.3-11.5
		C470.9,625.4,450.8,634,430.6,642.3z M464.9,383.8c-3.3,1.8-6.4,4-10,5.1c6.5-9,13.1-17.8,19.9-26.7c2.5,0.9,4.9,2.3,7.1,3.8
		c0.9-4.3,0.9-8.8-0.4-13.1c6.1-8.1,12.8-15.8,18.9-23.8c0.4,0,1.3,0,1.7,0.1c0.5,10.7,2.5,21.3,3.7,31.9
		C492.2,368.8,478.5,376.3,464.9,383.8z"/>
	<linearGradient id="SVGID_2_" gradientUnits="userSpaceOnUse" x1="296.73" y1="548.1293" x2="466.7337" y2="548.1293">
		<stop  offset="0" style="stop-color:#ADACAC"/>
		<stop  offset="0.5" style="stop-color:#D0D0D0"/>
		<stop  offset="1" style="stop-color:#ADACAC"/>
	</linearGradient>
	<path class="st3" d="M345.5,559.8c-3.5-0.1-6.9,0.1-10.4,0.3c3.8-3.5,9.2-4.8,14.1-3.2c4.5,1.8,7.5,6.4,7.7,11.2
		c-2.8-2.8-5.5-5.7-9.1-7.5c-0.5,0.1-1.4,0.3-1.9,0.4c1.7,4.2,3,8.7,5.5,12.6c4.4,7.3,11.1,13.7,19.6,15.8
		c8.7,2.4,18.3-0.7,24.4-7.2c5.8-5.7,9-13.4,10.7-21.2c-0.8-0.9-1.7-1.8-2.5-2.7c0.7,0,2.2,0.1,3,0.1c0.1-1,0.1-2.9,0.2-3.8
		c-4.9,0.9-8.2,4.6-12.1,7.4c1.3-4.6,4.2-9,8.9-10.7c5.2-2,10.9,0.4,14.7,4.1c-3.6-0.5-7.2-1-10.8-0.9c0.2,1.6,0.4,3.3,0.6,4.9
		c4.5,1.6,8.9,3.2,13.5,4.5c6.8,2.7,15.2,2.4,20.9-2.6c7.6-6.8,15.2-13.5,22.5-20.6c1.1-1.2,2.5-2.7,2-4.5c-2.9-11.1-8-21.8-16-30.1
		c-18,10.4-35.8,21.4-53.9,31.8c-7.2,4-14.3,8.9-22.7,9.9c-8,1.8-16.2,0.2-23.9-1.8c-13.6-3.5-27.3-6.5-40.9-10
		c-4.1-1-8.2-2.4-12.4-2.8c0.8,10.3,1.9,20.8,6,30.5c1.5,3.2,3,6.7,5.8,9.2c3.3,3.2,8,4,12.1,5.5c11.1,3.4,22.1,6.9,33.1,10.4
		C347.9,580.3,345.1,569.9,345.5,559.8z"/>
</g>
<path class="st1" d="M403.3,551.3c5.2-2,10.9,0.4,14.7,4.1c-3.6-0.5-7.2-1-10.8-0.9l-0.6,0.1c-4.9,0.9-8.2,4.6-12.1,7.4
	C395.8,557.3,398.6,552.9,403.3,551.3z"/>
<path class="st0" d="M406.5,554.5l0.6-0.1c0.2,1.6,0.4,3.3,0.6,4.9c0.1,0.7,0.2,2.2,0.3,3c0,11.1-2.7,22.9-10.4,31.4
	c-4.9,5.6-12.1,9.4-19.6,9.5c-8.2-0.1-15.8-4.4-21.1-10.4c-1.1-1.3-2.2-2.7-3.2-4.1c-5.8-8.3-8.6-18.7-8.3-28.8
	c0.8,0.2,1.5,0.5,2.3,0.8c-0.5,0.1-1.4,0.3-1.9,0.4c1.7,4.2,3,8.7,5.5,12.6c4.4,7.3,11.1,13.7,19.6,15.8c8.6,2.4,18.3-0.7,24.4-7.2
	c5.8-5.7,9-13.4,10.7-21.2c-0.9-0.9-1.7-1.8-2.5-2.7c0.7,0,2.2,0.1,3,0.1C406.4,557.4,406.5,555.5,406.5,554.5z"/>
<path class="st1" d="M335.1,560.1c3.8-3.5,9.2-4.8,14.1-3.2c4.5,1.8,7.5,6.4,7.7,11.2c-2.8-2.8-5.5-5.7-9.1-7.5
	c-0.7-0.3-1.5-0.6-2.3-0.8C342,559.8,338.5,560,335.1,560.1z"/>
<path class="st0" d="M603.4,601.6c3,0,5.9-0.1,8.9-0.2c4.1,6.3,9.4,11.7,13.6,17.9c-6.2,0.1-12.5,0.2-18.7,0.3
	C606.3,613.6,604.9,607.6,603.4,601.6z"/>
<path class="st1" d="M424.9,628.8c22.2-3.3,44.1-8.4,66.3-11.5c-20.3,8-40.4,16.7-60.6,25c-0.6,0.2-1.9,0.5-2.6,0.7
	c-2.9-4.6-7.4-8.3-9.6-13.2c2-0.2,3.9-0.4,5.9-0.6L424.9,628.8z"/>
<linearGradient id="SVGID_3_" gradientUnits="userSpaceOnUse" x1="318.35" y1="669.8752" x2="408.0425" y2="669.8752">
	<stop  offset="0" style="stop-color:#ADACAC"/>
	<stop  offset="0.5" style="stop-color:#D0D0D0"/>
	<stop  offset="1" style="stop-color:#ADACAC"/>
</linearGradient>
<path class="st4" d="M329.3,636.3c7.2-4.8,16.2-3.3,24.3-2.7c8.5,1.1,17,1.9,25.4,3.5c3,0.4,5.3,2.5,7.4,4.5
	c5.9,5.3,9.6,12.3,14.9,18.1c2,2.6,4.5,4.8,6.5,7.4c0.4,13.2,0.3,26.5,0.1,39.7c-9.6-1-19.1-1.9-28.7-2.7c0-11.4,0.2-22.8-0.1-34.1
	c0-5-4-9.3-8.9-9.9c-5.7-0.7-11.5-2-17.3-1.3c-4.7,0.8-6.1,6.1-6.1,10.2c0,11.3,0,22.6,0,33.9c-9.5-0.2-19,0-28.4,0.2
	c0.2-14.4-0.1-28.8,0.3-43.2C319.6,651.2,321.5,641.3,329.3,636.3z"/>
<g>
	<linearGradient id="SVGID_4_" gradientUnits="userSpaceOnUse" x1="433.1261" y1="698.485" x2="462.2333" y2="698.485">
		<stop  offset="0" style="stop-color:#ADACAC"/>
		<stop  offset="0.5" style="stop-color:#D0D0D0"/>
		<stop  offset="1" style="stop-color:#ADACAC"/>
	</linearGradient>
	<path class="st5" d="M462.2,709c-0.1-9.6,0.2-19.2-0.2-28.8c-6,2.5-12.5,4.5-19.1,4.3c-3.2-0.2-6.6,0.4-9.5-1.3
		c-0.7,9-0.1,18-0.3,27c9.1,1.5,18.1,3.7,27.1,5.4c0.3,0.3,0.8,0.8,1.1,1C462.6,714.3,462.1,711.6,462.2,709z"/>
	<linearGradient id="SVGID_5_" gradientUnits="userSpaceOnUse" x1="489.12" y1="697.84" x2="522.4525" y2="697.84">
		<stop  offset="0" style="stop-color:#ADACAC"/>
		<stop  offset="0.5" style="stop-color:#D0D0D0"/>
		<stop  offset="1" style="stop-color:#ADACAC"/>
	</linearGradient>
	<path class="st6" d="M522.3,673c0-4.5-1.4-8.9-3.5-12.9c-9.5,2.4-18.4,6.7-27.8,9.5c-1.4,0.1-0.7,1.7-0.1,2.3
		c1.9,2.6,2.5,5.9,2.4,9c0,11,0,22,0,33c0,1.6-0.1,3.1-0.5,4.7c-0.7,2.1-2.3,3.8-3.7,5.5c6.9,1.9,13.4,4.9,20,7.6
		c2.6,1,5,2.3,7.4,3.8c1.8-2.9,4-5.9,4.5-9.4c0.8-3.7,1.3-7.4,1.4-11.1C522.5,701,522.4,687,522.3,673z"/>
</g>
<linearGradient id="SVGID_6_" gradientUnits="userSpaceOnUse" x1="546.2155" y1="728.7482" x2="617.8572" y2="728.7482">
	<stop  offset="0" style="stop-color:#ADACAC"/>
	<stop  offset="0.5" style="stop-color:#D0D0D0"/>
	<stop  offset="1" style="stop-color:#ADACAC"/>
</linearGradient>
<path class="st7" d="M614,788.8c-13,0-25.9,0.1-38.9,0c0-17.4,0-34.8-0.2-52.2c12.5-0.1,25.1,0,37.6-0.1l0.3,0.2
	c-0.1-6.8-0.1-13.6-0.1-20.4c-12.4,0-24.8,0.1-37.3,0c0.1-15.3-0.1-30.7,0.1-46l0.4-0.5c13.9-0.3,27.7,0,41.6-0.4
	c0.8-6.7,0.2-13.4,0.3-20c-20.6-0.2-41.2,0.1-61.8,0c-3.2-0.1-6.3,0.8-9.4,1.4c-0.2,1.7-0.4,3.4-0.3,5.2
	c0.1,50.7-0.1,101.4,0.1,152.1c23.7,0.2,47.4,0,71,0.1c0.1-6.2-0.1-12.5,0.1-18.7C616.3,788.9,615.2,788.7,614,788.8z"/>
<linearGradient id="SVGID_7_" gradientUnits="userSpaceOnUse" x1="638.1071" y1="731.5828" x2="726.3683" y2="731.5828">
	<stop  offset="0" style="stop-color:#ADACAC"/>
	<stop  offset="0.5" style="stop-color:#D0D0D0"/>
	<stop  offset="1" style="stop-color:#ADACAC"/>
</linearGradient>
<path class="st8" d="M726.3,755.9c0.1-11.3,0-22.7,0-34c0-11.8,0-23.6,0-35.4c-9.5,0.8-19.1,1.7-28.6,2.5c0,10.4-0.1,20.7,0.1,31.1
	c-0.1,0.8-0.2,2.4-0.3,3.1c-0.6-1.2-1.2-2.5-1.7-3.7h-0.1c-3.7-9.9-7.7-19.7-11.6-29.5c-8.6-1.6-11.5-10.6-16.3-16.7
	c-6.4-8.3-12.5-16.8-19.2-24.9c-3.5-0.1-7-0.2-10.4,1c-0.2,22.7,0,45.4-0.1,68.1c0.2,12-0.3,24,0.2,36c-0.4,18.5-0.1,37.1-0.1,55.6
	c0.4,0,1.3-0.1,1.7-0.1c9.1,1.1,18.3,1.2,27.5,1.6c0.1-34.2-0.1-68.3,0-102.4l1.9,1.5c0.8,3.4,2.4,6.4,3.7,9.6
	c3.7,9.4,7.7,18.7,11.5,28.1c0.3,0.5,0.9,1.6,1.2,2.1l-0.2,0.7c4.2,8.7,7.3,17.8,11.1,26.7c0.9,2,1.3,4.2,1.2,6.4
	c0,9.8,0,19.6,0,29.4c9.5,0.9,19.1,1.7,28.6,2.5C726.5,795.2,726.3,775.6,726.3,755.9z"/>
<linearGradient id="SVGID_8_" gradientUnits="userSpaceOnUse" x1="318.3" y1="752.785" x2="407.905" y2="752.785">
	<stop  offset="0" style="stop-color:#ADACAC"/>
	<stop  offset="0.5" style="stop-color:#D0D0D0"/>
	<stop  offset="1" style="stop-color:#ADACAC"/>
</linearGradient>
<path class="st9" d="M407.7,733.6c-10.9,1.9-21.8,3.4-32.6,5.5c-3.4,0.6-6.8,1.2-10.1,1.9c-11.4,2.3-22.8,5.1-34.1,8.1
	c-4.3,0.5-8.4,2.1-12.6,3.3c0,6.5,0.1,13,0,19.5c9.5-2,18.7-5.4,28.2-7.5c0.1-2.6,0.1-5.3,0.3-7.9c10.5-1.1,21.1-0.7,31.6-1.8
	c0.3,0.5,0.8,1.6,1.1,2.2c7.9-1.1,15.8-2.4,23.5-4c1.6-0.1,3.2-0.3,4.8-0.5C407.7,746.1,408.2,739.8,407.7,733.6z"/>
<linearGradient id="SVGID_9_" gradientUnits="userSpaceOnUse" x1="379.2836" y1="800.015" x2="407.7608" y2="800.015">
	<stop  offset="0" style="stop-color:#ADACAC"/>
	<stop  offset="0.5" style="stop-color:#D0D0D0"/>
	<stop  offset="1" style="stop-color:#ADACAC"/>
</linearGradient>
<path class="st10" d="M379.4,791.3c9.1-4.9,18.8-8.9,28.3-13.1c0.3,13.4,0,26.8,0,40.2c-9.4,1.1-18.8,2.6-28.3,3.4
	C379.4,811.7,379.2,801.5,379.4,791.3z"/>
<linearGradient id="SVGID_10_" gradientUnits="userSpaceOnUse" x1="751.4" y1="736.115" x2="841.4908" y2="736.115">
	<stop  offset="0" style="stop-color:#ADACAC"/>
	<stop  offset="0.5" style="stop-color:#D0D0D0"/>
	<stop  offset="1" style="stop-color:#ADACAC"/>
</linearGradient>
<path class="st11" d="M841.5,664c0-7.9-1.1-16.2-5.7-22.8c-0.3,0-0.9,0.1-1.2,0.2c-5.8,9.2-11.8,18.2-18.2,27
	c-1.3,1.8-2.8,3.4-3.6,5.5c-0.3,19.1,0.3,38.3-0.3,57.4c-10.7-0.4-21.4,0.5-32-0.5c0.2-16.4,0.1-32.7,0.1-49.1
	c-9.6,1.2-19.4,1.3-29,2.7c0,31.6,0,63.1,0,94.7c-0.1,12.7,0.2,25.4-0.2,38.1c0.9,1,2.4,1,3.6,1.2c8.4,1,16.8,2.2,25.3,3
	c0-22.3,0-44.5,0-66.8c7-0.3,13.8,1,20.8,0.9c3.8,0.3,7.9-0.6,11.5,1.1c0.7,13.6-0.3,27.3,0.4,40.9c-0.5,6.1,0,12.2-0.2,18.3
	c0.1,3.5-0.8,7.2,0.9,10.4c3,1.4,6.4,1,9.6,1.7c5.8,1,11.6,2,17.5,2.9c0.4-13.9,0.3-27.9,0.5-41.8
	C841.6,747.5,841.5,705.7,841.5,664z"/>
<g>
	<linearGradient id="SVGID_11_" gradientUnits="userSpaceOnUse" x1="432.8897" y1="740.8988" x2="516.24" y2="740.8988">
		<stop  offset="0" style="stop-color:#ADACAC"/>
		<stop  offset="0.5" style="stop-color:#D0D0D0"/>
		<stop  offset="1" style="stop-color:#ADACAC"/>
	</linearGradient>
	<path class="st12" d="M505.1,743c4.2-1.6,8.1-4,11.2-7.3c-6.5-2.1-13.5-2.8-20.3-3.6c-4.2-1-8.6-0.4-12.8-1.3
		c-15-0.8-30.1-0.7-45.1,0c-1.6,0.3-3.3,0.4-4.9,0.5c-0.3,6-0.1,12-0.1,18c9.5-0.8,19-1.2,28.5-1.1c0.1-1,0.1-1.9,0.2-2.8
		c5.1,0.1,10.2-0.1,15.3,0c1.8-0.2,2.2,1.8,3.1,2.9c9.2,0.5,18.4,1.5,27.6,3C506.7,748.7,505.9,745.8,505.1,743z"/>
	<linearGradient id="SVGID_12_" gradientUnits="userSpaceOnUse" x1="432.8654" y1="787.635" x2="461.5989" y2="787.635">
		<stop  offset="0" style="stop-color:#ADACAC"/>
		<stop  offset="0.5" style="stop-color:#D0D0D0"/>
		<stop  offset="1" style="stop-color:#ADACAC"/>
	</linearGradient>
	<path class="st13" d="M461.5,759.8c-9.5,2.7-19,5.5-28.4,8.7c0,0.6,0,1.7,0.1,2.2c-0.6,14.9-0.1,29.9-0.3,44.8
		c9.5-0.8,18.9-2.1,28.4-2.3c0.5-11.2,0.3-22.4,0.2-33.6C461.5,773,461.5,766.4,461.5,759.8z"/>
	<linearGradient id="SVGID_13_" gradientUnits="userSpaceOnUse" x1="482.3275" y1="781.0557" x2="524.75" y2="781.0557">
		<stop  offset="0" style="stop-color:#ADACAC"/>
		<stop  offset="0.5" style="stop-color:#D0D0D0"/>
		<stop  offset="1" style="stop-color:#ADACAC"/>
	</linearGradient>
	<path class="st14" d="M521.5,798c-4.8-15.4-9-31-14.1-46.3c-8.4,1-16.7,2.3-25.1,3.2c-0.1,2.7,1,5.3,1.7,7.9
		c2.8,10.5,6.2,20.8,9.1,31.2c0.3,1,0.6,2.1,0.9,3.1c0.8,3.6,1.7,7.2,2.8,10.7c0.5,1.8,2.4,2.8,4.2,2.5c7.9-0.8,15.8-0.9,23.8-1.3
		C524.1,805.3,523,801.6,521.5,798z"/>
</g>
<path class="st15" d="M318.7,824.9c9-6,18.5-11.3,27.9-16.7c0,5.6,0.2,11.2,0,16.7c-0.3,2.5-3.2,2.8-5.1,3.1
	c-7.7,0.9-15.4,2.5-23,3.8C318.5,829.6,317.9,827.1,318.7,824.9z"/>
<path class="st16" d="M425.8,839.2c15.1,0,30.1,0,45.2,0c1.4-0.3,2.2,1,3.1,1.8c3.7,4,7.7,7.7,11.2,11.8c-0.1,6.4,0,12.8,0,19.3
	c-1.1,1.3-2.7,2.3-3.2,4c0.9,1.4,2.1,2.5,3.2,3.7c-0.1,7.1-0.1,14.3,0,21.4c-4.4,4.6-9.3,8.8-13.7,13.5c-15.1,0-30.3,0.1-45.4-0.1
	l-0.4-0.4c-0.2-6.5,0-12.9,0-19.4c1.8,0,3.5,0,5.3,0c-0.2-12,0.5-24.2-0.3-36.2c-1.7,0-3.3,0-5,0.1
	C425.8,852.2,425.8,845.7,425.8,839.2 M432.8,845.5c0,2.3,0,4.7,0,7c1.6,0,3.3,0,4.9,0c0,16.3,0.2,32.6-0.1,48.8
	c-1.7,0-3.4-0.1-5-0.1c0,2.3,0,4.7,0.1,7c11.5,0,23.1-0.2,34.7,0.1c3.8-3.6,7.9-7.1,11.1-11.2c0.1-5.1,0-10.1,0-15.2
	c-1.7-1.8-3.6-3.4-5.1-5.3c0.2-2.9,3.6-4.3,5.2-6.4c0.1-4.8,0-9.6,0-14.4c-3.4-3.5-6.8-7-10.3-10.4
	C456.4,845.5,444.6,845.5,432.8,845.5z"/>
<path class="st16" d="M493.3,839.2c10.4,0,20.8,0.1,31.2-0.1c0.1,6.4,0.1,12.7,0,19.1c-0.7,0.2-2,0.4-2.7,0.6
	c-0.1,12-0.1,24.1,0,36.1c3,0,5.9,0,8.9,0c0-12.2,0-24.3,0-36.5c-0.7,0-2,0-2.7,0c-0.4-6.4-0.1-12.8-0.2-19.2
	c10.5,0,20.9-0.1,31.4,0.1c-0.1,6.5-0.1,13,0,19.5c-1.9,0-3.9,0-5.8,0c-0.3,14.2-0.1,28.3-0.1,42.5c-4.1,4.3-8.3,8.5-12.5,12.7
	c-0.9,1.2-2.5,0.7-3.8,0.8c-8.3,0-16.5-0.1-24.8,0c-4.3-4.4-8.6-8.7-13-13.1c0-14-0.2-28.1,0.1-42.1c-1.9-1.1-4.1-0.7-6.2-0.8
	C493.3,852.2,493.3,845.7,493.3,839.2 M500.2,845.5c0,2.3,0,4.7,0,7c1.9,0,3.7,0,5.6,0c0.1,15.2-0.1,30.4,0.1,45.6
	c1.2,2.4,3.4,4,5.1,5.9c1.5,1.4,2.8,3.3,4.7,4.2c7.1,0.1,14.2,0,21.3,0c3.1-3,6.3-6.1,9.6-8.9c0.2-15.6,0-31.3,0.1-46.9c2,0,4,0,6,0
	c0-2.4,0-4.7-0.1-7.1c-6.3,0.1-12.6-0.1-18.9,0.1c0,2.3,0,4.6,0,6.9c1.3,0,2.5,0.1,3.8,0.1c0,14.9,0.1,29.8,0,44.8
	c-1.5,1.4-2.9,2.8-4.3,4.1c-4.7-0.1-9.4,0-14-0.1c-1.3-1.8-3.8-3-3.8-5.3c0-14.5,0-29,0-43.5c0.8,0,2.5,0,3.4,0c0-2.4,0-4.7,0-7
	C512.5,845.5,506.4,845.5,500.2,845.5z"/>
<path class="st16" d="M569.2,839.2c11.4,0.2,22.9-0.5,34.2,0.4c-1.1,6.2-0.3,12.6-0.1,18.9c-2.3,0.3-4.7,0.1-6.8,1
	c0.3,11.7,0.2,23.4,0,35.2c2.9,0.3,5.8,0.3,8.8,0.1c-0.1-4-0.1-8,0-12c6.7,0,13.4,0,20,0c0.1,10.6-0.1,21.2,0.1,31.9
	c-18.7,0.3-37.5,0-56.2,0.1c0-6.6-0.1-13.3,0.1-19.9c1.7,0,3.3,0,5,0c0-12,0-24,0-36.1c-1.7,0-3.4,0-5.1,0
	C569.2,852.2,569.3,845.7,569.2,839.2 M575.9,845.5c0,2.3,0,4.7,0.2,7.1c1.7,0,3.4,0,5.2,0c0,16.3,0,32.6,0,48.9c-1.7,0-3.5,0-5.2,0
	c-0.2,2.3-0.1,4.6,0.1,7c14.1,0,28.3-0.1,42.4,0c0.3-6.4,0.1-12.8,0.2-19.1c-2.3,0-4.7,0-7,0.1c0.1,4,0.1,8,0,12.1
	c-7.2-0.1-14.4,0.1-21.5-0.1c0.1-16.3,0-32.6,0.1-48.9c2,0,4.1,0,6.2,0c0-2.4,0-4.7,0-7C589.6,845.5,582.7,845.5,575.9,845.5z"/>
<path class="st16" d="M634.5,839.2c11.3,0,22.6,0,33.9,0c0,6.5,0,13,0,19.5c-2,0-4.1,0-6.1,0c-0.3,12-0.1,24.1-0.1,36.1
	c2.8,0,5.5,0,8.3-0.1c-0.1-4-0.1-8,0-12c6.6,0,13.3,0,19.9,0c0.1,10.7,0.1,21.3,0.2,32c-18.7-0.1-37.5,0.1-56.2-0.1
	c0.2-6.6,0-13.2,0.1-19.8c1.7,0,3.4,0,5.1,0c-0.1-12,0.2-24.1-0.1-36.1c-1.7,0-3.4,0-5,0C634.5,852.2,634.5,845.7,634.5,839.2
	 M641.3,845.5c0,2.4,0,4.7,0,7.1c1.7,0,3.4,0,5.1,0c0,16.3,0,32.6,0,48.9c-1.7,0-3.4,0-5.1,0c0,2.3,0,4.6,0.2,7c14-0.1,28-0.1,42,0
	c1.3-5.8-0.4-11.7,0.6-17.5c-0.4-3.1-4.8-1-6.9-1.6c0,4,0,8.1,0,12.1c-7.3,0.1-14.5,0-21.8,0.1c-0.1-16.3-0.1-32.7,0-49
	c2,0,4.1,0,6.1,0.1c0-2.4,0-4.7,0-7.1C654.8,845.5,648.1,845.5,641.3,845.5z"/>
<path class="st16" d="M711,839.1c9.3,0.1,18.6-0.1,27.9,0.1c4.2,3.6,7.9,7.9,11.9,11.7c0.2,4.3,0.1,8.5,0.1,12.8
	c-6.9,0-13.7,0-20.6,0c0-1.7,0-3.5-0.6-5c-3.1,0.1-6.2,0.1-9.3,0.1c-0.2,2.5-0.2,5.1,0.1,7.6c7.3,0,14.7-0.4,22,0.2
	c3.3,3,6.2,6.3,9.4,9.5c0,8.3,0.1,16.7,0,25c-3.1,4.1-7.3,7.2-10.8,11c-1.2,1-2.1,2.8-3.9,2.6c-8.6,0-17.3,0.1-25.9-0.1
	c-4.4-3.8-8.4-8.3-12.4-12.6c-0.8-4.5,0-9.2-0.4-13.8c7.3-0.2,14.5,0,21.8-0.1c0,2.2,0,4.4,0,6.7c3.1,0,6.2,0,9.3,0
	c0-3.5,0-7,0-10.5c-6.9-0.1-13.9,0.1-20.8-0.1c-2-0.8-3.2-2.8-4.8-4.2c-2-2.3-4.8-4.2-6.1-7c0-7-0.5-14,0.3-20.9
	C702.1,847.5,706.8,843.5,711,839.1 M704.7,855c0,5.4,0,10.7,0,16.1c2.3,2.5,4.6,4.9,7.1,7.2c7.3,0,14.7-0.2,22,0
	c0.9,0.8,1.6,1.7,2.4,2.6c-0.1,5.4,0,10.8-0.1,16.2c-1.6,1.4-3,3.3-5,4.3c-4.4,0.2-8.9,0-13.3,0c-1.4-1.5-2.8-2.9-4.2-4.3
	c-0.1-1.1-0.1-2.3-0.2-3.4c-3,0-5.9,0-8.9,0c0.2,1.9-0.7,4.2,0.8,5.7c3,3.1,5.9,6.2,9.1,9c6.8-0.2,13.6-0.1,20.4-0.1
	c3.6-3.2,7.1-6.6,10.5-10c-0.2-6.5-0.1-13-0.1-19.5c-2.2-2.2-4.3-4.5-6.6-6.5c-7.3-0.6-14.7,0.1-22-0.3c-1.5-0.2-2.3-1.8-3.3-2.7
	c0.2-4.2,0.1-8.3,0.1-12.5c1.4-1.4,2.8-2.9,4.2-4.3c4.8,0,9.5,0,14.3,0c1.6,1.6,3.2,3.3,4.4,5.3c3,0.1,6,0,9-0.1
	c-0.1-1-0.2-1.9-0.2-2.8c-3.1-3-6.1-6.3-9.2-9.4c-7.4,0.1-14.7-0.1-22.1,0.1C711,848.8,707.9,851.9,704.7,855z"/>
<path class="st0" d="M641.3,845.5c6.8,0,13.5,0,20.3,0c0,2.3,0,4.7,0,7.1c-2,0-4.1,0-6.1-0.1c-0.1,16.3-0.1,32.7,0,49
	c7.3-0.1,14.5,0,21.8-0.1c0-4,0-8.1,0-12.1c2.1,0.6,6.6-1.5,6.9,1.6c-1,5.8,0.7,11.7-0.6,17.5c-14-0.2-28-0.1-42,0
	c-0.2-2.3-0.2-4.7-0.2-7c1.7,0,3.4,0,5.1,0c0-16.3,0-32.6,0-48.9c-1.7,0-3.4,0-5.1,0C641.3,850.2,641.3,847.8,641.3,845.5z"/>
<path class="st0" d="M432.8,845.5c11.8,0,23.6,0,35.5,0c3.4,3.4,6.8,6.9,10.3,10.4c0,4.8,0,9.6,0,14.4c-1.6,2.2-5,3.6-5.2,6.4
	c1.6,1.9,3.4,3.5,5.1,5.3c0,5.1,0.1,10.1,0,15.2c-3.2,4.1-7.3,7.6-11.1,11.2c-11.5-0.2-23.1-0.1-34.7-0.1c-0.1-2.4-0.1-4.7-0.1-7
	c1.7,0,3.4,0,5,0.1c0.3-16.3,0.1-32.6,0.1-48.8c-1.6,0-3.3,0-4.9,0C432.7,850.2,432.7,847.8,432.8,845.5 M446.8,852.6
	c0,6.8,0,13.5,0,20.3c6.1,0,12.1,0.1,18.2,0c1.7-1,2.8-2.6,4.3-4c0.1-4,0.1-8.1,0.1-12.1c-1.4-1.5-2.8-2.9-4.2-4.4
	C459.1,852.6,453,852.4,446.8,852.6 M446.9,879.6c0,7.3,0,14.5,0,21.8c5.4,0,10.8,0,16.2,0c1.8,0.3,2.8-1.4,4-2.4
	c1-1.2,2.7-2.2,2.3-4c0-3.7,0-7.4-0.1-11c-1.5-1.4-2.9-2.9-4.4-4.4C458.9,879.6,452.9,879.6,446.9,879.6z"/>
<path class="st0" d="M500.2,845.5c6.1,0,12.3,0,18.4,0c0,2.3,0,4.7,0,7c-0.9,0-2.5,0-3.4,0c0,14.5,0,29,0,43.5
	c0,2.4,2.6,3.6,3.8,5.3c4.7,0.1,9.3,0,14,0.1c1.4-1.4,2.9-2.8,4.3-4.1c0.1-14.9,0-29.8,0-44.8c-1.3,0-2.5-0.1-3.8-0.1
	c0-2.3,0-4.6,0-6.9c6.3-0.2,12.6,0,18.9-0.1c0.1,2.3,0.1,4.7,0.1,7.1c-2,0-4,0-6,0c-0.1,15.6,0.1,31.3-0.1,46.9
	c-3.3,2.8-6.4,5.9-9.6,8.9c-7.1,0-14.2,0.1-21.3,0c-2-0.9-3.2-2.8-4.7-4.2c-1.7-2-4-3.6-5.1-5.9c-0.2-15.2,0-30.4-0.1-45.6
	c-1.9,0-3.7,0-5.6,0C500.2,850.2,500.2,847.8,500.2,845.5z"/>
<path class="st0" d="M575.9,845.5c6.8,0,13.7,0,20.5,0c0,2.3,0,4.7,0,7c-2.1,0-4.1,0-6.2,0c-0.1,16.3,0,32.6-0.1,48.9
	c7.2,0.1,14.4,0,21.5,0.1c0-4,0-8,0-12.1c2.3-0.1,4.7-0.1,7-0.1c-0.1,6.4,0.2,12.8-0.2,19.1c-14.1-0.1-28.3-0.1-42.4,0
	c-0.2-2.3-0.2-4.7-0.1-7c1.7,0,3.5,0,5.2,0c0-16.3,0-32.6,0-48.9c-1.7,0-3.5,0-5.2,0C575.9,850.2,575.9,847.8,575.9,845.5z"/>
<path class="st0" d="M704.7,855c3.2-3.1,6.3-6.2,9.4-9.4c7.4-0.2,14.7,0,22.1-0.1c3,3.1,6,6.4,9.2,9.4c0.1,0.9,0.1,1.9,0.2,2.8
	c-3,0.1-6,0.1-9,0.1c-1.2-2-2.7-3.7-4.4-5.3c-4.8,0-9.5,0-14.3,0c-1.4,1.4-2.8,2.8-4.2,4.3c0,4.2,0.1,8.4-0.1,12.5
	c1,0.9,1.8,2.5,3.3,2.7c7.3,0.4,14.7-0.3,22,0.3c2.4,2,4.4,4.4,6.6,6.5c0,6.5-0.1,13,0.1,19.5c-3.4,3.5-6.9,6.8-10.5,10
	c-6.8,0-13.6-0.2-20.4,0.1c-3.2-2.8-6.1-5.9-9.1-9c-1.6-1.5-0.6-3.9-0.8-5.7c3,0,5.9,0,8.9,0c0,1.1,0.1,2.2,0.2,3.4
	c1.4,1.4,2.8,2.9,4.2,4.3c4.4-0.1,8.8,0.1,13.3,0c2-1,3.3-2.9,5-4.3c0.1-5.4,0-10.8,0.1-16.2c-0.8-0.9-1.5-1.8-2.4-2.6
	c-7.3-0.2-14.7-0.1-22,0c-2.5-2.3-4.8-4.7-7.1-7.2C704.7,865.7,704.7,860.3,704.7,855z"/>
<path class="st1" d="M610.7,847.6c5.2-1.1,10.5,0.1,15.7,0c0.2,6.4-0.2,12.9,0.2,19.3c1.6-0.1,3.1-0.2,4.7-0.3
	c0.3,2.7,0.3,5.4,0.3,8.1c-9-0.1-18.1,0.3-27.1-0.3c0.1-2.5,0.1-5,0.2-7.6c2-0.1,4-0.2,6.1-0.2C610.9,860.3,611.8,853.9,610.7,847.6
	z"/>
<path class="st1" d="M676.4,849.7c4.4,0.8,8.9,0.7,13.4,1.2c0,7.9,0,15.9,0,23.8c-6.6,0-13.1,0-19.7,0c0-2.6,0-5.3,0-7.9
	c2.1-0.1,4.2-0.2,6.2-0.2C676.3,861,676.3,855.4,676.4,849.7z"/>
<path class="st16" d="M446.8,852.6c6.1-0.1,12.3,0,18.4-0.1c1.4,1.4,2.8,2.9,4.2,4.4c0,4,0,8-0.1,12.1c-1.4,1.3-2.6,3-4.3,4
	c-6.1,0.1-12.1,0-18.2,0C446.8,866.1,446.9,859.3,446.8,852.6 M453.6,858.8c0,2.5,0,5.1,0,7.7c3,0,6,0,9,0c0-2.6,0-5.2,0-7.7
	C459.6,858.7,456.6,858.7,453.6,858.8z"/>
<path class="st1" d="M408.9,858.5c2.9-0.5,5.9-0.9,8.9-1.3c0,2.7,0.1,5.5,0,8.2C414.8,863.3,411,861.6,408.9,858.5z"/>
<path class="st0" d="M453.6,858.8c3,0,6,0,8.9,0c0.1,2.6,0.1,5.1,0,7.7c-3,0-6,0-9,0C453.6,863.8,453.6,861.3,453.6,858.8z"/>
<path class="st1" d="M759.1,859.3c1.8,0.2,3.7,0.3,5.6,0.5c0,0.4,0,1.2,0,1.6c-1.9,1.3-3.8,2.6-5.8,3.7
	C758.9,863.2,759,861.2,759.1,859.3z"/>
<path class="st1" d="M420.5,866.5c1.1-0.8,3.1,0.1,3,1.5C423,870.3,419,868.1,420.5,866.5z"/>
<path class="st1" d="M561.3,867.2c1.7-0.4,3.6-0.7,5.2,0.3c-0.3,6.4,0,12.9-0.2,19.3c-1.6,0-3.2,0-4.7,0.1
	c0.1,11.9-0.5,23.8-0.3,35.8c32.2,0.1,64.5-0.1,96.7,0.1c-11.9,5.8-24.1,10.7-36.4,15.7c-11.1,4.1-22.1,8.8-33.6,12
	c-22.2-7.1-43.8-16-65.1-25.5c-1.3-0.5-2.5-1.2-3.5-2.3c8-0.3,16,0,24-0.2c5.8-6,11.7-11.9,17.7-17.7
	C561.7,892.3,561.2,879.8,561.3,867.2z"/>
<path class="st16" d="M446.9,879.6c6-0.1,12.1-0.1,18.1,0c1.4,1.5,2.9,3,4.4,4.4c0,3.7,0.1,7.4,0.1,11c0.3,1.8-1.3,2.8-2.3,4
	c-1.2,1-2.2,2.7-4,2.4c-5.4,0-10.8,0-16.2,0C446.9,894.1,446.8,886.9,446.9,879.6 M453.7,885.8c-0.1,2.9-0.1,5.9-0.2,8.8
	c3,0.2,6.1,0.2,9.1,0.2c0-3,0.1-6.1-0.2-9.1C459.5,885.7,456.6,885.8,453.7,885.8z"/>
<path class="st0" d="M453.7,885.8c2.9,0,5.8,0,8.7-0.1c0.3,3,0.2,6,0.2,9.1c-3,0.1-6.1,0.1-9.1-0.2
	C453.6,891.7,453.6,888.7,453.7,885.8z"/>
<path class="st1" d="M489.5,908.8c0.7-1.2,1.6-2.3,3-2.8c2.4,2.7,5.3,5,7.5,8C496.4,912.5,493.1,910.5,489.5,908.8z"/>
</svg>
