<?xml version="1.0" encoding="utf-8"?>
<!-- Generator: Adobe Illustrator 21.0.0, SVG Export Plug-In . SVG Version: 6.00 Build 0)  -->
<svg version="1.1" id="Layer_1" xmlns="http://www.w3.org/2000/svg" xmlns:xlink="http://www.w3.org/1999/xlink" x="0px" y="0px"
	 viewBox="0 0 1250 1250" style="enable-background:new 0 0 1250 1250;" xml:space="preserve">
<style type="text/css">
	.st0{fill:#FFFFFF;}
	.st1{fill:#ED2E27;}
	.st2{fill:#D1D2D3;}
	.st3{fill:#F59FA1;}
	.st4{fill:#AF201B;}
	.st5{fill:#F59EA0;}
	.st6{fill:#801412;}
	.st7{fill:#EC2E27;}
	.st8{fill:#F5A1A3;}
	.st9{fill:#BBBDC0;}
	.st10{fill:#F5A6A8;}
	.st11{fill:#F5A0A2;}
	.st12{opacity:0.47;fill:#722C2A;enable-background:new    ;}
	.st13{opacity:0.49;fill:#762D2B;enable-background:new    ;}
	.st14{fill:#898B90;}
	.st15{fill:#F27574;}
	.st16{fill:#F27372;}
	.st17{opacity:0.41;fill:#643A39;enable-background:new    ;}
</style>
<g id="_x23_ffffffff">
	<path class="st0" d="M564.31,117h12.58c-1.95,3.22-4.62,5.93-7.51,8.3c-4.62,3.31-8.17,7.8-12.25,11.69
		c2.99-3.32,6.38-6.3,8.99-9.96c2.79-3.29,7.85-5.18,8.78-9.76c-2.87,0.11-5.72,0.24-8.55,0.63c-3.6,1.5-7.61,0.69-11.39,1.06
		C558.08,118.45,561.64,119.02,564.31,117z"/>
	<path class="st0" d="M453.77,176.78c15.22-11.39,33.14-18.65,51.4-23.51c-8.31,8.32-16.72,16.62-23.83,26.02
		c-9.03,10.51-14.76,24.81-12,38.75c2.36,12.55,11.62,22.35,21.66,29.55c-6.77-8.58-12.49-18.53-13.49-29.62
		c14.91,11.63,31.34,21.09,47.62,30.65c18.33,10.59,36.84,20.87,55.56,30.77c-8.12,3.7-16.04,8.82-20.61,16.72
		c-3.47,5.67-3.67,12.5-4.4,18.92c-1.06,0.85-2.12,1.7-3.17,2.55c-8.74-6.42-18.4-11.49-27.22-17.83
		c-18.96-13.01-37.42-27.03-53.35-43.69c-11.18-12.1-21.9-25.55-26.31-41.73c-2.16-7.44-1.77-15.39,0.38-22.78
		c-5.47,5.5-9.25,12.5-11.61,19.84c-2.03,6.57-0.1,13.54,2.56,19.63c5.95,13.48,15.18,25.17,24.67,36.32
		c14.95,17.07,31.44,32.74,48.43,47.75c-0.44,0.12-1.34,0.34-1.78,0.45c-2.12,0.05-4.21-0.31-6.3-0.46
		c-14.93-13.05-29.14-26.95-42.36-41.73c-9.88-11.34-19.42-23.21-26.15-36.74c-3.78-7.83-6.81-16.75-4.7-25.49
		C432.59,197.09,442.32,185.4,453.77,176.78z"/>
	<path class="st0" d="M778.25,222.5c14.53,10.71,28.07,23.5,36.76,39.52c5.32,10.05,8.62,21.78,6.59,33.17
		c-2.03,8.48-8.66,14.82-15.09,20.26c-13.19,10.62-28.43,18.29-43.72,25.36c-1.4,0.86-3,0.74-4.54,0.62
		c-0.24-0.89-0.73-2.68-0.97-3.57c14.86-6.23,29.33-13.67,42.44-23.1c6.57-5.02,13.32-10.65,16.62-18.44
		c2.42-8.04,0.57-16.64-1.91-24.44c-0.98,7.09-3.33,14.05-7.85,19.69c-8.9,11.22-21.58,18.62-34.31,24.72
		c-7.08,3.47-14.7,5.66-21.77,9.12c-4.98-5.89-11.56-10.84-19.33-12.12c-8.45-1.84-17.49,0.41-24.45,5.43
		c-7.64-4.44-15.23-9.23-23.78-11.72c-6.49-1.9-13.09-3.54-19.8-4.43c24.95-3.07,49.9-6.12,74.72-10.13
		c14.38-2.44,28.84-4.76,42.84-8.98c-4.38,8.38-11.75,14.68-19.81,19.37c10.04-2.3,20-7.39,25.87-16.14
		c5.96-8.98,6.79-20.49,4.27-30.77C787.83,244.41,783.48,233.24,778.25,222.5z"/>
	<path class="st0" d="M610.07,353.02c-0.52-4.31-0.84-8.69-0.01-12.98c7,5.61,14.87,10.04,23.14,13.47
		c0.08,0.28,0.23,0.84,0.31,1.12c-7.77-0.71-15.56-0.85-23.35-0.81L610.07,353.02z"/>
	<path class="st0" d="M675.36,439.49c9.65-1.51,19.54-1.6,29.2-0.17c2.72,3.21,5.85,6.33,9.92,7.74c1.79-1.68,3.36-3.7,5.5-4.95
		c4.25,0.82,8.37,2.17,12.5,3.44c1.84,2.75,3.89,5.51,6.74,7.3c2.17-0.17,3.8-2.07,5.69-3.05c4.43,1.82,9.09,3.15,13.35,5.38
		c-22.81,5.29-45.26,12.14-67.22,20.27c-13.06,4.77-25.81,10.34-38.82,15.25c6.68-10.79,14.91-21.26,26.37-27.24
		c2.62-1.6,5.92-1.05,8.63-2.45c2.92-1.4,4.88-4.09,6.74-6.64c-2.87,1.53-5.46,4.56-8.97,4.12c-5.96-2.5-10.69-7.2-14.35-12.43
		C672.21,443.87,673.78,441.67,675.36,439.49z"/>
	<path class="st0" d="M185.02,673.89c27.04-0.14,54.09-0.04,81.14-0.05c1.98,68.76,4.47,137.5,7.17,206.24
		c20.73,3.64,42.03,2.26,62.6-1.74c24.4-4.47,49.37-4.93,74.08-3.55c25.75,1.73,51.39,5.84,76.2,13
		c31.03,9.08,61.83,22.74,84.98,45.91c-42.18-8.17-85.5-12.11-128.38-7.96c-13.12,1.5-26.19,3.79-38.81,7.73
		c-35.36,11.41-71.67,21.39-109,22.81c-19.05,0.53-38.32-1.57-56.45-7.59c-4.51-1.46-8.77-3.68-12.45-6.67
		c0.5-24.15,0.79-48.3,1.49-72.44c-16.89,1.75-33.79,3.38-50.67,5.22c-6.98,17.96-14.04,35.9-21,53.88
		c-27.54,4.7-55.13,9.16-82.66,13.9c15.08-12.7,30.32-25.21,45.43-37.87c2.08-1.65,2.65-4.38,3.78-6.64
		c29.39-66.81,59.01-133.51,89.01-200.04C202.64,690,193.86,681.92,185.02,673.89 M189.46,835.88c12.1-0.77,24.17-1.99,36.26-2.96
		c0.69-31.06,1.38-62.13,1.87-93.19C214.58,771.65,202.29,803.88,189.46,835.88 M232.44,791.25c0.09,15.75-0.43,31.5-0.91,47.25
		c-12.38,1.09-24.76,2.06-37.14,3.11c-4.65,0.36-9.28,1.12-13.96,0.94c6.19-16.13,12.95-32.06,18.77-48.32
		c-7.1,0.57-14.17,1.4-21.28,1.91c-1.71,0.25-4.08-0.1-4.65,2.04c-15.08,33.65-29.91,67.41-44.79,101.15
		c-1.44,2.92-2.21,6.31-4.49,8.74c-9.56,8.41-19.85,16.02-29.16,24.71c18.39-2.96,36.75-6.17,55.14-9.15
		c1.69,0.05,2.04-1.83,2.65-3.02c6.41-16.55,12.86-33.09,19.35-49.61c0.25-1.53,1.69-1.96,3.04-2.02
		c19.56-2.05,39.1-4.37,58.72-5.83c0.03,21.52-0.19,43.04-0.21,64.56c0,3.54-0.03,7.08-0.15,10.62c5.01,3.05,10.73,4.54,16.34,6.04
		c11.85,3,24.08,4.61,36.32,4.48c27.05,0.65,53.81-4.77,79.86-11.6c14.55-3.71,28.74-8.69,43.17-12.8
		c40.71-10.37,83.35-8.77,124.75-4.14c3.68,0.95,7.47,1.3,11.26,1.45c-18.21-10.09-38.35-16.39-58.75-20.24
		c-31.19-5.87-63.64-4.61-94.33,3.46c-21.07,5.81-42.37,11.15-64.14,13.5c-2.68,0.36-5.39,0.67-8.09,0.32
		c9.73-4.38,19.99-8.07,28.5-14.67c-7.59,0.4-15.08,1.87-22.68,2.21c-19.34,0.85-39.01,0.7-57.88-4.05
		c-0.69-1.32-0.36-2.92-0.5-4.33c-0.25-15.85-0.1-31.7-0.9-47.54c-1.14-10.8-0.62-21.68-1.4-32.5c-0.69-9.62-0.19-19.31-1.23-28.89
		l-0.49-0.5C252.92,789.23,242.66,790.11,232.44,791.25z"/>
	<path class="st0" d="M313.17,687.24c7-4.36,13.72-9.2,20.86-13.29c18.73-0.24,37.49-0.14,56.23-0.05
		c7.07,4.68,13.46,10.4,20.41,15.3c-0.94,7.95-1.54,16-3.01,23.85c-13.15,5.15-26.42,10.05-39.59,15.19
		c1.1-8.98,2.44-17.91,3.62-26.87c-8.73,0.07-17.47,0.13-26.2,0.18c-1.03,6.39-2.08,12.78-2.93,19.21
		c19.23,13.04,38.35,26.23,57.75,39.02c1.11,0.65,2.44,1.6,1.71,3.15c-2.29,18.34-4.38,36.71-6.6,55.06
		c-8.05,5.86-16.06,11.76-24.04,17.69c-0.92,0.82-2.14,0.98-3.32,1c-20.06,1.13-40.11,2.32-60.15,3.7
		c-7.02-5.8-14.15-11.46-21.11-17.34c1.67-9.12,3.22-18.27,4.76-27.42c13.93-5.86,27.97-11.45,42-17.07
		c-1.57,9.81-3.13,19.63-4.55,29.46c9.44-0.49,18.87-1.04,28.31-1.4c1.12-9.87,3.04-19.76,3.77-29.6
		c-19.77-13.57-39.7-26.93-59.24-40.83c2.59-15.05,5.19-30.09,7.78-45.14C309.7,689.01,311.77,688.26,313.17,687.24 M366.95,780.95
		c-1.75,10.46-2.68,21.04-4.53,31.48c-13.49,0.36-26.94,1.5-40.42,1.89c1.13-8.74,2.76-17.41,3.87-26.15
		c-8.8,3.3-17.41,7.05-26.14,10.5c-1.03,0.64-2.9,0.83-2.89,2.4c-1.26,6.53-2.34,13.11-3.44,19.68c5.61,4.36,10.85,9.22,16.64,13.31
		c18.33-0.9,36.64-2.34,54.98-3.23c3.74,0.23,6.33-2.73,9.14-4.69c5.04-3.92,10.47-7.36,15.35-11.47
		c1.9-11.59,2.87-23.39,4.37-35.07C384.88,779.39,375.93,780.64,366.95,780.95z"/>
	<path class="st0" d="M445.69,674.76c0.98-1.41,2.83-0.81,4.26-0.96c27.45,0.07,54.89-0.01,82.34,0.05
		c-0.77,9.04-1.1,18.12-1.69,27.19c-10.01,0.26-20.01,0.09-30.01,0.21c-2.96,43.46-6.02,86.91-8.9,130.37
		c-13.16,0.67-26.33,0.84-39.5,1.3c3.71-43.85,7.54-87.68,11.34-131.51c-13.62,0.03-27.25,0.16-40.87,0.15
		C430.21,692.52,437.99,683.67,445.69,674.76 M463.09,775.87c-1.36,16.89-2.84,33.77-4.36,50.65c9.1,0,18.19-0.21,27.27-0.76
		c1.13-17,2.47-34,3.41-51.02C480.64,775.08,471.87,775.53,463.09,775.87z"/>
	<path class="st0" d="M548.41,673.83c27.81,0,55.61-0.01,83.42,0.01c-0.01,9-0.04,18.02,0.3,27.02c-15.89,0.21-31.78-0.2-47.67,0.24
		c-0.02,10.73-0.58,21.46-0.7,32.2c15.08,0.03,30.17-0.18,45.25,0.06c-7.39,9.27-14.5,18.76-21.82,28.08
		c-7.98,0.02-15.96,0.08-23.94,0.05c-0.43,12.74-0.64,25.49-0.9,38.24c17.02-0.12,34.05-0.14,51.07-0.11
		c0.04,10.08,0.1,20.17,0.13,30.26c-30.47,0.11-60.93,0.42-91.4,0.7C544.23,778.33,546.33,726.08,548.41,673.83 M550.53,772.67
		c-0.71,17.26-1.47,34.51-2.02,51.77c26.29-0.05,52.57-0.58,78.86-0.51c0.19-6.07,0.1-12.14-0.02-18.2
		c-17.05-0.22-34.1,0.03-51.15,0.06c0.15-11.19,0.6-22.37,0.62-33.56C568.05,772.26,559.29,772.49,550.53,772.67z"/>
	<path class="st0" d="M648.83,673.84c25.04,0.02,50.08,0.09,75.13,0.06c1.64-0.03,3.43,0.05,4.78,1.15
		c6.96,4.63,13.99,9.14,20.92,13.82c1.12,16.34,2.33,32.68,3.5,49.02c-8.95,6.53-17.94,12.99-26.78,19.67
		c11.94,24.65,23.39,49.54,35.15,74.27c-13.5-0.25-26.99-0.65-40.47-1.08c-10.78-23.49-21.28-47.11-32.36-70.46
		c1.36,23.37,1.59,46.78,2.74,70.16c-13.28-0.09-26.56-0.21-39.84-0.27C650.67,778.06,649.85,725.94,648.83,673.84 M686.73,700.55
		c0.6,14.67,1.1,29.35,1.61,44.03c8.66-6.53,17.32-13.08,26.02-19.56c-0.51-8.13-0.89-16.27-1.25-24.41
		C704.32,700.6,695.52,700.53,686.73,700.55 M656.74,771.86c-0.2,17.35,0.83,34.68,0.66,52.03c9.24,0.69,18.53,0.38,27.8,0.44
		c-0.37-5.43-0.63-10.85-0.68-16.28c-0.16-11.82-1.05-23.61-1.17-35.42C674.49,772.06,665.6,772.37,656.74,771.86 M701.46,773.02
		c7.6,17.37,15.73,34.51,23.54,51.8c8.87,0.47,17.77,0.55,26.66,0.68c-2-5.23-4.64-10.17-6.97-15.24
		c-5.85-12.2-11.37-24.56-17.43-36.65C718.65,773.54,710.06,773.25,701.46,773.02z"/>
	<path class="st0" d="M764.72,673.83c12.33,0,24.66-0.02,36.99,0.01c5.43,53.47,10.99,106.92,16.16,160.42
		c-13.31-0.93-26.67-1.1-40-1.76C773.73,779.6,769.19,726.71,764.72,673.83 M779.5,775.75c1.02,16.95,2.79,33.85,4.04,50.79
		c9.19,0.85,18.43,0.76,27.64,1.24c-1.48-16.95-3.41-33.86-5.03-50.79C797.27,776.54,788.38,776.25,779.5,775.75z"/>
	<path class="st0" d="M819.73,689.2c6.82-5.05,13.48-10.3,20.28-15.38c18.34,0.01,36.68,0,55.02,0.01c1.69-0.22,3.05,0.95,4.41,1.77
		c7.01,4.61,14.09,9.12,21.08,13.76c7.42,44.29,14.59,88.63,22.15,132.89c-7.09,5.85-14.22,11.65-21.43,17.35
		c-20.2-1.44-40.42-2.64-60.65-3.53c-2.38-0.36-4.05-2.29-5.96-3.56c-6.75-5.26-14.02-9.88-20.54-15.39
		C829.28,774.49,824.47,731.85,819.73,689.2 M858.62,701.3c4.65,34.89,9.1,69.81,13.67,104.7c9.46,0.45,18.93,0.84,28.39,1.37
		c-5.28-35.25-10.67-70.49-15.63-105.78C876.24,701.28,867.42,701.41,858.62,701.3 M835.85,778.61c1.18,10.8,2.47,21.6,3.53,32.42
		c0.22,1.41,0.2,3.13,1.62,3.96c5.11,3.92,10.46,7.52,15.55,11.48c2.25,1.61,4.44,3.83,7.44,3.73c18.39,0.69,36.76,2.13,55.13,3.06
		c2.99-1.56,5.33-4.07,8-6.11c2.85-2.47,6.11-4.5,8.69-7.29c-1.35-11.79-3.85-23.46-5.51-35.23c-9.08-0.75-18.17-1.42-27.26-1.83
		c1.44,10.27,3.27,20.49,4.47,30.79c-13.49-0.45-26.97-1.14-40.44-1.86c-1.67-10.48-2.84-21.04-4.19-31.57
		C853.87,779.53,844.86,779.07,835.85,778.61z"/>
	<path class="st0" d="M938.08,673.83c12.4-0.03,24.81,0.05,37.22-0.04c22.9,34.18,45.37,68.64,67.72,103.18
		c5.88,9.34,12.16,18.43,17.74,27.95c-1.18-8.15-3.61-16.06-5.28-24.11c-8.31-35.66-16.54-71.33-24.88-106.98
		c27.09,0.01,54.18-0.03,81.28,0.02c-10.74,9.88-21.68,19.55-32.25,29.61c16.97,66.28,33.24,132.76,50,199.11
		c0.75,1.99,2.93,2.98,4.4,4.44c14.06,11.85,28.51,23.29,42.28,35.46c-27.33-4.66-54.68-9.22-82.14-13.07
		c-30.92-51.43-62.27-102.61-94.07-153.5c3.79,21.39,8.4,42.64,12.53,63.97c4.31,22.38,9.13,44.66,13.55,67.02
		c2.25,10.81,4.14,21.69,6.59,32.45c-6.69,4.52-14.69,6.43-22.22,9.05c-24.54,8.24-50.94,9.48-76.51,6.46
		c-25.16-2.83-49.81-9.04-74.01-16.36c-8.97-2.65-17.77-5.91-26.89-8.01c-26.85-6.39-54.66-7.06-82.12-5.97
		c-24.94,1.21-49.76,4.41-74.26,9.18c16.84-16.74,37.85-28.64,59.8-37.32c23.86-9.37,48.95-15.33,74.31-18.84
		c27.81-3.76,56.09-4.61,84.03-1.72c11.48,1.13,22.72,3.87,34.18,5.17c15.23,1.83,30.71,1.62,45.86-0.88
		C962.86,811.31,950.35,742.59,938.08,673.83 M964.73,787.27c4.2,26.47,9.57,52.77,13.94,79.22c0.93,6.14,2.81,12.21,2.5,18.49
		c-0.19,5.82-0.33,11.65-0.5,17.49c-16.63,3.61-33.68,4.76-50.66,4.15c-10.12,0.05-20.09-1.79-30.13-2.47
		c8.43,6.7,18.79,10.13,28.37,14.77c-15.84-0.41-31.42-4-46.85-7.39c-12.19-2.72-24.1-6.58-36.33-9.1
		c-34.99-7.46-71.81-5.65-106.07,4.54c-12.44,3.75-24.7,8.37-36.04,14.77c3.31-0.12,6.69-0.21,9.85-1.35
		c38.22-4.18,77.27-6.06,115.21,1.48c13.28,2.51,25.95,7.32,38.91,11.07c31.19,9.05,63.37,16.72,96.07,15.9
		c21.51,0.18,42.72-5.36,62.49-13.53c-0.86-3.4-1.62-6.82-2.27-10.25c-8.69-44.71-17.55-89.39-26.49-134.05
		c-0.2-0.29-0.58-0.86-0.77-1.14C985.56,788.91,975.15,787.93,964.73,787.27 M1017.1,791.84c18.74,30.02,37.21,60.23,55.63,90.46
		c8.59,13.75,16.51,27.97,25.4,41.51c7.92,1.44,15.95,2.24,23.89,3.64c10.94,1.31,21.7,3.84,32.66,5.02
		c-7.45-7.31-15.98-13.43-23.82-20.3c-2.31-2.29-5.88-3.78-6.82-7.1c-8.88-35.18-17.52-70.42-26.5-105.58
		c-10.71-1.08-21.38-2.43-32.12-3.16c2.84,13.61,6.18,27.12,9.34,40.66c-9.35-13.35-17.63-27.44-26.69-40.99
		c-1.13-2.32-3.99-1.79-6.09-2.17C1033.68,793.27,1025.41,792.16,1017.1,791.84z"/>
</g>
<g id="_x23_ed2e27ff">
	<path class="st1" d="M554.96,118.96c3.78-0.37,7.79,0.44,11.39-1.06c2.83-0.39,5.68-0.52,8.55-0.63c-0.93,4.58-5.99,6.47-8.78,9.76
		c-2.61,3.66-6,6.64-8.99,9.96c-12.09,12.65-24.26,25.23-36.51,37.72c-8.25,8.18-16.35,16.66-22.66,26.47
		c2.18,1.34,4.46,3.51,7.23,2.48c38.68-9.13,77.61-17.25,116.79-23.87c39.94,6.66,79.55,15.25,119.03,24.24
		c-5.89-13.58-11.88-27.11-17.94-40.6c18.32,9.24,36.19,19.35,53.98,29.56c14.02,7.66,26.89,17.43,38.03,28.88
		c1.36,1.42,2.92,2.74,4.91,3.2c58.84,16.96,116.82,37.03,173.3,60.7c45.02,19.06,89.39,39.97,131.24,65.32
		c-2.45,16.1-5.83,32.04-9.52,47.9c-19.88,83.45-50.49,164.11-87.75,241.29c57.13,0.03,114.26-0.08,171.38,0.06
		c-27.31,24.38-53.98,49.49-81.29,73.87c2.59,12.19,5.98,24.2,8.88,36.33c6.25,24.96,12.49,49.93,18.74,74.89
		c1.77,9.99,4.76,19.71,7.06,29.59c2.93,11.45,5.59,22.97,8.7,34.38c0.21,0.19,0.64,0.57,0.86,0.75
		c29.51,24.26,58.75,48.86,88.18,73.21l-0.22,0.34c-17.28,25.46-34.6,50.88-51.84,76.36c-19.67-3.91-39.13-8.93-58.71-13.28
		c-26.33-6.47-53.15-10.64-79.91-14.8c-10.98,8.84-24.74,12.87-37.95,17.05c-0.58,0.21-1.74,0.64-2.32,0.85
		c-19.67,5.92-40.23,8.51-60.74,8.59c-37.95-0.57-75.25-9.12-111.4-20.16c-9.01-2.68-17.86-6-27.1-7.85
		c-16.61-3.47-33.65-4.54-50.6-4.33c-3.04-0.46-4.68,2.46-6.63,4.21c-41.29,41.24-85.04,80.01-130.93,116.06
		c-2.76,2.1-5.49,4.24-8.03,6.6h-0.06c-50.3-39.32-98.51-81.38-143.37-126.82c-21.35-0.32-42.99,1.2-63.52,7.39
		c-32.55,10.52-65.77,19.62-99.87,23.26c-26.28,2.92-53.15,1.9-78.84-4.65c-16-3.85-31.93-10.45-43.35-22.7
		c-18.76,3.24-37.59,6.03-56.33,9.42c-29.35,4.99-58.18,12.52-87.25,18.88c-16.94-24.64-33.42-49.61-50.57-74.1l0.2-0.44
		c29.07-24.2,58.14-48.4,87.24-72.56c2.68-2.01,3.61-5.34,4.94-8.25c25.71-58.65,51.87-117.12,77.94-175.61
		c-1.62-2.47-4.09-4.21-6.17-6.26c-22.12-20.04-44.02-40.32-66.18-60.3c39.91,0.04,79.82,0.02,119.74,0.01
		c-2.29-5.32-4.99-10.44-7.4-15.7c-23.38-49.31-43.77-100.06-60.54-152.01c-2.23-9.11-5.46-17.93-7.96-26.96
		c-6.16-20.98-11.73-42.14-16.42-63.49c-0.69-3.54-1.46-7.05-2.48-10.51c-1.42-6.8-2.69-13.63-3.71-20.5
		c20.21-12.35,41.12-23.5,62.33-33.99c71.32-35.01,145.9-63.15,221.94-86.01c-0.93-5.31-2.11-10.65-1.83-16.07
		c0.95-13.99,7.09-27.17,15.29-38.37c16.14-21.52,40.51-35.19,65.52-43.91c10.78-3.98,22.16-5.82,33.4-8.02
		C528.97,122.38,541.92,120.32,554.96,118.96 M511.1,139.82c-16.28,3.23-32.13,8.73-46.86,16.39
		c-21.03,10.88-40.52,28.32-46.88,51.88c-2.59,9.46-0.42,19.47,3.18,28.35c4.8,11.72,12.03,22.27,19.78,32.22
		c13.1,16.61,28.1,31.61,43.54,46.01c-14.17-0.58-28.26-4.12-40.91-10.56c-13.98-6.94-26.08-16.91-38.69-25.95
		c0.41,7.27,0.95,14.54,1.67,21.79c3.5,24.45,12.12,48.79,27.98,68.02c12.62,15.42,30.4,26.52,49.89,30.79
		c-0.39,2.16-2.52,3.54-3.71,5.3c-21.15,26.36-35.27,57.64-45.55,89.64c-2.16,7.5-5.21,14.71-7.37,22.2
		c-7.13,23.98-10.74,49.08-9.86,74.11c0.51,22.31,5.56,44.42,14.33,64.91c-37.42-0.24-74.86,0.09-112.28-0.17
		c-16.2-29.69-31.43-59.92-45.2-90.82c-24.48-54.92-45.27-111.59-60.39-169.83c6.32-4.12,12.39-8.64,18.99-12.3
		c13.97,43.3,29.15,86.2,45.64,128.6c15.3,38.96,31.63,77.62,51.33,114.59c-1.2-6.28-3.55-12.25-5.18-18.42
		c-14.17-47.95-27.71-96.08-40.27-144.48c-8.29-32.51-16.58-65.06-22.76-98.04c41.84-24.01,85.13-45.53,129.69-64.02
		c-1.01-14.46-2.23-28.91-3.09-43.39c-48.35,15.35-96.02,32.87-142.6,52.98c-35.59,15.46-70.71,32.17-104.34,51.58
		c10.71,53.98,26.88,106.76,46.14,158.26c16.11,42.97,34.74,84.97,55.38,125.95c13.44,3.29,26.99,6.12,40.49,9.2
		c-12.04,0.74-24.13-0.19-36.17,0.49c-9.36,0.45-18.7-0.45-28.06-0.26c-27.49,0.05-54.98-0.1-82.46,0.08
		c17.14,16.21,34.84,31.83,52.14,47.89c-28.33,62.79-56.23,125.78-83.98,188.83c-1.3,2.64-1.98,5.8-4.36,7.75
		c-26.8,22.2-53.5,44.51-80.29,66.73c4.28,6.43,8.72,12.75,12.96,19.21c54.79-10.48,109.56-21.13,164.29-31.95
		c8.97,9.75,19.45,18.21,31.39,24.06c21.66,10.92,46.33,14.31,70.36,13.77c19.91-0.69,39.77-3.7,58.89-9.34
		c43.54-15.62,89.89-22.88,136.08-23.03c24.11,0.33,48.36,2.37,71.85,7.93c-17.38-3.54-35.1-5.29-52.81-6.05
		c-52.66-1.68-105.69,7.04-154.95,25.77c-17.89,5.51-36.43,8.89-55.11,10.13c-22.9,1.45-46.36-0.57-67.97-8.66
		c-15.08-5.6-28.93-14.42-40.32-25.79c-51.64,10.95-103.26,22.01-154.9,32.95c5.7,8.7,11.7,17.21,17.46,25.87
		c25.94-5.34,51.56-12.3,77.72-16.57c21.34-3.62,42.67-7.49,64.13-10.31c4.06,2.73,6.81,7.11,10.74,10.09
		c12.2,9.96,28.05,13.55,43.13,16.64c43.5,7.9,87.96-0.31,129.97-12.06c17.04-4.49,33.46-11.37,50.98-13.92
		c19.83-3.05,40.06-4.21,60.05-1.98c30.36,3.16,61.1,10,87.63,25.63c0.07,0.24,0.21,0.72,0.28,0.96
		c-23.56-6.06-47.72-9.71-71.95-11.8c4.84,5.29,10.2,10.06,15.37,15.01c31.29,29.83,64.11,58.01,97.87,84.99
		c39.4-31.2,77.31-64.34,113.07-99.66c-15.19,0.94-30.25,3.29-45.22,5.98c-10.17,1.78-20.14,4.66-30.37,6.01
		c5.62-4.17,12.05-7.06,18.39-9.94c12.19-5.28,24.98-9.11,37.93-11.99c27.22-5.91,55.36-8.02,83.1-5.03
		c13.72,1.29,27.36,3.86,40.43,8.28c39.93,12.69,81.3,23.32,123.51,22.61c20.77-0.28,41.4-4.21,60.96-11.18
		c9.73-3.39,20.16-6.63,27.49-14.28c1.05-0.85,1.96-2.61,3.59-2.07c21.97,3.48,43.93,7.11,65.79,11.27
		c23.09,5.2,46.12,10.71,69.22,15.88c6.1-9.2,12.5-18.2,18.51-27.46c-53.25-11.17-106.45-22.63-159.67-33.94
		c-19.26,19.48-45.8,30.51-72.78,33.57c-27.76,3.36-56.01,0.13-82.94-6.99c-9.67-2.38-18.73-6.61-28.25-9.45
		c-47.96-15.04-98.75-21.45-148.92-17.73c-11.73,0.71-23.32,2.81-34.99,4.09c13.28-2.19,26.55-4.6,40-5.44
		c28.61-2.65,57.47-1.16,85.92,2.58c23.51,3.32,46.82,8.42,69.38,15.88c20.7,7.67,42.75,11.21,64.73,12.43
		c21.84,0.86,44.15-1.44,64.6-9.51c15.42-6.03,29.47-15.65,40.38-28.14c56.38,11.08,112.86,21.7,169.18,33.08
		c4.58-6.81,9.21-13.58,13.81-20.38c-27.27-22.81-54.8-45.34-81.91-68.31c-4.94-17.81-9.05-35.89-13.66-53.8
		c-6.31-25.24-12.63-50.47-18.94-75.71c-4.76-19.7-10.16-39.27-14.53-59.06c5.96-5.14,11.61-10.62,17.5-15.84
		c13.87-12.91,28.18-25.37,41.83-38.51c-47.43-0.15-94.86-0.05-142.3-0.05c-11.66,0.86-23.33-0.22-35,0.01
		c-6.79-0.11-13.59,0.24-20.36-0.2c13.24-3.28,26.63-5.97,39.91-9.13c33.61-66.9,61.51-136.74,82.17-208.72
		c7-25,13.52-50.19,18.03-75.77c-22.55-12.76-45.62-24.6-69.09-35.58c-63.53-29.63-129.36-54.28-196.45-74.51
		c7.44,14.12,11.24,30.39,9.16,46.34c45.86,19.09,90.68,40.75,133.75,65.54c1.04,0.7,3.01,1.39,2.18,3.08
		c-2.91,14.45-6.06,28.85-9.43,43.2c-14.38,60.75-31.09,120.93-48.52,180.88c-3.25,11.71-7.17,23.24-10.1,35.02
		c15.31-28.52,28.42-58.17,40.76-88.09c20.81-50.91,39.29-102.75,56.25-155.07c6.64,3.93,13.03,8.3,19.34,12.76
		c-23.77,90.68-59.59,178.06-104.6,260.24c-33.69-0.05-67.38,0.01-101.06-0.03c-4.27-0.29-7.48-3.73-11.09-5.69
		c-16.89-11.4-31.59-25.77-44.82-41.2c-3.83-4.58-7.85-9.1-10.48-14.51c-7.81-14.99-12.06-32.5-8.27-49.26
		c15.8-1.85,31.37-5.24,46.76-9.22c7.08-1.96,14.26-3.83,20.94-6.96c3.84-1.71,6.22-5.38,8.11-8.97
		c5.34-10.3,8.21-21.62,11.53-32.66c2.03-1.96,4.96-2.8,7.24-4.51c8.41-5.49,14.82-14.66,15.45-24.86c0.5-7.59-2.53-14.98-6.99-21
		c4.6-12.42,7.42-26.42,3.22-39.35c-0.76-2.87-2.73-5.34-3.26-8.23c2.38-3.67,5.03-7.19,7-11.11c0.61-1.41,1.86-2.94,1.07-4.53
		c-3.85-11.92-13.59-21.57-25.28-25.89c-9.23-3.48-19.47-3.78-29.03-1.55c-2.63,0.59-4.39,2.81-6.32,4.5
		c-8.49-1.32-17.25-1.42-25.55,0.99c-1.03-1.01-2.08-2.01-3.09-3.02c12.89-6.24,25.66-12.96,37.15-21.58
		c8.49-6.44,16.67-14.07,20.86-24.09c3.83-9.86,2.45-20.9-0.28-30.87c-5.78-19.21-19.14-35.12-34.11-48.01
		c-13.21-11.63-28.97-19.7-43.78-29.02c6.77,13.45,14.58,26.39,20.63,40.21c4.41,10.43,8.79,21.18,9.62,32.59
		c-0.06,2.02,0.18,5.09-2.19,5.87c-6.36,2.68-13.24,3.79-19.95,5.26c-41.09,7.75-82.66,12.64-124.21,17.12
		c-6.7-4.94-10.37-13.53-18.4-16.79c-6.02-3-12.82-2.99-19.36-3.25c-22.09-11.44-43.84-23.58-65.44-35.95
		c-14.41-8.41-28.87-16.8-42.54-26.38c-3.09-2.36-6.58-4.5-8.68-7.86c0.49-5.33,3.54-9.96,6.36-14.36
		c15.45-22.5,37.74-38.72,57.76-56.81C533.97,135.46,522.58,137.88,511.1,139.82 M529.8,218.2c-0.78,0.43-2.27,0.04-2.59,1.07
		c13.44,7.97,27.07,15.62,40.71,23.25c16.93-4.09,34.01-7.55,51.13-10.75c1.58-0.32,3.22-0.52,4.83-0.16
		c43.23,7.95,86,18.48,127.94,31.68c4.84,2.09,9.85-0.81,14.76-1.24c-2.02-10.66-6.81-20.54-11.33-30.32
		c-1.03-1.82-1.64-4.55-4.16-4.7c-40.42-10.02-81.16-18.74-122.16-26.02c-2.64-0.4-5.27-1.28-7.95-1.05
		C590.43,205.23,560.06,211.48,529.8,218.2 M396.37,254.37c11.03,7.73,21.64,16.06,32.68,23.78c-6.52-9.19-13.4-18.23-18.29-28.45
		C405.93,251.16,400.96,252.26,396.37,254.37z"/>
	<path class="st1" d="M579.31,295.31c9.12-5,19.88-7.32,30.2-5.61c6.25,1.05,9.74,6.86,14.53,10.38
		c12.75,10.3,26.54,19.7,41.78,25.89c-3.29-3.39-6.67-6.7-9.85-10.19c12.06,0.38,24.38,0.71,35.91,4.65
		c10.43,3.44,20.64,7.7,30.29,12.96c4.49,2.99,8.91,6.43,11.49,11.3c-9.87,3.55-19.44,8.6-26.95,16.03
		c-6.27,5.87-7.74,14.84-7.29,23.05c-1.03,10.09,2.38,19.87,6.7,28.82c-16.26,1.97-32.13,7.48-45.72,16.69
		c-7.72,5.31-15.84,10.83-20.6,19.15c-1.69,1.7-3.74,2.96-5.63,4.41c6.59-2.42,12.97-5.39,19.61-7.69
		c-11.02,19.13-19.06,39.8-25.68,60.81c-1.95,6.3-4.58,12.48-5.41,19.06c-0.38,2.07,0.62,3.97,1.41,5.82
		c-4.25-0.68-6.19-5.17-6.93-8.93c-1.13-6.88-0.73-14.19,2.22-20.59c3.33-8.53,7.99-16.52,10.77-25.26
		c2.66-10.54,1.47-22.07-3.55-31.74c-3.55-6.86-7.81-13.64-14.01-18.41c-4.62-4.89-9.12-9.97-14.53-14.03
		c-6.33-5.14-13.81-8.51-21.14-11.95c-0.56-0.26-1.69-0.77-2.26-1.03c0.86,2.45,1.96,4.82,3.43,6.97
		c7.77,11.89,15.36,24.3,18.67,38.28c3,10.74,3.18,23.07-2.76,32.87c-5,8.32-14.62,12.71-23.97,13.73
		c-7.4,0.66-13.38-5.01-17.08-10.8c-9.8-15.66-12.92-34.27-16.34-52.12c-5.32,15.15-8.17,31.51-6.11,47.54
		c0.59,5.32,2.32,10.4,3.67,15.56l-0.94,0.23c-8.51-7.2-14.87-16.44-21.22-25.49c0.13,1.73,0.25,3.48,0.52,5.21
		c2.24,12.74,5.66,25.26,10.64,37.21c-7.05-4.71-13.76-9.9-20.73-14.71c0.05,4.15,0.77,8.25,0.96,12.4
		c-0.47,9.32,0.96,18.58,2.09,27.8c2.68,18.86,6.9,37.68,14.72,55.12c0.71,1.7,1.38,3.43,2.05,5.16
		c-16.56,0.05-32.95-4.19-47.89-11.2c-4.98-2.38-9.62-5.4-14.6-7.78c-2.33-1.82-4.68-3.61-7.08-5.33
		c-0.24,31.18,11.94,62.13,32.73,85.3c-5.4-0.15-10.82,0.26-16.19-0.18c-12.35-10.27-22.19-23.59-28.58-38.33
		c-6.31-14.17-8.27-29.95-7.23-45.34c1.38-21.23,6.84-42.01,14.01-61.97c14.53-39.96,38.44-76.99,71.1-104.48
		c7.05-6.1,15-11,22.56-16.4c22.64-15.15,49.47-24.88,76.89-24.9c10.98-0.68,22.01-0.32,32.97,0.51
		c10.06,0.83,19.59,4.29,29.42,6.28c-1.93-1.95-4.09-3.64-6.36-5.16c6.18-1.98,11.53-6.49,13.69-12.72
		c-5.35,3.42-11.56,5.83-17.99,4.34c1.94-2.11,4.99-2.68,6.94-4.79c3.31-3.3,5.66-8.07,5.13-12.82c-2.94,3.29-5.74,7.25-10.24,8.43
		c-6.65,1.52-13.3-0.99-19.31-3.61c-15.32-6.99-28.99-16.97-43.57-25.29c-5.63-3.29-12.52-4.71-18.88-2.91
		c-7.35,1.68-13.38,6.53-18.32,12.01c-5.33,5.25-6.75,12.89-8.45,19.86c-0.79-13.32,1.57-26.67,5.09-39.48
		C569.56,302.18,574.35,298.07,579.31,295.31 M580.7,300.94c9.68-3.2,20.93-5.27,30.25,0.14c7.4,4.71,14.74,11.18,24.04,11.06
		c-5.85-3.81-12.22-6.9-17.3-11.79c-2.95-2.93-6.29-5.94-10.64-6.29C597.9,292.96,587.89,294.96,580.7,300.94 M666.88,319.66
		c2.55,1.99,5.74,2.78,8.68,4.01c11.8,4.69,23.97,8.46,36.27,11.61c1.67,0.39,3.4,0.4,5.12,0.48
		C701.66,326.9,684.56,320.99,666.88,319.66 M566.81,380.76c4.48-0.09,8.82-1.3,13.24-1.91c24.79-3.68,49.87-5.58,74.94-5
		c6.39,0.1,12.77,1.04,19.17,0.68c-14.35-3.98-29.32-5.66-44.2-5.39C608.42,368.73,586.81,372.8,566.81,380.76z"/>
	<path class="st1" d="M425.61,312.85l1.53-0.14c19.73,11.74,42.94,17.21,65.85,15.74c15.14-1.31,30.93,2.19,43.26,11.29
		c7.85,6.1,15.14,13.11,20.54,21.51c-11.26,2.6-22.4,5.78-33.7,8.15c-11.3-2.25-22.71-4.48-33.31-9.14
		C464.97,350.01,442.88,333.34,425.61,312.85 M459.81,330.21c7.67,4.11,16.46,5.85,25.1,6.26c12.05,0.34,24.4,0.1,36,3.91
		c9.62,2.88,17.99,8.73,25.23,15.57c-7.31-12.44-21.19-19.89-35.15-22.08c-12.18-2.45-24.64-1.06-36.94-1.64
		C469.23,332.05,464.58,330.71,459.81,330.21z"/>
	<path class="st1" d="M749.04,353.4c5.76-1.23,12.24-1.23,17.37,2.04c7.61,4.79,12.45,12.75,16.31,20.65
		c1-5.08-0.37-10.16-1.67-15.06c15.03-3.17,30.44-0.66,45.13,2.98c-3.36-3.97-7.71-6.87-12.1-9.57
		c14.23,1.25,28.71,7.76,36.34,20.32c-0.87,2.29-1.66,4.6-2.41,6.93c-4.85-5.48-11.36-8.77-17.66-12.21
		c-0.85-0.52-1.72-1.06-2.54-1.56c3.28,9.49,7.13,19.4,5.59,29.63c-1.6,7.91-5.69,15.83-12.78,20.12
		c-8.53,5.43-19.1,6.63-28.97,5.34c3.5-1.89,7.14-3.52,10.48-5.69c-4.88-0.45-9.8-0.65-14.56-1.86c2.88-7.13,2.99-15.59-0.54-22.52
		c-2.18-4.53-5.63-8.32-9.5-11.46c-1.87-1.44-3.9-2.66-5.91-3.87c1.91,4.64,4.36,9.26,4.45,14.39c0.43,8.95-6.14,18.16-15.18,19.66
		c-8.25,1.52-16.65,0.36-24.95,0.02c-7.1-0.29-14.19-2.38-20.05-6.47c-3.66-2.57-6.36-6.2-9.33-9.49
		c-0.44-6.9-0.18-14.12,2.64-20.54c1.93-4.52,6.21-7.31,10.25-9.77C728.67,360,738.69,356.03,749.04,353.4 M732.95,362.78
		c7.2-1.88,14.73-3.31,22.15-1.78c7.37,1.14,13.7,5.3,19.61,9.6c-2.36-6.85-8.43-12.52-15.67-13.7
		C749.98,355.54,740.74,358.19,732.95,362.78 M786.82,365.24c12.16,0.03,24.14,2.36,36.2,3.5c-6.78-3.55-14.38-5.76-22.08-5.44
		C796.24,363.55,791.07,362.85,786.82,365.24 M730.11,371.97c2.48,6.49,6.22,12.33,10.04,18.08c-4.17,0.76-8.43,0.7-12.59,1.43
		c-1.16-0.47-2.33-0.9-3.49-1.31c8.49,5.95,17.67,11.2,27.58,14.4c4.14,1.18,10.04,2.31,12.83-1.96c2.75-5.17,0.47-11.63-3.39-15.6
		c-7.36-7.64-17.74-11.16-27.61-14.31l-0.08-0.6C732.29,372.05,731.2,372.01,730.11,371.97z"/>
	<path class="st1" d="M790.57,496.55c7.18-3.04,14.82-5.08,22.62-5.61c-1.9,5.36-4.32,10.51-6.55,15.74
		c-0.7,2.27-3.44,2.18-5.29,2.82c-10.78,2.37-21.43,5.34-32.26,7.42C772.75,507.29,781.31,500.45,790.57,496.55z"/>
	<path class="st1" d="M710.57,559.68c8.06-5.51,16.32-10.75,24.53-16.04c-2.82,18.88,0.45,38.56,9.66,55.32
		c7.65,14.99,19.51,27.22,31.65,38.64c5.4,5.34,11.19,10.26,17.04,15.1c-6.73-1.37-12.43-5.58-18.41-8.75
		c-30.79-17.8-56.07-46.69-65.53-81.37C709.09,561.43,709.41,560.21,710.57,559.68z"/>
	<path class="st1" d="M655.91,570.76c12.64,12.73,26.78,23.99,42.31,33.02c1.62,0.98,3.35,1.85,4.82,3.09
		c7.72,9.99,16.33,19.24,25.37,28.02c5.73,6.56,11.36,13.2,16.87,19.95c-13.31-0.02-26.61,0.06-39.92-0.05
		C683.43,630.55,665.73,602.05,655.91,570.76z"/>
	<path class="st1" d="M429.13,863.83c70.77-10.31,142.44-14.13,213.93-13.28c39.34,0.58,78.68,2.6,117.79,6.92
		c16.12,1.62,32.14,4.07,48.2,6.18c-15.36,0.23-30.62-2.11-45.98-2.3c-107.59-5.89-215.48-4.22-323.01,2.12
		C436.42,863.61,432.78,864.41,429.13,863.83z"/>
</g>
<g id="_x23_000000ff">
	<path d="M511.1,139.82c11.48-1.94,22.87-4.36,34.41-5.94c-20.02,18.09-42.31,34.31-57.76,56.81c-2.82,4.4-5.87,9.03-6.36,14.36
		c2.1,3.36,5.59,5.5,8.68,7.86c13.67,9.58,28.13,17.97,42.54,26.38c21.6,12.37,43.35,24.51,65.44,35.95
		c6.54,0.26,13.34,0.25,19.36,3.25c8.03,3.26,11.7,11.85,18.4,16.79c41.55-4.48,83.12-9.37,124.21-17.12
		c6.71-1.47,13.59-2.58,19.95-5.26c2.37-0.78,2.13-3.85,2.19-5.87c-0.83-11.41-5.21-22.16-9.62-32.59
		c-6.05-13.82-13.86-26.76-20.63-40.21c14.81,9.32,30.57,17.39,43.78,29.02c14.97,12.89,28.33,28.8,34.11,48.01
		c2.73,9.97,4.11,21.01,0.28,30.87c-4.19,10.02-12.37,17.65-20.86,24.09c-11.49,8.62-24.26,15.34-37.15,21.58
		c1.01,1.01,2.06,2.01,3.09,3.02c8.3-2.41,17.06-2.31,25.55-0.99c1.93-1.69,3.69-3.91,6.32-4.5c9.56-2.23,19.8-1.93,29.03,1.55
		c11.69,4.32,21.43,13.97,25.28,25.89c0.79,1.59-0.46,3.12-1.07,4.53c-1.97,3.92-4.62,7.44-7,11.11c0.53,2.89,2.5,5.36,3.26,8.23
		c4.2,12.93,1.38,26.93-3.22,39.35c4.46,6.02,7.49,13.41,6.99,21c-0.63,10.2-7.04,19.37-15.45,24.86c-2.28,1.71-5.21,2.55-7.24,4.51
		c-3.32,11.04-6.19,22.36-11.53,32.66c-1.89,3.59-4.27,7.26-8.11,8.97c-6.68,3.13-13.86,5-20.94,6.96
		c-15.39,3.98-30.96,7.37-46.76,9.22c-3.79,16.76,0.46,34.27,8.27,49.26c2.63,5.41,6.65,9.93,10.48,14.51
		c13.23,15.43,27.93,29.8,44.82,41.2c3.61,1.96,6.82,5.4,11.09,5.69c33.68,0.04,67.37-0.02,101.06,0.03
		c45.01-82.18,80.83-169.56,104.6-260.24c-6.31-4.46-12.7-8.83-19.34-12.76c-16.96,52.32-35.44,104.16-56.25,155.07
		c-12.34,29.92-25.45,59.57-40.76,88.09c2.93-11.78,6.85-23.31,10.1-35.02c17.43-59.95,34.14-120.13,48.52-180.88
		c3.37-14.35,6.52-28.75,9.43-43.2c0.83-1.69-1.14-2.38-2.18-3.08c-43.07-24.79-87.89-46.45-133.75-65.54
		c2.08-15.95-1.72-32.22-9.16-46.34c67.09,20.23,132.92,44.88,196.45,74.51c23.47,10.98,46.54,22.82,69.09,35.58
		c-4.51,25.58-11.03,50.77-18.03,75.77c-20.66,71.98-48.56,141.82-82.17,208.72c-13.28,3.16-26.67,5.85-39.91,9.13
		c6.77,0.44,13.57,0.09,20.36,0.2c11.67-0.23,23.34,0.85,35-0.01c47.44,0,94.87-0.1,142.3,0.05c-13.65,13.14-27.96,25.6-41.83,38.51
		c-5.89,5.22-11.54,10.7-17.5,15.84c4.37,19.79,9.77,39.36,14.53,59.06c6.31,25.24,12.63,50.47,18.94,75.71
		c4.61,17.91,8.72,35.99,13.66,53.8c27.11,22.97,54.64,45.5,81.91,68.31c-4.6,6.8-9.23,13.57-13.81,20.38
		c-56.32-11.38-112.8-22-169.18-33.08c-10.91,12.49-24.96,22.11-40.38,28.14c-20.45,8.07-42.76,10.37-64.6,9.51
		c-21.98-1.22-44.03-4.76-64.73-12.43c-22.56-7.46-45.87-12.56-69.38-15.88c-28.45-3.74-57.31-5.23-85.92-2.58
		c-13.45,0.84-26.72,3.25-40,5.44c11.67-1.28,23.26-3.38,34.99-4.09c50.17-3.72,100.96,2.69,148.92,17.73
		c9.52,2.84,18.58,7.07,28.25,9.45c26.93,7.12,55.18,10.35,82.94,6.99c26.98-3.06,53.52-14.09,72.78-33.57
		c53.22,11.31,106.42,22.77,159.67,33.94c-6.01,9.26-12.41,18.26-18.51,27.46c-23.1-5.17-46.13-10.68-69.22-15.88
		c-21.86-4.16-43.82-7.79-65.79-11.27c-1.63-0.54-2.54,1.22-3.59,2.07c-7.33,7.65-17.76,10.89-27.49,14.28
		c-19.56,6.97-40.19,10.9-60.96,11.18c-42.21,0.71-83.58-9.92-123.51-22.61c-13.07-4.42-26.71-6.99-40.43-8.28
		c-27.74-2.99-55.88-0.88-83.1,5.03c-12.95,2.88-25.74,6.71-37.93,11.99c-6.34,2.88-12.77,5.77-18.39,9.94
		c10.23-1.35,20.2-4.23,30.37-6.01c14.97-2.69,30.03-5.04,45.22-5.98c-35.76,35.32-73.67,68.46-113.07,99.66
		c-33.76-26.98-66.58-55.16-97.87-84.99c-5.17-4.95-10.53-9.72-15.37-15.01c24.23,2.09,48.39,5.74,71.95,11.8
		c-0.07-0.24-0.21-0.72-0.28-0.96c-26.53-15.63-57.27-22.47-87.63-25.63c-19.99-2.23-40.22-1.07-60.05,1.98
		c-17.52,2.55-33.94,9.43-50.98,13.92c-42.01,11.75-86.47,19.96-129.97,12.06c-15.08-3.09-30.93-6.68-43.13-16.64
		c-3.93-2.98-6.68-7.36-10.74-10.09c-21.46,2.82-42.79,6.69-64.13,10.31c-26.16,4.27-51.78,11.23-77.72,16.57
		c-5.76-8.66-11.76-17.17-17.46-25.87c51.64-10.94,103.26-22,154.9-32.95c11.39,11.37,25.24,20.19,40.32,25.79
		c21.61,8.09,45.07,10.11,67.97,8.66c18.68-1.24,37.22-4.62,55.11-10.13c49.26-18.73,102.29-27.45,154.95-25.77
		c17.71,0.76,35.43,2.51,52.81,6.05c-23.49-5.56-47.74-7.6-71.85-7.93c-46.19,0.15-92.54,7.41-136.08,23.03
		c-19.12,5.64-38.98,8.65-58.89,9.34c-24.03,0.54-48.7-2.85-70.36-13.77c-11.94-5.85-22.42-14.31-31.39-24.06
		c-54.73,10.82-109.5,21.47-164.29,31.95c-4.24-6.46-8.68-12.78-12.96-19.21c26.79-22.22,53.49-44.53,80.29-66.73
		c2.38-1.95,3.06-5.11,4.36-7.75c27.75-63.05,55.65-126.04,83.98-188.83c-17.3-16.06-35-31.68-52.14-47.89
		c27.48-0.18,54.97-0.03,82.46-0.08c9.36-0.19,18.7,0.71,28.06,0.26c12.04-0.68,24.13,0.25,36.17-0.49
		c-13.5-3.08-27.05-5.91-40.49-9.2c-20.64-40.98-39.27-82.98-55.38-125.95c-19.26-51.5-35.43-104.28-46.14-158.26
		c33.63-19.41,68.75-36.12,104.34-51.58c46.58-20.11,94.25-37.63,142.6-52.98c0.86,14.48,2.08,28.93,3.09,43.39
		c-44.56,18.49-87.85,40.01-129.69,64.02c6.18,32.98,14.47,65.53,22.76,98.04c12.56,48.4,26.1,96.53,40.27,144.48
		c1.63,6.17,3.98,12.14,5.18,18.42c-19.7-36.97-36.03-75.63-51.33-114.59c-16.49-42.4-31.67-85.3-45.64-128.6
		c-6.6,3.66-12.67,8.18-18.99,12.3c15.12,58.24,35.91,114.91,60.39,169.83c13.77,30.9,29,61.13,45.2,90.82
		c37.42,0.26,74.86-0.07,112.28,0.17c-8.77-20.49-13.82-42.6-14.33-64.91c-0.88-25.03,2.73-50.13,9.86-74.11
		c2.16-7.49,5.21-14.7,7.37-22.2c10.28-32,24.4-63.28,45.55-89.64c1.19-1.76,3.32-3.14,3.71-5.3
		c-19.49-4.27-37.27-15.37-49.89-30.79c-15.86-19.23-24.48-43.57-27.98-68.02c-0.72-7.25-1.26-14.52-1.67-21.79
		c12.61,9.04,24.71,19.01,38.69,25.95c12.65,6.44,26.74,9.98,40.91,10.56c-15.44-14.4-30.44-29.4-43.54-46.01
		c-7.75-9.95-14.98-20.5-19.78-32.22c-3.6-8.88-5.77-18.89-3.18-28.35c6.36-23.56,25.85-41,46.88-51.88
		C478.97,148.55,494.82,143.05,511.1,139.82 M453.77,176.78c-11.45,8.62-21.18,20.31-25,34.34c-2.11,8.74,0.92,17.66,4.7,25.49
		c6.73,13.53,16.27,25.4,26.15,36.74c13.22,14.78,27.43,28.68,42.36,41.73c2.09,0.15,4.18,0.51,6.3,0.46l-0.39,0.1
		c12.47,1.8,24.38,6.9,34.33,14.63c3.07-4.51,6.31-8.93,10.29-12.69c1.05-0.85,2.11-1.7,3.17-2.55c0.73-6.42,0.93-13.25,4.4-18.92
		c4.57-7.9,12.49-13.02,20.61-16.72c-18.72-9.9-37.23-20.18-55.56-30.77c-16.28-9.56-32.71-19.02-47.62-30.65
		c1,11.09,6.72,21.04,13.49,29.62c-10.04-7.2-19.3-17-21.66-29.55c-2.76-13.94,2.97-28.24,12-38.75c7.11-9.4,15.52-17.7,23.83-26.02
		C486.91,158.13,468.99,165.39,453.77,176.78 M778.25,222.5c5.23,10.74,9.58,21.91,12.78,33.42c2.52,10.28,1.69,21.79-4.27,30.77
		c-5.87,8.75-15.83,13.84-25.87,16.14c8.06-4.69,15.43-10.99,19.81-19.37c-14,4.22-28.46,6.54-42.84,8.98
		c-24.82,4.01-49.77,7.06-74.72,10.13c6.71,0.89,13.31,2.53,19.8,4.43c8.55,2.49,16.14,7.28,23.78,11.72
		c6.96-5.02,16-7.27,24.45-5.43c7.77,1.28,14.35,6.23,19.33,12.12c2.76,3.85,5.06,8.02,6.72,12.47l0.06-0.02
		c0.24,0.89,0.73,2.68,0.97,3.57c1.54,0.12,3.14,0.24,4.54-0.62c15.29-7.07,30.53-14.74,43.72-25.36
		c6.43-5.44,13.06-11.78,15.09-20.26c2.03-11.39-1.27-23.12-6.59-33.17C806.32,246,792.78,233.21,778.25,222.5 M579.31,295.31
		c-4.96,2.76-9.75,6.87-11.2,12.59c-3.52,12.81-5.88,26.16-5.09,39.48c-0.3,4.08,0.61,8.14,0.79,12.21
		c7.7-1.15,15.3-2.89,23.05-3.69c-0.93-10.88-1.27-22.08,2.59-32.5c-3.87,0.41-7.76,1.03-11.4,2.46c-2.15,0.69-4.24,1.97-6.58,1.66
		c4.94-5.48,10.97-10.33,18.32-12.01c6.36-1.8,13.25-0.38,18.88,2.91c14.58,8.32,28.25,18.3,43.57,25.29
		c6.01,2.62,12.66,5.13,19.31,3.61c4.5-1.18,7.3-5.14,10.24-8.43c0.53,4.75-1.82,9.52-5.13,12.82c-1.95,2.11-5,2.68-6.94,4.79
		c6.43,1.49,12.64-0.92,17.99-4.34c-2.16,6.23-7.51,10.74-13.69,12.72c2.27,1.52,4.43,3.21,6.36,5.16
		c-9.83-1.99-19.36-5.45-29.42-6.28c-10.96-0.83-21.99-1.19-32.97-0.51c-27.42,0.02-54.25,9.75-76.89,24.9
		c-7.56,5.4-15.51,10.3-22.56,16.4c-32.66,27.49-56.57,64.52-71.1,104.48c-7.17,19.96-12.63,40.74-14.01,61.97
		c-1.04,15.39,0.92,31.17,7.23,45.34c6.39,14.74,16.23,28.06,28.58,38.33c5.37,0.44,10.79,0.03,16.19,0.18
		c5.23-0.04,10.46,0.01,15.7-0.04c-10.84-13.13-22.56-25.54-33.26-38.77c23.14,12.63,44.99,27.81,69.1,38.58
		c15.72,0.39,31.49,0.27,47.23,0.05c25.35,0.31,50.74,0.21,76.1,0.05c-10.7-4.74-21.76-8.75-32.27-13.94
		c-18.01-8.54-35.38-18.52-51.46-30.31c-25.92-18.97-48.72-43.19-62.44-72.49c-5-10.22-7.97-21.22-10.72-32.2
		c-0.19-4.15-0.91-8.25-0.96-12.4c6.97,4.81,13.68,10,20.73,14.71c-4.98-11.95-8.4-24.47-10.64-37.21l0.84-1.26
		c1.56,2.24,1.91,5.25,3.14,7.75c7.95,18.56,18.86,36.73,35.4,48.84c10.27,7.64,23.24,11.21,35.97,10.19
		c-10.02-3.6-19.83-8.23-27.9-15.3c-3.87-3.51-7.85-7.19-10.15-11.96c11.73,8.96,26.32,14.41,41.16,14.16
		c1.28-9.45,4.41-18.54,8.09-27.3c1.83-4.48,4.45-8.61,6-13.21c5.31-7.05,7.67-16.09,8.25-24.82c0.56-15.93-7.62-30.76-18.22-42.13
		c-5.36-6.07-11.99-10.76-18.19-15.91c7.33,3.44,14.81,6.81,21.14,11.95c5.41,4.06,9.91,9.14,14.53,14.03
		c2.76,5.33,6.44,10.2,8.32,15.97c5.52,14.35,3.88,30.68-2.65,44.41c-6.95,14.31-12.86,29.61-13.49,45.68
		c0.13,5.73,0.83,12.77,6.16,16.15c5.45,3.22,12.15,2.2,18.05,1.03c18.16-4.21,34.45-13.67,50.61-22.62
		c25.22-12.62,54.23-19.74,82.37-14.6c-8.99,2.26-18.23,3.6-27,6.65c2.54,3.75,5.14,7.48,8.02,11c11.49-0.32,22.77-2.74,33.98-5.07
		c10.96-2.46,21.94-5.04,32.5-8.93c2.62-0.63,3.59-3.3,4.61-5.48c3.32-7.87,5.81-16.05,8.1-24.26c-6.62-0.33-13.47-1.14-19.38-4.38
		c8.54-0.6,17.63-0.92,25.16-5.5c6.04-3.64,12.18-7.78,15.87-13.95c1.99-3.35,2.98-8.03,0.59-11.42
		c-11.81,12.52-29.62,18.02-46.52,16.95c-5.67-0.18-11.1-3.44-16.79-1.83c-50.57,9.43-99.32,27.31-145.42,49.93
		c-2.94,0.87-3.1,4.27-3.92,6.71c17.07-7.17,33.76-15.27,51.24-21.42c20.48-7.6,41.59-13.41,62.97-17.86
		c2.42-0.65,4.93-0.48,7.41-0.47c-40.62,8.74-78.91,25.79-115.43,45.27c-4.17,1.94-8.68,4.91-13.42,3.09l-0.44-0.12
		c-0.79-1.85-1.79-3.75-1.41-5.82c0.83-6.58,3.46-12.76,5.41-19.06c6.62-21.01,14.66-41.68,25.68-60.81
		c-6.64,2.3-13.02,5.27-19.61,7.69c1.89-1.45,3.94-2.71,5.63-4.41c5.44-2.51,9.89-6.69,15.27-9.36
		c10.61-6.14,22.59-9.34,34.61-11.31c7.45,0.04,14.92-0.51,22.35,0.33c21.97,1.93,42.75,9.88,63.21,17.63
		c8.69,3.14,17.42,6.8,26.76,7.4c6.94-0.02,13.94-1.11,20.45-3.6c11.94-4.39,20.69-15.59,23.55-27.79c2-3.58,2.6-7.77,3.31-11.76
		c1.96-13.66-4.61-27.56-15.23-36.03c-1.29-1.4-3.73-2.3-3.73-4.46c6.3,3.44,12.81,6.73,17.66,12.21c0.75-2.33,1.54-4.64,2.41-6.93
		c-7.63-12.56-22.11-19.07-36.34-20.32c4.39,2.7,8.74,5.6,12.1,9.57c-14.69-3.64-30.1-6.15-45.13-2.98c1.3,4.9,2.67,9.98,1.67,15.06
		c-3.86-7.9-8.7-15.86-16.31-20.65c-5.13-3.27-11.61-3.27-17.37-2.04c-10.35,2.63-20.37,6.6-29.59,12.01
		c-4.04,2.46-8.32,5.25-10.25,9.77c-2.82,6.42-3.08,13.64-2.64,20.54c0.02,1.78,0.05,3.57,0.07,5.36
		c-3.74-5.14-5.61-11.24-7.21-17.31c-0.45-8.21,1.02-17.18,7.29-23.05c7.51-7.43,17.08-12.48,26.95-16.03
		c2.6-0.82,5.21-1.63,7.82-2.42c2.13-0.32,4.26-0.66,6.4-1.01c-3.16-3.86-6.64-7.51-10.7-10.42c-6.08-4.4-14.05-5.99-21.37-4.42
		c0.95,0.56,1.84,1.28,2.95,1.56c1.24,1.73,2.46,3.49,3.41,5.41c-9.65-5.26-19.86-9.52-30.29-12.96
		c-11.53-3.94-23.85-4.27-35.91-4.65c3.18,3.49,6.56,6.8,9.85,10.19c-15.24-6.19-29.03-15.59-41.78-25.89
		c-4.79-3.52-8.28-9.33-14.53-10.38C599.19,287.99,588.43,290.31,579.31,295.31 M423.59,310.45c4.43,19.54,12.63,38.77,26.47,53.53
		c11.55,12.41,27.26,20.73,43.91,23.7c1.41,0.37,2.28-1.25,3.42-1.78c-4.82-2.66-9.94-4.74-14.58-7.73
		c-18.22-11.23-33.5-26.83-45.94-44.14c19.72,14.9,40.97,28.84,65.14,35.16c6.88,1.47,14.46,3.82,21.08,0.21
		c11.3-2.37,22.44-5.55,33.7-8.15c-5.4-8.4-12.69-15.41-20.54-21.51c-12.33-9.1-28.12-12.6-43.26-11.29
		c-22.91,1.47-46.12-4-65.85-15.74C425.98,311.92,424.78,311.17,423.59,310.45 M588.53,355.58c3.91-0.31,7.81-0.73,11.71-1.17
		c-2.64-5.67-3.95-12.18-2.05-18.29c0.69-3.24,2.99-5.86,3.75-9.02c-0.95-0.62-1.91-1.2-2.88-1.75
		C592.6,334.13,589.64,344.87,588.53,355.58 M611.05,334.08c-2.32,6.04-2.86,12.71-0.98,18.94l0.09,0.8
		c7.79-0.04,15.58,0.1,23.35,0.81l0.04,0.17c4.54,0.36,9.09,0.77,13.56,1.66c2.07,0.46,4.22,0.26,6.17-0.6
		C637.67,352.1,623.96,343.3,611.05,334.08 M675.36,439.49c-1.58,2.18-3.15,4.38-4.72,6.57c3.66,5.23,8.39,9.93,14.35,12.43
		c3.51,0.44,6.1-2.59,8.97-4.12c-1.86,2.55-3.82,5.24-6.74,6.64c-2.71,1.4-6.01,0.85-8.63,2.45c-11.46,5.98-19.69,16.45-26.37,27.24
		c13.01-4.91,25.76-10.48,38.82-15.25c21.96-8.13,44.41-14.98,67.22-20.27c-4.26-2.23-8.92-3.56-13.35-5.38
		c-1.89,0.98-3.52,2.88-5.69,3.05c-2.85-1.79-4.9-4.55-6.74-7.3c-4.13-1.27-8.25-2.62-12.5-3.44c-2.14,1.25-3.71,3.27-5.5,4.95
		c-4.07-1.41-7.2-4.53-9.92-7.74C694.9,437.89,685.01,437.98,675.36,439.49 M688.54,553.68c-0.27,0.28-0.81,0.84-1.08,1.12
		c9.17,22.79,23.81,42.77,37.68,62.83c-7.51-3.29-14.73-7.18-22.1-10.76c-1.47-1.24-3.2-2.11-4.82-3.09
		c-15.53-9.03-29.67-20.29-42.31-33.02c9.82,31.29,27.52,59.79,49.45,84.03c13.31,0.11,26.61,0.03,39.92,0.05
		c-5.51-6.75-11.14-13.39-16.87-19.95c12.44,3.51,23.92,9.87,36.45,13.16c9.84,2.59,19.88,4.3,29.95,5.7
		c-0.25-0.24-0.74-0.73-0.99-0.97l-0.37-0.08c-5.85-4.84-11.64-9.76-17.04-15.1c-12.14-11.42-24-23.65-31.65-38.64
		c-9.21-16.76-12.48-36.44-9.66-55.32l0.75-0.52c-3.92-3.58-7.32-7.68-10.29-12.08C713.56,539.13,701.27,546.8,688.54,553.68
		 M185.02,673.89c8.84,8.03,17.62,16.11,26.46,24.14c-30,66.53-59.62,133.23-89.01,200.04c-1.13,2.26-1.7,4.99-3.78,6.64
		c-15.11,12.66-30.35,25.17-45.43,37.87c27.53-4.74,55.12-9.2,82.66-13.9c6.96-17.98,14.02-35.92,21-53.88
		c16.88-1.84,33.78-3.47,50.67-5.22c-0.7,24.14-0.99,48.29-1.49,72.44c3.68,2.99,7.94,5.21,12.45,6.67
		c18.13,6.02,37.4,8.12,56.45,7.59c37.33-1.42,73.64-11.4,109-22.81c12.62-3.94,25.69-6.23,38.81-7.73
		c42.88-4.15,86.2-0.21,128.38,7.96c-23.15-23.17-53.95-36.83-84.98-45.91c-24.81-7.16-50.45-11.27-76.2-13
		c-24.71-1.38-49.68-0.92-74.08,3.55c-20.57,4-41.87,5.38-62.6,1.74c-2.7-68.74-5.19-137.48-7.17-206.24
		C239.11,673.85,212.06,673.75,185.02,673.89 M313.17,687.24c-1.4,1.02-3.47,1.77-3.54,3.8c-2.59,15.05-5.19,30.09-7.78,45.14
		c19.54,13.9,39.47,27.26,59.24,40.83c-0.73,9.84-2.65,19.73-3.77,29.6c-9.44,0.36-18.87,0.91-28.31,1.4
		c1.42-9.83,2.98-19.65,4.55-29.46c-14.03,5.62-28.07,11.21-42,17.07c-1.54,9.15-3.09,18.3-4.76,27.42
		c6.96,5.88,14.09,11.54,21.11,17.34c20.04-1.38,40.09-2.57,60.15-3.7c1.18-0.02,2.4-0.18,3.32-1c7.98-5.93,15.99-11.83,24.04-17.69
		c2.22-18.35,4.31-36.72,6.6-55.06c0.73-1.55-0.6-2.5-1.71-3.15c-19.4-12.79-38.52-25.98-57.75-39.02
		c0.85-6.43,1.9-12.82,2.93-19.21c8.73-0.05,17.47-0.11,26.2-0.18c-1.18,8.96-2.52,17.89-3.62,26.87
		c13.17-5.14,26.44-10.04,39.59-15.19c1.47-7.85,2.07-15.9,3.01-23.85c-6.95-4.9-13.34-10.62-20.41-15.3
		c-18.74-0.09-37.5-0.19-56.23,0.05C326.89,678.04,320.17,682.88,313.17,687.24 M445.69,674.76c-7.7,8.91-15.48,17.76-23.03,26.8
		c13.62,0.01,27.25-0.12,40.87-0.15c-3.8,43.83-7.63,87.66-11.34,131.51c13.17-0.46,26.34-0.63,39.5-1.3
		c2.88-43.46,5.94-86.91,8.9-130.37c10-0.12,20,0.05,30.01-0.21c0.59-9.07,0.92-18.15,1.69-27.19c-27.45-0.06-54.89,0.02-82.34-0.05
		C448.52,673.95,446.67,673.35,445.69,674.76 M548.41,673.83c-2.08,52.25-4.18,104.5-6.26,156.75c30.47-0.28,60.93-0.59,91.4-0.7
		c-0.03-10.09-0.09-20.18-0.13-30.26c-17.02-0.03-34.05-0.01-51.07,0.11c0.26-12.75,0.47-25.5,0.9-38.24
		c7.98,0.03,15.96-0.03,23.94-0.05c7.32-9.32,14.43-18.81,21.82-28.08c-15.08-0.24-30.17-0.03-45.25-0.06
		c0.12-10.74,0.68-21.47,0.7-32.2c15.89-0.44,31.78-0.03,47.67-0.24c-0.34-9-0.31-18.02-0.3-27.02
		C604.02,673.82,576.22,673.83,548.41,673.83 M648.83,673.84c1.02,52.1,1.84,104.22,2.77,156.34c13.28,0.06,26.56,0.18,39.84,0.27
		c-1.15-23.38-1.38-46.79-2.74-70.16c11.08,23.35,21.58,46.97,32.36,70.46c13.48,0.43,26.97,0.83,40.47,1.08
		c-11.76-24.73-23.21-49.62-35.15-74.27c8.84-6.68,17.83-13.14,26.78-19.67c-1.17-16.34-2.38-32.68-3.5-49.02
		c-6.93-4.68-13.96-9.19-20.92-13.82c-1.35-1.1-3.14-1.18-4.78-1.15C698.91,673.93,673.87,673.86,648.83,673.84 M764.72,673.83
		c4.47,52.88,9.01,105.77,13.15,158.67c13.33,0.66,26.69,0.83,40,1.76c-5.17-53.5-10.73-106.95-16.16-160.42
		C789.38,673.81,777.05,673.83,764.72,673.83 M819.73,689.2c4.74,42.65,9.55,85.29,14.36,127.92c6.52,5.51,13.79,10.13,20.54,15.39
		c1.91,1.27,3.58,3.2,5.96,3.56c20.23,0.89,40.45,2.09,60.65,3.53c7.21-5.7,14.34-11.5,21.43-17.35
		c-7.56-44.26-14.73-88.6-22.15-132.89c-6.99-4.64-14.07-9.15-21.08-13.76c-1.36-0.82-2.72-1.99-4.41-1.77
		c-18.34-0.01-36.68,0-55.02-0.01C833.21,678.9,826.55,684.15,819.73,689.2 M938.08,673.83c12.27,68.76,24.78,137.48,36.86,206.27
		c-15.15,2.5-30.63,2.71-45.86,0.88c-11.46-1.3-22.7-4.04-34.18-5.17c-27.94-2.89-56.22-2.04-84.03,1.72
		c-25.36,3.51-50.45,9.47-74.31,18.84c-21.95,8.68-42.96,20.58-59.8,37.32c24.5-4.77,49.32-7.97,74.26-9.18
		c27.46-1.09,55.27-0.42,82.12,5.97c9.12,2.1,17.92,5.36,26.89,8.01c24.2,7.32,48.85,13.53,74.01,16.36
		c25.57,3.02,51.97,1.78,76.51-6.46c7.53-2.62,15.53-4.53,22.22-9.05c-2.45-10.76-4.34-21.64-6.59-32.45
		c-4.42-22.36-9.24-44.64-13.55-67.02c-4.13-21.33-8.74-42.58-12.53-63.97c31.8,50.89,63.15,102.07,94.07,153.5
		c27.46,3.85,54.81,8.41,82.14,13.07c-13.77-12.17-28.22-23.61-42.28-35.46c-1.47-1.46-3.65-2.45-4.4-4.44
		c-16.76-66.35-33.03-132.83-50-199.11c10.57-10.06,21.51-19.73,32.25-29.61c-27.1-0.05-54.19-0.01-81.28-0.02
		c8.34,35.65,16.57,71.32,24.88,106.98c1.67,8.05,4.1,15.96,5.28,24.11c-5.58-9.52-11.86-18.61-17.74-27.95
		c-22.35-34.54-44.82-69-67.72-103.18C962.89,673.88,950.48,673.8,938.08,673.83 M429.13,863.83c3.65,0.58,7.29-0.22,10.93-0.36
		c107.53-6.34,215.42-8.01,323.01-2.12c15.36,0.19,30.62,2.53,45.98,2.3c-16.06-2.11-32.08-4.56-48.2-6.18
		c-39.11-4.32-78.45-6.34-117.79-6.92C571.57,849.7,499.9,853.52,429.13,863.83z"/>
	<path d="M529.8,218.2c30.26-6.72,60.63-12.97,91.18-18.24c2.68-0.23,5.31,0.65,7.95,1.05c41,7.28,81.74,16,122.16,26.02
		c2.52,0.15,3.13,2.88,4.16,4.7c4.52,9.78,9.31,19.66,11.33,30.32c-4.91,0.43-9.92,3.33-14.76,1.24
		c-41.94-13.2-84.71-23.73-127.94-31.68c-1.61-0.36-3.25-0.16-4.83,0.16c-17.12,3.2-34.2,6.66-51.13,10.75
		c-13.64-7.63-27.27-15.28-40.71-23.25C527.53,218.24,529.02,218.63,529.8,218.2z"/>
	<path d="M396.37,254.37c4.59-2.11,9.56-3.21,14.39-4.67c4.89,10.22,11.77,19.26,18.29,28.45
		C418.01,270.43,407.4,262.1,396.37,254.37z"/>
	<path d="M733.62,373.58c-0.03-0.22-0.1-0.66-0.14-0.88c9.87,3.15,20.25,6.67,27.61,14.31c3.86,3.97,6.14,10.43,3.39,15.6
		c-2.79,4.27-8.69,3.14-12.83,1.96c-9.91-3.2-19.09-8.45-27.58-14.4c1.16,0.41,2.33,0.84,3.49,1.31c6.45,2.69,13.28,5.5,20.4,4.98
		c3.99-0.27,4.13-5.37,2.56-8.07C746.94,381.54,740,377.46,733.62,373.58z"/>
	<path d="M780.52,407.68c2.99-8.78-0.04-17.87-2.99-26.2c3.87,3.14,7.32,6.93,9.5,11.46c3.53,6.93,3.42,15.39,0.54,22.52
		c-6.63,11.18-21.24,12.96-32.97,11.18c-7.48-1.6-15.31-3.99-20.56-9.9l2.07,0.12c10.37,2.82,21.37,2.91,31.9,0.92
		C773.36,416.59,779.43,413.64,780.52,407.68z"/>
	<path d="M686.73,700.55c8.79-0.02,17.59,0.05,26.38,0.06c0.36,8.14,0.74,16.28,1.25,24.41c-8.7,6.48-17.36,13.03-26.02,19.56
		C687.83,729.9,687.33,715.22,686.73,700.55z"/>
	<path d="M858.62,701.3c8.8,0.11,17.62-0.02,26.43,0.29c4.96,35.29,10.35,70.53,15.63,105.78c-9.46-0.53-18.93-0.92-28.39-1.37
		C867.72,771.11,863.27,736.19,858.62,701.3z"/>
	<path d="M189.46,835.88c12.83-32,25.12-64.23,38.13-96.15c-0.49,31.06-1.18,62.13-1.87,93.19
		C213.63,833.89,201.56,835.11,189.46,835.88z"/>
</g>
<g id="_x23_d1d2d3ff">
	<path class="st2" d="M434.4,211.39c2.36-7.34,6.14-14.34,11.61-19.84c-2.15,7.39-2.54,15.34-0.38,22.78
		c4.41,16.18,15.13,29.63,26.31,41.73c15.93,16.66,34.39,30.68,53.35,43.69c8.82,6.34,18.48,11.41,27.22,17.83
		c-3.98,3.76-7.22,8.18-10.29,12.69c-9.95-7.73-21.86-12.83-34.33-14.63l0.39-0.1c0.44-0.11,1.34-0.33,1.78-0.45
		c-16.99-15.01-33.48-30.68-48.43-47.75c-9.49-11.15-18.72-22.84-24.67-36.32C434.3,224.93,432.37,217.96,434.4,211.39z"/>
	<path class="st2" d="M806.58,291.57c4.52-5.64,6.87-12.6,7.85-19.69c2.48,7.8,4.33,16.4,1.91,24.44
		c-3.3,7.79-10.05,13.42-16.62,18.44c-13.11,9.43-27.58,16.87-42.44,23.1l-0.06,0.02c-1.66-4.45-3.96-8.62-6.72-12.47
		c7.07-3.46,14.69-5.65,21.77-9.12C785,310.19,797.68,302.79,806.58,291.57z"/>
</g>
<g id="_x23_f59fa1ff">
	<path class="st3" d="M580.7,300.94c7.19-5.98,17.2-7.98,26.35-6.88c4.35,0.35,7.69,3.36,10.64,6.29
		c5.08,4.89,11.45,7.98,17.3,11.79c-9.3,0.12-16.64-6.35-24.04-11.06C601.63,295.67,590.38,297.74,580.7,300.94z"/>
</g>
<g id="_x23_af201bff">
	<path class="st4" d="M423.59,310.45c1.19,0.72,2.39,1.47,3.55,2.26l-1.53,0.14c17.27,20.49,39.36,37.16,64.17,47.41
		c10.6,4.66,22.01,6.89,33.31,9.14c-6.62,3.61-14.2,1.26-21.08-0.21c-24.17-6.32-45.42-20.26-65.14-35.16
		c12.44,17.31,27.72,32.91,45.94,44.14c4.64,2.99,9.76,5.07,14.58,7.73c-1.14,0.53-2.01,2.15-3.42,1.78
		c-16.65-2.97-32.36-11.29-43.91-23.7C436.22,349.22,428.02,329.99,423.59,310.45z"/>
	<path class="st4" d="M578.05,325.86c3.64-1.43,7.53-2.05,11.4-2.46c-3.86,10.42-3.52,21.62-2.59,32.5
		c-7.75,0.8-15.35,2.54-23.05,3.69c-0.18-4.07-1.09-8.13-0.79-12.21c1.7-6.97,3.12-14.61,8.45-19.86
		C573.81,327.83,575.9,326.55,578.05,325.86z"/>
	<path class="st4" d="M718.76,327.98c8.83,2.08,17.08,7.14,22.72,14.29c-2.61,0.79-5.22,1.6-7.82,2.42c-2.58-4.87-7-8.31-11.49-11.3
		C721.22,331.47,720,329.71,718.76,327.98z"/>
	<path class="st4" d="M827.81,367.92c0.82,0.5,1.69,1.04,2.54,1.56c0,2.16,2.44,3.06,3.73,4.46c10.62,8.47,17.19,22.37,15.23,36.03
		c-0.71,3.99-1.31,8.18-3.31,11.76c-4.35,5.08-9.12,9.96-15.06,13.19c-9.22,5.09-20.08,7.35-30.55,6.17
		c3.34-1.85,6.78-3.52,9.93-5.7c-18.91,2.77-38.52-0.55-55.72-8.75c11.73,1.78,26.34,0,32.97-11.18c4.76,1.21,9.68,1.41,14.56,1.86
		c-3.34,2.17-6.98,3.8-10.48,5.69c9.87,1.29,20.44,0.09,28.97-5.34c7.09-4.29,11.18-12.21,12.78-20.12
		C834.94,387.32,831.09,377.41,827.81,367.92z"/>
	<path class="st4" d="M730.11,371.97c1.09,0.04,2.18,0.08,3.29,0.13l0.08,0.6c0.04,0.22,0.11,0.66,0.14,0.88
		c6.38,3.88,13.32,7.96,16.9,14.81c1.57,2.7,1.43,7.8-2.56,8.07c-7.12,0.52-13.95-2.29-20.4-4.98c4.16-0.73,8.42-0.67,12.59-1.43
		C736.33,384.3,732.59,378.46,730.11,371.97z"/>
	<path class="st4" d="M771.62,377.61c2.01,1.21,4.04,2.43,5.91,3.87c2.95,8.33,5.98,17.42,2.99,26.2
		c-1.09,5.96-7.16,8.91-12.51,10.1c-10.53,1.99-21.53,1.9-31.9-0.92c-1.11-0.34-2.2-0.68-3.29-1.02c2.21,4.81,5.92,8.61,9.6,12.32
		c-8.18-0.76-16.22-2.73-24.45-2.8c-9.47-0.03-19.17-0.66-28.29,2.4c-12.02,1.97-24,5.17-34.61,11.31
		c-5.38,2.67-9.83,6.85-15.27,9.36c4.76-8.32,12.88-13.84,20.6-19.15c13.59-9.21,29.46-14.72,45.72-16.69
		c-4.32-8.95-7.73-18.73-6.7-28.82c1.6,6.07,3.47,12.17,7.21,17.31c-0.02-1.79-0.05-3.58-0.07-5.36c2.97,3.29,5.67,6.92,9.33,9.49
		c5.86,4.09,12.95,6.18,20.05,6.47c8.3,0.34,16.7,1.5,24.95-0.02c9.04-1.5,15.61-10.71,15.18-19.66
		C775.98,386.87,773.53,382.25,771.62,377.61z"/>
	<path class="st4" d="M574.67,398.9c0.57,0.26,1.7,0.77,2.26,1.03c6.2,5.15,12.83,9.84,18.19,15.91
		c10.6,11.37,18.78,26.2,18.22,42.13c-0.58,8.73-2.94,17.77-8.25,24.82c-5.52,4.31-9.49,10.15-13.51,15.8
		c-3.22,4.63-6.3,9.36-9.11,14.25c-14.52-2.94-28.19-9.1-41.08-16.29c-2.84-1.61-5.64-3.31-8.15-5.39l0.94-0.23
		c-1.35-5.16-3.08-10.24-3.67-15.56c-2.06-16.03,0.79-32.39,6.11-47.54c3.42,17.85,6.54,36.46,16.34,52.12
		c3.7,5.79,9.68,11.46,17.08,10.8c9.35-1.02,18.97-5.41,23.97-13.73c5.94-9.8,5.76-22.13,2.76-32.87
		c-3.31-13.98-10.9-26.39-18.67-38.28C576.63,403.72,575.53,401.35,574.67,398.9z"/>
	<path class="st4" d="M612.6,425.91c6.2,4.77,10.46,11.55,14.01,18.41c5.02,9.67,6.21,21.2,3.55,31.74
		c-2.78,8.74-7.44,16.73-10.77,25.26c-2.95,6.4-3.35,13.71-2.22,20.59c0.74,3.76,2.68,8.25,6.93,8.93l0.44,0.12
		c4.74,1.82,9.25-1.15,13.42-3.09c36.52-19.48,74.81-36.53,115.43-45.27c3.95-0.47,7.75-1.7,11.64-2.53
		c19.94-3.39,40.4-4.91,59.65-11.51c8.72-2.81,16.91-8.92,19.74-17.97c2.39,3.39,1.4,8.07-0.59,11.42
		c-3.69,6.17-9.83,10.31-15.87,13.95c-7.53,4.58-16.62,4.9-25.16,5.5c5.91,3.24,12.76,4.05,19.38,4.38
		c-2.29,8.21-4.78,16.39-8.1,24.26c-1.02,2.18-1.99,4.85-4.61,5.48c-10.56,3.89-21.54,6.47-32.5,8.93
		c-11.21,2.33-22.49,4.75-33.98,5.07c-2.88-3.52-5.48-7.25-8.02-11c8.77-3.05,18.01-4.39,27-6.65c-28.14-5.14-57.15,1.98-82.37,14.6
		c-16.16,8.95-32.45,18.41-50.61,22.62c-5.9,1.17-12.6,2.19-18.05-1.03c-5.33-3.38-6.03-10.42-6.16-16.15
		c0.63-16.07,6.54-31.37,13.49-45.68c6.53-13.73,8.17-30.06,2.65-44.41C619.04,436.11,615.36,431.24,612.6,425.91 M790.57,496.55
		c-9.26,3.9-17.82,10.74-21.48,20.37c10.83-2.08,21.48-5.05,32.26-7.42c1.85-0.64,4.59-0.55,5.29-2.82
		c2.23-5.23,4.65-10.38,6.55-15.74C805.39,491.47,797.75,493.51,790.57,496.55z"/>
	<path class="st4" d="M503.41,505.78c2.75,10.98,5.72,21.98,10.72,32.2c13.72,29.3,36.52,53.52,62.44,72.49
		c16.08,11.79,33.45,21.77,51.46,30.31c10.51,5.19,21.57,9.2,32.27,13.94c-25.36,0.16-50.75,0.26-76.1-0.05
		c-42.62-19.79-83.17-44.36-119.34-74.45c-1.86-1.62-3.44-3.51-5.08-5.34c4.98,2.38,9.62,5.4,14.6,7.78
		c14.94,7.01,31.33,11.25,47.89,11.2c-0.67-1.73-1.34-3.46-2.05-5.16c-7.82-17.44-12.04-36.26-14.72-55.12
		C504.37,524.36,502.94,515.1,503.41,505.78z"/>
	<path class="st4" d="M688.54,553.68c12.73-6.88,25.02-14.55,37.02-22.64c2.97,4.4,6.37,8.5,10.29,12.08l-0.75,0.52
		c-8.21,5.29-16.47,10.53-24.53,16.04c-1.16,0.53-1.48,1.75-1.06,2.9c9.46,34.68,34.74,63.57,65.53,81.37
		c5.98,3.17,11.68,7.38,18.41,8.75l0.37,0.08c0.25,0.24,0.74,0.73,0.99,0.97c-10.07-1.4-20.11-3.11-29.95-5.7
		c-12.53-3.29-24.01-9.65-36.45-13.16c-9.04-8.78-17.65-18.03-25.37-28.02c7.37,3.58,14.59,7.47,22.1,10.76
		c-13.87-20.06-28.51-40.04-37.68-62.83C687.73,554.52,688.27,553.96,688.54,553.68z"/>
</g>
<g id="_x23_f59ea0ff">
	<path class="st5" d="M666.88,319.66c17.68,1.33,34.78,7.24,50.07,16.1c-1.72-0.08-3.45-0.09-5.12-0.48
		c-12.3-3.15-24.47-6.92-36.27-11.61C672.62,322.44,669.43,321.65,666.88,319.66z"/>
	<path class="st5" d="M732.95,362.78c7.79-4.59,17.03-7.24,26.09-5.88c7.24,1.18,13.31,6.85,15.67,13.7
		c-5.91-4.3-12.24-8.46-19.61-9.6C747.68,359.47,740.15,360.9,732.95,362.78z"/>
</g>
<g id="_x23_801412ff">
	<path class="st6" d="M588.53,355.58c1.11-10.71,4.07-21.45,10.53-30.23c0.97,0.55,1.93,1.13,2.88,1.75
		c-0.76,3.16-3.06,5.78-3.75,9.02c-1.9,6.11-0.59,12.62,2.05,18.29C596.34,354.85,592.44,355.27,588.53,355.58z"/>
	<path class="st6" d="M732.82,415.84c1.09,0.34,2.18,0.68,3.29,1.02l-2.07-0.12c5.25,5.91,13.08,8.3,20.56,9.9
		c17.2,8.2,36.81,11.52,55.72,8.75c-3.15,2.18-6.59,3.85-9.93,5.7c10.47,1.18,21.33-1.08,30.55-6.17
		c5.94-3.23,10.71-8.11,15.06-13.19c-2.86,12.2-11.61,23.4-23.55,27.79c-6.51,2.49-13.51,3.58-20.45,3.6
		c-9.34-0.6-18.07-4.26-26.76-7.4c-20.46-7.75-41.24-15.7-63.21-17.63c-7.43-0.84-14.9-0.29-22.35-0.33
		c9.12-3.06,18.82-2.43,28.29-2.4c8.23,0.07,16.27,2.04,24.45,2.8C738.74,424.45,735.03,420.65,732.82,415.84z"/>
	<path class="st6" d="M797.9,467.54c16.9,1.07,34.71-4.43,46.52-16.95c-2.83,9.05-11.02,15.16-19.74,17.97
		c-19.25,6.6-39.71,8.12-59.65,11.51c-3.89,0.83-7.69,2.06-11.64,2.53c-2.48-0.01-4.99-0.18-7.41,0.47
		c-21.38,4.45-42.49,10.26-62.97,17.86c-17.48,6.15-34.17,14.25-51.24,21.42c0.82-2.44,0.98-5.84,3.92-6.71
		c46.1-22.62,94.85-40.5,145.42-49.93C786.8,464.1,792.23,467.36,797.9,467.54z"/>
	<path class="st6" d="M512.02,465.67c6.35,9.05,12.71,18.29,21.22,25.49c2.51,2.08,5.31,3.78,8.15,5.39
		c12.89,7.19,26.56,13.35,41.08,16.29c2.81-4.89,5.89-9.62,9.11-14.25c4.02-5.65,7.99-11.49,13.51-15.8c-1.55,4.6-4.17,8.73-6,13.21
		c-3.68,8.76-6.81,17.85-8.09,27.3c-14.84,0.25-29.43-5.2-41.16-14.16c2.3,4.77,6.28,8.45,10.15,11.96
		c8.07,7.07,17.88,11.7,27.9,15.3c-12.73,1.02-25.7-2.55-35.97-10.19c-16.54-12.11-27.45-30.28-35.4-48.84
		c-1.23-2.5-1.58-5.51-3.14-7.75l-0.84,1.26C512.27,469.15,512.15,467.4,512.02,465.67z"/>
	<path class="st6" d="M452.7,569.55c2.4,1.72,4.75,3.51,7.08,5.33c1.64,1.83,3.22,3.72,5.08,5.34
		c36.17,30.09,76.72,54.66,119.34,74.45c-15.74,0.22-31.51,0.34-47.23-0.05c-24.11-10.77-45.96-25.95-69.1-38.58
		c10.7,13.23,22.42,25.64,33.26,38.77c-5.24,0.05-10.47,0-15.7,0.04C464.64,631.68,452.46,600.73,452.7,569.55z"/>
</g>
<g id="_x23_ec2e27ff">
	<path class="st7" d="M715.81,326.42c7.32-1.57,15.29,0.02,21.37,4.42c4.06,2.91,7.54,6.56,10.7,10.42
		c-2.14,0.35-4.27,0.69-6.4,1.01c-5.64-7.15-13.89-12.21-22.72-14.29C717.65,327.7,716.76,326.98,715.81,326.42z"/>
</g>
<g id="_x23_f5a1a3ff">
	<path class="st8" d="M459.81,330.21c4.77,0.5,9.42,1.84,14.24,2.02c12.3,0.58,24.76-0.81,36.94,1.64
		c13.96,2.19,27.84,9.64,35.15,22.08c-7.24-6.84-15.61-12.69-25.23-15.57c-11.6-3.81-23.95-3.57-36-3.91
		C476.27,336.06,467.48,334.32,459.81,330.21z"/>
</g>
<g id="_x23_bbbdc0ff">
	<path class="st9" d="M611.05,334.08c12.91,9.22,26.62,18.02,42.23,21.78c-1.95,0.86-4.1,1.06-6.17,0.6
		c-4.47-0.89-9.02-1.3-13.56-1.66l-0.04-0.17c-0.08-0.28-0.23-0.84-0.31-1.12c-8.27-3.43-16.14-7.86-23.14-13.47
		c-0.83,4.29-0.51,8.67,0.01,12.98C608.19,346.79,608.73,340.12,611.05,334.08z"/>
	<path class="st9" d="M550.53,772.67c8.76-0.18,17.52-0.41,26.29-0.44c-0.02,11.19-0.47,22.37-0.62,33.56
		c17.05-0.03,34.1-0.28,51.15-0.06c0.12,6.06,0.21,12.13,0.02,18.2c-26.29-0.07-52.57,0.46-78.86,0.51
		C549.06,807.18,549.82,789.93,550.53,772.67z"/>
	<path class="st9" d="M656.74,771.86c8.86,0.51,17.75,0.2,26.61,0.77c0.12,11.81,1.01,23.6,1.17,35.42
		c0.05,5.43,0.31,10.85,0.68,16.28c-9.27-0.06-18.56,0.25-27.8-0.44C657.57,806.54,656.54,789.21,656.74,771.86z"/>
	<path class="st9" d="M701.46,773.02c8.6,0.23,17.19,0.52,25.8,0.59c6.06,12.09,11.58,24.45,17.43,36.65
		c2.33,5.07,4.97,10.01,6.97,15.24c-8.89-0.13-17.79-0.21-26.66-0.68C717.19,807.53,709.06,790.39,701.46,773.02z"/>
	<path class="st9" d="M463.09,775.87c8.78-0.34,17.55-0.79,26.32-1.13c-0.94,17.02-2.28,34.02-3.41,51.02
		c-9.08,0.55-18.17,0.76-27.27,0.76C460.25,809.64,461.73,792.76,463.09,775.87z"/>
	<path class="st9" d="M779.5,775.75c8.88,0.5,17.77,0.79,26.65,1.24c1.62,16.93,3.55,33.84,5.03,50.79
		c-9.21-0.48-18.45-0.39-27.64-1.24C782.29,809.6,780.52,792.7,779.5,775.75z"/>
	<path class="st9" d="M835.85,778.61c9.01,0.46,18.02,0.92,27.03,1.55c1.35,10.53,2.52,21.09,4.19,31.57
		c13.47,0.72,26.95,1.41,40.44,1.86c-1.2-10.3-3.03-20.52-4.47-30.79c9.09,0.41,18.18,1.08,27.26,1.83
		c1.66,11.77,4.16,23.44,5.51,35.23c-2.58,2.79-5.84,4.82-8.69,7.29c-2.67,2.04-5.01,4.55-8,6.11c-18.37-0.93-36.74-2.37-55.13-3.06
		c-3,0.1-5.19-2.12-7.44-3.73c-5.09-3.96-10.44-7.56-15.55-11.48c-1.42-0.83-1.4-2.55-1.62-3.96
		C838.32,800.21,837.03,789.41,835.85,778.61z"/>
	<path class="st9" d="M366.95,780.95c8.98-0.31,17.93-1.56,26.93-1.35c-1.5,11.68-2.47,23.48-4.37,35.07
		c-4.88,4.11-10.31,7.55-15.35,11.47c-2.81,1.96-5.4,4.92-9.14,4.69c-18.34,0.89-36.65,2.33-54.98,3.23
		c-5.79-4.09-11.03-8.95-16.64-13.31c1.1-6.57,2.18-13.15,3.44-19.68c-0.01-1.57,1.86-1.76,2.89-2.4c8.73-3.45,17.34-7.2,26.14-10.5
		c-1.11,8.74-2.74,17.41-3.87,26.15c13.48-0.39,26.93-1.53,40.42-1.89C364.27,801.99,365.2,791.41,366.95,780.95z"/>
	<path class="st9" d="M964.73,787.27c10.42,0.66,20.83,1.64,31.23,2.6c0.19,0.28,0.57,0.85,0.77,1.14
		c8.94,44.66,17.8,89.34,26.49,134.05c-17.25,5.89-35.21,9.61-53.34,11.34c-28.75,1.46-57.44-2.84-85.47-8.86
		c-19.79-3.98-39-10.66-59.14-12.81c-31.02-3.5-62.39-1.61-93.28,2.26c-6.42,0.91-13.01,1.26-19.18,3.4
		c-3.16,1.14-6.54,1.23-9.85,1.35c11.34-6.4,23.6-11.02,36.04-14.77c34.26-10.19,71.08-12,106.07-4.54
		c12.23,2.52,24.14,6.38,36.33,9.1c15.43,3.39,31.01,6.98,46.85,7.39c-9.58-4.64-19.94-8.07-28.37-14.77
		c10.04,0.68,20.01,2.52,30.13,2.47c16.98,0.61,34.03-0.54,50.66-4.15c0.17-5.84,0.31-11.67,0.5-17.49
		c0.31-6.28-1.57-12.35-2.5-18.49C974.3,840.04,968.93,813.74,964.73,787.27z"/>
	<path class="st9" d="M232.44,791.25c10.22-1.14,20.48-2.02,30.74-2.72l0.49,0.5c1.04,9.58,0.54,19.27,1.23,28.89
		c0.78,10.82,0.26,21.7,1.4,32.5c0.8,15.84,0.65,31.69,0.9,47.54c0.14,1.41-0.19,3.01,0.5,4.33c18.87,4.75,38.54,4.9,57.88,4.05
		c7.6-0.34,15.09-1.81,22.68-2.21c-8.51,6.6-18.77,10.29-28.5,14.67c2.7,0.35,5.41,0.04,8.09-0.32c21.77-2.35,43.07-7.69,64.14-13.5
		c30.69-8.07,63.14-9.33,94.33-3.46c20.4,3.85,40.54,10.15,58.75,20.24c-3.79-0.15-7.58-0.5-11.26-1.45
		c0.32-0.15,0.95-0.45,1.26-0.59c-28.1-4.54-56.56-7.3-85.05-6.74c-18.82,0.2-37.66,2.42-55.87,7.24
		c-19.17,5.08-38.54,9.44-58.11,12.59c-33.97,5.23-69.68,6.59-102.52-5.1c0.02-21.52,0.24-43.04,0.21-64.56
		c-19.62,1.46-39.16,3.78-58.72,5.83c-1.35,0.06-2.79,0.49-3.04,2.02c-6.49,16.52-12.94,33.06-19.35,49.61
		c-0.61,1.19-0.96,3.07-2.65,3.02c-18.39,2.98-36.75,6.19-55.14,9.15c9.31-8.69,19.6-16.3,29.16-24.71
		c2.28-2.43,3.05-5.82,4.49-8.74c14.88-33.74,29.71-67.5,44.79-101.15c0.57-2.14,2.94-1.79,4.65-2.04
		c7.11-0.51,14.18-1.34,21.28-1.91c-5.82,16.26-12.58,32.19-18.77,48.32c4.68,0.18,9.31-0.58,13.96-0.94
		c12.38-1.05,24.76-2.02,37.14-3.11C232.01,822.75,232.53,807,232.44,791.25z"/>
	<path class="st9" d="M1017.1,791.84c8.31,0.32,16.58,1.43,24.88,1.99c2.1,0.38,4.96-0.15,6.09,2.17
		c9.06,13.55,17.34,27.64,26.69,40.99c-3.16-13.54-6.5-27.05-9.34-40.66c10.74,0.73,21.41,2.08,32.12,3.16
		c8.98,35.16,17.62,70.4,26.5,105.58c0.94,3.32,4.51,4.81,6.82,7.1c7.84,6.87,16.37,12.99,23.82,20.3
		c-10.96-1.18-21.72-3.71-32.66-5.02c-7.94-1.4-15.97-2.2-23.89-3.64c-8.89-13.54-16.81-27.76-25.4-41.51
		C1054.31,852.07,1035.84,821.86,1017.1,791.84z"/>
</g>
<g id="_x23_f5a6a8ff">
	<path class="st10" d="M786.82,365.24c4.25-2.39,9.42-1.69,14.12-1.94c7.7-0.32,15.3,1.89,22.08,5.44
		C810.96,367.6,798.98,365.27,786.82,365.24z"/>
</g>
<g id="_x23_f5a0a2ff">
	<path class="st11" d="M566.81,380.76c20-7.96,41.61-12.03,63.15-11.62c14.88-0.27,29.85,1.41,44.2,5.39
		c-6.4,0.36-12.78-0.58-19.17-0.68c-25.07-0.58-50.15,1.32-74.94,5C575.63,379.46,571.29,380.67,566.81,380.76z"/>
</g>
<g id="_x23_722c2a79">
	<path class="st12" d="M123.14,371.6c1.02,3.46,1.79,6.97,2.48,10.51c4.69,21.35,10.26,42.51,16.42,63.49
		c2.5,9.03,5.73,17.85,7.96,26.96c-3.04-7.35-5-15.08-7.38-22.66c-7.1-23.68-13.36-47.63-18.5-71.82
		C123.67,375.94,123.42,373.77,123.14,371.6z"/>
</g>
<g id="_x23_762d2b7d">
	<path class="st13" d="M1144.97,825.43c6.2,21.39,10.81,43.22,16.62,64.72c-0.22-0.18-0.65-0.56-0.86-0.75
		c-3.11-11.41-5.77-22.93-8.7-34.38C1149.73,845.14,1146.74,835.42,1144.97,825.43z"/>
</g>
<g id="_x23_898b90ff">
	<path class="st14" d="M394.15,920.22c18.21-4.82,37.05-7.04,55.87-7.24c28.49-0.56,56.95,2.2,85.05,6.74
		c-0.31,0.14-0.94,0.44-1.26,0.59c-41.4-4.63-84.04-6.23-124.75,4.14c-14.43,4.11-28.62,9.09-43.17,12.8
		c-26.05,6.83-52.81,12.25-79.86,11.6c-12.24,0.13-24.47-1.48-36.32-4.48c-5.61-1.5-11.33-2.99-16.34-6.04
		c0.12-3.54,0.15-7.08,0.15-10.62c32.84,11.69,68.55,10.33,102.52,5.1C355.61,929.66,374.98,925.3,394.15,920.22z"/>
	<path class="st14" d="M731.99,916.99c30.89-3.87,62.26-5.76,93.28-2.26c20.14,2.15,39.35,8.83,59.14,12.81
		c28.03,6.02,56.72,10.32,85.47,8.86c18.13-1.73,36.09-5.45,53.34-11.34c0.65,3.43,1.41,6.85,2.27,10.25
		c-19.77,8.17-40.98,13.71-62.49,13.53c-32.7,0.82-64.88-6.85-96.07-15.9c-12.96-3.75-25.63-8.56-38.91-11.07
		c-37.94-7.54-76.99-5.66-115.21-1.48C718.98,918.25,725.57,917.9,731.99,916.99z"/>
</g>
<g id="_x23_f27574ff">
	<path class="st15" d="M0,963.01l0.43,0.23l-0.2,0.44L0,963.39L0,963.01L0,963.01z"/>
</g>
<g id="_x23_f27372ff">
	<path class="st16" d="M1249.77,963.36l0.23,0.19v0.36l-0.45-0.21L1249.77,963.36z"/>
</g>
<g id="_x23_643a3969">
	<path class="st17" d="M1018.82,1029.88c0.58-0.21,1.74-0.64,2.32-0.85C1020.56,1029.24,1019.4,1029.67,1018.82,1029.88z"/>
</g>
</svg>
