<?xml version="1.0" encoding="utf-8"?>
<!-- Generator: Adobe Illustrator 21.0.2, SVG Export Plug-In . SVG Version: 6.00 Build 0)  -->
<svg version="1.1" id="Layer_1" xmlns="http://www.w3.org/2000/svg" xmlns:xlink="http://www.w3.org/1999/xlink" x="0px" y="0px"
	 viewBox="0 0 750 750" style="enable-background:new 0 0 750 750;" xml:space="preserve">
<style type="text/css">
	.st0{fill:#FECE00;}
	.st1{fill:#0F0C03;}
	.st2{fill:#FFFFFF;}
	.st3{fill:#BB8E01;}
	.st4{fill:#8C8C8C;}
</style>
<g id="_x23_fece00ff">
	<path class="st0" d="M32.27,14.725h0.37c2.74,2.44,5.84,4.41,8.79,6.56c63.34,45.38,126.68,90.76,190.01,136.15
		c4.43-10.86,9.37-21.6,15.94-31.36c8.57-12.78,18.84-24.49,30.84-34.16c1.91-1.59,3.93-3.3,6.56-3.38
		c-6.5-8.06-12.03-16.83-17.75-25.44c16.15-13.83,32.26-27.7,48.41-41.54c1,7.75,1.77,15.53,2.87,23.26
		c1.3,5.92,4.46,11.21,7.17,16.57c6.76,13.67,19.29,23.61,32.85,30.05c1.13,4.85,2.25,9.7,3.38,14.55c8.86-0.59,17.72-0.58,26.58,0
		c1.13-4.85,2.25-9.7,3.39-14.55c9.97-4.68,19.1-11.28,26.19-19.75c3.8-4.46,6.38-9.77,9.06-14.94c2.16-4.44,4.57-8.94,5.08-13.94
		c0.85-7.08,1.68-14.17,2.55-21.25c16.15,13.84,32.26,27.71,48.41,41.54c-5.73,8.61-11.25,17.39-17.75,25.44
		c1.52,0.22,3.09,0.56,4.3,1.61c22.29,17.22,39.05,41.04,49.04,67.29c64.12-45.95,128.24-91.89,192.35-137.83
		c2.23-1.49,4.37-3.11,6.39-4.88h0.44c2.16,13.96,4.84,27.86,5.9,41.96c3.11,38.66,2.41,78.11-7.22,115.87
		c-4.74,18.36-11.93,36.22-22.59,51.97c-15.77,23.82-31.6,47.83-50.86,68.99c-2.06,10.41-6.85,20-12.55,28.87
		c24.09,3.92,48.11,8.27,72.05,13.03c15.87,3.11,31.58,7.06,47.53,9.67v1.09c-2.96,1.84-5.11,4.6-7.51,7.06
		c-11.49,11.96-22.96,23.94-34.45,35.9c11.22,42.8,22.21,85.66,33.28,128.5c-59.84-11.58-119.91-22.16-180.5-29.04
		c-7.11,14.82-17.44,27.68-26.92,41c-9.57,13.17-19.17,26.31-28.76,39.46c-0.11-11.39-0.18-22.78-0.28-34.17
		c-6.07,13.28-13.01,26.25-21.7,38.04c-5.51,7.35-11.76,14.42-19.72,19.18c-11.38,6.93-22.74,13.9-34.13,20.81
		c2.47-5.66,4.98-11.29,7.46-16.94c-5.55,5.95-11.34,11.7-17.53,16.98c-1.62,1.45-3.56,2.81-4.14,5.03
		c-13.33,39.11-26.77,78.18-40.1,117.29c-13.34-39.12-26.77-78.2-40.11-117.31c-0.59-2.21-2.52-3.56-4.12-5
		c-6.21-5.29-12-11.05-17.55-17.01c2.49,5.65,4.99,11.3,7.47,16.96c-12.19-7.46-24.45-14.8-36.56-22.38
		c-12.34-8.75-20.73-21.78-28.29-34.61c-3.92-6.83-7.43-13.89-10.7-21.05c-0.1,11.4-0.17,22.79-0.28,34.18
		c-12.11-16.61-24.25-33.18-36.26-49.86c-7.23-9.7-14.11-19.71-19.42-30.6c-47.27,5.5-94.31,12.83-141.07,21.62
		c-13.15,2.47-26.28,4.96-39.43,7.42c11.07-42.84,22.05-85.7,33.28-128.5c-13.33-13.93-26.74-27.79-40.01-41.77
		c-0.33-0.24-1-0.73-1.33-0.98L0,346.425v-1.25c2.19-0.37,4.4-0.63,6.57-1.13c37.48-8.18,75.13-15.57,113.01-21.66
		c-5.16-8.31-10.08-17.06-11.94-26.77c-0.2-1.68-1.1-3.1-2.31-4.24c-6.1-6.29-11.49-13.21-16.79-20.18
		c-12.11-16.09-23.34-32.81-34.33-49.68c-11.65-18.13-18.76-38.82-23.17-59.81c-7.53-36.43-7.6-74.01-4.12-110.92
		C28.1,38.685,30.43,26.735,32.27,14.725 M41.62,37.425c-2.43,16.65-3.59,33.48-3.92,50.3c-0.4,25.32,1.29,50.8,6.9,75.55
		c4.23,18.48,10.77,36.66,21.26,52.56c9.99,15.23,20.23,30.31,31.14,44.91c7.2,9.4,14.37,18.96,23.19,26.93
		c-0.71,5.9,1.57,11.55,4.05,16.77c5.08,10.39,12,19.72,19.04,28.85c-38.45,5.88-76.77,12.68-114.8,20.9
		c9.83,10.26,19.68,20.5,29.51,30.76c-9.95,38.07-19.82,76.15-29.61,114.26c55.64-10.74,111.62-19.76,167.96-25.99
		c4.31,10.5,9.74,20.56,16.42,29.76c6.52,8.99,12.99,18.01,19.55,26.97c-0.28-20.01-0.75-40.28-5.61-59.8
		c4.94-0.56,9.89-0.95,14.85-1.38c0.9,8.39,2.14,16.75,3.86,25.01c3.78,19.25,11.29,37.59,20.85,54.66
		c6.92,11.96,14.94,23.72,26.05,32.18c-6.41-16.56-11.09-34.17-10.71-52.04c16.11,28.2,34.77,55.66,59.88,76.65
		c1.54,1.43,3.63,2.56,4.26,4.72c9.68,28.22,19.26,56.48,29.02,84.68c0.13-0.04,0.38-0.11,0.5-0.15c9.81-28.12,19.31-56.36,29-84.53
		c0.61-2.13,2.68-3.26,4.21-4.68c25.14-20.99,43.8-48.47,59.93-76.68c0.35,17.88-4.27,35.52-10.76,52.06
		c6.15-4.56,11.28-10.33,15.85-16.42c8.82-11.83,15.63-25.03,21.34-38.59c7.7-18.03,11.5-37.46,13.62-56.87
		c4.95,0.42,9.89,0.85,14.84,1.34c-4.82,19.54-5.34,39.82-5.6,59.85c6.84-9.39,13.64-18.8,20.43-28.22
		c6.29-8.85,11.42-18.49,15.54-28.52c56.33,6.23,112.32,15.25,167.96,25.99c-9.8-38.1-19.66-76.19-29.61-114.25
		c9.82-10.27,19.68-20.5,29.5-30.77c-38.02-8.22-76.34-15.02-114.79-20.9c7.02-9.11,13.93-18.43,19.01-28.79
		c2.49-5.24,4.79-10.91,4.08-16.83c7.77-6.97,14.18-15.27,20.57-23.48c11.92-15.64,22.96-31.92,33.75-48.35
		c9.74-14.75,16.07-31.49,20.32-48.58c5.28-21.42,7.45-43.51,7.85-65.53c0.32-21.48-0.87-43.01-3.91-64.28
		c-0.95,0.59-1.89,1.18-2.8,1.8c-64.89,46.42-129.67,93-194.6,139.36c-1.66-12.43-7.38-23.82-12.86-34.95
		c-8.48-16.11-20.62-30.13-34.52-41.81c-13.79,4.93-26.24,13-37.54,22.21c-2.31-0.28-4.61-0.56-6.91-0.84c1.36-6,2.73-12,4.11-17.99
		c9.77-2.57,18.35-8.71,24.9-16.29c6.43-7.34,12.31-15.17,17.64-23.33c-6.77-6.52-14.28-12.27-21.26-18.57
		c-1.52,5.5-3.81,10.75-6.36,15.84c-2.88,5.66-5.74,11.4-9.8,16.32c-6.75,8.34-15.35,14.99-24.55,20.42
		c-1.19,0.5-1.26,1.9-1.58,2.95c-1.25,5.57-2.55,11.14-3.85,16.7c-7.82-0.27-15.63-0.73-23.45-0.91c-7.8,0.18-15.58,0.64-23.37,0.91
		c-1.73-6.33-2.54-13.06-4.8-19.17c-11.99-7.26-23.51-16.32-30.49-28.73c-4.27-7.79-8.45-15.74-10.85-24.33
		c-7.1,6.21-14.33,12.26-21.43,18.48c6.64,9.6,13.43,19.2,21.69,27.51c5.9,5.62,13.08,10.14,21.03,12.2c1.37,6,2.74,11.99,4.1,17.99
		c-2.3,0.28-4.6,0.56-6.89,0.85c-11.32-9.21-23.76-17.28-37.56-22.22c-15.6,13.08-28.97,29.18-37.48,47.77
		c-4.29,9.29-8.68,18.81-9.9,29.08c-64.66-46.37-129.35-92.7-194.03-139.05C43.88,38.885,42.75,38.155,41.62,37.425z"/>
	<path class="st0" d="M280.02,161.215c6.59-3.58,13.09-7.34,19.69-10.91c9.08,2.56,18.16,5.23,26.86,8.94
		c6.86,2.94,13.26,6.81,19.58,10.75c2.73,2.32,4.98,5.15,7.42,7.77c-1.9-7.44-3.75-15.06-7.83-21.65c19.31-3.33,39.21-3.33,58.52,0
		c-4.08,6.59-5.94,14.2-7.81,21.63c2.42-2.6,4.65-5.41,7.37-7.73c11.91-7.96,25.13-13.7,38.91-17.55c3.13-0.6,6.6-3.01,9.67-1.03
		c5.88,3.21,11.67,6.6,17.58,9.78c2.82,5.27,5.48,10.64,7.53,16.26c-4.43-1.68-8.46-4.5-13.25-5.05
		c-13.62-1.98-27.08,3.75-37.93,11.58c-6.7,4.63-11.7,11.24-15.82,18.18c-7.28,12.29-12.34,25.72-16.85,39.22
		c-0.85,2.53-1.24,5.16-1.62,7.79c-1.41,2.53-2.92,4.99-4.42,7.47c10.41-5.34,20.68-11.65,28.22-20.76
		c9.34,0.81,17.65-4.34,24.69-9.85c5.52-3.97,12.18-7.73,13.94-14.86c0.61,8.51-4.05,16.27-10.51,21.46
		c-6.46,5.71-13.69,10.46-20.95,15.07c-16.52,10.34-32.16,21.99-48.02,33.28c-15.27-10.9-30.35-22.09-46.2-32.14
		c-9.59-6.15-19.48-12.24-27.25-20.69c-4.32-4.53-6.21-10.83-6.01-17c1.75,7.14,8.41,10.91,13.93,14.88
		c7.05,5.51,15.36,10.66,24.7,9.85c7.55,9.15,17.88,15.44,28.3,20.83c-1.54-2.47-3.07-4.94-4.47-7.48c-0.43-2.91-0.92-5.83-1.9-8.61
		c-5.18-15.26-10.97-30.57-20.13-43.95c-7.02-10.52-18.12-17.74-29.84-22.02c-7.04-2.43-14.74-3.5-22.08-1.92
		c-4.13,0.85-7.67,3.24-11.54,4.77C274.5,171.875,277.2,166.505,280.02,161.215z"/>
	<path class="st0" d="M326.23,533.265c3.95-2.08,8.09-3.78,12.29-5.27c3.97,4.48,6.8,9.88,11.16,14.04
		c7.08,7.01,15.72,12.89,25.36,15.57c9.61-2.74,18.24-8.58,25.3-15.59c4.35-4.18,7.24-9.54,11.14-14.1
		c4.16,1.61,8.32,3.27,12.29,5.32c-8.21,14.27-18.2,27.92-31.83,37.46c-10.94-3.42-22.94-3.43-33.89,0
		C344.43,561.165,334.46,547.505,326.23,533.265z"/>
</g>
<g id="_x23_0f0c03ff">
	<path class="st1" d="M41.62,37.425c1.13,0.73,2.26,1.46,3.36,2.23c64.68,46.35,129.37,92.68,194.03,139.05
		c1.22-10.27,5.61-19.79,9.9-29.08c8.51-18.59,21.88-34.69,37.48-47.77c13.8,4.94,26.24,13.01,37.56,22.22
		c2.29-0.29,4.59-0.57,6.89-0.85c-1.36-6-2.73-11.99-4.1-17.99c-7.95-2.06-15.13-6.58-21.03-12.2
		c-8.26-8.31-15.05-17.91-21.69-27.51c7.1-6.22,14.33-12.27,21.43-18.48c2.4,8.59,6.58,16.54,10.85,24.33
		c6.98,12.41,18.5,21.47,30.49,28.73c2.26,6.11,3.07,12.84,4.8,19.17c7.79-0.27,15.57-0.73,23.37-0.91
		c7.82,0.18,15.63,0.64,23.45,0.91c1.3-5.56,2.6-11.13,3.85-16.7c0.32-1.05,0.39-2.45,1.58-2.95c9.2-5.43,17.8-12.08,24.55-20.42
		c4.06-4.92,6.92-10.66,9.8-16.32c2.55-5.09,4.84-10.34,6.36-15.84c6.98,6.3,14.49,12.05,21.26,18.57
		c-5.33,8.16-11.21,15.99-17.64,23.33c-6.55,7.58-15.13,13.72-24.9,16.29c-1.38,5.99-2.75,11.99-4.11,17.99
		c2.3,0.28,4.6,0.56,6.91,0.84c11.3-9.21,23.75-17.28,37.54-22.21c13.9,11.68,26.04,25.7,34.52,41.81
		c5.48,11.13,11.2,22.52,12.86,34.95c64.93-46.36,129.71-92.94,194.6-139.36c0.91-0.62,1.85-1.21,2.8-1.8
		c3.04,21.27,4.23,42.8,3.91,64.28c-0.4,22.02-2.57,44.11-7.85,65.53c-4.25,17.09-10.58,33.83-20.32,48.58
		c-10.79,16.43-21.83,32.71-33.75,48.35c-6.39,8.21-12.8,16.51-20.57,23.48c0.71,5.92-1.59,11.59-4.08,16.83
		c-5.08,10.36-11.99,19.68-19.01,28.79c38.45,5.88,76.77,12.68,114.79,20.9c-9.82,10.27-19.68,20.5-29.5,30.77
		c9.95,38.06,19.81,76.15,29.61,114.25c-55.64-10.74-111.63-19.76-167.96-25.99c-4.12,10.03-9.25,19.67-15.54,28.52
		c-6.79,9.42-13.59,18.83-20.43,28.22c0.26-20.03,0.78-40.31,5.6-59.85c-4.95-0.49-9.89-0.92-14.84-1.34
		c-2.12,19.41-5.92,38.84-13.62,56.87c-5.71,13.56-12.52,26.76-21.34,38.59c-4.57,6.09-9.7,11.86-15.85,16.42
		c6.49-16.54,11.11-34.18,10.76-52.06c-16.13,28.21-34.79,55.69-59.93,76.68c-1.53,1.42-3.6,2.55-4.21,4.68
		c-9.69,28.17-19.19,56.41-29,84.53c-0.12,0.04-0.37,0.11-0.5,0.15c-9.76-28.2-19.34-56.46-29.02-84.68
		c-0.63-2.16-2.72-3.29-4.26-4.72c-25.11-20.99-43.77-48.45-59.88-76.65c-0.38,17.87,4.3,35.48,10.71,52.04
		c-11.11-8.46-19.13-20.22-26.05-32.18c-9.56-17.07-17.07-35.41-20.85-54.66c-1.72-8.26-2.96-16.62-3.86-25.01
		c-4.96,0.43-9.91,0.82-14.85,1.38c4.86,19.52,5.33,39.79,5.61,59.8c-6.56-8.96-13.03-17.98-19.55-26.97
		c-6.68-9.2-12.11-19.26-16.42-29.76c-56.34,6.23-112.32,15.25-167.96,25.99c9.79-38.11,19.66-76.19,29.61-114.26
		c-9.83-10.26-19.68-20.5-29.51-30.76c38.03-8.22,76.35-15.02,114.8-20.9c-7.04-9.13-13.96-18.46-19.04-28.85
		c-2.48-5.22-4.76-10.87-4.05-16.77c-8.82-7.97-15.99-17.53-23.19-26.93c-10.91-14.6-21.15-29.68-31.14-44.91
		c-10.49-15.9-17.03-34.08-21.26-52.56c-5.61-24.75-7.3-50.23-6.9-75.55C38.03,70.905,39.19,54.075,41.62,37.425 M80.1,110.175
		c-1.11,26.77,3.68,53.76,13.65,78.62c8.83,21.31,20.7,41.69,36.67,58.46c2.88,2.65,5.45,6.39,9.7,6.71
		c35.19,6.94,70.3,14.36,105.53,21.12c-23.88-17.85-48.13-35.21-72.12-52.91c-2.1-1.62-4.37-2.99-6.67-4.29
		c29.81,7.49,59.65,14.87,89.49,22.27c-15.75-11.15-31.25-22.65-46.8-34.08C166.32,174.215,123.22,142.175,80.1,110.175
		 M579.52,177.215c-28.6,21.06-57,42.39-85.95,62.97c29.81-7.45,59.69-14.71,89.46-22.33c-3.67,1.78-6.7,4.59-10.03,6.89
		c-22.86,16.81-45.93,33.34-68.64,50.35c35.23-6.78,70.34-14.18,105.53-21.13c4.48-0.4,7.14-4.43,10.18-7.22
		c15.62-16.66,27.48-36.71,36.03-57.8l0.08-0.04c10.06-24.87,14.81-51.92,13.72-78.73C639.77,132.515,609.68,154.905,579.52,177.215
		 M280.02,161.215c-2.82,5.29-5.52,10.66-7.52,16.31c-0.17,0.08-0.5,0.22-0.67,0.29c0.53,11.87,7.35,22.01,13.29,31.86
		c-2.78,3.65-5.54,7.33-8.29,11c0.97,5.87,3.02,11.75,7.26,16.08c10.79,11.48,25.13,18.56,38.65,26.25
		c18.46,10.99,35.65,24,52.26,37.58c13.95-11.46,28.37-22.39,43.54-32.21c15.85-10.4,34.21-17.53,47.38-31.63
		c4.23-4.32,6.27-10.2,7.26-16.05c-2.76-3.69-5.52-7.37-8.3-11.03c5.89-9.87,12.96-20.05,13.17-31.98l-0.54-0.21
		c-2.05-5.62-4.71-10.99-7.53-16.26c-4.78-8.32-10.5-16.11-17.05-23.13c-18.18,7.45-35.28,17.87-49.11,31.93
		c-2.72,2.32-4.95,5.13-7.37,7.73c1.87-7.43,3.73-15.04,7.81-21.63c1.66-2.39,3.47-4.68,5.42-6.85c-22.83-4.24-46.53-4.24-69.36,0
		c1.94,2.17,3.75,4.45,5.42,6.85c4.08,6.59,5.93,14.21,7.83,21.65c-2.44-2.62-4.69-5.45-7.42-7.77
		c-13.81-14.05-30.91-24.46-49.07-31.91C290.52,145.105,284.8,152.895,280.02,161.215 M162.53,291.835
		c1.49,9.79,7,18.68,15.21,24.24c24.31-4.76,48.69-9.1,73.02-13.76c2.76-0.55,5.54-0.96,8.35-1.24c-8.72-1.19-17.51-1.65-26.25-2.63
		C209.41,296.365,186,293.755,162.53,291.835 M490.82,301.005c22.82,3.72,45.48,8.41,68.24,12.52c4.61,0.68,9.17,2.26,13.87,1.95
		c8.01-5.34,12.99-14.24,14.56-23.63C555.25,294.645,523.04,297.965,490.82,301.005 M315.89,342.525c2.3,2.56,4.68,5.54,4.51,9.21
		c-0.28,6.76-0.83,13.51-1.04,20.27c8.22-0.2,16.43-0.38,24.65-0.51c-0.03-2.83-0.05-5.66-0.05-8.49c4.08-0.06,8.15-0.12,12.23-0.16
		c-12.49,18.12-25.52,35.87-38.35,53.74c-0.82,7.08-0.78,14.25-1.21,21.37c25.5-0.47,51-0.83,76.51-0.57
		c-3.11-2.24-5.96-5.52-6.04-9.53c-0.11-6.38-0.11-12.75-0.27-19.13c-8.4-0.05-16.79-0.06-25.18-0.02c0.09,2.39,0.2,4.78,0.32,7.18
		c-4.8,0.02-9.6,0.06-14.39,0.1c13.06-17.55,25.95-35.24,38.5-53.16c-0.2-7.03-0.31-14.07-0.44-21.1
		C362.39,341.645,339.14,341.925,315.89,342.525 M389.05,341.695c2.6,1.95,5.37,4.46,5.44,7.98c0.9,29.22,1.29,58.46,2.27,87.68
		c10.65,0.19,21.3,0.26,31.95,0.68c-2.8-1.97-5.97-4.51-6.21-8.2c-0.63-10.79-1.25-21.58-1.57-32.38
		c7.89,13.73,15.55,27.6,23.91,41.06c11.12,0.42,22.25,0.85,33.36,1.56c-6.78-3.57-11.52-9.78-15.32-16.25
		c-6.08-9.62-12.02-19.32-17.85-29.08c4.86-13.6,9.37-27.33,13.96-41.03c1.18-3.86,3.49-7.4,6.97-9.56
		c-10.53-0.33-21.05-1.06-31.58-1.36c-4.44,14.4-9.25,28.68-14.1,42.95c-0.86-14.48-1.35-28.99-2.14-43.47
		C408.44,341.995,398.75,341.915,389.05,341.695 M240.94,346.765c2.51,2.26,4.69,5.37,4.28,8.93c-0.71,6.79-1.78,13.55-2.51,20.34
		c8.28-0.6,16.56-1.2,24.85-1.72c0.23-2.83,0.45-5.65,0.67-8.47c4.07-0.25,8.15-0.51,12.22-0.73
		c-13.7,18.56-27.89,36.74-42.06,54.94c-1.85,7.07-1.99,14.63-3.07,21.9c25.6-1.63,51.23-3.05,76.88-3.83
		c-2.98-2.18-5.58-5.49-5.28-9.37c0.36-6.35,0.74-12.7,1.07-19.05c-8.41,0.29-16.82,0.62-25.22,1.01c-0.06,2.38-0.1,4.76-0.13,7.14
		c-4.86,0.23-9.72,0.48-14.58,0.76c14.06-17.62,27.84-35.47,41.38-53.5c0.86-0.92,1.08-2.15,1.09-3.37
		c0.27-6.36,0.6-12.72,0.94-19.08C287.94,343.625,264.44,345.125,240.94,346.765 M470.86,344.745c3.83,2.79,6.27,7.15,6.1,11.96
		c2.85,27.9,5.45,55.83,8.51,83.71c10.78,0.67,21.55,1.52,32.34,2.21c-3.15-1.94-6.46-4.61-7.01-8.51
		c-3.78-29.16-7.44-58.33-11.11-87.5C490.08,345.975,480.49,344.915,470.86,344.745 M508.17,347.305c3.07,2.32,6.36,5.21,6.68,9.32
		c4.03,28.93,7.73,57.91,11.96,86.81c18.39,1.64,36.77,3.58,55.11,5.78c4.14,0.33,8.65,0.91,12.52-1c2.71-1.3,3.55-4.62,3.04-7.38
		c-1.04-5.97-2.46-11.88-3.57-17.84c-8.71-1.2-17.43-2.34-26.15-3.42c0.35,2.27,0.68,4.55,0.79,6.85
		c-6.28-0.25-12.48-1.28-18.73-1.84c-4.02-24.76-7.88-49.53-11.99-74.27C527.95,349.265,518.06,348.305,508.17,347.305
		 M205.75,350.215c2.54,1.63,4.8,4.36,4.06,7.6c-3.21,21.99-6.72,43.94-9.77,65.96c-5.68,0.43-11.33,1.63-17.02,1.54
		c-0.36-0.41-1.08-1.23-1.43-1.63c3.5-24.03,7.83-47.95,11.61-71.94c-10.05,1.3-20.07,2.73-30.11,4.1c3.28,1.84,4.5,5.82,3.64,9.36
		c-4.24,23.54-9.15,46.97-12.89,70.6c-0.45,3.52,0.33,7.55,3.26,9.85c3.6,2.83,8.5,2.94,12.86,2.57c19.75-2.19,39.52-4.25,59.33-5.7
		c-3.04-2.2-5.27-5.85-4.5-9.71c3.52-28.51,7.2-57,10.71-85.51C225.58,348.165,215.68,349.325,205.75,350.215 M581.78,356.065
		c3.2,2.51,6.65,5.46,7.31,9.72c6.05,28.92,11.89,57.88,17.94,86.8c17.41,2.65,34.81,5.4,52.13,8.6c4.58,0.81,9.19,1.87,13.87,1.64
		c2.06-0.13,4.41-0.63,5.68-2.43c1.51-2.28,0.71-5.13,0.1-7.55c-1.46-5.23-2.9-10.46-4.26-15.71c-9.05-1.85-18.1-3.65-27.17-5.37
		c0.51,2.26,1.03,4.54,1.22,6.87c-6.45-0.78-12.8-2.22-19.21-3.19c-5.52-24.78-11.37-49.5-17.02-74.26
		C602.2,359.345,591.98,357.775,581.78,356.065 M142.98,359.095c-18.86,3.22-37.59,7.12-56.33,10.93c3.21,2.5,3.76,6.9,2.71,10.63
		c-7.07,27.93-14.33,55.8-21.32,83.74c20.28-3.9,40.62-7.48,61.02-10.68c5.15-0.83,10.44-2.99,13.55-7.38
		c2.73-3.69,3-8.43,3.91-12.76c0.89-4.99,1.97-9.94,2.79-14.94c0.77-4.78-1.82-9.22-4.65-12.84c4.6-3.07,8.8-7.48,9.8-13.11
		c1.39-8.01,3.12-15.96,4.58-23.96c0.7-3.04,0.41-6.82-2.39-8.73C152.61,357.305,147.46,358.345,142.98,359.095 M363.37,460.245
		c-2.09,0.41-3.95,2.15-4,4.36c-0.17,4.66-0.69,9.4-0.11,14.04c1.33,3.49,5.75,3.13,8.79,3.16c5.51-0.31,11.14,0.55,16.57-0.58
		c4.48-1.5,2.79-6.99,2.97-10.52c-0.16-3.68,0.84-9.39-4-10.44C376.91,459.605,370.06,459.685,363.37,460.245 M391.2,459.995
		c0.22,7.29,0.38,14.59,0.65,21.88c1.42,0.02,2.84,0.05,4.27,0.08c-0.12-3.26-0.25-6.51-0.37-9.76c3.89,0.08,7.78,0.18,11.67,0.27
		c1.93,3.33,3.88,6.65,5.88,9.95c1.51,0.06,3.02,0.12,4.55,0.18c-1.98-3.25-3.93-6.53-5.82-9.83c7.09,0,6.32-11.49-0.07-12.01
		C405.08,459.985,398.11,460.295,391.2,459.995 M332.06,460.775c-0.56,7.3-1.14,14.59-1.67,21.89c1.42-0.06,2.85-0.12,4.28-0.16
		c0.18-2.71,0.36-5.42,0.6-8.12c5.92-0.43,11.99,0.22,17.81-1.06c3.95-1.3,3.59-6.2,3.31-9.53c-0.4-2.54-3.17-3.63-5.45-3.59
		C344.64,460.185,338.35,460.575,332.06,460.775 M306.06,462.705c-4.78,0.73-7.34,9.56-2,11.11c6.4,0.73,12.83-1.15,19.26-0.39
		c-0.35,2.12,0.74,6.03-2.37,6.38c-6.84,0.66-13.72,0.92-20.57,1.52c-0.14,1.07-0.28,2.15-0.42,3.23
		c6.98-0.58,13.97-0.93,20.94-1.47c2.6-0.24,5.59-1.57,6.21-4.37c0.62-2.9,1.28-7.49-2.48-8.47c-6.2-1.01-12.49,0.96-18.72,0.33
		c-1.14-1.64-0.46-4.96,1.92-5.03c6.4-0.78,12.88-0.72,19.28-1.41c0.13-0.78,0.37-2.34,0.49-3.12
		C320.43,461.575,313.14,461.425,306.06,462.705 M418.39,460.845c0.12,0.78,0.36,2.33,0.48,3.11c3.78,0.44,7.59,0.41,11.39,0.69
		c0.61,6.22,1.24,12.43,1.84,18.65c1.43,0.09,2.86,0.18,4.3,0.27c-0.68-6.21-1.36-12.43-1.97-18.64c3.75,0.25,7.49,0.53,11.25,0.82
		c-0.11-0.8-0.33-2.42-0.43-3.22C436.3,461.865,427.35,461.225,418.39,460.845 M276.14,465.485c-1.29,7.29-2.58,14.58-3.84,21.88
		c7.89-0.91,15.79-1.74,23.7-2.47c0.11-0.81,0.32-2.42,0.42-3.23c-6.41,0.6-12.82,1.26-19.22,1.95c0.36-2.24,0.74-4.47,1.12-6.71
		c5.97-0.76,11.99-1.12,17.95-1.97c0.17-0.78,0.5-2.33,0.67-3.11c-6.03,0.49-12.04,1.19-18.06,1.84c0.3-1.83,0.6-3.64,0.9-5.46
		c6.24-0.74,12.49-1.36,18.74-1.98c0.14-1.08,0.28-2.16,0.43-3.23C291.34,463.745,283.73,464.565,276.14,465.485 M447.53,465.755
		c-0.62,3.28,0.57,7.37,4.05,8.5c5.95,1.76,12.32,1.16,18.35,2.54c2.7,0.78,1.95,4.27,2.43,6.4c-7.53-0.01-14.98-1.37-22.48-1.84
		c0.1,0.81,0.31,2.42,0.41,3.23c7.26,0.55,14.48,1.48,21.74,2.01c1.92,0.18,4.58-0.63,4.69-2.92c-0.08-3.52-0.82-7.91-4.55-9.35
		c-6.07-2.19-12.76-1.36-18.98-2.85c-1.97-0.81-1.31-3.29-1.52-4.92c7.16,0.05,14.25,1.3,21.37,2.01c-0.19-1.08-0.38-2.16-0.57-3.23
		c-6.5-0.74-13-1.59-19.52-2.1C450.92,463.065,448.17,463.465,447.53,465.755 M338.4,527.855l0.12,0.14
		c-4.2,1.49-8.34,3.19-12.29,5.27c8.23,14.24,18.2,27.9,31.82,37.43c10.95-3.43,22.95-3.42,33.89,0
		c13.63-9.54,23.62-23.19,31.83-37.46c-3.97-2.05-8.13-3.71-12.29-5.32c-12.72-4.06-26.28-4.1-39.5-4.2
		C360.71,524.035,349.25,524.475,338.4,527.855 M368.22,602.055c-1.36,1.05-0.73,2.84-0.57,4.27c2.52,13.16,4.76,26.38,7.32,39.54
		c2.73-13.36,4.93-26.82,7.48-40.21c1.15-2.9-1.82-5.31-4.48-5.43C374.72,600.165,370.71,599.385,368.22,602.055z"/>
	<path class="st1" d="M295.36,196.805c6.87-1.85,14.3-2.76,21.2-0.51c7.67,2.37,13.66,8.21,18.32,14.54
		c8.86,12.08,14.89,25.93,23.11,38.42c1.4,2.54,2.93,5.01,4.47,7.48c-10.42-5.39-20.75-11.68-28.3-20.83
		c-6.59-7.38-8.26-18.84-17.56-23.71c-3.42-2.33-8.58-0.49-9.4,3.63c-0.12,3.54,1.3,6.88,2.26,10.23
		c-5.52-3.97-12.18-7.74-13.93-14.88C294.95,206.405,294.9,201.585,295.36,196.805z"/>
	<path class="st1" d="M433.35,196.315c6.93-2.27,14.39-1.37,21.29,0.49c0.46,4.79,0.41,9.61-0.17,14.39
		c-1.76,7.13-8.42,10.89-13.94,14.86c0.91-3.05,2.06-6.09,2.3-9.3c0.08-3.78-4.32-6.7-7.81-5.23c-4.92,1.76-8.45,6.02-10.8,10.53
		c-2.52,4.77-4.96,9.64-8.38,13.85c-7.54,9.11-17.81,15.42-28.22,20.76c1.5-2.48,3.01-4.94,4.42-7.47
		c8.21-12.46,14.22-26.28,23.07-38.34C419.75,204.535,425.71,198.705,433.35,196.315z"/>
	<path class="st1" d="M113.08,384.755c5.62-0.94,11.19-2.31,16.87-2.86c2.12,0.05,1.24,2.52,1.06,3.79
		c-0.73,3.26-1.21,6.59-2.23,9.78c-0.45,1.71-2.31,2.28-3.85,2.61c-5.21,0.97-10.44,1.8-15.65,2.79
		C110.49,395.485,111.81,390.125,113.08,384.755z"/>
	<path class="st1" d="M104.42,421.895c6.12-0.93,12.17-2.54,18.35-2.92c1.49,2.36-0.4,5.19-0.61,7.71
		c-0.96,2.81-0.43,7.24-3.98,8.19c-5.77,1.29-11.66,1.98-17.47,3.12C101.89,432.615,103.15,427.255,104.42,421.895z"/>
	<path class="st1" d="M363.64,464.125c1.94-1.8,5.03-0.69,7.44-1.02c3.93,0.38,8.24-0.86,11.93,0.76c0.76,4.65,0.33,9.43,0.44,14.13
		c-4.72,1.05-9.59,0.33-14.38,0.58c-1.89-0.22-4.27,0.55-5.75-0.97C363.15,473.125,363.11,468.575,363.64,464.125z"/>
	<path class="st1" d="M335.95,463.835c5.01-0.06,10.04-0.59,15.05-0.3c2.49,0.79,1.07,4.24,1.07,6.15
		c-0.29,0.21-0.88,0.62-1.17,0.82c-5.12,0.59-10.3,0.37-15.44,0.68C335.62,468.735,335.78,466.285,335.95,463.835z"/>
	<path class="st1" d="M395.43,463.295c5.18,0.22,10.38,0.05,15.54,0.58c2.2,0.31,1.9,3.03,1.78,4.65c-1.01,1.02-2.51,0.75-3.79,0.8
		c-4.44-0.12-8.89-0.28-13.33-0.36C395.56,467.075,395.49,465.185,395.43,463.295z"/>
</g>
<g id="_x23_ffffffff">
	<path class="st2" d="M80.1,110.175c43.12,32,86.22,64.04,129.45,95.9c15.55,11.43,31.05,22.93,46.8,34.08
		c-29.84-7.4-59.68-14.78-89.49-22.27c-24.33-9.78-48.72-19.44-73.11-29.09C83.78,163.935,78.99,136.945,80.1,110.175z"/>
	<path class="st2" d="M579.52,177.215c30.16-22.31,60.25-44.7,90.38-67.04c1.09,26.81-3.66,53.86-13.72,78.73l-0.08,0.04
		c-24.44,9.42-48.69,19.33-73.07,28.91c-29.77,7.62-59.65,14.88-89.46,22.33C522.52,219.605,550.92,198.275,579.52,177.215z"/>
	<path class="st2" d="M280.02,161.215c4.78-8.32,10.5-16.11,17.06-23.13c18.16,7.45,35.26,17.86,49.07,31.91
		c-6.32-3.94-12.72-7.81-19.58-10.75c-8.7-3.71-17.78-6.38-26.86-8.94C293.11,153.875,286.61,157.635,280.02,161.215z"/>
	<path class="st2" d="M403.82,170.015c13.83-14.06,30.93-24.48,49.11-31.93c6.55,7.02,12.27,14.81,17.05,23.13
		c-5.91-3.18-11.7-6.57-17.58-9.78c-3.07-1.98-6.54,0.43-9.67,1.03C428.95,156.315,415.73,162.055,403.82,170.015z"/>
	<path class="st2" d="M340.32,149.265c22.83-4.24,46.53-4.24,69.36,0c-1.95,2.17-3.76,4.46-5.42,6.85
		c-19.31-3.33-39.21-3.33-58.52,0C344.07,153.715,342.26,151.435,340.32,149.265z"/>
	<path class="st2" d="M307.2,215.825c0.82-4.12,5.98-5.96,9.4-3.63c9.3,4.87,10.97,16.33,17.56,23.71
		c-9.34,0.81-17.65-4.34-24.7-9.85C308.5,222.705,307.08,219.365,307.2,215.825z"/>
	<path class="st2" d="M424.22,222.055c2.35-4.51,5.88-8.77,10.8-10.53c3.49-1.47,7.89,1.45,7.81,5.23c-0.24,3.21-1.39,6.25-2.3,9.3
		c-7.04,5.51-15.35,10.66-24.69,9.85C419.26,231.695,421.7,226.825,424.22,222.055z"/>
	<path class="st2" d="M315.89,342.525c23.25-0.6,46.5-0.88,69.75-0.8c0.13,7.03,0.24,14.07,0.44,21.1
		c-12.55,17.92-25.44,35.61-38.5,53.16c4.79-0.04,9.59-0.08,14.39-0.1c-0.12-2.4-0.23-4.79-0.32-7.18
		c8.39-0.04,16.78-0.03,25.18,0.02c0.16,6.38,0.16,12.75,0.27,19.13c0.08,4.01,2.93,7.29,6.04,9.53
		c-25.51-0.26-51.01,0.1-76.51,0.57c0.43-7.12,0.39-14.29,1.21-21.37c12.83-17.87,25.86-35.62,38.35-53.74
		c-4.08,0.04-8.15,0.1-12.23,0.16c0,2.83,0.02,5.66,0.05,8.49c-8.22,0.13-16.43,0.31-24.65,0.51c0.21-6.76,0.76-13.51,1.04-20.27
		C320.57,348.065,318.19,345.085,315.89,342.525z"/>
	<path class="st2" d="M389.05,341.695c9.7,0.22,19.39,0.3,29.09,0.58c0.79,14.48,1.28,28.99,2.14,43.47
		c4.85-14.27,9.66-28.55,14.1-42.95c10.53,0.3,21.05,1.03,31.58,1.36c-3.48,2.16-5.79,5.7-6.97,9.56
		c-4.59,13.7-9.1,27.43-13.96,41.03c5.83,9.76,11.77,19.46,17.85,29.08c3.8,6.47,8.54,12.68,15.32,16.25
		c-11.11-0.71-22.24-1.14-33.36-1.56c-8.36-13.46-16.02-27.33-23.91-41.06c0.32,10.8,0.94,21.59,1.57,32.38
		c0.24,3.69,3.41,6.23,6.21,8.2c-10.65-0.42-21.3-0.49-31.95-0.68c-0.98-29.22-1.37-58.46-2.27-87.68
		C394.42,346.155,391.65,343.645,389.05,341.695z"/>
	<path class="st2" d="M240.94,346.765c23.5-1.64,47-3.14,70.53-4.1c-0.34,6.36-0.67,12.72-0.94,19.08
		c-0.01,1.22-0.23,2.45-1.09,3.37c-13.54,18.03-27.32,35.88-41.38,53.5c4.86-0.28,9.72-0.53,14.58-0.76
		c0.03-2.38,0.07-4.76,0.13-7.14c8.4-0.39,16.81-0.72,25.22-1.01c-0.33,6.35-0.71,12.7-1.07,19.05c-0.3,3.88,2.3,7.19,5.28,9.37
		c-25.65,0.78-51.28,2.2-76.88,3.83c1.08-7.27,1.22-14.83,3.07-21.9c14.17-18.2,28.36-36.38,42.06-54.94
		c-4.07,0.22-8.15,0.48-12.22,0.73c-0.22,2.82-0.44,5.64-0.67,8.47c-8.29,0.52-16.57,1.12-24.85,1.72
		c0.73-6.79,1.8-13.55,2.51-20.34C245.63,352.135,243.45,349.025,240.94,346.765z"/>
	<path class="st2" d="M470.86,344.745c9.63,0.17,19.22,1.23,28.83,1.87c3.67,29.17,7.33,58.34,11.11,87.5
		c0.55,3.9,3.86,6.57,7.01,8.51c-10.79-0.69-21.56-1.54-32.34-2.21c-3.06-27.88-5.66-55.81-8.51-83.71
		C477.13,351.895,474.69,347.535,470.86,344.745z"/>
	<path class="st2" d="M508.17,347.305c9.89,1,19.78,1.96,29.66,3.01c4.11,24.74,7.97,49.51,11.99,74.27
		c6.25,0.56,12.45,1.59,18.73,1.84c-0.11-2.3-0.44-4.58-0.79-6.85c8.72,1.08,17.44,2.22,26.15,3.42c1.11,5.96,2.53,11.87,3.57,17.84
		c0.51,2.76-0.33,6.08-3.04,7.38c-3.87,1.91-8.38,1.33-12.52,1c-18.34-2.2-36.72-4.14-55.11-5.78c-4.23-28.9-7.93-57.88-11.96-86.81
		C514.53,352.515,511.24,349.625,508.17,347.305z"/>
	<path class="st2" d="M205.75,350.215c9.93-0.89,19.83-2.05,29.75-2.91c-3.51,28.51-7.19,57-10.71,85.51
		c-0.77,3.86,1.46,7.51,4.5,9.71c-19.81,1.45-39.58,3.51-59.33,5.7c-4.36,0.37-9.26,0.26-12.86-2.57c-2.93-2.3-3.71-6.33-3.26-9.85
		c3.74-23.63,8.65-47.06,12.89-70.6c0.86-3.54-0.36-7.52-3.64-9.36c10.04-1.37,20.06-2.8,30.11-4.1
		c-3.78,23.99-8.11,47.91-11.61,71.94c0.35,0.4,1.07,1.22,1.43,1.63c5.69,0.09,11.34-1.11,17.02-1.54
		c3.05-22.02,6.56-43.97,9.77-65.96C210.55,354.575,208.29,351.845,205.75,350.215z"/>
	<path class="st2" d="M581.78,356.065c10.2,1.71,20.42,3.28,30.59,5.12c5.65,24.76,11.5,49.48,17.02,74.26
		c6.41,0.97,12.76,2.41,19.21,3.19c-0.19-2.33-0.71-4.61-1.22-6.87c9.07,1.72,18.12,3.52,27.17,5.37c1.36,5.25,2.8,10.48,4.26,15.71
		c0.61,2.42,1.41,5.27-0.1,7.55c-1.27,1.8-3.62,2.3-5.68,2.43c-4.68,0.23-9.29-0.83-13.87-1.64c-17.32-3.2-34.72-5.95-52.13-8.6
		c-6.05-28.92-11.89-57.88-17.94-86.8C588.43,361.525,584.98,358.575,581.78,356.065z"/>
	<path class="st2" d="M142.98,359.095c4.48-0.75,9.63-1.79,13.67,0.9c2.8,1.91,3.09,5.69,2.39,8.73c-1.46,8-3.19,15.95-4.58,23.96
		c-1,5.63-5.2,10.04-9.8,13.11c2.83,3.62,5.42,8.06,4.65,12.84c-0.82,5-1.9,9.95-2.79,14.94c-0.91,4.33-1.18,9.07-3.91,12.76
		c-3.11,4.39-8.4,6.55-13.55,7.38c-20.4,3.2-40.74,6.78-61.02,10.68c6.99-27.94,14.25-55.81,21.32-83.74
		c1.05-3.73,0.5-8.13-2.71-10.63C105.39,366.215,124.12,362.315,142.98,359.095 M113.08,384.755c-1.27,5.37-2.59,10.73-3.8,16.11
		c5.21-0.99,10.44-1.82,15.65-2.79c1.54-0.33,3.4-0.9,3.85-2.61c1.02-3.19,1.5-6.52,2.23-9.78c0.18-1.27,1.06-3.74-1.06-3.79
		C124.27,382.445,118.7,383.815,113.08,384.755 M104.42,421.895c-1.27,5.36-2.53,10.72-3.71,16.1c5.81-1.14,11.7-1.83,17.47-3.12
		c3.55-0.95,3.02-5.38,3.98-8.19c0.21-2.52,2.1-5.35,0.61-7.71C116.59,419.355,110.54,420.965,104.42,421.895z"/>
	<path class="st2" d="M363.37,460.245c6.69-0.56,13.54-0.64,20.22,0.02c4.84,1.05,3.84,6.76,4,10.44
		c-0.18,3.53,1.51,9.02-2.97,10.52c-5.43,1.13-11.06,0.27-16.57,0.58c-3.04-0.03-7.46,0.33-8.79-3.16
		c-0.58-4.64-0.06-9.38,0.11-14.04C359.42,462.395,361.28,460.655,363.37,460.245 M363.64,464.125c-0.53,4.45-0.49,9-0.32,13.48
		c1.48,1.52,3.86,0.75,5.75,0.97c4.79-0.25,9.66,0.47,14.38-0.58c-0.11-4.7,0.32-9.48-0.44-14.13c-3.69-1.62-8-0.38-11.93-0.76
		C368.67,463.435,365.58,462.325,363.64,464.125z"/>
	<path class="st2" d="M391.2,459.995c6.91,0.3,13.88-0.01,20.76,0.76c6.39,0.52,7.16,12.01,0.07,12.01c1.89,3.3,3.84,6.58,5.82,9.83
		c-1.53-0.06-3.04-0.12-4.55-0.18c-2-3.3-3.95-6.62-5.88-9.95c-3.89-0.09-7.78-0.19-11.67-0.27c0.12,3.25,0.25,6.5,0.37,9.76
		c-1.43-0.03-2.85-0.06-4.27-0.08C391.58,474.585,391.42,467.285,391.2,459.995 M395.43,463.295c0.06,1.89,0.13,3.78,0.2,5.67
		c4.44,0.08,8.89,0.24,13.33,0.36c1.28-0.05,2.78,0.22,3.79-0.8c0.12-1.62,0.42-4.34-1.78-4.65
		C405.81,463.345,400.61,463.515,395.43,463.295z"/>
	<path class="st2" d="M332.06,460.775c6.29-0.2,12.58-0.59,18.88-0.57c2.28-0.04,5.05,1.05,5.45,3.59c0.28,3.33,0.64,8.23-3.31,9.53
		c-5.82,1.28-11.89,0.63-17.81,1.06c-0.24,2.7-0.42,5.41-0.6,8.12c-1.43,0.04-2.86,0.1-4.28,0.16
		C330.92,475.365,331.5,468.075,332.06,460.775 M335.95,463.835c-0.17,2.45-0.33,4.9-0.49,7.35c5.14-0.31,10.32-0.09,15.44-0.68
		c0.29-0.2,0.88-0.61,1.17-0.82c0-1.91,1.42-5.36-1.07-6.15C345.99,463.245,340.96,463.775,335.95,463.835z"/>
	<path class="st2" d="M306.06,462.705c7.08-1.28,14.37-1.13,21.54-1.69c-0.12,0.78-0.36,2.34-0.49,3.12
		c-6.4,0.69-12.88,0.63-19.28,1.41c-2.38,0.07-3.06,3.39-1.92,5.03c6.23,0.63,12.52-1.34,18.72-0.33c3.76,0.98,3.1,5.57,2.48,8.47
		c-0.62,2.8-3.61,4.13-6.21,4.37c-6.97,0.54-13.96,0.89-20.94,1.47c0.14-1.08,0.28-2.16,0.42-3.23c6.85-0.6,13.73-0.86,20.57-1.52
		c3.11-0.35,2.02-4.26,2.37-6.38c-6.43-0.76-12.86,1.12-19.26,0.39C298.72,472.265,301.28,463.435,306.06,462.705z"/>
	<path class="st2" d="M418.39,460.845c8.96,0.38,17.91,1.02,26.86,1.68c0.1,0.8,0.32,2.42,0.43,3.22c-3.76-0.29-7.5-0.57-11.25-0.82
		c0.61,6.21,1.29,12.43,1.97,18.64c-1.44-0.09-2.87-0.18-4.3-0.27c-0.6-6.22-1.23-12.43-1.84-18.65c-3.8-0.28-7.61-0.25-11.39-0.69
		C418.75,463.175,418.51,461.625,418.39,460.845z"/>
	<path class="st2" d="M276.14,465.485c7.59-0.92,15.2-1.74,22.81-2.49c-0.15,1.07-0.29,2.15-0.43,3.23
		c-6.25,0.62-12.5,1.24-18.74,1.98c-0.3,1.82-0.6,3.63-0.9,5.46c6.02-0.65,12.03-1.35,18.06-1.84c-0.17,0.78-0.5,2.33-0.67,3.11
		c-5.96,0.85-11.98,1.21-17.95,1.97c-0.38,2.24-0.76,4.47-1.12,6.71c6.4-0.69,12.81-1.35,19.22-1.95c-0.1,0.81-0.31,2.42-0.42,3.23
		c-7.91,0.73-15.81,1.56-23.7,2.47C273.56,480.065,274.85,472.775,276.14,465.485z"/>
	<path class="st2" d="M447.53,465.755c0.64-2.29,3.39-2.69,5.42-2.52c6.52,0.51,13.02,1.36,19.52,2.1c0.19,1.07,0.38,2.15,0.57,3.23
		c-7.12-0.71-14.21-1.96-21.37-2.01c0.21,1.63-0.45,4.11,1.52,4.92c6.22,1.49,12.91,0.66,18.98,2.85c3.73,1.44,4.47,5.83,4.55,9.35
		c-0.11,2.29-2.77,3.1-4.69,2.92c-7.26-0.53-14.48-1.46-21.74-2.01c-0.1-0.81-0.31-2.42-0.41-3.23c7.5,0.47,14.95,1.83,22.48,1.84
		c-0.48-2.13,0.27-5.62-2.43-6.4c-6.03-1.38-12.4-0.78-18.35-2.54C448.1,473.125,446.91,469.035,447.53,465.755z"/>
</g>
<g id="_x23_bb8e01ff">
	<path class="st3" d="M284.04,172.755c7.34-1.58,15.04-0.51,22.08,1.92c11.72,4.28,22.82,11.5,29.84,22.02
		c9.16,13.38,14.95,28.69,20.13,43.95c0.98,2.78,1.47,5.7,1.9,8.61c-8.22-12.49-14.25-26.34-23.11-38.42
		c-4.66-6.33-10.65-12.17-18.32-14.54c-6.9-2.25-14.33-1.34-21.2,0.51c-0.46,4.78-0.41,9.6,0.17,14.37c-0.2,6.17,1.69,12.47,6.01,17
		c7.77,8.45,17.66,14.54,27.25,20.69c15.85,10.05,30.93,21.24,46.2,32.14c15.86-11.29,31.5-22.94,48.02-33.28
		c7.26-4.61,14.49-9.36,20.95-15.07c6.46-5.19,11.12-12.95,10.51-21.46c0.58-4.78,0.63-9.6,0.17-14.39
		c-6.9-1.86-14.36-2.76-21.29-0.49c-7.64,2.39-13.6,8.22-18.24,14.54c-8.85,12.06-14.86,25.88-23.07,38.34
		c0.38-2.63,0.77-5.26,1.62-7.79c4.51-13.5,9.57-26.93,16.85-39.22c4.12-6.94,9.12-13.55,15.82-18.18
		c10.85-7.83,24.31-13.56,37.93-11.58c4.79,0.55,8.82,3.37,13.25,5.05l0.54,0.21c-0.21,11.93-7.28,22.11-13.17,31.98
		c2.78,3.66,5.54,7.34,8.3,11.03c-0.99,5.85-3.03,11.73-7.26,16.05c-13.17,14.1-31.53,21.23-47.38,31.63
		c-15.17,9.82-29.59,20.75-43.54,32.21c-16.61-13.58-33.8-26.59-52.26-37.58c-13.52-7.69-27.86-14.77-38.65-26.25
		c-4.24-4.33-6.29-10.21-7.26-16.08c2.75-3.67,5.51-7.35,8.29-11c-5.94-9.85-12.76-19.99-13.29-31.86c0.17-0.07,0.5-0.21,0.67-0.29
		C276.37,175.995,279.91,173.605,284.04,172.755z"/>
	<path class="st3" d="M338.4,527.855c10.85-3.38,22.31-3.82,33.58-4.14c13.22,0.1,26.78,0.14,39.5,4.2
		c-3.9,4.56-6.79,9.92-11.14,14.1c-7.06,7.01-15.69,12.85-25.3,15.59c-9.64-2.68-18.28-8.56-25.36-15.57
		c-4.36-4.16-7.19-9.56-11.16-14.04L338.4,527.855z"/>
</g>
<g id="_x23_8c8c8cff">
	<path class="st4" d="M93.75,188.795c24.39,9.65,48.78,19.31,73.11,29.09c2.3,1.3,4.57,2.67,6.67,4.29
		c23.99,17.7,48.24,35.06,72.12,52.91c-35.23-6.76-70.34-14.18-105.53-21.12c-4.25-0.32-6.82-4.06-9.7-6.71
		C114.45,230.485,102.58,210.105,93.75,188.795z"/>
	<path class="st4" d="M583.03,217.855c24.38-9.58,48.63-19.49,73.07-28.91c-8.55,21.09-20.41,41.14-36.03,57.8
		c-3.04,2.79-5.7,6.82-10.18,7.22c-35.19,6.95-70.3,14.35-105.53,21.13c22.71-17.01,45.78-33.54,68.64-50.35
		C576.33,222.445,579.36,219.635,583.03,217.855z"/>
	<path class="st4" d="M162.53,291.835c23.47,1.92,46.88,4.53,70.33,6.61c8.74,0.98,17.53,1.44,26.25,2.63
		c-2.81,0.28-5.59,0.69-8.35,1.24c-24.33,4.66-48.71,9-73.02,13.76C169.53,310.515,164.02,301.625,162.53,291.835z"/>
	<path class="st4" d="M490.82,301.005c32.22-3.04,64.43-6.36,96.67-9.16c-1.57,9.39-6.55,18.29-14.56,23.63
		c-4.7,0.31-9.26-1.27-13.87-1.95C536.3,309.415,513.64,304.725,490.82,301.005z"/>
	<path class="st4" d="M368.22,602.055c2.49-2.67,6.5-1.89,9.75-1.83c2.66,0.12,5.63,2.53,4.48,5.43
		c-2.55,13.39-4.75,26.85-7.48,40.21c-2.56-13.16-4.8-26.38-7.32-39.54C367.49,604.895,366.86,603.105,368.22,602.055z"/>
</g>
</svg>
