<?xml version="1.0" encoding="utf-8"?>
<!-- Generator: Adobe Illustrator 21.0.2, SVG Export Plug-In . SVG Version: 6.00 Build 0)  -->
<svg version="1.1" id="Layer_1" xmlns="http://www.w3.org/2000/svg" xmlns:xlink="http://www.w3.org/1999/xlink" x="0px" y="0px"
	 viewBox="0 0 952 952" style="enable-background:new 0 0 952 952;" xml:space="preserve">
<style type="text/css">
	.st0{fill:#226699;}
	.st1{fill:#FFFFFF;}
</style>
<g id="_x23_226699ff">
	<path class="st0" d="M77.94,0c265.37,0,530.75,0,796.12,0c0,217.89,0,435.77,0,653.66C741.37,753.11,608.69,852.55,476,952
		C343.31,852.55,210.63,753.11,77.94,653.66C77.94,435.77,77.94,217.89,77.94,0 M104.88,33.02c-0.01,203,0.01,406-0.01,609
		c121.52,91.15,243.05,182.3,364.59,273.45c2.26,1.09,4.29,4.73,6.93,3.83c50.7-37.95,101.33-75.99,152.01-113.97
		c72.57-54.44,145.16-108.87,217.73-163.31c-0.02-203,0-406-0.01-609C599.04,33.01,351.96,33.01,104.88,33.02z"/>
	<path class="st0" d="M119.88,48.02c237.08-0.01,474.16-0.01,711.24,0c0.02,195.44-0.03,390.89,0.03,586.33
		c-8.18,6.11-16.1,12.57-24.51,18.37c-7.89,6.53-16.53,12.06-24.43,18.58c-7.36,5.3-14.53,10.83-21.78,16.28
		c-7.89,5.28-14.92,11.73-22.82,16.99c-4.75,3.23-8.97,7.14-13.7,10.4c-7.32,4.9-13.87,10.83-21.15,15.78
		c-6.13,4.16-11.62,9.17-17.68,13.4c-5.95,3.92-11.25,8.72-17.11,12.76c-6.75,4.52-12.81,9.96-19.46,14.61
		c-5.92,4-11.25,8.81-17.15,12.85c-6.37,4.22-12.03,9.38-18.29,13.74c-6.3,4.27-12.01,9.35-18.29,13.64
		c-7.09,4.81-13.38,10.68-20.55,15.38c-4.83,3.49-9.36,7.37-14.25,10.78c-7.53,5.06-14.27,11.19-21.8,16.25
		c-5.11,3.44-9.65,7.66-14.73,11.15c-6.76,4.51-12.82,9.98-19.5,14.6c-7.1,4.79-13.47,10.56-20.55,15.38
		c-2.78,1.85-5.37,3.96-7.9,6.15c-4.98-4.48-10.77-7.91-15.98-12.11c-8.63-7.04-18-13.1-26.59-20.19
		c-8.33-5.61-15.87-12.26-24.19-17.87c-16.16-12.61-32.94-24.37-49.04-37.04c-8.83-6.06-17.03-12.96-25.8-19.09
		c-9.08-7.37-18.86-13.81-27.94-21.17c-8.3-5.57-15.75-12.26-24.03-17.84c-6.18-4.5-12.02-9.45-18.38-13.69
		c-10.36-8.38-21.4-15.84-31.79-24.17c-7.75-5.16-14.68-11.42-22.45-16.55c-16.54-12.9-33.67-25-50.18-37.92
		c-7.01-4.54-13.15-10.24-20.07-14.89c-6.58-4.61-12.7-9.84-19.2-14.55C119.91,438.91,119.86,243.46,119.88,48.02 M162.45,74.24
		c-3.58,31.91-7.3,63.82-10.69,95.76c9.91-2.38,19.8-4.81,29.69-7.28c2.1-8.99,1.94-18.31,3.52-27.39
		c10.56-0.01,21.13,0.05,31.69-0.03c0.85-7.86,2.15-15.68,2.43-23.59c-10.54-0.11-21.08,0-31.62-0.06
		c0.36-4.23,0.91-8.44,1.41-12.65c12.33,0,24.66,0,36.99,0c1.44-8.19,2.14-16.49,2.85-24.77C206.63,74.18,184.54,74.16,162.45,74.24
		 M266.47,74.5c-4.48,11.6-9.47,23-13.84,34.65c17.82-4.31,35.6-8.78,53.34-13.39c-1.42-7.21-2.76-14.45-4.62-21.56
		C289.73,74.36,278.08,73.83,266.47,74.5 M341.84,78.97c-4.09,1.42-9.23,1.08-12.23,4.64c-8.56,8.7-11.91,22.58-6.92,33.92
		c3.51,7.84,11.3,12.67,19.11,15.47c6.42,2.02,13.48,3.02,18.95,7.24c2.4,1.54,2.26,4.76,1.57,7.18
		c-2.93,7.41-15.03,7.98-18.77,1.02c-1.99-3.58-1.87-7.79-2.14-11.75c-9.28,0.67-18.59,0.13-27.88,0.33
		c-0.95,11.68,0.85,25.15,10.35,33.13c9.18,6,20.73,4.41,31.13,4.67c8.08,0.51,16.53-1.62,22.79-6.91
		c5.14-4.78,9.44-10.59,11.95-17.17c3.41-9.44,3.33-20.69-2.18-29.33c-4.95-6.61-12.88-9.99-20.44-12.66
		c-5.68-2.08-12.09-2.29-17.24-5.68c-2.64-1.43-1.75-5.38,0.54-6.71c3.65-2.24,9.18-2.4,12.23,0.98c2.47,2.65,2.48,6.49,2.71,9.9
		c9.2,0.19,18.41,0.09,27.62,0.05c0-2.39,0.01-4.78,0.01-7.18c27.67-6.87,55.33-13.81,82.99-20.73c0.17-1.72,0.3-3.44,0.42-5.17
		c-26.84-0.05-53.68,0-80.52-0.02c-1.54,7.73-1.91,15.62-3.21,23.38c0.03-5.67-1.98-11.3-5.46-15.75c-3.9-4.8-10.17-6.82-16.12-7.45
		C361.08,73.11,351.5,77.02,341.84,78.97 M492.19,74.22c-1.28,7.83-1.9,15.75-2.79,23.63c10.02-2.22,19.89-5.04,29.87-7.41
		c0.83-5.36,1.44-10.75,1.73-16.17C511.4,74.11,501.79,74.21,492.19,74.22 M576.82,76.99c-5.01,2.21-9.39,5.71-13.29,9.51
		c-9.14,10.39-14.37,23.89-15.65,37.6c-0.79,8.18-0.92,16.56,1.14,24.57c9.52-2.46,19.13-4.55,28.55-7.37
		c-1.19-7-1.08-14.23,0.16-21.22c1.11-5.82,2.88-11.86,6.95-16.34c5.85-6.76,19.06-5.53,22.16,3.4c3.02,8.82,0.75,18.28-0.55,27.21
		c10.02-2.63,20.25-4.7,30.1-7.88c1.57-4.67,1.19-9.69,1.18-14.53c-0.33-10.36-3.05-21.31-10.52-28.89
		c-6.72-6.88-16.75-9.25-26.09-8.88C592.83,73.89,584.62,74.59,576.82,76.99 M657.74,80.92c-3.2,0.59-5.05,3.52-6.97,5.84
		c-6.26,8.11-8.44,19.42-4.92,29.12c2.32,6.53,7.76,11.46,13.82,14.54c7.68,4.33,17.17,4.25,24.43,9.44
		c2.67,1.69,3.35,5.4,1.78,8.07c-3.25,6.86-14.71,7.32-18.4,0.65c-2.1-3.59-1.99-7.88-2.31-11.88c-9.29,0.66-18.61,0.09-27.9,0.35
		c-0.85,11.53,0.91,24.52,9.87,32.72c6.53,4.71,15.08,5.04,22.85,5.05c7.66-0.28,15.63,1,22.95-1.96
		c7.44-2.43,12.85-8.57,17.02-14.92c6.85-10.68,8.29-25.4,1.5-36.45c-4.53-6.1-11.69-9.49-18.64-12.09
		c-5.8-2.27-12.17-2.78-17.81-5.48c-1.49-0.79-3.42-1.98-3.01-3.96c0.99-5.28,8.23-6.29,12.35-4.25c4.31,2.12,4.6,7.42,5.03,11.59
		c9.2,0.03,18.4,0.12,27.6-0.05c0.28-8.69-0.19-18.25-5.88-25.32c-6.2-7.42-16.91-8.44-25.9-7.46
		C675.99,76.36,666.86,78.67,657.74,80.92 M727.43,74.23c-0.19,1.54-0.37,3.09-0.52,4.63c5.74-1.32,11.63-2.2,17.14-4.38
		C738.52,73.95,732.97,74.24,727.43,74.23 M774.3,74.39c-16.08,3.36-32.02,7.38-47.98,11.3c-3.6,29.66-6.78,59.37-9.78,89.1
		c24.29,0.03,48.57,0.02,72.86,0c1.14-8.69,2.2-17.39,2.93-26.12c-14.64,0-29.28-0.03-43.92,0.02c0.54-4.9,1.19-9.78,1.6-14.69
		c13.19-0.02,26.38,0.04,39.57-0.03c1.01-7.94,1.93-15.9,2.48-23.88c-13.14-0.21-26.29-0.03-39.44-0.1
		c0.45-3.66,0.96-7.31,1.29-10.99c14.15,0,28.29,0.01,42.44,0c1.4-8.18,2.22-16.45,2.68-24.72
		C790.79,74.24,782.52,73.95,774.3,74.39 M414.95,100.34c-1.62,0.35-3.15,0.97-4.6,1.74c2.71,0.29,5.44,0.28,8.16,0.29
		c-2.65,24.12-5.67,48.22-7.8,72.4c9.59,0.08,19.19,0.01,28.79,0.05c3.05-24.12,5.36-48.32,8.03-72.48c8.56,0,17.11-0.02,25.67,0.01
		c1.14-5.36,1.63-10.82,2.11-16.27C455.16,90.74,435.09,95.7,414.95,100.34 M483.9,103.53c-2.9,23.71-5.45,47.47-7.85,71.23
		c22.84,0.09,45.69,0.05,68.53,0.02c1.66-9.28,2.29-18.71,3.11-28.1c-13.16-0.03-26.32-0.02-39.49,0
		c1.74-16.64,3.61-33.26,5.57-49.86C503.76,98.82,493.88,101.4,483.9,103.53 M254.1,114.05c-8.83,20.16-17.77,40.27-26.23,60.59
		c9.95,0.36,19.9,0.1,29.85,0.14c2.23-5.1,4.05-10.37,5.72-15.68c8.72-0.2,17.44-0.08,26.15-0.07c1.27,5.17,1.38,10.54,2.58,15.73
		c8.32,0.09,16.65,0.03,24.97,0.04c-4.39-23.91-9.27-47.72-13.72-71.61C286.94,106.62,270.51,110.31,254.1,114.05 M607.08,138.33
		c-3.06,0.14-3.57,3.6-5.23,5.52c-4.88,7.4-16.93,8.35-22.48,1.21c-9.81,2.32-19.64,4.6-29.38,7.19
		c1.99,5.95,5.55,11.34,10.05,15.67c8.09,5.59,18.23,7.44,27.92,6.9c11.28,0.59,23.37-2.06,31.64-10.2
		c9.55-8.41,13.79-20.99,16.43-33.06C626.34,133.63,616.75,136.15,607.08,138.33 M161.18,171.54c-2.37,0.54-4.68,1.38-6.78,2.62
		c2.16,0.57,4.4,0.72,6.63,0.68c7.75-0.07,15.51-0.02,23.26-0.03c0.51-2.91,0.75-5.86,0.96-8.8
		C177.2,167.76,169.18,169.59,161.18,171.54 M630.51,217.79c-18.22,4.13-33.58,18.31-39.64,35.91c-3.84,10.62-3.22,22.25-1.21,33.17
		c6.8,28.15,38.58,47,66.59,40.21c13.59-3.71,26.35-11.87,33.75-24.09c8.44-13.35,11.24-30.2,7.28-45.51
		c-3.4-12.94-11.59-24.64-22.92-31.84C661.57,217.34,645.38,214.31,630.51,217.79 M402.74,287.76
		c-19.87,19.11-38.97,39.01-58.73,58.23c-8.36,9.35-9.54,24.34-2.92,34.96c4.81,7.68,13.91,12.08,22.88,11.84
		c5.79-0.2,12.14-1.1,16.62-5.12c17.25-14.67,31.6-32.38,48.87-47.03c22.82,8.45,46.45,14.38,69.58,21.86
		c-14.64,18.48-32.64,34.01-46.9,52.81c50.1,21.44,90.71,64.62,107.82,116.5c22.06-0.68,44.05-2.7,66.07-4.13
		c-8.7,43.27-19.57,86.07-28.12,129.37c-1.1,4.73-1.59,9.76-0.17,14.49c3.68,12.71,17.67,19.99,30.33,19.09
		c7.73-0.38,15.42-4.29,19.57-10.94c2.54-3.74,3.29-8.27,4.37-12.56c13.18-52.78,23.76-106.16,35.97-159.17
		c1.24-4.86,2.87-9.81,2.08-14.89c-1.36-13.33-13.11-25.83-27.01-25.21c-37.43,2.52-74.76,6.34-112.07,10.27
		c-3.06,0.23-6.52,1.15-9.23-0.8c-2.84-1.72-4.74-6.03-2.17-8.77c2.04-1.66,4.55-2.66,6.44-4.53
		c26.39-24.95,52.04-50.68,77.21-76.86c3.57-3.77,7.74-7.32,9.58-12.34c5.35-13.79-3-31.06-17.07-35.55
		c-54.3-17.11-109.03-32.8-163.47-49.43c-9.62-2.82-19.13-6.39-29.17-7.41C416.02,281.72,408.2,282.82,402.74,287.76 M365.53,440.7
		c-30.74,3.35-60.01,17.16-82.8,37.96c-22.99,20.82-39.28,48.98-45.73,79.32c-8.41,40.52,1,84.33,25.16,117.91
		c7.13,10.03,15.74,18.92,25.16,26.82c28.59,25.33,67.9,36.83,105.71,34.23c35.87-2.3,71.35-17.38,96.09-43.78
		c9.34-9.24,17.49-19.71,23.82-31.24c27.26-49.34,24.01-114.13-8.62-160.19c-8.7-12.46-19.88-22.95-31.85-32.21
		C442.28,446.64,403.08,436.42,365.53,440.7z"/>
	<path class="st0" d="M272.89,134c3.2-8.44,6.4-16.89,9.43-25.39c1.18,8.47,2.31,16.96,3.83,25.39C281.73,134,277.31,134,272.89,134
		z"/>
	<path class="st0" d="M365.53,478.79c21.62-3,44.32-0.88,64.25,8.4c13.39,6.45,25.82,15.15,35.72,26.3
		c24.36,26.99,35.42,66.27,25.93,101.69c-8.13,33.98-33.36,63.2-65.56,76.63c-12.94,5.35-26.92,8.18-40.91,8.49
		c-36.46,0.55-72.68-17.77-93.72-47.57c-9.24-12.92-14.97-28.08-18.32-43.52c-7.61-39.08,8.55-81,38.65-106.6
		C326.72,489.61,345.66,481.08,365.53,478.79z"/>
</g>
<g id="_x23_ffffffff">
	<path class="st1" d="M104.88,33.02c247.08-0.01,494.16-0.01,741.24,0c0.01,203-0.01,406,0.01,609
		c-72.57,54.44-145.16,108.87-217.73,163.31c-50.68,37.98-101.31,76.02-152.01,113.97c-2.64,0.9-4.67-2.74-6.93-3.83
		c-121.54-91.15-243.07-182.3-364.59-273.45C104.89,439.02,104.87,236.02,104.88,33.02 M119.88,48.02
		c-0.02,195.44,0.03,390.89-0.02,586.34c6.5,4.71,12.62,9.94,19.2,14.55c6.92,4.65,13.06,10.35,20.07,14.89
		c16.51,12.92,33.64,25.02,50.18,37.92c7.77,5.13,14.7,11.39,22.45,16.55c10.39,8.33,21.43,15.79,31.79,24.17
		c6.36,4.24,12.2,9.19,18.38,13.69c8.28,5.58,15.73,12.27,24.03,17.84c9.08,7.36,18.86,13.8,27.94,21.17
		c8.77,6.13,16.97,13.03,25.8,19.09c16.1,12.67,32.88,24.43,49.04,37.04c8.32,5.61,15.86,12.26,24.19,17.87
		c8.59,7.09,17.96,13.15,26.59,20.19c5.21,4.2,11,7.63,15.98,12.11c2.53-2.19,5.12-4.3,7.9-6.15c7.08-4.82,13.45-10.59,20.55-15.38
		c6.68-4.62,12.74-10.09,19.5-14.6c5.08-3.49,9.62-7.71,14.73-11.15c7.53-5.06,14.27-11.19,21.8-16.25
		c4.89-3.41,9.42-7.29,14.25-10.78c7.17-4.7,13.46-10.57,20.55-15.38c6.28-4.29,11.99-9.37,18.29-13.64
		c6.26-4.36,11.92-9.52,18.29-13.74c5.9-4.04,11.23-8.85,17.15-12.85c6.65-4.65,12.71-10.09,19.46-14.61
		c5.86-4.04,11.16-8.84,17.11-12.76c6.06-4.23,11.55-9.24,17.68-13.4c7.28-4.95,13.83-10.88,21.15-15.78
		c4.73-3.26,8.95-7.17,13.7-10.4c7.9-5.26,14.93-11.71,22.82-16.99c7.25-5.45,14.42-10.98,21.78-16.28
		c7.9-6.52,16.54-12.05,24.43-18.58c8.41-5.8,16.33-12.26,24.51-18.37c-0.06-195.44-0.01-390.89-0.03-586.33
		C594.04,48.01,356.96,48.01,119.88,48.02z"/>
	<path class="st1" d="M162.45,74.24c22.09-0.08,44.18-0.06,66.27-0.01c-0.71,8.28-1.41,16.58-2.85,24.77c-12.33,0-24.66,0-36.99,0
		c-0.5,4.21-1.05,8.42-1.41,12.65c10.54,0.06,21.08-0.05,31.62,0.06c-0.28,7.91-1.58,15.73-2.43,23.59
		c-10.56,0.08-21.13,0.02-31.69,0.03c-1.58,9.08-1.42,18.4-3.52,27.39c-9.89,2.47-19.78,4.9-29.69,7.28
		C155.15,138.06,158.87,106.15,162.45,74.24z"/>
	<path class="st1" d="M266.47,74.5c11.61-0.67,23.26-0.14,34.88-0.3c1.86,7.11,3.2,14.35,4.62,21.56
		c-17.74,4.61-35.52,9.08-53.34,13.39C257,97.5,261.99,86.1,266.47,74.5z"/>
	<path class="st1" d="M341.84,78.97c9.66-1.95,19.24-5.86,29.26-4.6c5.95,0.63,12.22,2.65,16.12,7.45
		c3.48,4.45,5.49,10.08,5.46,15.75c1.3-7.76,1.67-15.65,3.21-23.38c26.84,0.02,53.68-0.03,80.52,0.02
		c-0.12,1.73-0.25,3.45-0.42,5.17c-27.66,6.92-55.32,13.86-82.99,20.73c0,2.4-0.01,4.79-0.01,7.18c-9.21,0.04-18.42,0.14-27.62-0.05
		c-0.23-3.41-0.24-7.25-2.71-9.9c-3.05-3.38-8.58-3.22-12.23-0.98c-2.29,1.33-3.18,5.28-0.54,6.71c5.15,3.39,11.56,3.6,17.24,5.68
		c7.56,2.67,15.49,6.05,20.44,12.66c5.51,8.64,5.59,19.89,2.18,29.33c-2.51,6.58-6.81,12.39-11.95,17.17
		c-6.26,5.29-14.71,7.42-22.79,6.91c-10.4-0.26-21.95,1.33-31.13-4.67c-9.5-7.98-11.3-21.45-10.35-33.13
		c9.29-0.2,18.6,0.34,27.88-0.33c0.27,3.96,0.15,8.17,2.14,11.75c3.74,6.96,15.84,6.39,18.77-1.02c0.69-2.42,0.83-5.64-1.57-7.18
		c-5.47-4.22-12.53-5.22-18.95-7.24c-7.81-2.8-15.6-7.63-19.11-15.47c-4.99-11.34-1.64-25.22,6.92-33.92
		C332.61,80.05,337.75,80.39,341.84,78.97z"/>
	<path class="st1" d="M492.19,74.22c9.6-0.01,19.21-0.11,28.81,0.05c-0.29,5.42-0.9,10.81-1.73,16.17
		c-9.98,2.37-19.85,5.19-29.87,7.41C490.29,89.97,490.91,82.05,492.19,74.22z"/>
	<path class="st1" d="M576.82,76.99c7.8-2.4,16.01-3.1,24.14-2.82c9.34-0.37,19.37,2,26.09,8.88c7.47,7.58,10.19,18.53,10.52,28.89
		c0.01,4.84,0.39,9.86-1.18,14.53c-9.85,3.18-20.08,5.25-30.1,7.88c1.3-8.93,3.57-18.39,0.55-27.21c-3.1-8.93-16.31-10.16-22.16-3.4
		c-4.07,4.48-5.84,10.52-6.95,16.34c-1.24,6.99-1.35,14.22-0.16,21.22c-9.42,2.82-19.03,4.91-28.55,7.37
		c-2.06-8.01-1.93-16.39-1.14-24.57c1.28-13.71,6.51-27.21,15.65-37.6C567.43,82.7,571.81,79.2,576.82,76.99z"/>
	<path class="st1" d="M657.74,80.92c9.12-2.25,18.25-4.56,27.46-6.45c8.99-0.98,19.7,0.04,25.9,7.46
		c5.69,7.07,6.16,16.63,5.88,25.32c-9.2,0.17-18.4,0.08-27.6,0.05c-0.43-4.17-0.72-9.47-5.03-11.59
		c-4.12-2.04-11.36-1.03-12.35,4.25c-0.41,1.98,1.52,3.17,3.01,3.96c5.64,2.7,12.01,3.21,17.81,5.48
		c6.95,2.6,14.11,5.99,18.64,12.09c6.79,11.05,5.35,25.77-1.5,36.45c-4.17,6.35-9.58,12.49-17.02,14.92
		c-7.32,2.96-15.29,1.68-22.95,1.96c-7.77-0.01-16.32-0.34-22.85-5.05c-8.96-8.2-10.72-21.19-9.87-32.72
		c9.29-0.26,18.61,0.31,27.9-0.35c0.32,4,0.21,8.29,2.31,11.88c3.69,6.67,15.15,6.21,18.4-0.65c1.57-2.67,0.89-6.38-1.78-8.07
		c-7.26-5.19-16.75-5.11-24.43-9.44c-6.06-3.08-11.5-8.01-13.82-14.54c-3.52-9.7-1.34-21.01,4.92-29.12
		C652.69,84.44,654.54,81.51,657.74,80.92z"/>
	<path class="st1" d="M727.43,74.23c5.54,0.01,11.09-0.28,16.62,0.25c-5.51,2.18-11.4,3.06-17.14,4.38
		C727.06,77.32,727.24,75.77,727.43,74.23z"/>
	<path class="st1" d="M774.3,74.39c8.22-0.44,16.49-0.15,24.73-0.11c-0.46,8.27-1.28,16.54-2.68,24.72c-14.15,0.01-28.29,0-42.44,0
		c-0.33,3.68-0.84,7.33-1.29,10.99c13.15,0.07,26.3-0.11,39.44,0.1c-0.55,7.98-1.47,15.94-2.48,23.88
		c-13.19,0.07-26.38,0.01-39.57,0.03c-0.41,4.91-1.06,9.79-1.6,14.69c14.64-0.05,29.28-0.02,43.92-0.02
		c-0.73,8.73-1.79,17.43-2.93,26.12c-24.29,0.02-48.57,0.03-72.86,0c3-29.73,6.18-59.44,9.78-89.1
		C742.28,81.77,758.22,77.75,774.3,74.39z"/>
	<path class="st1" d="M414.95,100.34c20.14-4.64,40.21-9.6,60.36-14.26c-0.48,5.45-0.97,10.91-2.11,16.27
		c-8.56-0.03-17.11-0.01-25.67-0.01c-2.67,24.16-4.98,48.36-8.03,72.48c-9.6-0.04-19.2,0.03-28.79-0.05
		c2.13-24.18,5.15-48.28,7.8-72.4c-2.72-0.01-5.45,0-8.16-0.29C411.8,101.31,413.33,100.69,414.95,100.34z"/>
	<path class="st1" d="M483.9,103.53c9.98-2.13,19.86-4.71,29.87-6.71c-1.96,16.6-3.83,33.22-5.57,49.86
		c13.17-0.02,26.33-0.03,39.49,0c-0.82,9.39-1.45,18.82-3.11,28.1c-22.84,0.03-45.69,0.07-68.53-0.02
		C478.45,151,481,127.24,483.9,103.53z"/>
	<path class="st1" d="M254.1,114.05c16.41-3.74,32.84-7.43,49.32-10.86c4.45,23.89,9.33,47.7,13.72,71.61
		c-8.32-0.01-16.65,0.05-24.97-0.04c-1.2-5.19-1.31-10.56-2.58-15.73c-8.71-0.01-17.43-0.13-26.15,0.07
		c-1.67,5.31-3.49,10.58-5.72,15.68c-9.95-0.04-19.9,0.22-29.85-0.14C236.33,154.32,245.27,134.21,254.1,114.05 M272.89,134
		c4.42,0,8.84,0,13.26,0c-1.52-8.43-2.65-16.92-3.83-25.39C279.29,117.11,276.09,125.56,272.89,134z"/>
	<path class="st1" d="M607.08,138.33c9.67-2.18,19.26-4.7,28.95-6.77c-2.64,12.07-6.88,24.65-16.43,33.06
		c-8.27,8.14-20.36,10.79-31.64,10.2c-9.69,0.54-19.83-1.31-27.92-6.9c-4.5-4.33-8.06-9.72-10.05-15.67
		c9.74-2.59,19.57-4.87,29.38-7.19c5.55,7.14,17.6,6.19,22.48-1.21C603.51,141.93,604.02,138.47,607.08,138.33z"/>
	<path class="st1" d="M161.18,171.54c8-1.95,16.02-3.78,24.07-5.53c-0.21,2.94-0.45,5.89-0.96,8.8c-7.75,0.01-15.51-0.04-23.26,0.03
		c-2.23,0.04-4.47-0.11-6.63-0.68C156.5,172.92,158.81,172.08,161.18,171.54z"/>
	<path class="st1" d="M630.51,217.79c14.87-3.48,31.06-0.45,43.85,7.85c11.33,7.2,19.52,18.9,22.92,31.84
		c3.96,15.31,1.16,32.16-7.28,45.51c-7.4,12.22-20.16,20.38-33.75,24.09c-28.01,6.79-59.79-12.06-66.59-40.21
		c-2.01-10.92-2.63-22.55,1.21-33.17C596.93,236.1,612.29,221.92,630.51,217.79z"/>
	<path class="st1" d="M402.74,287.76c5.46-4.94,13.28-6.04,20.36-5.32c10.04,1.02,19.55,4.59,29.17,7.41
		c54.44,16.63,109.17,32.32,163.47,49.43c14.07,4.49,22.42,21.76,17.07,35.55c-1.84,5.02-6.01,8.57-9.58,12.34
		c-25.17,26.18-50.82,51.91-77.21,76.86c-1.89,1.87-4.4,2.87-6.44,4.53c-2.57,2.74-0.67,7.05,2.17,8.77
		c2.71,1.95,6.17,1.03,9.23,0.8c37.31-3.93,74.64-7.75,112.07-10.27c13.9-0.62,25.65,11.88,27.01,25.21
		c0.79,5.08-0.84,10.03-2.08,14.89c-12.21,53.01-22.79,106.39-35.97,159.17c-1.08,4.29-1.83,8.82-4.37,12.56
		c-4.15,6.65-11.84,10.56-19.57,10.94c-12.66,0.9-26.65-6.38-30.33-19.09c-1.42-4.73-0.93-9.76,0.17-14.49
		c8.55-43.3,19.42-86.1,28.12-129.37c-22.02,1.43-44.01,3.45-66.07,4.13c-17.11-51.88-57.72-95.06-107.82-116.5
		c14.26-18.8,32.26-34.33,46.9-52.81c-23.13-7.48-46.76-13.41-69.58-21.86c-17.27,14.65-31.62,32.36-48.87,47.03
		c-4.48,4.02-10.83,4.92-16.62,5.12c-8.97,0.24-18.07-4.16-22.88-11.84c-6.62-10.62-5.44-25.61,2.92-34.96
		C363.77,326.77,382.87,306.87,402.74,287.76z"/>
	<path class="st1" d="M365.53,440.7c37.55-4.28,76.75,5.94,106.94,28.82c11.97,9.26,23.15,19.75,31.85,32.21
		c32.63,46.06,35.88,110.85,8.62,160.19c-6.33,11.53-14.48,22-23.82,31.24c-24.74,26.4-60.22,41.48-96.09,43.78
		c-37.81,2.6-77.12-8.9-105.71-34.23c-9.42-7.9-18.03-16.79-25.16-26.82C238,642.31,228.59,598.5,237,557.98
		c6.45-30.34,22.74-58.5,45.73-79.32C305.52,457.86,334.79,444.05,365.53,440.7 M365.53,478.79c-19.87,2.29-38.81,10.82-53.96,23.82
		c-30.1,25.6-46.26,67.52-38.65,106.6c3.35,15.44,9.08,30.6,18.32,43.52c21.04,29.8,57.26,48.12,93.72,47.57
		c13.99-0.31,27.97-3.14,40.91-8.49c32.2-13.43,57.43-42.65,65.56-76.63c9.49-35.42-1.57-74.7-25.93-101.69
		c-9.9-11.15-22.33-19.85-35.72-26.3C409.85,477.91,387.15,475.79,365.53,478.79z"/>
</g>
</svg>
