<?xml version="1.0" encoding="utf-8"?>
<!-- Generator: Adobe Illustrator 21.0.0, SVG Export Plug-In . SVG Version: 6.00 Build 0)  -->
<svg version="1.1" id="Layer_1" xmlns="http://www.w3.org/2000/svg" xmlns:xlink="http://www.w3.org/1999/xlink" x="0px" y="0px"
	 viewBox="0 0 1269.09 1269.09" style="enable-background:new 0 0 1269.09 1269.09;" xml:space="preserve">
<style type="text/css">
	.st0{fill:#191A1B;}
	.st1{fill:#B80707;}
</style>
<path class="st0" d="M1172.285,221.045h0.47c3.49,1.81,7.53,0.71,11.29,0.83c6.29,0.13,12.64-0.14,18.89,0.83
	c3.65,0.45,5.88,3.67,8.76,5.58c2.74,0.73,5.69,0.64,8.35,1.77c3.23,1.32,6.36,3.35,10.01,3.09c2.06,0.28,4.54-0.54,6.37,0.59
	c3.55,5.08,3.77,11.73,7.18,16.9c2.34,3.57,7.08,3.96,10.07,6.74c2.32,6.48,1.41,13.77,3.79,20.28c1.07,2.32,3.08,4.01,4.44,6.16
	c-0.48,0.94-1.02,1.84-1.53,2.75c3.81,2.41,1.78,6.88,1.6,10.48c-0.64,5.52,3.71,9.72,5.21,14.71c1.71,4.68-0.8,9.5-0.22,14.26
	c0.42,4.38,1.2,8.71,2.08,13.01v3.69c-0.95,4.79-3.27,9.33-3.15,14.29c0.33,11.22-2.5,22.17-4.29,33.16
	c-2.43,9.12-2.96,19.04-8.31,27.1c-2.91,4.49-2.45,10.07-4.09,14.98c-1.25,3.71-4.18,6.53-5.59,10.15
	c-1.98,5.6-1.54,11.81-3.99,17.27c-1.52,3.42-5.26,5.46-6.08,9.24c-0.95,3.78-1.82,7.63-3.68,11.09
	c-2.95,6.13-8.03,11.01-10.45,17.42c-4.28,10.92-15.46,16.67-21.44,26.44c-2.83,4.74-6.67,8.74-9.9,13.19
	c-1.83,2.46-2.53,5.5-3.95,8.17c-1.91,2.06-4.63,3.35-6.09,5.83c-1.74,3.02-2.74,6.42-4.62,9.37c-2.38,3.89-5.86,6.89-9.07,10.05
	c-3.84,3.65-5.7,8.81-9.3,12.66c-2.53,2.93-5.89,4.94-9.32,6.63c-6.74,2.9-7.58,11.66-13.75,15.26c-2.92,1.66-6.31,2.87-8.1,5.92
	c-4.8,7.11-11.65,12.36-18.12,17.83c-6.74,5.63-13.55,11.15-20.42,16.61c-6.17,4.99-13.89,7.29-21.11,10.26
	c2.17-4.9,4.88-9.59,8.57-13.53c-0.67-0.04-2-0.13-2.66-0.17c-2.14,2.65-4.29,5.35-7.05,7.38c-6.7,5.35-15.71,7.22-21.56,13.68
	c-1.66,0.3-3.34,0.43-4.92,0.97c-1.13,0.97-1.95,2.26-3.05,3.25c-2.08,0.84-4.31,1.17-6.45,1.73c-7.78,1.72-15.06,5.35-23.05,6.15
	c-5.54,0.52-10.47,3.34-15.86,4.43c-7.9,1.68-16.01,2.05-23.91,3.7c-8.35,1.76-16.93,1.17-25.37,2.09
	c-5.68,0.64-11.27-0.83-16.74-2.14c-2.54-2.04-5.27-3.81-8.09-5.4c0.41-0.44,1.24-1.31,1.65-1.74c-2.4-1.14-4.92-1.94-7.52-2.39
	c-3.81-3.49-7.47-7.22-10.29-11.57c-0.99-1.18-0.75-2.75-0.79-4.16c2.87,0.21,7.04,0,7.09-3.85c-1.53-3.41-4.82-6.03-5.24-9.91
	c1.12-1.6,2.61-2.89,3.75-4.46c0.37-1.7-0.51-3.41-0.76-5.06c6.47,7.48,16.93,7.45,25.48,10.93c2.75,1.25,5.8,0.81,8.73,0.71
	c2.33-5.41,5.41-10.51,6.91-16.25c0.77-3.15,2.58-5.87,4.72-8.27c4.42-5.05,6.25-11.66,9.78-17.28c2.87-4.58,5.61-9.3,7.09-14.54
	c1.99-7.33,7.89-12.59,10.76-19.49c3.86-8.89,5.76-19.05,12.85-26.15c5.58-5.6,4.09-14.71,9.71-20.26
	c3.57-3.74,6.21-8.25,7.82-13.16c2.48-7.51,5.93-14.63,8.9-21.95c-0.61-2.83-1.87-5.89-0.51-8.71c2.6-5.85,8.93-9.59,10.12-16.14
	c-0.89-0.95-1.86-1.78-2.81-2.62c1.01-1.71,2.58-3.28,2.79-5.34c-0.78-1.81-1.89-3.46-2.68-5.27c1.68-2.9,4.42-5.12,5.71-8.27
	c0.99-2.79,1.25-5.76,1.89-8.64c1.13-5.97,4.69-11.04,7.13-16.51c0.11-4.31,1.1-8.54,2.52-12.59c1.34-4.21,5.84-6.96,5.69-11.7
	c0.26-7.02,2.08-13.92,5.51-20.07c2.64-4.48,2.45-9.86,4.05-14.7c2.32-7.17,5.71-13.94,8.01-21.12c1.02-3.04,0.64-6.28,0.34-9.41
	c0.63-1.28,1.24-2.57,1.86-3.87c-3.63,2.86-5.98,7.02-9.86,9.6c-3.44,2.23-3.58,6.81-6.26,9.67c-2.3,2.69-5.79,3.8-9.11,4.58
	c-6.09,1.11-10.5,5.75-15.73,8.67c-4.89,2.69-6.86,8.52-11.72,11.23c-4.41,2.52-9.33,3.9-14.1,5.51c1.59-7.17,6.03-13.19,11.12-18.3
	c-1.35-2.05-1.43-4.33-0.32-6.51c-0.22-6.77,2.47-13.07,6.39-18.45c3.58-4.75,4.88-10.88,9.05-15.21c2.29-2.53,4.45-5.16,6.62-7.8
	c-0.27-0.8-0.81-2.41-1.08-3.21c3.98-5.75,10.19-9.48,13.95-15.41c2.54-3.12,4.27-7.49,8.49-8.67c4.87-1.65,7.85-6.07,11.8-9.08
	c4.2-3.46,9.14-5.83,14.14-7.9c2.96-1.09,4.88-3.69,7.31-5.56c2.53-1.29,5.45-1.71,7.93-3.16c4.33-2.56,7.39-6.78,11.72-9.35
	c3.56-2.14,7.95-2.26,11.51-4.43c3.26-2,5.88-4.88,9.21-6.79c5.08-3.02,11-3.92,16.57-5.64c1.84-0.46,2.97-2.11,4.3-3.35
	c3.96-0.15,7.91-0.62,11.82-1.3C1162.805,222.185,1167.795,223.145,1172.285,221.045 M1177.315,267.915
	c-3.97-1.2-8.17-0.46-12.17,0.08c-3.2,1.35-6.04,3.94-9.75,3.34c-5.3,2.58-10.09,7.11-16.31,6.99c-6.27-0.18-11.89,2.86-17.56,5.07
	c2.52,2.17,5.72,3.81,7.49,6.72c0.56,2.78-0.32,5.61-0.5,8.4c-2.86,2.29-2.56,6.29-4.59,9.12c-1.52,1.79,0.32,3.88,0.84,5.7
	c-0.63,0.44-1.9,1.32-2.54,1.76c0.78,1.13,1.59,2.26,2.41,3.39c-3.5,7.47-4.69,15.77-7.89,23.35c-1.25,3.12-3.69,5.49-5.47,8.28
	c-0.46,2.4,2.13,4.69,1.05,7.07c-0.94,0.86-1.96,1.59-2.95,2.34c0.6,5.8-3.72,10.23-4.86,15.61c-0.9,3.4,2.13,8.18-2.31,9.78
	c1.01,4.8,1.11,9.82-0.59,14.48c-2.07,5.64-0.92,12.03-3.8,17.4c-1.42,2.79-4.08,4.58-6.5,6.41c0.2,6.41-4.62,11.5-4.55,17.89
	c0.14,5.03-4.92,7.57-6.98,11.64c-3.14,4.62-2.89,10.56-5.74,15.3c-3.72,6.43-7.15,13.06-9.77,20.02c-1.36,3.49-2,7.39-4.55,10.29
	c0.44,1,0.93,2.01,1.42,3.01c-1.68,0.47-3.79,0.38-4.88,1.96c-2.72,3.42-2.08,8.15-3.93,11.95c-0.94,1.72-2.82,2.57-4.32,3.71
	c-0.56,2.04-0.92,4.16-1.86,6.07c-1.42,2.25-3.69,3.77-5.19,5.95c-1.44,3.11-1.1,6.86-3.12,9.75c-1.61,2.65-4.58,4.84-4.09,8.3
	c0.07,5.99-3.03,11.28-5.02,16.75c-2.67,6.25-4.49,12.8-6.84,19.16c-7.32,18.13-16,35.66-24.49,53.26
	c11.82-3.18,23.75-6.48,34.67-12.16c3.9-1.69,5.23-6.1,8.08-8.96c6.07-6.59,13.09-12.25,20.14-17.75c4.1-3.36,9.24-5.35,12.92-9.23
	c2.73-2.79,1.13-7.96,4.88-9.96c6.81-3.6,12.42-8.92,18.18-13.95c3.98-3.09,2.62-10.12,8.25-11.59c0.43-1.94,0.31-4.7,2.67-5.37
	c3.8-1.62,8.2-2.75,10.61-6.42c4.1-6.1,7.8-12.67,13.55-17.42c4-3.26,3.32-8.74,4.55-13.23c1.52-3.06,4.85-4.61,7.12-7.07
	c4.93-5.27,11.07-10.69,10.97-18.55c3.58-0.81,3.96-4.36,5.24-7.14c5.67-4.11,8.05-10.84,11.55-16.63
	c1.96-3.67,4.46-7.05,6.16-10.86c1.69-3.64-1.35-8.19,1.63-11.4c3.5-4.42,6.08-9.44,8.6-14.45c1.92-3.94,4.78-7.41,6.13-11.62
	c0.9-2.82,0.39-5.81,0.03-8.67c3.71-2.08,2.73-6.2,2.64-9.72c0-3.65,3.49-5.37,6.05-7.19c3.81-2.32,3.54-7.42,3.42-11.32
	c-1.53-0.52-3.29-0.51-4.56-1.55c-0.71-1.54-0.31-3.28-0.26-4.9c0.71-7.74,0.67-15.54,1.93-23.23c0.88-4.66-1.22-8.98-3.13-13.07
	c-0.98-1.68,0.61-3.12,1.33-4.52c-2-2.89-3.99-6.56-2.49-10.13c1.26-1.7,3.05-2.94,4.31-4.67c1.02-2.47,0.42-5.3,1.16-7.85
	c0.77-2.09,2.2-4.14,1.55-6.47c-0.58-2.78-0.38-5.59,0.33-8.32c0.77-2.63-0.84-5.08-1.59-7.51c-2.08-1.35-4.27-2.54-6.2-4.08
	c-1.2-1.7-1.22-3.93-2.15-5.77c-5.94-2.63-10.72-7.15-16.52-10.02C1178.525,266.275,1177.915,267.095,1177.315,267.915z"/>
<path class="st0" d="M991.225,239.185c0.88-1.78,3.52-1.28,4.68-0.02c2.23,2.23,3.42,5.23,5.11,7.86c0.85,2,3.33,1.81,5.09,2.45
	c0.96,2.55,2.28,5.33,1.23,8.08c-1.72,5.3-1.74,10.99-3.55,16.27c-3.23,9.72-5.79,19.66-9.62,29.17c-2.45,5.66-2.56,12.53-7.3,16.99
	c-4.55,6.04-13.11,7.33-16.94,14.06c-1.64,2.84-5.08,3.3-7.81,4.57c-2.06,0.8-3.82,2.31-6.01,2.73c-2.23-1.54-3.8-5.18-7.03-4.13
	c-4.87,1.07-10.13,2.1-13.69,5.9c-0.99-3.59-3.79-5.85-6.91-7.58c-0.06-0.35-0.19-1.05-0.25-1.4c1.37-3.5,3.72-6.55,4.91-10.14
	c1.38-3.47,1.53-7.23,1.61-10.91c1.82-2.5,3.78-4.99,4.78-7.96c1.34-3.89,0.18-8.19,1.74-12.03c2.6-7.29,5.54-14.44,8.22-21.7
	c1.44-3.71,1.99-7.98,4.82-10.98c1.05-1.23,2.19-2.38,3.33-3.54c1.38,0.32,2.74,1.68,4.24,1.11c1.71-2.45,2.69-5.33,4.13-7.95
	c1.38,1.08,2.78,2.16,4.18,3.23c2.63,0.02,5.69,0.73,7.92-1.13c2.37-2.04,2.92-5.38,4.91-7.73c2.26-0.06,3.48,2.22,4.97,3.57
	C988.935,245.005,989.765,241.965,991.225,239.185z"/>
<path class="st0" d="M880.195,248.255c2.91-3.18,6.98-4.81,10.63-6.96c0.24,2.34,0.05,5.16,2.27,6.64c3.35,2.65,7.42,5.4,7.95,10.04
	c1.17,5.14-5.07,8.28-3.67,13.47c-1.51,0.82-3.03,1.64-4.52,2.47c1.16,1.11,2.31,2.23,3.46,3.36c-0.64,0.83-1.26,1.67-1.88,2.51
	c1.19,2.18,2.55,4.69,1.48,7.21c-1.77,4.52-5.84,7.76-7.24,12.47c-2.72,8.65-4.17,18.02-9.82,25.4c-2.29,9.18-6.82,17.74-8.53,27.13
	c-0.84,5.11-5.69,8.19-6.88,13.14c-0.99,3.49-1.18,7.13-1.9,10.68c-1.58,8.2-4.66,16-7.98,23.62c-3.29,7.43-4.93,15.41-7.04,23.22
	c-1.97,7.49-5.15,14.58-7.98,21.78c-2.14,4.72-3.84,9.87-7.61,13.6c-0.23-4.38-0.07-8.86-1.51-13.07
	c-2.13,6.01-3.34,12.38-6.42,18.04c-3.57,6.6-5.72,13.82-8.18,20.87c-3.35,9.71-4.58,20.25-9.92,29.19
	c-2.18,3.28-2.1,7.32-2.75,11.05c-1.81,11.05-5.89,21.53-9.69,32c-6.26,17.39-8.47,36.11-16.59,52.84
	c-2.7,5.49-5.1,11.14-8.28,16.38c-0.37-3.37-0.12-6.75-0.05-10.11c-4.6,4.86-5.13,11.8-7.49,17.77
	c-2.68,7.94-7.89,14.74-10.23,22.81c-3.2,9.12-3.16,19.66-9.61,27.39c-2.33,0.49-4.92,0.74-6.75,2.43
	c-3.14,2.72-4.05,7.04-6.64,10.16c-3.52,0.8-7.3,0.46-10.61,2.09c-3.32,1.37-5.74,4.11-8.02,6.78c-2.88-0.25-6.09-0.91-8.62,0.91
	c-5.63,3.88-7.97,10.73-12.5,15.63c-1.46-0.61-3.71-1.24-3.42-3.24c-0.02-3.6-0.86-7.13-3.02-10.05c1.28-3.96,2.82-7.82,4.74-11.51
	c4.62-9.13,5.74-19.45,9.13-29.01c3.76-10.67,9.02-20.76,12.43-31.56c6.29-19.8,12.76-39.57,17.59-59.79
	c4.04-16.33,7.65-32.78,12.37-48.93c1.57-5.75,4.35-11.05,6.24-16.68c0.62,0.16,1.84,0.49,2.45,0.66
	c4.31-15.57,6.01-31.78,11.43-47.05c1.74-5.42,3.97-10.7,5.28-16.26c-2.42,2.84-5.15,5.37-8.23,7.47c-2.4,1.64-3.15,4.65-5.11,6.67
	c-2.23,1.8-4.89,3.09-6.72,5.34c-2.56,3.1-4.59,6.63-7.43,9.5c-3.94,3.92-6.1,9.17-9.75,13.32c0,0.57,0,1.7,0,2.27
	c-1.37,0.59-2.76,1.13-4.17,1.57c-1.24,0.01-2.45,0.16-3.63,0.45c-1.52,1.66-1.23,4.28-2.58,6.05c-1.29,0.29-2.58,0.52-3.88,0.69
	c-1.99,3.68-3.32,7.68-5.41,11.31c-1.7,3.01-4.97,4.48-7.67,6.41c-5.27,3.58-9.12,8.75-13.01,13.71c-1.13,1.67-2.96,2.53-4.74,3.3
	c-1.56,4.99-7.54,5.95-9.72,10.45c-3.97,7.3-9.13,13.89-14.77,19.98c2.88,2.18,0.26,5.11-1.95,6.46c-4.46,3.07-7.04,8.16-7.78,13.45
	c-2.39,14.44-4.83,28.92-8.88,43.01c-0.86,3.99-3.44,7.18-6.49,9.76c-0.18,10.97-1.08,22.24-5.48,32.43
	c-4.4-6.32-5.09-14.22-8.21-21.11c-1.73,3.41-3.34,6.88-4.9,10.38c-6.55-3.76-7.98-11.81-8.19-18.72
	c-0.46-3.46,1.34-6.63,1.58-10.02c-0.76-1.69-2.27-3.04-2.61-4.9c0.42-4.64,2.91-9.1,1.93-13.85c-1.17-5.28-1.74-10.87,0-16.1
	c1.65-4.85,1.51-10.14,3.63-14.85c2.06-3.91-2.77-7.23-1.58-11.23c1.9-9.93,4.1-19.83,5.27-29.88c0.6-3.84-1.15-7.39-2.07-11.01
	c0.83-1.35,1.86-2.55,2.85-3.78c-1.26-2.85-2.8-6.04-1.65-9.19c1.21-1.82,3.02-3.15,4.21-4.98c0.92-2.23,1.06-4.69,1.5-7.03
	c-3.54,4.33-7.84,8.13-10.47,13.14c-2.12,3.95-3.61,8.21-5.87,12.09c-1.91,3.4-5.14,5.91-6.62,9.58c1.08,0.94,2.17,1.89,3.26,2.84
	c-1.39,1.53-2.75,3.08-4.16,4.6c-1.7,0.63-4.33,0.43-4.96,2.54c-1.03,3.48-1.6,7.22-3.92,10.16c-4.35,5.86-7.46,12.49-10.64,19.03
	c2.52,1.08,4.93,2.47,6.94,4.37c-0.99,0.12-2.95,0.34-3.93,0.46c0.19,0.67,0.57,2.01,0.76,2.68c-2.02,0.4-4.39,0.06-6.08,1.41
	c-0.79,2.13-0.79,4.47-1.4,6.66c-1.47,1.12-3.28,1.65-4.92,2.42c0.37,0.54,1.12,1.61,1.49,2.15c-1.62,4.39-2.82,8.93-3.12,13.62
	c-7.82,6.11-11.45,15.59-16.13,24c-1.89,3.55-5.41,6.17-6.17,10.3c-4.66,15.73-9.52,31.5-17.03,46.16
	c-0.37-3.41-0.52-6.84-0.75-10.25c-9.57,14.91-13.19,33.68-26.71,45.94c-0.18-1.71-0.32-3.39-0.49-5.08
	c-1.02,1.25-2.04,2.5-3.05,3.75c-1.49-1.88-2.68-4.22-4.95-5.26c-3.62-1.49-8.63-1.06-10.81,2.59c-4.4,6.36-9.36,12.31-14.54,18.04
	c1.51-6.69,2.26-13.76,5.91-19.74c4.99-8.42,6.3-18.27,9.71-27.32c3.81-10.77,8.58-21.17,12.45-31.92c1.8-4.66,1.71-9.93,4.38-14.24
	c4.42-7.46,8.14-15.29,11.71-23.18c1.4-3.48,4.55-5.91,5.81-9.46c1.21-3.09,0.94-6.54,2.19-9.61c0.99-1.62,2.6-2.72,3.99-3.96
	c0.08-4.06,1.87-7.76,2.99-11.58c2.43-8.27,7.82-15.15,11.74-22.71c2.32-4.57,4.88-9,7.63-13.32c2.39-3.54,2.14-8,3.57-11.9
	c2.98-9.27,7.74-17.82,11.53-26.76c-0.95-0.77-1.9-1.53-2.84-2.29c1.52-1.75,3.3-3.33,4.41-5.39c0.38-2.55-1.03-5.08-0.48-7.61
	c1.01-2.66,3.12-4.68,4.65-7.03c4.51-6.48,5.73-14.6,10.11-21.14c2.75-3.77,1.76-8.9,4.28-12.81c1.75-4.23,6.33-7.18,6.32-12.06
	c0-2.26,2.06-3.67,3.17-5.43c4.53-6.01,6.11-13.51,8.62-20.44c3.23-8.86,7.32-17.37,10.9-26.08c4.35-10.06,6.83-20.93,12.57-30.36
	c3.05-5.68,8.62-10.05,9.56-16.74c1.32-8.02,5.85-14.95,10.47-21.43c1.14-1.74,1.59,2.2,2.43,2.68c1.34-4.07,4.57-7.14,5.79-11.26
	c4.88-0.21,9.36-2.32,14.11-3.18c5.02-0.5,7.7,4.42,11.31,6.95c2.19,1.44,3.85,3.47,4.98,5.84c0.68,0.26,2.04,0.79,2.72,1.05
	c-0.49,1.51-0.99,3.01-1.45,4.53c0.98,1.23,2.29,2.31,2.79,3.87c-0.62,3.1-2.97,5.67-2.96,8.92c-0.08,4.36-0.2,8.78-1.55,12.98
	c-1.98,6.25-0.59,12.84-1.16,19.24c-0.19,3.1-2.81,5.8-1.93,8.97c1.21,4.42,0.73,8.99-0.04,13.43c-1.75,12.94,1.17,27-5.3,38.97
	c-1.15-1.24-2.27-2.48-3.4-3.72c0.19,2,1.06,4.05,0.56,6.06c-0.83,1.14-1.77,2.19-2.68,3.25c1.62,3.88,2.89,7.89,4.1,11.92
	c0.96,3.31,2.81,6.45,2.76,9.99c0.11,4.13-1.01,8.17-1.14,12.28c1.73,1.07,2.78-0.97,3.91-1.85c2.49-2.8,5.51-5.03,8.21-7.62
	c3.44-3.57,6.53-7.5,9.08-11.76c1.75-3.03,5.3-4.15,7.77-6.44c2.69-2.19,3.87-5.53,5.29-8.57c1.15-2.72,3.69-4.39,5.78-6.33
	c8.36-7.37,14.3-16.98,22.27-24.72c2.65-2.67,5.6-5.11,7.56-8.36c1.21-2.06,2.89-3.77,4.81-5.17c0-1.82-0.86-4.01,0.49-5.56
	c2.56-2.53,6.15-3.8,8.47-6.62c4.32-4.57,6.74-11.33,13.17-13.49c0.94-2.61,2.39-4.99,4.36-6.97c3.06-3.12,4.58-7.32,7.24-10.74
	c2.62-3.43,7.54-4.47,9.39-8.6c2.45-4.72,5.2-9.31,8.77-13.28c3.14-3.85,7.34-6.78,9.96-11.07c4.92-7.89,11.53-14.5,17.44-21.63
	c3.56-4.41,8.4-7.53,12.12-11.78c2.9-3.46,7.19-5.52,9.58-9.44c1.77-3.38,6.13-3.78,8.25-6.83c6.02-7.85,12.77-15.46,21.47-20.4
	C875.805,252.625,878.095,250.515,880.195,248.255z"/>
<path class="st1" d="M514.775,358.715c1.11-2.09,2.67-4.48,5.29-4.67c2.74-0.09,5.69,2.04,5.82,4.93c0.62,4.51,0.09,9.06-0.26,13.57
	c1.24-1.16,2.95-1.95,3.77-3.51c0.16-2.48-0.34-4.95-0.14-7.43c3.92-1.03,7.82-2.25,11.82-2.94c3,3.18,5.54,6.87,7.63,10.71
	c2.04,3.48-1.03,6.86-1.56,10.29c2.43,1.66,7.25,1.53,7.24,5.34c-0.34,4.77-1.68,9.4-2.44,14.11c-0.82,5.29-3.7,9.88-6.37,14.4
	c-4.15,6.73-6.32,14.38-9.52,21.56c-4.35,10.09-9.28,19.92-14.11,29.79c-14.46,29.99-28.03,60.5-45.05,89.16
	c-8.64,15.79-17.18,31.72-23.56,48.59c-1.5,4.04-2.35,8.55-5.59,11.66c-2.44,8.04-4.57,16.28-8.86,23.59
	c-5,8.37-4.88,18.49-8.72,27.3c-3.86,9.12-6.85,18.58-10.2,27.89c-1.76,4.72-1.29,9.99-3.39,14.61c-1.86,4.1-3.56,8.27-5.47,12.36
	c-2.56,5.32-2.63,11.43-5.2,16.75c-3.72,7.96-5.41,16.65-8.65,24.79c2.03,0.41,4.14,0.74,6.15,0c3.7-1.15,7.59-0.65,11.39-0.86
	c0.93-2.39,1.93-4.75,3.05-7.06c1.3,1.28,2.6,2.57,3.92,3.84c0.84-0.49,1.68-0.96,2.53-1.43c4.32,1.22,8.15-1.14,11.68-3.3
	c6.51,2.31,13.43,1.58,20.14,0.84c2.89-0.63,4.53,2.01,6.17,3.86c2.12-1.12,4.52-2.92,6.52-0.52c2.13-0.98,4.4-1.58,6.71-1.98
	c0.32-1.37,0.63-2.75,0.95-4.11c3.39,1.71,7.11,1.69,10.71,0.65c1.69,1.12,3.29,2.42,5.17,3.24c2.76,0.84,6.36-0.34,7.93,2.81
	c0.74,0.1,1.49,0.21,2.24,0.33c0.18-0.57,0.54-1.71,0.72-2.28c6.27,1.07,12.61,0.09,18.92,0.29c1.53,0.3,2.24-1.41,3.33-2.11
	c7.64,0.87,15-1.81,22.59-1.89c6.79-0.27,13.24-2.73,20.01-3.18c5.68-0.3,11.23-1.7,16.9-2.17c2.01-0.12,3.42-1.73,4.95-2.85
	c11.94-1.5,23.94-2.41,35.93-3.37c8.87-0.64,17.38-3.45,26.21-4.33c3.01-0.36,5.97-1.04,8.92-1.75c11.96-3.04,24.53-1.13,36.53-3.98
	c6.08-1.5,12.36-0.71,18.54-1.01c3.15-0.06,5.98-1.6,8.99-2.34c3.5,0.19,7.02,0.7,10.52,0.03c11.12-1.78,22.28-3.43,33.55-3.96
	c8.75-0.2,17.16-3.65,25.98-2.92c7.08,0.53,14.14-0.66,21.01-2.3c5.14-1.3,10.57-0.38,15.66-1.94c4.31-1.25,8.75-2.03,13.23-2.29
	c10.35-0.64,20.69-1.6,31.07-1.96c7.66-0.26,15.23-1.69,22.88-2.19c2.88-0.09,5.48-1.39,8.01-2.64c6.66,1.46,13.53,1.45,20.27,0.48
	c6.71-1.03,13.62,0.2,20.25-1.54c4.43-1.17,9.06-0.42,13.56-1.18c6.64-0.52,13.36-0.76,20,0.02c5.98,0.59,11.97-0.53,17.96-0.06
	c7.02,0.7,14.08-0.39,21.09,0.54c8.36,0.42,16.88,1.02,25.14-0.77c4.17-0.85,8.48-1.27,12.71-0.58c8.02,1.08,16.14,0.59,24.2,0.17
	c5.62-0.36,11.2,1.39,16.83,0.55c3-0.33,6.11-1.5,9.08-0.27c7.1,2.41,14.62,1.13,21.95,1.22c5.72,0.07,11.95-1.11,16.96,2.42
	c1.94-0.53,3.9-1.18,5.96-1.01c6.12,0.43,12.37-0.46,18.38,1.17c5.11,1.36,10.42,0.36,15.62,0.69c9.08,0.5,18.06,2.09,27.14,2.57
	c2.4,0.15,4.87,0,7.24,0.6c1.26,1.13,1.72,3.61-0.14,4.42c-5.1,3.31-11.52,2.13-17.23,3.23c-14.22,2.14-28.53,3.46-42.86,4.54
	c-9.5,1.12-19.14,0.56-28.57,2.3c-9.62,1.22-19.36,1.14-28.96,2.58c-14.42,2.21-28.92,3.84-43.44,5.1
	c-11.74,0.79-23.31,3.24-35.07,3.58c-6.39,0.06-12.61,1.83-18.99,2.04c-6.74,0.23-13.43,1.17-20.09,2.12
	c-9.61,1.48-19.39,1.11-28.96,2.87c-10.32,1.03-20.55,3.18-30.96,3.17c-7.83-0.02-15.19,3.04-22.93,3.75
	c-13.08,1.28-25.92,4.47-39.07,5.07c-3.22,0.08-6.33,0.94-9.4,1.8c-4.42,1.22-9.03,1.38-13.57,1.65c-17.85,0.9-35.1,6.67-52.99,7.04
	c-4.07,0.21-8.11,0.72-12.15,1.22c-5.95,0.78-12,0.64-17.91,1.75c-7.3,1.3-14.6,3.36-22.09,2.78c-6.51-0.63-12.5,2.56-18.89,3.03
	c-9.33,0.44-18.52,2.21-27.82,2.94c-13.48,2.06-26.88,4.59-40.25,7.23c-6.95,1.06-14.07,0.51-20.97,2.03
	c-12.85,2.59-26.02,2.99-38.85,5.65c-5.32,1.02-10.66,1.87-16.04,2.48c-10.4,1.25-20.58,3.91-31.02,4.91
	c-5.67,0.59-11.41,0.23-17.07,1.02c-8.34,0.96-16.45,3.61-24.88,3.78c-12.63,0.58-25.83-2.41-37.96,2.4
	c-8.41,3.7-17.75,3.39-26.63,5.08c-18.04,3.18-36.32,4.56-54.57,5.8c-4.7,0.37-9.67-0.04-13.96,2.31c1.31,0.97,2.61,1.95,3.92,2.94
	c-2.08,2.01-4.76,3.13-7.16,4.67c0.09,1.68,0.42,3.35,0.69,5.03c-3.59,4.11-3.78,9.61-5.01,14.63c-2.62,3.86-6.75,6.62-8.63,11.05
	c-2.89,6.47-5.62,13.02-8.8,19.37c-1.75,3.1-5.26,4.43-8.35,5.8c0,0.58-0.01,1.73-0.02,2.31c-1.52,1.37-4.38,2.17-3.98,4.7
	c0.33,3.83-1,7.42-3.43,10.35c1.57,0.57,3.15,1.13,4.67,1.86c-1.26,2.27-3.02,4.22-4.39,6.43c-1.52,2.41-1.76,5.35-3.01,7.89
	c-2.36,2.88-5.81,4.56-8.78,6.71c-1.58,1.91-2.44,4.36-4.23,6.12c-4.68,4.79-8.78,10.1-12.88,15.39c1.87,1.58,3.77,3.12,5.73,4.6
	c-1.95,1.02-4.03,1.83-5.82,3.14c-0.45,1.28-0.7,2.62-1.01,3.95c-1.28,1.15-3.08,1.98-3.71,3.68c-0.56,2.71-0.35,5.5-0.38,8.25
	c-6.43,4.49-8.01,12.57-12.29,18.71c-0.61,5.47-6.33,7.28-10.87,8.41c0.42,0.57,0.84,1.15,1.27,1.75c-2.17,1.39-4.24,2.93-6.22,4.59
	c0.96,0.18,2.89,0.54,3.85,0.72c-1,2.2-2.03,4.38-2.97,6.62c1.46,0.49,2.93,0.99,4.4,1.49c-1.31,1.04-2.66,2.05-3.82,3.28
	c-1.89,1.99-1.77,5.15-3.54,7.17c-2.7,1.69-5.37,3.41-7.88,5.37c-0.44,1.48-0.55,3.14-1.42,4.47c-2.41,1.99-5.45,3.21-7.43,5.73
	c-3.23,3.98-8.37,5.3-12.94,7.08c-0.62,0.77-1.23,1.56-1.84,2.36h-0.47c-0.17-2.79,0.11-5.55,0.62-8.28
	c-0.63-0.55-1.26-1.09-1.89-1.61c1.98-4.4,3.37-9.29,7.15-12.56c-0.61-6.25,2.7-11.66,5.55-16.91c-0.63-0.2-1.89-0.61-2.52-0.81
	c0.14-1.61,0.31-3.2,0.5-4.78c-5.23,1.37-8.61,6.19-13.88,7.43c1.32-4.61,3.5-9.12,2.89-14.05c2.39-3,3.22-6.78,4.61-10.26
	c1.03-2.66,3.4-4.39,5.49-6.16c0.64-8.55,6.39-15.24,9.55-22.89c-0.9,0.14-2.69,0.4-3.59,0.53c3.04-7.01,5.47-14.3,8.98-21.1
	c2.2-4.29,5.37-7.97,7.69-12.18c3.86-6.8,4.66-15.13,9.96-21.14c3.31-3.6,6.15-7.72,7.07-12.61c-3.64,3.22-6.65,7.07-9.99,10.59
	c-1.2-7.41,5.01-13.87,2.47-21.32c1.3-2.36,2.8-4.6,4.02-7.01c1.29-2.47,1.21-5.35,2.04-7.96c1.79-3.39,4.99-5.83,6.65-9.31
	c1.2-2.34,0.79-5.03,0.78-7.54c3.28-6.23,4.29-13.46,8.59-19.17c-0.06-0.8-0.18-2.39-0.24-3.19c-5.25-0.17-10.46,0.7-15.71,0.49
	c-8.69-0.24-17.32,1.5-26.01,0.84c-7.16-0.5-14.39-1.64-21.54-0.45c-14.18,2.42-28.28,5.26-42.37,8.17
	c-6.61,1.37-13.38,1.65-20.04,2.7c-4.33,0.61-7.98,3.23-12.12,4.43c-3.29,1.01-6.73,0.18-10.03-0.28c-1.95,1.87-3.97,3.97-6.8,4.38
	c-12.02,2.75-23.79,6.56-35.99,8.53c-7.95,1.21-13.74,7.24-20.51,11.01c-5.34,3.6-11.92,4.24-17.64,7.02
	c1.91-4.02,3.79-8.06,5.59-12.12c-3.19,0.61-6.32,1.62-9.57,1.86c-2.42-0.07-4.55-1.47-6.93-1.77c-10.78-0.88-21.65,0.64-31.96,3.81
	c-2.99,0.81-5.93,2.1-9.06,2.21c-6.14-1.86-11.17-7.4-12.03-13.84v-1.99c2.72-3.14,5.34-6.48,8.66-9c2.74-0.92,5.6-1.5,8.22-2.74
	c2.58-1.35,5.68,0.49,8.22-0.96c2.35-1.09,4.55-3.17,7.35-2.5c2.06,0.47,3.9-0.51,5.64-1.47c4.36-0.12,7.91-2.72,11.5-4.86
	c-0.16-4.4-0.46-9.38,2.61-12.96c1.11-1.73,3.32-1.7,5.11-2.07c6.86-4.13,14.17-7.43,21.7-10.12c4.28-1.31,6.91-5.1,9.56-8.42
	c0.04-1.84-0.64-3.91,0.53-5.53c3.34-5.27,7.07-10.28,10.58-15.44c1.79-2.85,4.73-4.6,7.08-6.89c1.55-2.87,2.73-6.01,5.36-8.12
	c1.58-4.72,4.43-8.88,5.97-13.61c1.33-3.98,3.63-7.52,6.12-10.85c4.61-6.22,8.21-13.1,12.46-19.56c3.04-4.71,7.39-8.82,8.33-14.59
	c0.06-3.97,5.65-3.26,6.26-6.9c1.27-4.23,3.52-8.05,6.64-11.18c4.28-4.36,5.12-10.59,7.06-16.11c1.37,0.14,2.72,0.41,4.08,0.65
	c2.35-9.53,9.93-16.36,13.44-25.34c1.63-4.02,6.36-5.45,8.3-9.27c2.78-5.16,4.04-10.99,6.97-16.09c2.31-4.51,5.74-8.33,9.73-11.4
	c3.92-3.02,5.33-7.97,7.94-11.97c2.95-5.21,7.95-8.71,11.62-13.35c3.47-3.75,5.27-8.72,8.99-12.26c-1.09-0.93-2.19-1.86-3.29-2.78
	c2.27-2.85,5.23-4.91,8.78-5.79c4.1-3.4,6.85-8.2,8.6-13.19c0.69-2.51,3.14-3.59,5.22-4.72c1.83-4.61,6.62-6.97,8.78-11.23
	c-1.11-1.9-2.61-3.54-3.93-5.3c1.2-1.07,2.41-2.13,3.63-3.18c1.62-0.6,3.51-0.77,4.88-1.91c1.38-2.14,1.67-4.79,3.01-6.94
	c1.3-0.96,2.82-1.54,4.27-2.24c-0.46-4.26,3.07-7.13,4.25-10.91c0.81-2.42,1.57-5.03,3.73-6.6c6.61-5.41,12.62-11.61,17.24-18.82
	c1.96-2.88,3.37-6.54,6.96-7.76c-0.93,2.01-1.95,3.97-2.9,5.97c4.3-1.23,5.9-5.55,8.51-8.68c1.44-1.64,2.22-3.69,2.84-5.75
	c3.65-1.27,5.42-4.76,7.99-7.32c3.32-1.89,6.77-3.65,9.22-6.7c-1.07-0.1-3.19-0.3-4.26-0.4c2.7-3.86,5.39-7.73,8.2-11.51
	c-1.46-0.53-2.93-1.06-4.38-1.6c2.36-3.32,5.8-5.62,8.36-8.76c2.08-2.53,4.08-5.2,6.85-7.03c4.2-3.1,9.5-5.03,12.36-9.66
	c3.28-5.03,8.82-7.83,12.81-12.2c2.6-2.47,4.6-5.95,8.31-6.9c5.2-1.42,9.05-5.44,13.93-7.54c-1.05,5.87-6.54,9.82-6.63,16.03
	c2.5,0.94,4.9,0.44,6.81-1.43c4.91-0.24,10.15-0.12,14.61,2.2c2.39,1.34,1.6,4.49,0.92,6.6c-2.81,8.4-10.26,13.95-14.4,21.59
	c-2.33,4.1-2.21,9.14-4.88,13.08c-1.89,3.04-4.57,5.46-6.74,8.28c-1.6,2.2-1.23,5.19-2.56,7.49c-1.18,0.92-2.55,1.55-3.85,2.29
	c0.05,1.05,0.11,2.11,0.17,3.17c-2.03,1.16-4.31,2.3-5.22,4.62c-2.54,5.25-5.99,9.98-9.79,14.39c0.87,0.42,1.75,0.85,2.63,1.27
	c-2.64,4.07-5.06,8.29-8.13,12.06c-3.27,4.05-7.98,6.77-10.68,11.31c-2.76,4.46-4.81,9.54-9.03,12.89
	c-4.46,3.56-8.06,8.02-11.25,12.72c0,3.73-1.21,7.31-2.75,10.67c-1.55,2.62-4.6,4.27-5.17,7.46c-0.43,2.08-1.61,3.8-3.23,5.13
	c-2.14,3.98-4.78,7.95-4.69,12.67c-5.16,7.29-8.81,15.46-13.19,23.21c-2.01,3.77-5.34,6.57-7.69,10.08
	c-2.43,6.03-4.79,12.18-8.53,17.55c-1.95,2.71-4.94,4.5-6.67,7.37c-1.92,3.51-2.25,7.57-2.68,11.47c-1.01-0.07-2.02-0.14-3.02-0.2
	c-0.7,2.22-1.18,4.57-2.47,6.55c-2.23,3.35-5.83,5.68-7.49,9.42c-1.21,2.76-2.14,5.69-3.97,8.12c-2.32,3.18-4.95,6.26-6.03,10.14
	c-1.58,5.39-4.6,10.26-8.33,14.42c-1.81,1.96-4.38,2.97-6.27,4.84c-1.54,2.26-2.04,5.05-3.54,7.35c-2.69,4.26-6.7,7.42-9.98,11.2
	c-2.34,2.78-6.7,4.5-5.95,8.87c-1.48,1.37-3.02,2.69-4.34,4.21c0.54,1.53,2.05,2.36,3.12,3.47c-1.9,2.49-4.66,3.82-7.56,4.79
	c-3.91,2.46-5.78,6.94-8.08,10.75c-4.59,4.73-8.74,9.96-14.29,13.63c1.77,1.82,3.61,3.56,5.38,5.4c-2.53,2.04-5.76,2.76-8.53,4.35
	c-0.98,3.17-3.05,5.48-5.59,7.51c-1.5,3.22-3.32,6.26-6.02,8.65c1.38,0.94,2.77,1.88,4.16,2.82c3.94-0.75,8.35-0.4,11.53-3.27
	c6.19,1.63,12.63,0.36,18.88,1.52c3.03,0.42,6.02,1.21,9.1,1.32c2.62-0.53,4.18-3.38,6.88-3.79c3.34-0.17,6.61,0.82,9.96,0.71
	c7.28-0.29,13.87-4.21,21.17-4.41c2.9-0.05,5.7,1.18,8.61,0.8c4.71-0.53,9.43-1.86,14.21-1.29c3.34,0.35,6.68,0.76,10,1.34
	c0.78-0.5,1.56-0.98,2.35-1.46c2.75-0.15,5.74-0.41,7.29-3.04c1.4-2.4,3.83-0.07,4.71,1.54c4.18-0.15,8.62,0.61,12.49-1.41
	c0.22-1.97-0.24-4.15,0.69-5.96c2.42-1.91,5.88-2.7,7.42-5.59c2.26-4.29,2.6-9.24,4.1-13.8c1.76-6.35,6.97-11.22,7.96-17.85
	c1.2-4.76-0.69-9.43-1.15-14.12c0.2-4.82,4.22-7.8,7.63-10.53c0.38-2.47-0.08-4.99,0.29-7.45c1.51-3.16,6.51-2.25,7.75-5.66
	c1.81-4.22,3.34-8.55,5.02-12.83c1.96-4.92,2.54-10.28,4.8-15.09c2.53-5.38,6.3-10.06,8.77-15.47c4.23-9.14,6.46-19.31,12.54-27.51
	c2.2-2.75,2.3-6.38,3.45-9.56c1.76-4.9,7.91-6.71,9.03-11.97c0.77-4.31-0.3-8.68,0.09-13.02c0.13-6.02,3.65-11.14,5.33-16.75
	c1.42-4.52,7.67-2.21,10.05-5.7c2.63-3.41,5.12-6.94,7.49-10.54c1.77-2.44,1.06-5.6,1.83-8.35c1-1.98,2.94-3.47,3.38-5.72
	c0.58-2.77,1.01-5.64,2.55-8.08c1.66-2.68,1.92-5.94,3.41-8.68c2.11-1.27,4.67-1.36,6.95-2.21c-0.45-3.11-3.18-6.37-1.56-9.45
	c4.18-4.76,10.62-6.36,16.27-8.64c2.95-2.29,1.16-6.6,1.77-9.78c0.12-4.15,4.67-5.34,7.41-7.45c-0.61-2.27-1.86-4.31-2.47-6.57
	c0.89-3.63,3.94-6.09,7.4-7.12c5.94-1.94,7.08-8.66,8.96-13.77c0.88-3.34,4.6-3.91,7.29-5.13c3.25-1.24,4.98-4.48,7.14-6.98
	c-2.12-3.34-4.31-6.92-4.27-11.02c-0.12-7.92,4.19-16.4,11.8-19.44c3.09-1.36,6.61-1.49,9.58-3.14c2.47-1.63,1.88-4.97,2.12-7.5
	c0-6.61,2.39-12.84,4.51-19C509.595,372.875,511.275,365.435,514.775,358.715z"/>
<path class="st0" d="M940.625,372.385c1.32-3.51,1.57-8.32,5.44-10.09c6.02,1.47,5.02,11.74,12.05,11.42
	c1.15,2.55,2.76,5.4,1.62,8.25c-1.37,4.05-1.6,8.33-2.49,12.48c-4.45,16.06-10.04,31.75-15.36,47.53c-2.01,5.1-4.82,9.85-6.71,15
	c-2.93,7.93-6.28,15.71-9.68,23.45c-1.12,2.58-2.58,4.99-4.31,7.19c-0.36-1.65-0.68-3.31-0.99-4.97
	c-4.75,12.29-8.64,24.9-13.39,37.19c-1.44,3.71-3.93,7.07-4.36,11.12c-0.58,3.58-0.22,7.4-1.78,10.76
	c-6.34,11.53-11,23.88-15.96,36.04c-2.58,5.32-4.23,11-6.35,16.5c-3.31,7.86-7.14,15.55-11.59,22.83c-2.01-0.52-1.26-3.1-1.82-4.58
	c-1.65-0.01-3.28-0.01-4.91-0.01c0.2,2.77,0.67,5.77-1.32,8.06c1.83,5.42-2.43,9.86-3.43,14.93c1.77-1.67,2.91-3.84,4.11-5.93
	c0.86,1.36,1.21,2.82,1.04,4.39c-0.8,7.01-2.8,13.82-4.88,20.54c-1.18,3.18,1.39,7.11-1.22,9.81c-3.14,2.99-2.22,8.62-6.28,10.75
	c-3.09,0.21-6.4-0.92-9.26,0.7c-6.82,3.52-12.99,8.27-18.39,13.71c-1.72,1.77-3.89,2.97-6.12,3.96c-3.6,0.91-2.86,6.84-7.35,6
	c-1.45-4.14-2.75-8.85-7.3-10.58c0.03-9.79,3.4-19.07,7.02-28.01c2.04-4.06-0.51-8.72,1.51-12.74c2.89-6.7,6.89-12.95,8.78-20.05
	c1.47-5.99,4.2-11.56,5.73-17.52c2.29-8.78,7.32-16.58,9.33-25.46c2.02-8.79,6.25-16.86,8.67-25.53c2.69-9.57,6.37-18.84,8.88-28.46
	c2.07-7.98,6.08-15.28,8.26-23.22c2.74-10.04,6.82-19.68,9.16-29.85c0.96-4.29,3.05-8.19,5.13-12.03c0.77,4.14,0.28,8.34-0.08,12.49
	c2.45-5.06,5.49-9.87,7.2-15.26c1.4-4.33,3.75-8.25,5.52-12.42c1.47-3.41,1.61-7.17,2.64-10.7c1.25-4.33,3.89-8.11,5.16-12.43
	c0.59-3.26-0.11-6.73,1.2-9.88c3.17-7.95,5.71-16.14,9.06-24.02c1.77-4.36,3.11-9.37,7.25-12.15c1.49,0.17,2.87,0.81,4.3,1.28
	c1.19-3.09,2.41-6.24,4.67-8.74c1.19,1.25,2.38,2.53,3.54,3.84c2.95-0.44,6.26,0.09,8.94-1.47c1.9-2.39,1.5-7.17,5.4-7.41
	C938.475,369.725,939.455,371.205,940.625,372.385z"/>
</svg>
