<svg id="Lag_1" data-name="Lag 1" xmlns="http://www.w3.org/2000/svg" xmlns:xlink="http://www.w3.org/1999/xlink" viewBox="0 0 499.78 1095.67"><defs><style>.cls-1{fill:url(#Ikke-navngivet_forløb_17);}.cls-2{fill:url(#Ikke-navngivet_forløb_23);}.cls-3{fill:url(#Ikke-navngivet_forløb_2);}</style><linearGradient id="Ikke-navngivet_forløb_17" x1="499.31" y1="302.39" x2="499.31" gradientTransform="translate(253.16 -308.78) rotate(45)" gradientUnits="userSpaceOnUse"><stop offset="0" stop-color="#2aaeff"/><stop offset="0.5" stop-color="#56c0ff"/><stop offset="1" stop-color="#7fd2ff"/></linearGradient><linearGradient id="Ikke-navngivet_forløb_23" x1="114.2" y1="999.53" x2="114.2" y2="218.31" gradientUnits="userSpaceOnUse"><stop offset="0" stop-color="#159cff"/><stop offset="0.24" stop-color="#1ea1ff"/><stop offset="0.63" stop-color="#38afff"/><stop offset="1" stop-color="#56c0ff"/></linearGradient><linearGradient id="Ikke-navngivet_forløb_2" x1="385.58" y1="999.53" x2="385.58" y2="218.31" xlink:href="#Ikke-navngivet_forløb_23"/></defs><title>ImmuneLogo</title><rect class="cls-1" x="392.48" y="44.2" width="213.66" height="213.99" transform="translate(-210.78 397.35) rotate(-45)"/><polygon class="cls-2" points="227.41 407.93 38.95 218.31 0 275.69 7.54 923.15 80.41 429.39 135.69 484.67 177.99 949.12 228.4 999.52 227.41 407.93"/><polygon class="cls-3" points="272.37 407.93 460.83 218.31 499.78 275.69 492.24 923.15 419.37 429.39 364.09 484.67 321.79 949.12 271.38 999.52 272.37 407.93"/><path d="M506.54,1095.5a1,1,0,0,0,0,.17h0Z" transform="translate(-250.11)"/><path d="M506.54,1089.81v5.69A33.78,33.78,0,0,1,506.54,1089.81Z" transform="translate(-250.11)"/><path d="M518.34,1093.05c0,.14,0,.28,0,.42v-.42Z" transform="translate(-250.11)"/><path d="M579.39,1095.5a1,1,0,0,1,0,.17h0Z" transform="translate(-250.11)"/><path d="M567.59,1093.05c0,.14,0,.28,0,.42v-.42Z" transform="translate(-250.11)"/></svg>