<?xml version="1.0" encoding="utf-8"?>
<!-- Generator: Adobe Illustrator 21.0.0, SVG Export Plug-In . SVG Version: 6.00 Build 0)  -->
<svg version="1.1" id="Layer_1" xmlns="http://www.w3.org/2000/svg" xmlns:xlink="http://www.w3.org/1999/xlink" x="0px" y="0px"
	 viewBox="0 0 470 470" style="enable-background:new 0 0 470 470;" xml:space="preserve">
<style type="text/css">
	.st0{fill:#FFFFFF;}
	.st1{fill:#1D4D93;}
</style>
<g id="_x23_ffffffff">
	<path class="st0" d="M0,96h125c0,34.2,0,68.4,0,102.5c-41.7,0-83.3,0-125,0V96z"/>
	<path class="st0" d="M203.4,96H470v102.5c-88.8,0-177.7,0-266.5,0C203.4,164.3,203.5,130.2,203.4,96z"/>
	<path class="st0" d="M0,276c41.7,0,83.3,0,125,0c0,32.7,0,65.3,0,98H0V276z"/>
	<path class="st0" d="M203.5,276c88.8,0,177.7,0,266.5,0v98H203.5C203.5,341.3,203.5,308.7,203.5,276z"/>
</g>
<g id="_x23_1d4d93ff">
	<path class="st1" d="M125,96h78.4c0,34.2,0,68.3,0,102.5c88.8,0,177.7,0,266.5,0V276c-88.9,0-177.7,0-266.5,0c0,32.7,0,65.3,0,98
		H125c0-32.7,0-65.3,0-98c-41.7,0-83.3,0-125,0v-77.5c41.7,0,83.3,0,125,0C125,164.4,125,130.2,125,96z"/>
</g>
</svg>
