<?xml version="1.0" encoding="utf-8"?>
<!-- Generator: Adobe Illustrator 21.0.2, SVG Export Plug-In . SVG Version: 6.00 Build 0)  -->
<svg version="1.1" id="Layer_1" xmlns="http://www.w3.org/2000/svg" xmlns:xlink="http://www.w3.org/1999/xlink" x="0px" y="0px"
	 viewBox="0 0 762 762" style="enable-background:new 0 0 762 762;" xml:space="preserve">
<style type="text/css">
	.st0{fill:#06101E;}
</style>
<g id="_x23_06101eff">
	<path class="st0" d="M130.6,10.1c3.5-3.4,6.7-7.1,10.5-10.1c0.4,5.5,0.1,11,0.2,16.4c0,57.7-0.1,115.5,0,173.2
		c1.1-0.9,2.1-1.7,3.1-2.6C201,130.5,257.5,74,314,17.5c6.1-5.8,11.6-12.2,18-17.5c0.4,29.5,0.1,59,0.2,88.5c0,200.7,0,401.3,0,602
		c-0.1,23.8,0.2,47.7-0.2,71.5c-8.8-7.7-16.6-16.4-25-24.5c-22.8-22.8-45.7-45.7-68.5-68.5c-1.3-1.1-2-2.7-1.9-4.4
		c0-146.7,0-293.4,0-440.1c0-4,2.8-7.3,4.5-10.8c10.6-19.8,21.4-39.4,31.8-59.2c-1.1,0.9-2.2,1.8-3.2,2.8
		c-42.3,42.4-84.7,84.7-127,127c-2.2,1.8-1.2,4.8-1.4,7.2c0.1,81.3,0,162.7,0,244c-0.1,11.9,0.3,23.7-0.2,35.6
		c-3.7-2.8-6.8-6.4-10.1-9.6c-27.7-27.6-55.3-55.4-83-83c-1.1-1.1-2.3-2.3-2-4c0-126,0-252.1,0-378.1c0.2-1.2-0.4-3.1,1.1-3.8
		c3.1-1.8,5.5-4.5,8-7C80.3,60.4,105.5,35.3,130.6,10.1z"/>
	<path class="st0" d="M429.9,0c1.2,1,2.4,2,3.5,3c58.6,58.7,117.3,117.3,176,176c3.7,3.5,7,7.5,11.1,10.7c0.1-55.7,0-111.5,0-167.2
		c0.1-7.5-0.2-15,0.2-22.4c4.2,3.3,7.7,7.4,11.5,11.1c26.3,26.3,52.7,52.6,79,79c1.6,1.8,5.1,2.3,4.6,5.3c0,112,0,224,0,336
		c-0.1,14.9,0.3,29.9-0.2,44.8c-6,6.9-13,13-19.3,19.7c-17,17-34,34-51,51c-8.3,8-16,16.6-24.7,24.1c-0.4-53.2-0.1-106.4-0.2-159.6
		c0-41.3,0-82.6,0-124c0.3-1.6-0.9-2.7-1.9-3.8c-42.2-42.1-84.4-84.3-126.6-126.5c-1-1-2.1-1.9-3.2-2.8c11.6,22,23.6,43.8,35.3,65.7
		c0.7,1.3,1,2.8,1,4.3c0,146.7,0,293.4,0,440.1c0.2,1.7-0.6,3.3-1.8,4.4c-27.9,27.8-55.7,55.6-83.5,83.5c-3.3,3.2-6.3,6.7-10,9.5
		c-0.4-48.5-0.1-97-0.2-145.5c0-185,0-370,0-555C429.8,41,429.5,20.5,429.9,0z"/>
</g>
</svg>
