<?xml version="1.0" encoding="utf-8"?>
<!-- Generator: Adobe Illustrator 22.0.1, SVG Export Plug-In . SVG Version: 6.00 Build 0)  -->
<svg version="1.1" id="Layer_1" xmlns="http://www.w3.org/2000/svg" xmlns:xlink="http://www.w3.org/1999/xlink" x="0px" y="0px"
	 viewBox="0 0 272.4 272.4" style="enable-background:new 0 0 272.4 272.4;" xml:space="preserve">
<style type="text/css">
	.st0{fill:none;}
	.st1{fill:#F6EE87;}
	.st2{fill:url(#SVGID_1_);}
	.st3{fill:#E73C25;}
	.st4{fill:url(#SVGID_2_);}
	.st5{fill:url(#SVGID_3_);}
	.st6{fill:#E84528;}
	.st7{fill:url(#SVGID_4_);}
	.st8{fill:url(#SVGID_5_);}
	.st9{fill:#F9EE73;}
	.st10{fill:#E94F27;}
	.st11{fill:#F1842C;}
	.st12{fill:url(#SVGID_6_);}
	.st13{fill:#F2914E;}
	.st14{fill:#C02A18;}
	.st15{fill:url(#SVGID_7_);}
</style>
<g>
	<g>
		<path class="st0" d="M132.1,68.9c0,0-2.5,3,0.5,5C133.7,71.3,133.1,69,132.1,68.9z"/>
		<path class="st1" d="M207.5,55.9c-8.3,5.1-23.5,7.7-25,13.4c0.8-1,6.3-4.8,17.5-7.5c0,0,0,0,0,0c1.5-0.4,4.7-1.6,10.3-3.2
			c-0.1,1.8-2.4,5.6-3.8,7.9c5.3-2,11.6-5.9,17.6-7.2c0,0,0,0,0,0c-3.5-0.6-8.9-0.7-8.9-0.7s2.9-0.9,9.4-6c4.2-3.3,8.6-6.3,11.3-8
			c-0.8,0-1.8,0-2.9,0.2c-0.8,0.1-1.6,0.3-2.4,0.6c-3.4,1.9-10.9,8.8-20.3,11.5c0.6-0.7,1.6-1.6,2.9-2.6l0,0l0,0c0,0,0,0,0,0
			c1.9-1.5,4.2-3.1,6.3-4.4c4.4-3.6,9.8-8.8,14.1-14.5c2.6-3.5,5.2-5.6,7.5-7c0,0-5.3,0.4-7.8,0.9C225.7,34.5,215.2,51.2,207.5,55.9
			z"/>
		<linearGradient id="SVGID_1_" gradientUnits="userSpaceOnUse" x1="206.5044" y1="71.1091" x2="258.4502" y2="115.9966">
			<stop  offset="0" style="stop-color:#EA5929"/>
			<stop  offset="1" style="stop-color:#CE3320"/>
		</linearGradient>
		<path class="st2" d="M255.9,23c0,0-24.2-2.3-38.7,9.8c-14.4,12.1-15.1,18-26.5,23c-11.5,5-29.7,16-38.7,30.5
			c-5.2,8.5-6.9,14.5-7.4,18.1c-0.8-1.7-1.6-3.5-2.1-5.4c-4.2-13.9-1.1-21.6-2.4-25.1c-0.9-2.5-3.6-3.3-5.1-3.7
			c-1.3-4.6-3.4-8.8-6.6-11.1c-2,7.7-1,11.6-1,11.6s-2.2,1.5-0.6,6.9c1.5,5.4,2.1,19.1,2.4,23c2.4-4.8,3.5-13.8,1-18.4
			c-2.4-4.6-2.5-8.5-1-10.1c1.5,5.4,4.9,5.2,4.9,5.2s1.9,7.8-1,16.8c-2.8,8.5-0.2,16,3.5,22.1c1.7,2.2,3.6,4.3,5.6,5.6
			c5.5,3.6,8.4,8.1,8.8,11.9c1.4,0.1,3.2,0.7,5.7,2.2c6,3.8,6.9,10.5,6.9,10.5s0.3-4.2-2.7-8.7c-3-4.5-6.1-5.2-6.1-5.2
			s3.3-1.8,8.8-0.8c-5.7-4.6-13.7-4-13.7-4s3.1-3.4,8.3-3.3c-5.5-4.6-17.9-5.5-21.7-14.7c-3.8-9.2,0.5-19.4,0.3-27.9
			c-0.1-3.1-0.5-6.5-1.2-9.6c1.7,0.6,3.8,2.1,2.8,5.4c-1.6,5.2-0.8,27.3,9.9,36.5c-5.8,0.8-8-0.5-8-0.5s6.8,4.6,13.4,5
			c6.4,5.7,10.2,9.6,15.7,9.2c5.5-0.4,8.9-4.5,8.9-4.5s1,4.2-0.6,7.1c6-3.4,2.2-14.5-1.1-16.8c1.1,8-1.8,12.6-10,10.1
			c-4.7-1.5-10.5-4.8-15.3-10c1.6-2.1,5-5.3,10.6-5.1c8.3,0.3,6.1,6.9,6.1,6.9s1.9-5.5,0.4-8.3c-1.5-2.8,0.6-5.2,10.1-6
			c-1.4-0.3-4.5-3.8-4.5-3.8s4.6,0.1,6.9,2c2.3,1.9,4.8,4.2,10.8,3.4c-2.9,0-5.7-1.1-10.8-5.4c-1.6-1.3-4.1-1.8-6.9-1.9
			c2.2-0.9,9-3,15-1c7.4,2.6,16.6,2.3,16.6,2.3s-7.4-4.3-12.6-4.1c1.9-4.9,9.4-4.2,16.6-3.1c7.1,1,13-2.4,13-2.4s-12.1,1.3-15.4-2.6
			c1.9-5.1,15.4-5.4,23.6-5c-11.5-3.4-16.8-1.8-16.8-1.8s2.3-4,9.1-4.8c-7.8-1.3-11.7,2.8-16.6,5.5c-4.8,2.7-11.6,1-11.6,1
			s5.4-1,8.2-5.5c0.5-0.8,1-1.4,1.6-2c-3.9,1.2-6.8,3.8-9.2,4.7c-1.3,0.4-2.7,0.1-4-0.4c-4.9,0.6-9.8,0.1-9.8,0.1s9.8,7.7,19.1,8.6
			c-15.7,0-22.1,1.5-22.1,1.5s8.7-0.6,14.2,1.9c-15.5,3.4-18.7,6.3-19.4,7.2c-6.2,0-13.2,1.9-13.2,1.9s2.6-2.5,5-7.3
			c2.4-4.8,2.2-9.1,2.2-9.1c-1.9,6.8-6.3,9.9-6.3,9.9s-0.6-1,1-4.1c-4.9,2-4.5,11.2-7.4,14.5c1.9-1.1,9.1-0.1,9.1-0.1
			s-0.5,3.7-6.8,6.4c-3.8,1.6-6,3.4-7.1,4.6c-1.1-1.3-2.2-2.8-3.1-4.3c0.1-5.1,2-18.2,17.8-31.7C184.8,59,196.8,57.4,206,48.1
			c9.2-9.3,13-14.9,24.1-18c1.1-0.3,2.1-0.5,3.1-0.7c2.5-0.6,7.8-0.9,7.8-0.9c5.7-0.2,9.8,0.4,11.6-0.2c2.8-1,11.9-11,19.1-13.1
			C262.3,16.1,255.9,23,255.9,23z M132.6,73.9c-3-2-0.5-5-0.5-5C133.1,69,133.7,71.3,132.6,73.9z"/>
	</g>
	<g>
		<path class="st0" d="M75.6,191.9c0,0.1,0,0.1,0,0.2C75.6,192,75.6,191.9,75.6,191.9C75.6,191.9,75.6,191.9,75.6,191.9z"/>
		<path class="st3" d="M75.6,192.1C75.6,192.1,75.6,192.1,75.6,192.1C75.6,192.1,75.6,192.1,75.6,192.1z"/>
		<linearGradient id="SVGID_2_" gradientUnits="userSpaceOnUse" x1="136.8391" y1="151.7293" x2="188.7848" y2="196.6167">
			<stop  offset="0" style="stop-color:#EA5929"/>
			<stop  offset="1" style="stop-color:#CE3320"/>
		</linearGradient>
		<path class="st4" d="M216.5,135.9c-18.5-0.8-32.3,16.2-46.8,21.3c-14.5,5.1-25.9,0.9-24.6-15.4c6.4,2.2,7.8,6.4,7.8,6.4
			s-0.1-4.3-1.3-6.3c4.7,1.7,6.1,3.8,6.5,5.3c-0.2-1.9-1-5.1-4.1-8.1c-4.7-4.6-6.1-4.8-6.1-4.8s-2.4-6.6-6.2-6.4
			c-2.5,4.8-4.9,5.7-4.9,5.7c-1-6.7-0.9-13.6-0.9-13.6s-1.3,3.3-2.4,3.8c-1.3-4.5-2-7.7-2-7.7s3.2,21.5-1.5,27.8
			c0.6-2.1-0.8-6.5-0.8-6.5s1.2,7.8-7.3,12c-8.4,4.2-17.3,8-18.8,11c2.3-5.5,5.4-7.8,5.4-7.8S83.2,166.7,78,181.8
			c-1.2,3.7-2,7-2.4,10c1.4-8.6,9.2-14,9.2-14s0,0,0.6,5.4c0,0,1.3,4.9,6.5,5c-4.5-5-4.7-11.6,1.3-17.8c6-6.3,17.4-13.1,17.4-13.1
			s0.4,3.1,0,3.7c2.7-5,11.6-6.9,11.6-6.9s-13.2,18.1-16,30.7c-2.9,12.6-0.6,19.4-0.6,19.4s0.8-36.2,27-50.1
			c0.5-1.5,2.2-0.5,2.2-0.5l-0.3-3.8c-4.3,0-11.7,8.2-11.7,8.2s1.3-5.1,6.2-9c5-3.9,6.5-4,12.5-13.9c1.6,7.1-3.4,16-3.4,16
			s1.3-1.4,3.7-4.6c0,3.4,6.1,12.8,6.1,12.8s0,0-3.4,0.7c0.1,0.7,0.3,1.3,0.5,2c10.5,13.2,18.4,18.8,28.4,20.9
			c-10.5-3.8-19.5-14-22.3-19c16.8,4.6,25.3,1.5,36.9-7.7c11.6-9.2,23.6-14.5,35.7-13.7c12.1,0.9,16.7,9.1,16.7,9.1
			S235,136.7,216.5,135.9z"/>
		<path class="st1" d="M75.6,191.8c0,0.1,0,0.2,0,0.3c0,0,0,0,0,0c-0.9,7.7,1,13,5,15.3c-1.3-2-2.6-5-2.4-9.2
			c0.3-8.4,5.1-12.5,5.1-12.5l0,0c1.1-1.6,2.2-2.6,2.2-2.6c-0.6-5.4-0.6-5.4-0.6-5.4S77.1,183.3,75.6,191.8z"/>
		<linearGradient id="SVGID_3_" gradientUnits="userSpaceOnUse" x1="91.1501" y1="204.6019" x2="143.095" y2="249.4885">
			<stop  offset="0" style="stop-color:#EA5929"/>
			<stop  offset="1" style="stop-color:#CE3320"/>
		</linearGradient>
		<path class="st5" d="M78.2,198.3c-0.1,4.2,1.1,7.2,2.4,9.2c0.8,0.5,1.7,0.8,2.6,1c7.8,1.8,10.7-1.7,10.7-1.7s-10.2-3.8-12.4-11.1
			c-1.2-4.2,0.2-7.7,1.7-9.9l0,0C83.3,185.8,78.5,189.9,78.2,198.3z"/>
	</g>
	<path class="st1" d="M65.6,200c0,0-1.5,17.3,14.8,22.4c-9.7-5.8-8.3-13-8.3-13S66.2,202.3,65.6,200z"/>
	<g>
		<path class="st6" d="M100.1,102.5c-7,3.9-9.3,12.9-9.3,12.9s3.3-4.8,6.7-8.2c1.3,0.5,7.6,3,11.6,2.2c4.5-0.9,7.4-6.4,5.4-12.1
			c-2-5.7-10.1-5.6-12.1-3c0,0,7-1.9,8.2,4.2c0.1,0.6,0.2,1.1,0.2,1.6C108.8,99.9,104.8,99.9,100.1,102.5z M110.9,102.5
			c-0.1,3.2-1.5,4.5-3.6,4.5c-2.4,0-8.3,0-9.7,0c1-1,2-1.9,3-2.6C103.6,102.5,108.5,102.4,110.9,102.5z"/>
		<linearGradient id="SVGID_4_" gradientUnits="userSpaceOnUse" x1="131.8845" y1="157.4617" x2="183.8298" y2="202.3487">
			<stop  offset="0" style="stop-color:#EA5929"/>
			<stop  offset="1" style="stop-color:#CE3320"/>
		</linearGradient>
		<path class="st7" d="M112,118.7c8-1.3,16.3,6.8,10.1,17.4c-6.3,10.6-21.3,7.9-21.3,7.9s6.9-0.6,13.9-5.3c-13.4,4-20.4,1.3-23.9-5
			c1,5.9,4.5,14,17.9,13.1c-20.7,8.2-25.4,23.7-25.4,23.7s1.5-4.6,7.5-10.1c6-5.5,20.8-11.4,29.9-19.3c-1,4.2-3.2,7.5-3.2,7.5
			s7.5-4,10.1-11.9c2.6-7.9,1.4-22.3,0-28.2c-1.5,0.9-1.5,9.8-1.5,9.8s-3.4-1.1-3.8-8.5c-0.4-7.4,2.9-13,2.9-13
			c-8.8,8.4-3.2,21.3-3.2,21.3S116.2,113.9,112,118.7z"/>
		<linearGradient id="SVGID_5_" gradientUnits="userSpaceOnUse" x1="95.4112" y1="199.6706" x2="147.3568" y2="244.5579">
			<stop  offset="0" style="stop-color:#EA5929"/>
			<stop  offset="1" style="stop-color:#CE3320"/>
		</linearGradient>
		<path class="st8" d="M129.1,234.4c-16.6-8-21.4-30.1-21.4-30.1s-0.6,2.7,0.8,10.3c-6.3-2.9-6.6-16.3-6.6-16.3s-3.6,22.1,16.7,34.6
			c20.3,12.5,41.3,8.5,41.3,8.5S145.7,242.4,129.1,234.4z"/>
		<path class="st3" d="M233.2,211.7c0,0-1.5-2.2-4.9-4.7C231.4,209.7,233.2,211.7,233.2,211.7z"/>
		<path class="st3" d="M158,148.9c0,0,0.2-0.7,0-1.7C158.1,148.2,158,148.9,158,148.9z"/>
		<path class="st3" d="M144.5,110c-4.5-2.9-7.9-12.8-7.9-12.8C136.5,102.7,142.2,111,144.5,110z"/>
	</g>
	<path class="st3" d="M0,18.6c0,0,5.8-7.1,20.2,0s17.8,9.9,25.7,9.6c-7.1-1.7-15.8-6.9-22.9-10.4S3.1,11.6,0,18.6z"/>
	<path class="st9" d="M29.2,41.9c0,0,6.6,2.8,12.6,3.5c-3.7-5.9-11.2-8.8-11.2-8.8s2.9,4,3.3,5.5C30.3,42.3,29.2,41.9,29.2,41.9z"/>
	<g>
		<path class="st9" d="M80.9,69.2c-7.3-6.6-11.7-15.1-14-23.9c0,0-2.3,0.1-6.9-4.4c-2.1-2-4.8-3.1-7.2-3.7c4,2.5,7.2,5.9,8.9,10.7
			l0,0C61.7,48.1,70,65.9,80.9,69.2z"/>
		<path class="st10" d="M95.9,74.8c-16.7-4.2-26-15.6-27.3-32.4c-2.9,1.8-5-0.1-6.5-2c-1.5-1.9-7.5-7.9-18.6-9.3
			c-11.1-1.4-13.3-4.8-13.3-4.8s1.8,8.5,5.9,9.8c-12.2-1.7-19.5-8.4-19.5-8.4s4,8.9,11.5,11.7c-4.3,0.8-6.1-0.1-6.1-0.1
			s4.1,5.6,15.9,7c11.9,1.4,17.4,7.5,27.6,22.1c0,0-8.4-18.1-17.1-24c-8.7-5.9-10.8-10.3-11.1-12.6c5.5,1.1,11,2.8,15.6,5.7
			c2.4,0.6,5.1,1.7,7.2,3.7c4.7,4.5,6.9,4.4,6.9,4.4c2.3,8.8,6.6,17.2,14,23.9C70,65.9,61.7,48.1,61.7,48.1l0,0
			c0.1,0.4,0.3,0.8,0.4,1.2c3.3,11.2,9.3,22.8,28.6,26.9c19.3,4.1,26.9,15.2,29.3,24.2C119.5,91.7,112.6,79,95.9,74.8z"/>
	</g>
	<g>
		<path class="st6" d="M33.9,77.7c0,0,5.7,3,12.1,5.3c0.3-0.8,0.6-1.7,0.9-2.4C39.3,79.4,33.9,77.7,33.9,77.7z"/>
		<path class="st11" d="M46.9,80.6c-0.3,0.8-0.6,1.6-0.9,2.4c0.7,0.2,1.3,0.5,2,0.7c0.4-0.9,0.9-1.9,1.4-2.7
			C48.5,80.8,47.7,80.7,46.9,80.6z"/>
		<path class="st6" d="M82.5,85.9c-8.2,3.7-14.2,2.7-17.2,2c9.1-5.6,14.7-6.3,14.7-6.3s-14-4.1-24.5-17.1c0,0,2.4,4.8,4.8,7
			c-1.7-0.5-3.7-1.7-5.8-3.1c-0.9,1.3-1.9,3-2.6,4.3c3.1,4.1,6.6,7.8,9.8,9c-4.3,0-8.5-0.3-12.3-0.8c-0.5,0.9-1,1.8-1.4,2.7
			c4.1,1.3,8.3,2.2,11.5,1.7c-10.3,4.3-13.1,8-13.1,8s8.3-3.1,18.6-2.6c10.3,0.5,12.6-0.1,18.5-2.7c5.9-2.6,14.7-0.4,14.7-0.4
			S90.7,82.2,82.5,85.9z"/>
		<path class="st6" d="M43.2,59c0,0,3,5.8,7.1,11.6c0.6-1.1,1.6-2.4,2.4-3.4C47.7,63.4,43.2,59,43.2,59z"/>
		<path class="st11" d="M52.7,67.1c-0.8,1-1.8,2.2-2.4,3.4c0.5,0.8,1.1,1.5,1.7,2.3c0.7-1.3,1.7-3.1,2.6-4.3
			C53.9,68,53.3,67.6,52.7,67.1z"/>
	</g>
	<g>
		<path class="st9" d="M89.8,95.4c-0.8,0.1-1.9,0.1-3,0.1c0.4,0.1,0.8,0.3,1.3,0.4C86.2,96.3,73.8,97,73.8,97s1.5,0.3,9.4,3.4
			C86.5,99.5,86.2,100.2,89.8,95.4z"/>
		<path class="st6" d="M103,96.8c0,0-2.4-2.2-11.4-1.8c0.4-1.4,6.5-3.3,6.5-3.3c-12.9-3.2-13.7,2.9-13.7,2.9s0,0,2.2,0.7
			c1.2,0,2.2,0,3-0.1c-3.5,4.8-3.3,4.1-6.5,5.1c-6.5,3.2-19.8-0.9-19.8-0.9s4,4.2,14.3,4.2c10.3,0,17.4-4,17.4-4s0,0-7.7-0.1
			C89.5,96.7,103,96.8,103,96.8z"/>
	</g>
	<g>
		<path class="st0" d="M132.1,68.9c0,0-2.5,3,0.5,5C133.7,71.3,133.1,69,132.1,68.9z"/>
		<path class="st1" d="M142,121.7c-2-1.3-3.9-3.4-5.6-5.6c0.2,0.4,0.5,0.7,0.7,1.1c4.1,6.3,4.1,12.8-0.4,16.3c0,0,2.3-0.9,4.9-5.7
			c3.8-0.1,6.2,6.4,6.2,6.4s1-0.8,3-0.6C150.4,129.9,147.5,125.4,142,121.7z"/>
	</g>
	<g>
		<path class="st0" d="M146.9,167.7c1.4,2.1,2.8,3.9,3.9,4.3c0,0-4.3-5.4-5.9-10.1c0,0-0.1-0.1-0.1-0.1
			C145.4,163.7,146.1,165.7,146.9,167.7z"/>
		<linearGradient id="SVGID_6_" gradientUnits="userSpaceOnUse" x1="124.0789" y1="166.496" x2="176.0246" y2="211.3834">
			<stop  offset="0" style="stop-color:#EA5929"/>
			<stop  offset="1" style="stop-color:#CE3320"/>
		</linearGradient>
		<path class="st12" d="M147.1,191.9c-12.4-8-11.4-36.1-11.4-36.1s-2.4,3.7-4,9.2c-0.9-0.5-1.3-1.9-1.6-3.1
			c-2.6,8.8-6.2,23.6-5.9,36.9c0.5,20.4,13,28.6,13,28.6s-9.8-11.7-9.8-29.7c0-18,6.9-27.9,6.9-27.9s1.4,29.3,19,39.4
			c17.6,10.1,32.7,15.8,35,27.9c2.3,12.1-7.1,21.8-7.1,21.8s10.7-6.8,10.5-22.3c-0.3-15.6-18-19.1-31.1-33.8
			c-13.1-14.7-13.4-28.5-13.4-28.5s14.5,21.4,34.1,23.9c19.5,2.4,27.3,0.8,37.6,4.2c4.1,1.4,7.2,3.1,9.5,4.8
			c-5.7-4.9-16.1-12.5-28.9-15.5c-19.8-4.7-23.2-1.7-35.1-6.3c-9.2-3.5-14.4-10.5-17.4-17.5c-2.1-3.3-4.1-7.2-4.1-7.2
			S140,173,147.1,191.9z"/>
		<path class="st1" d="M147.9,159.2c0,0-6.1-9.4-6.1-12.8c-2.4,3.2-3.7,4.6-3.7,4.6s5-8.8,3.4-16c-6.1,9.9-7.6,10-12.5,13.9
			c-5,3.9-6.2,9-6.2,9s7.4-8.2,11.7-8.2l0.3,3.8c0,0-1.6-1-2.2,0.5c0,0-1.1,3-2.5,7.8c0.2,1.3,0.7,2.7,1.6,3.1c1.6-5.5,4-9.2,4-9.2
			s-1,28.1,11.4,36.1c-7.1-18.9-4.2-31.3-4.2-31.3s1.9,3.9,4.1,7.2c-0.8-2-1.5-4-2-6c0,0,0.1,0.1,0.1,0.1c-0.2-0.7-0.4-1.4-0.5-2
			C147.9,159.2,147.9,159.2,147.9,159.2z"/>
	</g>
	<g>
		<path class="st13" d="M78.2,167.9c-2.1-0.3-2.4,3.7-3.5,8.1c0,0,0,0,0,0c0.7-2.1,1.5-4.1,2.6-5.7c-0.9,2.3-1.5,9.2-1.5,9.2
			s0.9-0.5,2-1.8C78.5,174.4,79.7,168.1,78.2,167.9z"/>
		<path class="st14" d="M76.6,209.3c-4.2-5.5-5.6-22-2-33.2c0,0,0,0,0,0c1.1-4.4,1.4-8.4,3.5-8.1c1.5,0.2,0.3,6.4-0.5,9.8
			c1.3-1.6,2.7-4.2,2.9-8.4c0.4-7.7,0-12.1,0-12.1c-8.4,6.1-13.3,26-9.2,49.6c-4.3-4.3-7.3-13.1-7.8-31c-1.1,7.5-0.3,26.4,8,37.1
			c8.3,10.7,19.5,4.3,19.5,4.3S81.6,215.8,76.6,209.3z"/>
	</g>
	<path class="st1" d="M162.2,98.8c0,0,8.4-0.3,10.9,0c-4.3,3.2-5.9,4.3-5.4,4.9C168,104.3,164.4,100.4,162.2,98.8z"/>
	<path class="st0" d="M132.1,68.9c0,0-2.5,3,0.5,5C133.7,71.3,133.1,69,132.1,68.9z"/>
	<g>
		<path class="st0" d="M132.1,68.9c0,0-2.5,3,0.5,5C133.7,71.3,133.1,69,132.1,68.9z"/>
		<polygon class="st0" points="213.2,54.4 213.2,54.4 213.2,54.4 		"/>
		<path class="st1" d="M195.1,76.5c2.4-0.8,5.3-3.4,9.2-4.7c2.7-2.8,6.1-3.6,6.1-3.6s-5.9,0.1-10.7,4.7c-1.9,1.8-5.3,2.7-8.6,3.1
			C192.3,76.7,193.8,77,195.1,76.5z"/>
		<path class="st3" d="M210.3,57c9.5-2.7,16.9-9.7,20.3-11.5c-4.4,1.6-9.3,5.4-17.5,9C212,55.3,211,56.2,210.3,57z"/>
		<path class="st3" d="M219.5,49.9c-2.1,1.4-4.4,3-6.3,4.4C214.7,53.6,216.9,52,219.5,49.9z"/>
		<path class="st3" d="M200,61.8C200,61.8,200,61.8,200,61.8c2.4-0.6,5.1-1.1,8.1-1.6c-1.6,6.4-13.7,8-13.7,8s2.9,0.9,9.7-0.9
			c0.8-0.2,1.6-0.5,2.5-0.8c1.4-2.3,3.7-6.1,3.8-7.9C204.7,60.2,201.5,61.4,200,61.8z"/>
		<linearGradient id="SVGID_7_" gradientUnits="userSpaceOnUse" x1="224.7889" y1="49.9486" x2="276.7345" y2="94.8359">
			<stop  offset="0" style="stop-color:#EA5929"/>
			<stop  offset="1" style="stop-color:#CE3320"/>
		</linearGradient>
		<path class="st15" d="M215.2,58.7c0,0,5.4,0.2,8.9,0.7c0,0,0,0,0,0c1.2-0.3,2.4-0.4,3.6-0.5c7.9-0.1,4.5,1.4,12.6,3.6
			c8.2,2.2,10.8-3.6,10.8-3.6s-1.1,1-7.8,1c-6.6,0-9.2-6.3-18.8-3.3c0.6-3.3,15.2-10.7,15.2-10.7s-0.9-1.2-3.9-1.3
			c-2.7,1.7-7.2,4.7-11.3,8C218.1,57.7,215.2,58.7,215.2,58.7z"/>
	</g>
</g>
</svg>
