<?xml version="1.0" encoding="utf-8"?>
<!-- Generator: Adobe Illustrator 19.0.0, SVG Export Plug-In . SVG Version: 6.00 Build 0)  -->
<svg version="1.1" id="Layer_1" xmlns="http://www.w3.org/2000/svg" xmlns:xlink="http://www.w3.org/1999/xlink" x="0px" y="0px"
	 viewBox="-167.5 345.7 143.8 149.3" style="enable-background:new -167.5 345.7 143.8 149.3;" xml:space="preserve">
<style type="text/css">
	.st0{fill:#020000;stroke:#000000;stroke-width:1.5;stroke-miterlimit:10;}
	.st1{fill:#7D7D7D;}
	.st2{fill:#090000;stroke:#000000;stroke-width:1.5;stroke-miterlimit:10;}
	.st3{fill:#0A0000;stroke:#000000;stroke-width:1.5;stroke-miterlimit:10;}
	.st4{fill:#780000;}
	.st5{fill:none;stroke:#000000;stroke-width:1.5;stroke-miterlimit:10;}
	.st6{fill:#010000;stroke:#000000;stroke-width:1.5;stroke-miterlimit:10;}
	.st7{fill:#060000;stroke:#000000;stroke-width:1.5;stroke-miterlimit:10;}
	.st8{fill:#FFFFFF;}
</style>
<g id="_x23_ff0000ff">
</g>
<g id="_x23_a90000ff">
</g>
<g id="_x23_020000ff">
	<path class="st0" d="M-131.4,351.6c3.9,1.2,5.4-3.8,9-4c2-0.5,4,0.3,5.9,0.8c-2.3,0.1-4.6,0.1-6.9,0.1c-0.7,0.7-1.5,1.4-2.2,2.1
		c0.8,10,0.1,21.8-7.8,29C-129.8,370.7-128,360.7-131.4,351.6z"/>
	<path class="st0" d="M-115.3,351.4c1.4-0.5,2.8-1.1,4.2-1.6c3.5,10.1-1.4,21.3-9.2,27.8C-116.7,369.5-112.7,360.5-115.3,351.4z"/>
	<path class="st0" d="M-147.2,351.2c2.1,0.9,4.1,0.9,5.5-1.1c4.3,8.1,3.6,19-2,26.3c0.6-4.4,1.9-8.9,1.2-13.4
		C-143.1,358.7-145.3,354.9-147.2,351.2z"/>
</g>
<g id="_x23_7d7d7dff">
	<path class="st1" d="M-141,349.5c3.2-0.1,8.6-2.3,9.6,2.1c3.4,9.1,1.6,19.1-2,27.9c8-7.1,8.6-19,7.8-29c0.8-0.7,1.5-1.4,2.2-2.1
		c2.3,0,4.6,0,6.9-0.1c0.4,1,0.8,2.1,1.2,3.1c2.6,9.1-1.4,18.1-5.1,26.2c7.9-6.6,12.7-17.8,9.2-27.8c4-0.3,11-0.9,11.5,4.5
		c2.3,8.5-2.3,16.4-6.3,23.5c5.3-3.4,9.7-8.5,11.1-14.7c1.1-3.6,0.4-7.3,1-10.9c2.9,0,5.9,0.5,8.2,2.3c1,1.6,1.4,3.5,1.9,5.2
		c0.6,7.4-3.1,14-6.9,20c7.2-3.8,12.7-11.1,13.3-19.3c0-0.6,0.1-1.9,0.1-2.5c0.4,0.1,1.3,0.2,1.7,0.2c2.8,2.3,6.8,4.2,8.1,7.8
		c-1,7.8-7.5,13.2-12.3,18.9c7.8-2.5,14.1-8.9,16.4-16.8c1.8,1.9,3.9,3.6,5.2,5.9c-0.3,7.5-6.8,12.2-12.1,16.5
		c7-1.5,12.1-7.1,16.2-12.7c7.4,8.8,14.9,17.7,20.1,28.1c4.8,9.3,7.1,19.6,7.4,30c0.4,14.1-1.9,28.2-4.3,42
		c-0.6,4.4-2.2,8.8-1.7,13.3c-1,0.5-1.9,1.1-2.8,1.7l0.3-1c0.6-7.8-1.8-15.6-3.9-23.1c-5.3-16.6-15.1-33.1-31.2-41.2
		c1.8-8.8,0.9-18.6-4.6-26c-8.2-11.5-22.7-16.2-36.2-17.5c-8-1-15.2,4.2-23.1,3.3c-7.1-0.7-13.9-3.3-20.3-6.4
		c1.6-5.5,2.8-11.4,1.8-17.1c-0.6-3.7-2.5-6.9-4.3-10.1c2.5-1.3,5.1-2.6,7.9-3.2c0.4,0.1,1.3,0.4,1.8,0.5c1.9,3.7,4.1,7.5,4.6,11.7
		c0.7,4.5-0.6,9-1.2,13.4c5.7-7.3,6.3-18.2,2-26.3C-141.5,349.9-141.2,349.6-141,349.5z"/>
	<path class="st1" d="M-162.5,424c-3.4-13.3-0.8-27.5,5.5-39.5c1.8,3.8,4,7.5,7.1,10.6c-6.6,9.8-8.6,22.3-6.9,33.9
		c1.2,6,3.6,12.8,8.9,16.3c1.9-0.2-0.7-1.5-1-2.3c-5.9-6-6.8-15-6.7-23c0.6-8.2,1.8-16.9,6.7-23.7c22,11.9,44.1,23.6,66.1,35.6
		c-1.7,2.9-1.8,6.3-1.2,9.5c-4.3,0.1-8.9-0.1-12.9,1.6c-5.2,2.2-9.6,5.8-14,9.2c1.4,2.2,3.9,3.1,6.3,3.9c-7.2,6.3-14.9,12-22.2,18.1
		c-1.1,0.8-2,2-3.4,1.9c-0.3-2.7,1.6-4.9,2.1-7.5c2.7-9.7,2.9-21.2-3.7-29.4c7.4-2.8,13.4-7.8,19.2-13c1-0.9,1.5-2.2,2.2-3.4
		c-2.5-0.6-5.1-1-7.6-0.7c-9.4,0.9-19,3.2-26.7,8.9c-4.1,3.4-3,9.6-0.5,13.7l-0.1,0.6c-0.3,0.3-0.8,0.7-1.1,1l-0.5,0.6
		c-0.3,0.4-0.8,0.4-1.2,0.1C-155.7,441.5-160.4,433-162.5,424z"/>
	<path class="st1" d="M-154.3,384.4c7.6,2.3,15.2,5.5,23.3,5.2c6.2,0.1,11.8-3.3,18-3.3c7-0.1,13.6,2.3,20.1,4.7
		c1.5,0.6,3.3,1.1,3.9,2.8c6.1,2.4,11.6,6.7,14.6,12.7c3.2,6.4,3.8,13.9,2.3,20.8c-3-0.6-6,0.1-8.6,1.7c0.2-8.6,1.8-18-2.3-26
		c-1.8-3.9-5.5-6.5-8.7-9.2l-0.5-0.6c-2.2-1.8-5.1-1.8-7.8-2.4c-7.7-0.9-15.6-0.5-22.9,2.3c-6.4,2.4-13.2,4.1-20,3.4
		C-148.1,394.1-152.1,389.5-154.3,384.4z"/>
	<path class="st1" d="M-141.2,397.4c9.9,0.8,18.7-4.9,28.3-6.2c4.9-0.2,10-0.3,14.8,1.2c2.1,0.7,4.2,1.2,6.3,1.5
		c2.7,2.7,6,4.9,7.7,8.4c4.6,8.4,3.8,18.5,2.4,27.6c-17.4-9.4-34.8-18.8-52.1-28.2C-136.4,400.4-139,399.2-141.2,397.4z"/>
</g>
<g id="_x23_090000ff">
	<path class="st2" d="M-83.6,359.7c0.6,1.6,1.3,3.2,2,4.8c1.4-1.4,2.9-2.8,4.4-4.1c-0.6,8.2-6.1,15.5-13.3,19.3
		C-86.7,373.7-83.1,367.1-83.6,359.7z"/>
</g>
<g id="_x23_0a0000ff">
	<path class="st3" d="M-144.8,431.1c7.7-5.7,17.3-8.1,26.7-8.9c2.6-0.4,5.2,0,7.6,0.7c-0.6,1.2-1.2,2.4-2.2,3.4
		c-5.8,5.2-11.9,10.2-19.2,13l-0.6-1c2.4-2.7,5.8-4.2,8.9-6c3-1.4,5.7-3.6,6.6-6.9c-4.8-0.3-9.7-0.2-14.3,1.4
		c-5.3,1.7-11.4,3.8-14,9.1c-0.5,2.8-0.1,5.6,0.1,8.4l-0.1,0.6C-147.8,440.7-148.9,434.5-144.8,431.1z"/>
</g>
<g id="_x23_780000ff">
	<path class="st4" d="M-145,448.3c0.1-0.1,0.4-0.3,0.5-0.4C-144.7,448-144.9,448.2-145,448.3z"/>
</g>
<g>
	<path class="st5" d="M-112.9,391.2c-9.6,1.3-18.3,7-28.3,6.2c2.2,1.8,4.8,3,7.4,4.3c17.4,9.4,34.8,18.8,52.1,28.2
		c1.5-9.1,2.3-19.3-2.4-27.6c-1.8-3.5-5.1-5.7-7.7-8.4c-2.2-0.3-4.3-0.8-6.3-1.5C-102.9,390.8-108,390.9-112.9,391.2z"/>
	<path class="st5" d="M-89.1,393.8c-0.6-1.7-2.4-2.2-3.9-2.8c-6.4-2.4-13.1-4.9-20.1-4.7c-6.2,0-11.8,3.3-18,3.3
		c-8.1,0.3-15.7-2.9-23.3-5.2c2.2,5.2,6.3,9.8,11.4,12.2c6.9,0.6,13.6-1,20-3.4c7.3-2.7,15.2-3.2,22.9-2.3c2.6,0.5,5.6,0.6,7.8,2.4
		l0.5,0.6c3.3,2.7,6.9,5.3,8.7,9.2c4.1,8,2.5,17.3,2.3,26c2.6-1.6,5.6-2.3,8.6-1.7c1.4-7,0.8-14.4-2.3-20.8
		C-77.4,400.5-83,396.2-89.1,393.8z"/>
	<path class="st5" d="M-77.2,359c0,0.5-0.1,1.1-0.1,1.4c-1.5,1.3-3,2.7-4.4,4.1c-0.7-1.6-1.4-3.2-2-4.8c-0.5-1.7-0.9-3.5-1.8-5
		c-0.1-0.1-0.2-0.3-0.3-0.4c-2-1.5-4.6-2-7.1-2.1c-0.5,0-1,0.4-1.1,0.9c-0.3,3.3,0.1,6.7-0.9,10c-1.4,6.2-5.8,11.3-11,14.7
		c0,0,0,0,0,0c3.9-7.2,8.5-15,6.2-23.5c-0.5-5.4-7.4-4.8-11.4-4.5c-0.1,0-0.2,0-0.2,0c-1.4,0.5-2.7,1-4.1,1.6c0,0,0,0,0,0
		c-0.3-0.9-0.6-1.8-1-2.6c-0.1-0.3-0.4-0.5-0.7-0.6c-1.8-0.5-3.6-1.1-5.4-0.7c-3.6,0.3-5.1,5.2-9,4.1c0,0,0,0,0,0
		c-1-4.2-5.9-2.5-9.1-2.1c-0.4,0.2-1,0.6-1.4,0.8c-1.4,1.9-3.4,1.8-5.5,0.9c-0.9-0.1-1.7-0.2-2.6-0.2c-2.1,0.6-4.1,1.5-6,2.5
		c-0.5,0.3-0.7,0.9-0.4,1.4c1.6,2.9,3.2,5.9,3.8,9.2c0.9,5.5-0.1,11-1.6,16.3c-0.1,0.5,0.1,1,0.5,1.2c6.2,2.9,12.7,5.4,19.5,6
		c8,0.9,15.2-4.3,23.2-3.3c13.5,1.3,28,6,36.2,17.5c5.3,7.2,6.3,16.6,4.7,25.2c-0.1,0.4,0.1,0.9,0.5,1.1
		c15.7,8.2,25.3,24.5,30.6,40.9c2.1,7.5,4.5,15.3,3.9,23.1v0.8c0.8-0.6,1.7-1.1,2.5-1.5c-0.5-4.5,1.1-8.9,1.7-13.3
		c2.3-13.9,4.7-27.9,4.3-42c-0.3-10.4-2.6-20.8-7.4-30c-5.2-10.4-12.7-19.3-20.1-28.1c-4.1,5.6-9.2,11.2-16.2,12.7
		c5.3-4.3,11.9-9,12.2-16.5c-1.2-2.3-3.4-4-5.2-5.9c-2.3,7.8-8.6,14.3-16.4,16.8c4.8-5.7,11.3-11.1,12.3-18.9
		c-1.2-3.6-5.3-5.4-8.1-7.8c-0.2,0-0.4-0.1-0.6-0.1C-76.6,358-77.1,358.4-77.2,359z"/>
	<path class="st6" d="M-26.4,421.7c-3.2-15.6-12.6-28.9-22.7-40.9c-1.7-2.1-4.4-2.8-6.5-4.4c-1.3-2-1.8-4.6-3.5-6.4
		c-1.7-1.4-4-2-5.8-3.2c-1.9-2.7-3.6-6.5-6.7-8c-0.1,0-0.2,0-0.3-0.1c-0.3-0.1-0.6-0.2-0.9-0.3c-0.4-0.1-0.9-0.2-1.4-0.2l-1.1-0.1
		c2.8,2.3,6.9,4.2,8.1,7.8c-1,7.8-7.5,13.2-12.3,18.9c7.8-2.5,14.1-8.9,16.4-16.8c1.8,1.9,3.9,3.6,5.2,5.9
		c-0.3,7.5-6.8,12.2-12.2,16.5c7-1.5,12.2-7.1,16.2-12.7c7.4,8.8,14.9,17.7,20.1,28.1c4.8,9.3,7.1,19.6,7.4,30
		c0.4,14.1-1.9,28.2-4.3,42c-0.6,4.4-2.2,8.8-1.7,13.3c0.3,0.2,0.8,0.6,1.1,0.8c-1-2.1,5.5-33.3,6.8-47.1
		C-24.2,437.1-25,429.3-26.4,421.7z"/>
	<path class="st7" d="M-35,491.6v0.4c0.6-7.8-1.8-15.6-3.9-23.1c-5.2-16.4-14.9-32.7-30.6-40.9c-0.4-0.2-0.6-0.6-0.5-1.1
		c1.6-8.6,0.6-18-4.7-25.2c-8.2-11.5-22.7-16.2-36.2-17.5c-8-1-15.2,4.2-23.2,3.3c-6.8-0.7-13.4-3.1-19.5-6
		c-0.4-0.2-0.7-0.7-0.5-1.2c1.5-5.3,2.5-10.8,1.6-16.3c-0.6-3.3-2.2-6.3-3.8-9.2c-0.3-0.5-0.1-1.2,0.4-1.4c1.9-1,3.9-1.9,6-2.5
		c0.9,0.1,1.7,0.2,2.6,0.2c2,0.9,4,1,5.5-0.9c0.4-0.2,1-0.6,1.4-0.8c3.2-0.3,8.1-2,9.1,2.1c0,0,0,0,0,0c3.9,1.2,5.4-3.8,9-4.1
		c1.8-0.4,3.6,0.2,5.4,0.7c0.3,0.1,0.6,0.3,0.7,0.6c0.3,0.9,0.7,1.7,1,2.6c0,0,0,0,0,0c1.3-0.5,2.7-1.1,4.1-1.6c0.1,0,0.1,0,0.2,0
		c4-0.3,10.9-0.9,11.4,4.5c2.3,8.5-2.3,16.3-6.2,23.5c0,0,0,0,0,0c5.3-3.4,9.6-8.5,11-14.7c1-3.2,0.5-6.7,0.9-10
		c0.1-0.5,0.5-0.9,1.1-0.9c2.5,0.1,5,0.6,7.1,2.1c0.1,0.1,0.2,0.2,0.3,0.4c0.9,1.5,1.3,3.3,1.8,5c0.6,1.6,1.3,3.2,2,4.8
		c1.4-1.4,2.9-2.8,4.4-4.1c0-0.3,0-0.9,0.1-1.4c0-0.6,0.6-1.1,1.2-1c0.2,0,0.4,0.1,0.6,0.1l1.1,0.1l0-0.2c-0.1,0-0.1-0.1-0.2-0.1
		c-0.5-0.2-1.1-0.4-1.6-0.5l-0.9,0c-0.3,0-0.5,0.1-0.7,0.3c-0.3,0.3-0.6,0.6-1,0.9c-1.4-0.3-2-0.4-3.4-0.6c-1.3-2.6-2.8-5.1-5.5-6.4
		c-0.1,0-0.2-0.1-0.3-0.1c-3-0.7-6,0-8.9,0.8c-0.2,0.1-0.4,0.1-0.5,0c-2.6-0.7-3.9-4-6.8-4c-2.9-0.2-5.8-0.3-8.5,0.8
		c-0.3,0.1-0.7,0.1-1-0.1c-4-2.7-9.8-4-13.8-0.6c-1.4,1.7-3.3,0.7-4.9-0.2c-2.3-1.5-5.1-1-7.7-0.9c-0.2,0-0.4,0.1-0.6,0.2
		c-1.1,0.9-2.1,1.7-3.3,2.5c-0.1,0.1-0.3,0.1-0.4,0.2c-2.5,0.4-4.9-1.3-7.4-0.9c-2.6,0.4-4.6,2-6.6,3.6c-0.2,0.2-0.4,0.5-0.4,0.7
		c-0.1,2.6,0.3,5.1,1.6,7.4c3.1,6.2,0.8,13,0.3,19.5c0,0.2-0.1,0.3-0.2,0.4c-1.6,2-3.8,4.9-5.7,8.9c-6,12.6-4.1,24.6-3,31.5
		c1.1,6.7,2.2,13.6,7.6,20.1c2.4,2.9,5,4.9,6.9,6.2c0.5,0.3,1.6,1,3.3,1.1c1.3,0,2.3-0.4,2.8-0.6c0.1-0.1,0.4-0.3,0.5-0.4l0.2-0.8
		c0-0.2-0.5-2.1-0.8-2.9l-0.1,0.6l-0.1,0.6c-0.3,0.2-0.8,0.7-1,0.9c0,0-0.1,0.1-0.1,0.1l-0.3,0.3c-0.4,0.5-1.2,0.6-1.7,0.2
		c-7.2-5.6-11.9-14.1-13.9-23c-3.2-12.6-1.1-26.1,4.6-37.7c0.4-0.8,1.5-0.8,1.9,0c1.5,2.9,3.3,5.7,5.6,8.1c0.3,0.3,0.4,0.9,0.1,1.3
		c-6.2,9.7-8.1,21.9-6.5,33.2c0,0,0,0.1,0,0.1c1.2,6,3.6,12.7,8.9,16.2c1.9-0.2-0.7-1.5-1-2.3c-5.9-6-6.8-15-6.7-23
		c0.5-7.9,1.7-16.2,6.2-23c0.3-0.4,0.9-0.6,1.4-0.3c21.4,11.6,43,23,64.4,34.7c0.5,0.3,0.7,0.8,0.5,1.3c-1.1,2.4-1.3,5-1,7.6
		c0.1,0.6-0.4,1.2-1,1.2c-4,0-8,0-11.7,1.6c-5.2,2.2-9.6,5.8-14,9.2c1.1,1.7,2.8,2.6,4.6,3.3c0.7,0.3,0.9,1.3,0.3,1.8
		c-6.8,5.8-14,11.2-20.9,17c-0.6,0.4-1.1,1-1.7,1.4c-0.8,0.5-1.8-0.1-1.6-1c0.4-2,1.7-3.9,2.1-5.9c2.6-9.7,2.9-21.1-3.7-29.3
		c0,0,0,0-0.1-0.1l-0.6-1c-1.9,1.9-0.3,4.6,0.4,6.7c0,0,0,0.1,0,0.1c3.8,7.7,2.9,16.7,0.7,24.7c0,0.1,0,0.1-0.1,0.2
		c-0.4,0.8-0.8,2.1-1,3.7c-0.1,1.2,0,2.2,0.2,3c0.1,0.3,0.3,0.6,0.6,0.7c0.3,0.1,0.6,0.2,1,0.3c1.2,0.2,2.2,0,2.8-0.2
		c0.1,0,0.1-0.1,0.2-0.1c6.5-4.7,12.6-10,19-14.9c1.9-1.5,3.7-3.5,4-6c0-0.2,0-0.4-0.1-0.5c-0.4-0.9-1-1.7-1.6-2.4
		c-0.2-0.3-0.3-0.7-0.1-1c1.5-3.2,5.1-4.3,8.1-5.9c4.5-2.5,9.8-2,14.7-3.4c0.4-0.1,0.7-0.5,0.7-0.9c0.2-3.1,0.3-6.3,1.8-9.2
		c0-0.1,0.1-0.1,0.1-0.2c2.1-2.9,6.5-4.1,9.7-2.3c12.2,6.1,20.4,17.8,25.8,30c3.9,8.8,8.2,27,9,30.4c0,0.2,0.1,0.3,0.2,0.4l-0.1-0.3
		L-35,491.6z M-72.2,427.3c-3-0.6-6,0.1-8.6,1.7c0.2-8.6,1.8-18-2.3-26c-1.9-3.9-5.5-6.5-8.7-9.2c2.7,2.7,6,4.9,7.7,8.4
		c4.6,8.4,3.8,18.5,2.4,27.6c-17.4-9.4-34.8-18.8-52.1-28.2c-2.5-1.3-5.1-2.5-7.4-4.3c10,0.8,18.7-4.9,28.3-6.2
		c4.9-0.2,10-0.3,14.8,1.2c2.1,0.7,4.2,1.2,6.3,1.5l-0.5-0.6c-2.2-1.8-5.1-1.8-7.8-2.4c-7.7-0.9-15.6-0.5-22.9,2.3
		c-6.4,2.4-13.1,4.1-20,3.4c-5.1-2.5-9.2-7-11.4-12.2c7.6,2.3,15.2,5.5,23.3,5.2c6.2,0.1,11.8-3.3,18-3.3c7-0.2,13.6,2.3,20.1,4.7
		c1.5,0.6,3.3,1.1,3.9,2.8c6.1,2.4,11.7,6.7,14.6,12.7C-71.3,412.9-70.7,420.3-72.2,427.3z"/>
	<path class="st7" d="M-35,492.8v1.3h-0.6c1.7,0.1,3.4-0.3,4.4-1.8l-0.1-0.3c-0.3-0.2-0.9-0.6-1.1-0.8
		C-33.4,491.7-34.2,492.2-35,492.8z"/>
	<polygon class="st7" points="-35,492.8 -35,492 -35,491.6 -36.4,491.1 -36.3,491.4 -35.7,494.1 -35,494.1 	"/>
</g>
<path class="st8" d="M-30.7,491.1c0,0.3,0,0.8-0.1,1.4c-0.1,0.5-0.3,0.9-0.5,1.2c0.6,0.4,1.2,0.9,1.8,1.3l1.4-1.4
	C-28.9,492.7-29.8,491.9-30.7,491.1z"/>
</svg>
