<?xml version="1.0" encoding="utf-8"?>
<!-- Generator: Adobe Illustrator 23.0.3, SVG Export Plug-In . SVG Version: 6.00 Build 0)  -->
<svg version="1.1" id="Layer_1" xmlns="http://www.w3.org/2000/svg" xmlns:xlink="http://www.w3.org/1999/xlink" x="0px" y="0px"
	 viewBox="0 0 756.4 756.4" style="enable-background:new 0 0 756.4 756.4;" xml:space="preserve">
<g>
	<polygon points="376.2,166.1 343.6,582.6 414.8,582.6 	"/>
	<polygon points="415.8,255.9 444.5,551.7 735.3,138.2 475.1,388.4 	"/>
	<polygon points="342.6,256.6 314,552.4 24,138.9 283.4,389.2 	"/>
	<g>
		<path d="M711.7,204.8l-47,66.8c12.4,33.2,19.2,69.2,19.2,106.7c0,168.6-136.6,305.2-305.2,305.2S73.5,546.9,73.5,378.3
			c0-38.3,7.1-74.9,19.9-108.7l-46.7-66.8C19,255.2,3.2,314.9,3.2,378.3c0,207.3,168.1,375.4,375.4,375.4s375.4-168.1,375.4-375.4
			C754.1,315.7,738.8,256.7,711.7,204.8z"/>
		<path d="M123.4,211.1C177.9,128,271.9,73.1,378.7,73.1c107.2,0,201.5,55.3,255.9,138.9l51.4-49.4C618,66,505.7,2.9,378.7,2.9
			c-126.6,0-238.5,62.6-306.5,158.6L123.4,211.1z"/>
	</g>
</g>
</svg>
