<svg id="Layer_1" enable-background="new 0 0 128 128" height="512" viewBox="0 0 128 128" width="512" xmlns="http://www.w3.org/2000/svg"><path d="m116 28.2h-104c-3.7 0-6.7 3-6.8 6.8v58c0 3.7 3 6.7 6.8 6.8h104c3.7 0 6.7-3 6.8-6.8v-58c-.1-3.7-3.1-6.7-6.8-6.8zm-56 32.9c.3.5.9.7 1.4.7h13.8l-12.5 34.4h-4.6l10.1-27.7c.3-.9-.1-1.9-1-2.2-.2-.1-.4-.1-.6-.1h-13.8l12.5-34.4h4.6l-10.1 27.7c-.2.5-.1 1.1.2 1.6zm-51.2 31.9v-58c0-1.8 1.5-3.2 3.3-3.3h49.6l-13.1 35.6c-.3.9.1 1.9 1 2.2.2.1.4.1.6.1h13.8l-9.7 26.6h-42.3c-1.8 0-3.2-1.4-3.2-3.2zm110.5 0c0 1.8-1.5 3.2-3.3 3.3h-49.6l12.9-35.6c.3-.9-.1-1.9-1-2.2-.2-.1-.4-.1-.6-.1h-13.8l9.7-26.6h42.4c1.8 0 3.2 1.5 3.3 3.3z"/><g><path d="m31.4 77.8c-.7 0-1.4-.5-1.6-1.1l-9-24.1c-.3-.9.1-1.9 1-2.3.9-.3 1.9.1 2.3 1l7.3 19.7 7.4-19.7c.3-.9 1.3-1.4 2.3-1 .9.3 1.4 1.3 1 2.3l-9 24.1c-.3.6-1 1.1-1.7 1.1z"/></g><g><path d="m99.2 77.8h-6c-1 0-1.8-.8-1.8-1.8s.8-1.8 1.8-1.8h6c2.4 0 4.3-1.9 4.3-4.3s-1.9-4.3-4.3-4.3c-4.3 0-7.8-3.5-7.8-7.8s3.5-7.8 7.8-7.8h6c1 0 1.8.8 1.8 1.8s-.8 1.8-1.8 1.8h-6c-2.4 0-4.3 1.9-4.3 4.3s1.9 4.3 4.3 4.3c4.3 0 7.8 3.5 7.8 7.8-.1 4.3-3.5 7.8-7.8 7.8z"/></g></svg>